<?xml version="1.0" encoding="utf-8"?>
<!-- Generator: Adobe Illustrator 30.2.1, SVG Export Plug-In . SVG Version: 9.03 Build 0)  -->
<svg version="1.0" id="Capa_1" xmlns="http://www.w3.org/2000/svg" xmlns:xlink="http://www.w3.org/1999/xlink" x="0px" y="0px"
	 viewBox="0 0 249 58" style="enable-background:new 0 0 249 58;" xml:space="preserve">
<style type="text/css">
	.st0{fill:#F0EFEC;}
</style>
<g>
	<path class="st0" d="M3.1,52.7c-3.5-1.8-4.1-5.4-1.5-11c2.5-5.8,7-11.2,12.7-15.3c3.7-2.7,5.3-3.2,11.8-3.2c6.3,0,7.7,0.3,9,2.3
		c1.5,2.1,1.3,3.2-1.5,11.8c-1.8,5.2-3.2,9.6-3.2,9.8c0,0.2,1.6,0.3,3.7,0.3c3.6,0,4-0.4,10.2-11.5c6.5-11.8,9.4-14.5,12.9-11.6
		c0.8,0.7,2.1,5.1,2.7,9.7s1.4,8.7,1.8,8.9c0.2,0.2,1.8-2.2,3.4-5.4c5.5-11,8-14.2,10.9-14.2c3.7,0,4.3,1.3,5.5,13.2l1.1,10.4h3.2
		c2.9,0,3.4-0.5,5.1-5.5l1.9-5.5l9.7-0.3c8.5-0.2,9.6-0.1,8.9,1.4c-0.3,1-0.7,2.3-0.7,2.9c0,0.5-2.9,1-6.5,1h-6.4l-1.4,4.9
		C94.5,52,91.8,54,85,54c-7.3,0-9.6-1.4-9.6-5.9c0-2-0.3-6-0.7-8.9L74,34l-4.6,8.5c-6,11-7.4,12.3-10.8,10.8c-2.2-1.1-3-2.5-4-8.4
		C54,41,53.4,37,53.4,35.8c-0.1-2-0.1-2-1.8,0.1c-1,1.2-3.4,5.5-5.4,9.4c-2.1,4.1-4.5,7.6-5.5,8c-2.9,1.1-13.6,0.8-16-0.4
		c-2.9-1.5-2.6-3.5,1.2-14.1l3.3-9h-4.4c-3.7,0-5.3,0.8-9.4,4.6c-5.3,4.9-8.7,10.1-7.6,11.9c0.3,0.7,3,1.1,5.7,1.1
		c4.6,0,4.9,0.2,4.3,2.5c-0.3,1.3-0.7,2.7-0.7,3.3C17.2,54.4,6,54,3.1,52.7L3.1,52.7z"/>
	<path class="st0" d="M97.4,53.6c0-0.3,0.4-1.8,1.1-3.3c1-2.7,1.4-2.9,10.3-2.9h9.2l4.5-4.6c2.4-2.6,4.5-5.2,4.5-5.6
		c0-0.5-1-2.4-2.3-4.2l-2.2-3.2h-15.4c-8.4,0-15.3-0.2-15.3-0.4c0-0.3,0.4-1.8,1.1-3.3l1.1-2.9h14.2c12.9,0,19.8,1.1,19.9,3.2
		c0.1,0.3,1.1,1.9,2.2,3.3l2.2,2.5l4.9-4.5c4.5-4.2,5.4-4.5,11-4.5c3.3,0,6,0.2,6,0.4c0,0.3-0.4,1.8-1.1,3.3
		c-0.9,2.4-1.8,2.9-5.3,2.9s-4.9,0.8-7.7,3.8c-2,2.1-3.5,4.1-3.5,4.5c0,0.3,1.5,2.6,3.4,4.9c3,3.8,4,4.3,8.1,4.3h4.8l-1.1,3.3
		c-1.1,3-1.6,3.3-5.8,3.3c-5.4,0-8.4-1.9-11.6-7.1l-2.4-4l-5.8,5.6l-5.9,5.5H109C102.6,54,97.4,53.8,97.4,53.6L97.4,53.6z"/>
	<path class="st0" d="M160.9,52.8c-2.6-1.5-2.4-5.2,0.8-13.7c1.5-4,2.7-7.7,2.7-8.2c0-0.5-1.8-1-4-1c-3.6,0-4-0.2-3.3-2.4
		c0.3-1.4,0.7-2.9,0.7-3.3c0-1.5,12.9-1,14.2,0.5c0.9,1.2,0.3,4-2.1,11.2c-1.9,5.4-3.3,10.1-3.3,10.7c0,0.4,1.8,0.9,3.8,0.9
		c5.2,0,7.5-3.8,14.5-24.2c5.5-15.6,5.6-15.9,9-16.3c1.9-0.2,3.4,0.1,3.4,0.8c0,0.5-1.5,5.2-3.3,10.1l-3.3,9l2.6-1.9
		c3.5-2.3,15.2-2.4,17-0.2c1.1,1.2,0.7,3.6-2,11.1c-1.9,5.3-3.4,10-3.4,10.5s1.4,1,3.3,1c2.9,0,4-1.1,9.6-9.6
		c8.5-12.7,11.3-14.6,22.4-14.6c4.8,0,8.7,0.2,8.7,0.4c0,0.3-0.4,1.8-1.1,3.3c-1,2.6-1.5,2.9-8.1,2.9c-5.9,0-7.6,0.4-10.4,2.7
		c-4.8,4.1-5.2,6.6-1.8,11c2.6,3.6,3.3,3.8,9.3,3.8h6.4l-1.2,3.4c-1.3,3.4-1.3,3.4-8.4,3c-6.4-0.4-7.4-0.8-10-4l-3-3.6l-4,4
		c-3.4,3.4-4.5,3.8-9.6,3.8c-10.7,0-11.8-2.4-7.1-14.7c1.5-4.1,2.7-7.8,2.7-8.4c0-2-7.4-1.1-10.2,1.1c-1.5,1.2-4.4,5.1-6.4,8.6
		c-2,3.4-4.7,7.9-6.2,9.9c-2.5,3.4-3,3.5-10,3.5C166,54,161.9,53.4,160.9,52.8L160.9,52.8z"/>
	<path class="st0" d="M166.3,15.8c-2.5-2.7-2.3-6,0.3-8.5c5.1-4.5,12.7,3.2,8.2,8.2C172.3,18.3,168.6,18.4,166.3,15.8z"/>
</g>
</svg>
