<?xml version="1.0" encoding="UTF-8"?>
<svg id="Capa_2" data-name="Capa 2" xmlns="http://www.w3.org/2000/svg" viewBox="0 0 174.48 162.35">
  <g id="Layer_1" data-name="Layer 1">
    <g>
      <path d="M41.52.04c2.53,0,4.9,0,7.27,0,5.7,0,11.39.01,17.09-.02.64,0,1.01.2,1.38.72,6.05,8.38,12.13,16.74,18.21,25.09.45.61.95,1.19,1.41,1.79.39.51.68.49,1.07-.05,1.51-2.14,3.06-4.25,4.6-6.37,4.94-6.82,9.89-13.63,14.82-20.46.39-.54.81-.72,1.47-.72,7.64.02,15.28.01,22.93.02.32,0,.76-.18.93.19.14.31-.17.6-.37.88-10.32,14.36-20.63,28.73-30.95,43.1-1.41,1.96-1.37,2.29.11,4.18,2.45,3.12,4.85,6.29,7.31,9.41.54.69.14,1.37.09,2.01-.2,2.43-.52,4.85-.78,7.27-.45,4.21-.9,8.42-1.33,12.63-.37,3.58-.71,7.16-1.06,10.74-.03.29.07.69-.32.78-.38.09-.36-.36-.53-.56-1.67-2.01-3.04-4.23-4.52-6.37-2.22-3.2-4.36-6.47-6.54-9.7-1.74-2.58-3.49-5.16-5.24-7.75-.06-.09-.15-.17-.22-.25-1.04-1.22-1.31-1.2-2.2.13-2.38,3.52-4.76,7.03-7.13,10.55-2.25,3.34-4.45,6.71-6.73,10.03-.94,1.37-1.91,2.75-3.12,3.97-.53-.89-.35-1.84-.46-2.73-.47-4.08-.82-8.17-1.25-12.25-.31-2.93-.68-5.85-.99-8.78-.31-2.93-.57-5.86-.87-8.79-.05-.47.1-.8.37-1.15,2.76-3.56,5.49-7.15,8.27-10.7.42-.53.3-.85-.03-1.3-5.5-7.63-10.98-15.26-16.47-22.9-5.16-7.18-10.31-14.37-15.46-21.55-.23-.32-.44-.64-.75-1.1Z"/>
      <path d="M41.96,11.44c-.14-1.56-.28-3.12-.43-4.89.94.84,1.44,1.74,2.05,2.54,5.28,7.02,10.53,14.06,15.81,21.08.63.83.42,1.79.52,2.69.45,3.77.82,7.55,1.21,11.33.3,2.88.58,5.76.87,8.64.27,2.63.57,5.25.83,7.88.3,3.02.57,6.05.87,9.08.37,3.64.77,7.27,1.14,10.91.35,3.44.68,6.88,1.02,10.32-.35.11-.47-.18-.64-.33-5.82-5.28-11.62-10.57-17.44-15.84-.38-.34-.51-.73-.55-1.18-.19-2.22-.37-4.43-.56-6.65-.26-3-.55-6-.8-8.99-.2-2.36-.36-4.72-.56-7.07-.25-3.03-.53-6.06-.78-9.09-.25-2.95-.5-5.89-.75-8.84-.25-3-.51-6-.76-9.01-.27-3.23-.52-6.45-.78-9.68,0-.9-.01-1.8-.02-2.7,0-.16.02-.38-.25-.19Z"/>
      <path d="M114.01,39.46c.27-2.74.55-5.48.82-8.23.04-.43.2-.8.46-1.15,5.7-7.62,11.39-15.24,17.09-22.86.12-.16.19-.42.54-.42.14,1.21-.12,2.39-.21,3.57-.24,3.14-.51,6.28-.78,9.43-.3,3.53-.62,7.07-.92,10.6-.27,3.11-.51,6.23-.77,9.34-.3,3.51-.62,7.01-.91,10.52-.27,3.25-.52,6.51-.78,9.76-.17,2.1-.36,4.2-.55,6.3-.21,2.38-.46,4.76-.62,7.14-.04.66-.29,1.11-.74,1.5-2.26,2-4.5,4.03-6.73,6.07-2.24,2.05-4.51,4.06-6.71,6.15-1.39,1.31-2.83,2.57-4.33,3.93-.25-.94.03-1.76.1-2.57.32-3.5.7-7,1.06-10.5.33-3.22.63-6.44.96-9.65.31-3.02.65-6.04.97-9.06.31-3.02.61-6.05.92-9.07.04-.36.11-.72.16-1.08.23-.08.26-.27.26-.48.04-1.14.2-2.29.27-3.42.13-1.95.63-3.87.44-5.84Z"/>
    </g>
    <g>
      <polygon points="26.29 102.88 19.96 119.84 13.59 102.88 5.4 102.88 0 134.7 8.23 134.7 10.97 116.38 18.11 134.7 21.4 134.7 28.91 116.38 31.65 134.7 39.88 134.7 34.48 102.88 26.29 102.88"/>
      <path d="M65.93,128.07h-7.39c-.84,1.35-2.1,2.03-3.76,2.03-3.1,0-4.64-1.65-4.64-4.94h16.08v-.8c0-1.88-.27-3.58-.8-5.09-.53-1.5-1.31-2.78-2.32-3.82-1.01-1.04-2.25-1.84-3.71-2.38-1.46-.55-3.11-.82-4.94-.82s-3.52.27-5,.82c-1.48.55-2.74,1.33-3.78,2.34-1.04,1.01-1.84,2.24-2.41,3.69-.56,1.45-.84,3.07-.84,4.87s.3,3.32.89,4.73c.59,1.41,1.43,2.62,2.51,3.63,1.08,1.01,2.38,1.79,3.9,2.34,1.52.55,3.19.82,5.02.82,5.96,0,9.69-2.48,11.18-7.43ZM51.77,118.11c.75-.62,1.71-.93,2.89-.93s2.08.32,2.87.97c.79.65,1.31,1.51,1.56,2.57h-8.74c.2-1.13.67-2,1.41-2.62Z"/>
      <polygon points="96.27 113.05 86.31 113.05 82.51 117.52 78.8 113.05 68.84 113.05 77.62 122.97 66.81 134.7 76.9 134.7 82.47 128.28 88 134.7 98.13 134.7 87.28 122.97 96.27 113.05"/>
      <rect x="101.46" y="102.88" width="8.27" height="31.82"/>
      <polygon points="144.89 134.7 144.89 102.88 136.62 102.88 136.62 115.16 124.68 115.16 124.68 102.88 116.4 102.88 116.4 134.7 124.68 134.7 124.68 121.57 136.62 121.57 136.62 134.7 144.89 134.7"/>
      <path d="M161.23,112.52c.76-.77,1.67-1.39,2.72-1.84,1.06-.45,2.2-.68,3.44-.68,2.81,0,5.18,1.17,7.09,3.5v-9.88c-1.35-.56-2.64-.98-3.86-1.24-1.22-.27-2.47-.4-3.74-.4-2.22,0-4.35.42-6.37,1.25-2.03.83-3.81,1.98-5.34,3.46-1.53,1.48-2.76,3.24-3.67,5.28-.91,2.04-1.37,4.28-1.37,6.73s.46,4.71,1.39,6.77c.93,2.07,2.16,3.86,3.69,5.36,1.53,1.51,3.31,2.67,5.32,3.5,2.01.83,4.12,1.25,6.31,1.25,1.07,0,2.15-.11,3.25-.32,1.1-.21,2.28-.54,3.55-.99l.84-.3v-9.79c-2.11,2.25-4.49,3.38-7.13,3.38-1.21,0-2.34-.22-3.38-.68-1.04-.45-1.95-1.07-2.72-1.86-.77-.79-1.38-1.72-1.82-2.79-.44-1.07-.65-2.24-.65-3.5s.22-2.39.65-3.46c.44-1.07,1.03-1.99,1.79-2.76Z"/>
      <path d="M32.56,155.06c.92-1.09,1.68-2.03,2.29-2.83.6-.8,1.06-1.49,1.38-2.07.62-1.11.93-2.25.93-3.41,0-1.82-.66-3.35-1.99-4.59-1.32-1.23-2.95-1.85-4.89-1.85-4.03,0-6.3,2.25-6.81,6.74h3.21c.31-2.55,1.55-3.83,3.7-3.83,1.03,0,1.9.34,2.6,1.01.7.67,1.05,1.51,1.05,2.5,0,.69-.26,1.47-.79,2.34-.26.44-.63.99-1.13,1.64-.49.65-1.1,1.43-1.83,2.32l-7.41,8.97h14.33v-3.03h-7.95l3.32-3.92Z"/>
      <path d="M69.71,140.31c-2.02,0-3.74.92-5.15,2.75-1.58,2.03-2.38,4.74-2.38,8.14,0,3.57.79,6.38,2.38,8.4,1.44,1.83,3.16,2.75,5.17,2.75s3.72-.92,5.14-2.75c1.58-2.03,2.38-4.78,2.38-8.26s-.79-6.25-2.38-8.28c-1.42-1.83-3.14-2.75-5.15-2.75ZM72.85,157.11c-.83,1.54-1.87,2.31-3.14,2.31s-2.32-.77-3.14-2.31c-.82-1.57-1.23-3.53-1.23-5.9s.41-4.17,1.24-5.69c.83-1.53,1.87-2.29,3.12-2.29s2.31.76,3.14,2.29c.83,1.54,1.24,3.47,1.24,5.8s-.41,4.26-1.24,5.79Z"/>
      <path d="M110.14,155.06c.92-1.09,1.68-2.03,2.29-2.83.6-.8,1.06-1.49,1.38-2.07.62-1.11.93-2.25.93-3.41,0-1.82-.66-3.35-1.99-4.59-1.32-1.23-2.95-1.85-4.89-1.85-4.03,0-6.3,2.25-6.81,6.74h3.21c.31-2.55,1.55-3.83,3.7-3.83,1.03,0,1.9.34,2.6,1.01.7.67,1.05,1.51,1.05,2.5,0,.69-.26,1.47-.79,2.34-.26.44-.63.99-1.13,1.64-.49.65-1.1,1.43-1.83,2.32l-7.41,8.97h14.33v-3.03h-7.95l3.32-3.92Z"/>
      <path d="M152.37,148.52c-.11,0-.26,0-.46.03-.19.02-.43.05-.71.08l5.1-6.94-2.36-1.77-7.46,10.13c-1.39,1.89-2.09,3.68-2.09,5.36,0,1.88.71,3.51,2.14,4.88,1.46,1.37,3.15,2.06,5.09,2.06s3.63-.7,5.02-2.09c1.4-1.4,2.1-3.08,2.1-5.03,0-1.84-.63-3.42-1.88-4.73-1.26-1.33-2.76-1.99-4.49-1.99ZM154.42,158.25c-.78.78-1.73,1.17-2.83,1.17s-2.09-.39-2.87-1.17c-.78-.78-1.17-1.73-1.17-2.85s.39-2.06,1.17-2.85c.78-.78,1.74-1.17,2.86-1.17s2.07.4,2.86,1.19c.78.78,1.17,1.74,1.17,2.87s-.4,2.01-1.19,2.81Z"/>
    </g>
  </g>
</svg>