<?xml version="1.0" encoding="UTF-8"?>
<svg id="Capa_2" data-name="Capa 2" xmlns="http://www.w3.org/2000/svg" viewBox="0 0 858.52 206.87">
  <defs>
    <style>
      .cls-1 {
        fill: #223048;
      }

      .cls-2 {
        fill: #8a174f;
      }
    </style>
  </defs>
  <g id="Layer_1" data-name="Layer 1">
    <g>
      <path class="cls-1" d="M140.6,121.24c-5.13-6.53-10.15-13.14-15.27-19.67-3.09-3.93-3.18-4.62-.23-8.73,21.55-30.03,43.11-60.06,64.68-90.08.41-.57,1.06-1.18.77-1.83-.34-.76-1.27-.39-1.94-.39-15.97-.02-31.95,0-47.92-.04-1.37,0-2.26.38-3.07,1.51-10.3,14.27-20.65,28.51-30.98,42.76-3.21,4.43-6.46,8.84-9.62,13.31-.8,1.13-1.41,1.19-2.23.11-.97-1.26-2.01-2.46-2.94-3.75-12.7-17.47-25.4-34.95-38.06-52.45-.77-1.07-1.54-1.5-2.88-1.49-11.91.06-23.81.03-35.72.03H0c.66.96,1.1,1.65,1.57,2.31,10.77,15.01,21.54,30.03,32.32,45.04,11.46,15.96,22.93,31.92,34.42,47.87.69.96.93,1.62.06,2.73-5.82,7.41-11.52,14.91-17.29,22.36-.57.74-.88,1.43-.78,2.4.63,6.12,1.17,12.25,1.82,18.37.65,6.12,1.43,12.23,2.07,18.35.89,8.53,1.63,17.08,2.61,25.6.21,1.85-.16,3.85.95,5.7,2.54-2.57,4.56-5.43,6.53-8.31,4.76-6.94,9.37-13.99,14.07-20.97,4.95-7.36,9.95-14.7,14.91-22.05,1.87-2.77,2.42-2.82,4.6-.27.15.18.34.33.47.53,3.65,5.39,7.3,10.79,10.94,16.19,4.55,6.76,9.02,13.57,13.66,20.27,3.1,4.47,5.96,9.11,9.45,13.31.34.42.3,1.34,1.11,1.16.82-.19.61-1.03.67-1.63.75-7.48,1.46-14.96,2.23-22.44.9-8.8,1.84-17.6,2.78-26.39.54-5.07,1.22-10.12,1.63-15.2.11-1.35.94-2.77-.19-4.21Z"/>
      <path class="cls-1" d="M46.36,146.29c-.64-6.32-1.19-12.65-1.82-18.97-.55-5.49-1.17-10.98-1.74-16.48-.62-6.02-1.21-12.04-1.83-18.06-.82-7.89-1.59-15.79-2.53-23.67-.22-1.87.21-3.87-1.09-5.61C26.32,48.83,15.35,34.12,4.31,19.45,3.05,17.77,1.99,15.89.03,14.14c.33,3.71.62,6.97.91,10.23.58-.4.52.05.53.39.02,1.88.03,3.77.05,5.65.54,6.74,1.07,13.49,1.63,20.23.52,6.28,1.06,12.55,1.59,18.82.52,6.16,1.03,12.32,1.56,18.47.54,6.33,1.11,12.66,1.64,18.99.41,4.93.75,9.86,1.17,14.78.53,6.27,1.13,12.53,1.68,18.8.4,4.63.76,9.27,1.17,13.9.08.94.36,1.76,1.14,2.47,12.17,11.02,24.3,22.08,36.46,33.11.35.32.61.92,1.33.69-.71-7.2-1.39-14.39-2.12-21.58-.77-7.61-1.61-15.2-2.38-22.81Z"/>
      <path class="cls-1" d="M191.04,14.69c-.73,0-.88.53-1.14.87-11.91,15.92-23.81,31.86-35.73,47.77-.56.74-.88,1.5-.97,2.41-.56,5.73-1.13,11.46-1.7,17.19.39,4.11-.66,8.13-.92,12.2-.15,2.36-.47,4.75-.56,7.14-.02.43-.08.83-.55,1-.11.75-.26,1.51-.33,2.26-.64,6.32-1.26,12.64-1.92,18.96-.66,6.31-1.37,12.62-2.02,18.93-.69,6.72-1.33,13.45-2.02,20.18-.74,7.31-1.54,14.62-2.21,21.94-.15,1.68-.72,3.39-.21,5.37,3.14-2.84,6.15-5.46,9.05-8.21,4.61-4.36,9.35-8.57,14.03-12.85,4.66-4.26,9.34-8.5,14.07-12.68.94-.83,1.45-1.77,1.54-3.14.32-4.98.85-9.95,1.29-14.93.39-4.39.78-8.78,1.14-13.18.56-6.8,1.07-13.6,1.64-20.4.61-7.33,1.28-14.65,1.91-21.98.55-6.51,1.06-13.02,1.62-19.52.63-7.39,1.3-14.77,1.93-22.16.56-6.57,1.11-13.13,1.62-19.7.19-2.48.74-4.95.44-7.46Z"/>
    </g>
    <polygon class="cls-2" points="248.55 71.15 269.32 124.47 278.9 124.47 300.77 71.15 308.76 124.47 332.72 124.47 316.99 31.83 293.15 31.83 274.72 81.22 256.17 31.83 232.33 31.83 216.61 124.47 240.56 124.47 248.55 71.15"/>
    <path class="cls-2" d="M349.98,117.59c3.15,2.95,6.94,5.22,11.37,6.82,4.42,1.6,9.3,2.4,14.62,2.4,17.37,0,28.22-7.21,32.56-21.63h-21.5c-2.46,3.93-6.1,5.9-10.94,5.9-9.01,0-13.52-4.79-13.52-14.38h46.81v-2.33c0-5.49-.78-10.42-2.34-14.81-1.56-4.38-3.81-8.09-6.76-11.12-2.95-3.03-6.55-5.35-10.81-6.94-4.26-1.6-9.05-2.4-14.38-2.4s-10.26.8-14.56,2.4c-4.3,1.6-7.97,3.87-11,6.82-3.03,2.95-5.37,6.53-7,10.75-1.64,4.22-2.46,8.95-2.46,14.19s.86,9.67,2.58,13.76c1.72,4.1,4.16,7.62,7.31,10.57ZM367.31,76.19c2.17-1.8,4.98-2.7,8.42-2.7s6.06.94,8.36,2.83c2.29,1.89,3.81,4.38,4.54,7.5h-25.43c.57-3.28,1.95-5.82,4.12-7.62Z"/>
    <polygon class="cls-2" points="440.48 124.47 456.69 105.8 472.79 124.47 502.28 124.47 470.7 90.32 496.87 61.44 467.88 61.44 456.82 74.47 446.01 61.44 417.01 61.44 442.56 90.32 411.11 124.47 440.48 124.47"/>
    <rect class="cls-2" x="511.99" y="31.83" width="24.08" height="92.65"/>
    <polygon class="cls-2" points="579.56 86.26 614.34 86.26 614.34 124.47 638.42 124.47 638.42 31.83 614.34 31.83 614.34 67.59 579.56 67.59 579.56 31.83 555.48 31.83 555.48 124.47 579.56 124.47 579.56 86.26"/>
    <path class="cls-2" d="M668.46,113.23c4.46,4.38,9.63,7.78,15.48,10.2,5.86,2.42,11.98,3.62,18.37,3.62,3.11,0,6.27-.31,9.46-.92,3.19-.61,6.63-1.58,10.32-2.89l2.46-.86v-28.51c-6.14,6.55-13.07,9.83-20.77,9.83-3.52,0-6.8-.65-9.83-1.97-3.03-1.31-5.67-3.11-7.93-5.41-2.26-2.29-4.01-5-5.28-8.11-1.27-3.11-1.9-6.51-1.9-10.2s.63-6.96,1.9-10.08c1.27-3.11,3.01-5.79,5.22-8.05,2.21-2.25,4.85-4.03,7.92-5.34,3.07-1.31,6.41-1.97,10.01-1.97,8.19,0,15.07,3.4,20.64,10.2v-28.75c-3.93-1.64-7.68-2.84-11.24-3.62-3.56-.78-7.19-1.17-10.87-1.17-6.47,0-12.66,1.21-18.55,3.62-5.9,2.42-11.08,5.77-15.54,10.08-4.47,4.3-8.03,9.42-10.69,15.36-2.66,5.94-3.99,12.47-3.99,19.6s1.35,13.7,4.05,19.72c2.7,6.02,6.29,11.22,10.75,15.6Z"/>
    <path class="cls-1" d="M783,164.13c-60.13-8.16-109.44-20.45-171.13-10.13-54.68,9.15-105.45,37.34-161.1,39.71-48.28,2.05-87.35-13.75-133.09-25.9-33.06-8.78-67.27-13.16-101.08-7.95,19.57.17,38.65.79,57.97,4.76,25.79,5.3,50.61,17.08,75.84,25.02,74.04,23.3,152.19,22.66,226.28,0,20.56-6.29,41.02-15.78,61.69-21.04,69.13-17.57,142.59,9.09,212.57,1.99l7.08-1.58c-25.11.5-50.11-1.5-75.04-4.88Z"/>
    <path class="cls-1" d="M317.01,155.49c-.16,1.39,1.53.75,2.35.79,9.98.48,18.93.82,28.87,2.52,21.02,3.59,41.37,11.4,62.31,15.53,30.39,6,58.97,5.23,89.2-1.57l12.66-3.74c-22.15,1.37-44.28-1.09-66.36-3.99-19.33-2.55-38.58-6.58-57.96-8.74-23.76-2.65-47.27-3.39-71.07-.79Z"/>
    <path class="cls-1" d="M782.55,118.46c-1.18,1.57-2.64,3.42-4.38,5.55l-17.72,21.46h34.29v-7.24h-19.01l7.94-9.39c2.2-2.6,4.03-4.85,5.47-6.76,1.44-1.91,2.54-3.55,3.29-4.94,1.48-2.67,2.21-5.39,2.21-8.17,0-4.36-1.59-8.02-4.76-10.98-3.15-2.95-7.05-4.43-11.7-4.43-9.63,0-15.07,5.38-16.3,16.14h7.67c.75-6.11,3.7-9.16,8.86-9.16,2.47,0,4.54.81,6.22,2.41,1.67,1.61,2.51,3.6,2.51,5.98,0,1.65-.63,3.52-1.88,5.59-.62,1.06-1.52,2.37-2.7,3.93Z"/>
    <path class="cls-1" d="M828.34,141.38c3.48,3.28,7.54,4.93,12.17,4.93s8.67-1.66,12-4.99c3.35-3.35,5.03-7.36,5.03-12.04,0-4.41-1.5-8.18-4.5-11.31-3.02-3.17-6.6-4.76-10.75-4.76-.26,0-.63.02-1.09.07-.46.04-1.02.11-1.69.2l12.2-16.6-5.65-4.23-17.85,24.24c-3.33,4.52-4.99,8.8-4.99,12.83,0,4.5,1.71,8.39,5.12,11.67ZM833.54,122.86c1.87-1.87,4.15-2.81,6.84-2.81s4.95.95,6.84,2.84c1.87,1.87,2.81,4.17,2.81,6.88s-.95,4.82-2.84,6.71c-1.87,1.87-4.13,2.81-6.78,2.81s-5-.94-6.88-2.81c-1.87-1.87-2.81-4.14-2.81-6.81s.94-4.94,2.81-6.81Z"/>
    <path class="cls-2" d="M835.49,18.25c-1.49-3.38-1.66-7.12.59-10.21,3.09,2.65,4.27,6.26,3.21,10.22,7.92-5.41,1.49-14.89-4.88-18.26-3.5,5-7,15.75,1.07,18.25Z"/>
    <path class="cls-2" d="M779.53,18.49c-1.18-2.47-1.51-5.09-.72-7.73.74-2.48,1.04-2.88,2.73-.8,2.03,2.5,2.58,5.46,1.57,8.53,2.19-.77,3.67-3.6,3.81-5.81.2-3.04-1.52-6-3.45-8.21-.71-.82-4.29-4.24-5.19-4.01-.98.96-1.69,2.71-2.18,4.02-1.9,5.05-3.06,12.04,3.44,14.02Z"/>
    <path class="cls-1" d="M787.4,64.43c2.24-2.65,4.12-4.97,5.58-6.9,1.56-2.06,2.73-3.82,3.55-5.34,1.75-3.15,2.63-6.44,2.63-9.77,0-5.31-1.96-9.82-5.81-13.4-3.14-2.94-6.94-4.66-11.29-5.16,0-2.49-.08-4.93-.67-7.43-.13-.57.02-1.46-.83-1.25-.39.1-.71,5.15-.9,8.53-.1,0-.19-.01-.29-.01-7.94,0-17.79,3.31-19.6,19.08l-.42,3.7h14.33l.36-2.92c.67-5.48,3.07-6.24,5.56-6.24,1.62,0,2.86.47,3.92,1.49,1.02.98,1.49,2.12,1.49,3.59,0,1.02-.49,2.35-1.43,3.91-.56.95-1.39,2.17-2.48,3.61h0c-1.16,1.54-2.59,3.36-4.29,5.44l-22.21,26.89h44.66v-13.88h-15.18l3.31-3.92Z"/>
    <path class="cls-1" d="M852.14,31.55c-3.67-4.75-8.18-7.34-13.39-7.78,0-2.47-.08-4.88-.66-7.35-.13-.57.02-1.46-.83-1.25-.4.1-.71,5.19-.9,8.56-5.53.24-10.29,2.85-14.13,7.81-4.24,5.43-6.39,12.67-6.39,21.52s2.15,16.72,6.39,22.15c4.09,5.21,9.13,7.85,14.98,7.85s10.89-2.65,14.92-7.85c4.24-5.42,6.39-12.76,6.39-21.82s-2.15-16.43-6.38-21.84ZM841.76,65.64c-2.04,3.78-3.95,3.78-4.58,3.78-.7,0-2.57,0-4.56-3.74-1.7-3.25-2.56-7.48-2.56-12.58s.86-8.9,2.57-12.03h0c2.03-3.76,3.93-3.76,4.55-3.76.7,0,2.55,0,4.58,3.74,1.71,3.18,2.58,7.32,2.58,12.31s-.87,9.12-2.58,12.28Z"/>
  </g>
</svg>