<?xml version="1.0" encoding="UTF-8"?>
<svg id="Capa_2" data-name="Capa 2" xmlns="http://www.w3.org/2000/svg" viewBox="0 0 359.15 94.3">
  <defs>
    <style>
      .cls-1 {
        fill: #fff;
      }
    </style>
  </defs>
  <g id="Layer_1" data-name="Layer 1">
    <g>
      <g>
        <path class="cls-1" d="M0,3.05c2.53,0,4.9,0,7.27,0,5.7,0,11.39.01,17.09-.02.64,0,1.01.2,1.38.72,6.05,8.38,12.13,16.74,18.21,25.09.45.61.95,1.19,1.41,1.79.39.51.68.49,1.07-.05,1.51-2.14,3.06-4.25,4.6-6.37,4.94-6.82,9.89-13.63,14.82-20.46.39-.54.81-.72,1.47-.72,7.64.02,15.28.01,22.93.02.32,0,.76-.18.93.19.14.31-.17.6-.37.88-10.32,14.36-20.63,28.73-30.95,43.1-1.41,1.96-1.37,2.29.11,4.18,2.45,3.12,4.85,6.29,7.31,9.41.54.69.14,1.37.09,2.01-.2,2.43-.52,4.85-.78,7.27-.45,4.21-.9,8.42-1.33,12.63-.37,3.58-.71,7.16-1.06,10.74-.03.29.07.69-.32.78-.38.09-.36-.36-.53-.56-1.67-2.01-3.04-4.23-4.52-6.37-2.22-3.2-4.36-6.47-6.54-9.7-1.74-2.58-3.49-5.16-5.24-7.75-.06-.09-.15-.17-.22-.25-1.04-1.22-1.31-1.2-2.2.13-2.38,3.52-4.76,7.03-7.13,10.55-2.25,3.34-4.45,6.71-6.73,10.03-.94,1.37-1.91,2.75-3.12,3.97-.53-.89-.35-1.84-.46-2.73-.47-4.08-.82-8.17-1.25-12.25-.31-2.93-.68-5.85-.99-8.78-.31-2.93-.57-5.86-.87-8.79-.05-.47.1-.8.37-1.15,2.76-3.56,5.49-7.15,8.27-10.7.42-.53.3-.85-.03-1.3-5.5-7.63-10.98-15.26-16.47-22.9C11.06,18.52,5.91,11.33.75,4.15c-.23-.32-.44-.64-.75-1.1Z"/>
        <path class="cls-1" d="M.45,14.45c-.14-1.56-.28-3.12-.43-4.89.94.84,1.44,1.74,2.05,2.54,5.28,7.02,10.53,14.06,15.81,21.08.63.83.42,1.79.52,2.69.45,3.77.82,7.55,1.21,11.33.3,2.88.58,5.76.87,8.64.27,2.63.57,5.25.83,7.88.3,3.02.57,6.05.87,9.08.37,3.64.77,7.27,1.14,10.91.35,3.44.68,6.88,1.02,10.32-.35.11-.47-.18-.64-.33-5.82-5.28-11.62-10.57-17.44-15.84-.38-.34-.51-.73-.55-1.18-.19-2.22-.37-4.43-.56-6.65-.26-3-.55-6-.8-8.99-.2-2.36-.36-4.72-.56-7.07-.25-3.03-.53-6.06-.78-9.09-.25-2.95-.5-5.89-.75-8.84-.25-3-.51-6-.76-9.01-.27-3.23-.52-6.45-.78-9.68,0-.9-.01-1.8-.02-2.7,0-.16.02-.38-.25-.19Z"/>
        <path class="cls-1" d="M72.49,42.47c.27-2.74.55-5.48.82-8.23.04-.43.2-.8.46-1.15,5.7-7.62,11.39-15.24,17.09-22.86.12-.16.19-.42.54-.42.14,1.21-.12,2.39-.21,3.57-.24,3.14-.51,6.28-.78,9.43-.3,3.53-.62,7.07-.92,10.6-.27,3.11-.51,6.23-.77,9.34-.3,3.51-.62,7.01-.91,10.52-.27,3.25-.52,6.51-.78,9.76-.17,2.1-.36,4.2-.55,6.3-.21,2.38-.46,4.76-.62,7.14-.04.66-.29,1.11-.74,1.5-2.26,2-4.5,4.03-6.73,6.07-2.24,2.05-4.51,4.06-6.71,6.15-1.39,1.31-2.83,2.57-4.33,3.93-.25-.94.03-1.76.1-2.57.32-3.5.7-7,1.06-10.5.33-3.22.63-6.44.96-9.65.31-3.02.65-6.04.97-9.06.31-3.02.61-6.05.92-9.07.04-.36.11-.72.16-1.08.23-.08.26-.27.26-.48.04-1.14.2-2.29.27-3.42.13-1.95.63-3.87.44-5.84Z"/>
      </g>
      <g>
        <polygon class="cls-1" points="147.11 1.27 138.05 25.55 128.93 1.27 117.21 1.27 109.48 46.8 121.26 46.8 125.18 20.59 135.39 46.8 140.1 46.8 150.85 20.59 154.78 46.8 166.56 46.8 158.82 1.27 147.11 1.27"/>
        <path class="cls-1" d="M203.82,37.32h-10.57c-1.21,1.93-3,2.9-5.37,2.9-4.43,0-6.64-2.36-6.64-7.07h23.01v-1.15c0-2.7-.38-5.12-1.15-7.28-.77-2.15-1.87-3.98-3.32-5.47-1.45-1.49-3.22-2.63-5.32-3.41-2.09-.79-4.45-1.18-7.07-1.18s-5.04.39-7.16,1.18c-2.11.78-3.92,1.9-5.41,3.35-1.49,1.45-2.64,3.21-3.44,5.28-.81,2.07-1.21,4.4-1.21,6.98s.42,4.75,1.27,6.76c.85,2.01,2.04,3.74,3.59,5.19,1.55,1.45,3.41,2.57,5.59,3.35,2.17.79,4.57,1.18,7.19,1.18,8.54,0,13.87-3.54,16-10.63ZM183.55,23.07c1.07-.89,2.45-1.33,4.14-1.33s2.98.46,4.11,1.39c1.13.93,1.87,2.15,2.23,3.68h-12.5c.28-1.61.96-2.86,2.02-3.74Z"/>
        <polygon class="cls-1" points="247.24 15.82 232.99 15.82 227.55 22.22 222.24 15.82 207.98 15.82 220.55 30.02 205.09 46.8 219.52 46.8 227.49 37.63 235.4 46.8 249.9 46.8 234.38 30.02 247.24 15.82"/>
        <rect class="cls-1" x="254.67" y="1.27" width="11.84" height="45.54"/>
        <polygon class="cls-1" points="316.81 46.8 316.81 1.27 304.97 1.27 304.97 18.84 287.88 18.84 287.88 1.27 276.05 1.27 276.05 46.8 287.88 46.8 287.88 28.02 304.97 28.02 304.97 46.8 316.81 46.8"/>
        <path class="cls-1" d="M340.18,15.07c1.09-1.11,2.39-1.98,3.9-2.63,1.51-.64,3.15-.97,4.92-.97,4.03,0,7.41,1.67,10.15,5.01V2.36c-1.93-.8-3.77-1.4-5.53-1.78-1.75-.38-3.53-.57-5.34-.57-3.18,0-6.22.59-9.12,1.78-2.9,1.19-5.45,2.84-7.64,4.95-2.19,2.11-3.95,4.63-5.25,7.55-1.31,2.92-1.96,6.13-1.96,9.63s.66,6.73,1.99,9.69c1.33,2.96,3.09,5.52,5.28,7.67,2.19,2.15,4.73,3.83,7.61,5.01,2.88,1.19,5.89,1.78,9.03,1.78,1.53,0,3.08-.15,4.65-.45,1.57-.3,3.26-.78,5.07-1.42l1.21-.42v-14.01c-3.02,3.22-6.42,4.83-10.21,4.83-1.73,0-3.34-.32-4.83-.97-1.49-.64-2.79-1.53-3.9-2.66-1.11-1.13-1.97-2.46-2.6-3.99-.62-1.53-.94-3.2-.94-5.01s.31-3.42.94-4.95c.62-1.53,1.48-2.85,2.57-3.96Z"/>
        <path class="cls-1" d="M156.08,75.93c1.32-1.56,2.41-2.9,3.27-4.04.86-1.14,1.52-2.13,1.97-2.96.88-1.6,1.32-3.22,1.32-4.88,0-2.61-.95-4.8-2.85-6.57-1.89-1.77-4.22-2.65-7-2.65-5.76,0-9.01,3.22-9.75,9.65h4.59c.45-3.65,2.21-5.48,5.3-5.48,1.48,0,2.72.48,3.72,1.44,1,.96,1.5,2.16,1.5,3.58,0,.99-.38,2.1-1.13,3.34-.37.63-.91,1.42-1.61,2.35-.71.94-1.58,2.04-2.62,3.32l-10.6,12.83h20.51v-4.33h-11.37l4.75-5.62Z"/>
        <path class="cls-1" d="M209.24,54.83c-2.89,0-5.35,1.31-7.38,3.94-2.27,2.9-3.4,6.78-3.4,11.65,0,5.12,1.13,9.12,3.4,12.02,2.06,2.62,4.52,3.94,7.4,3.94s5.33-1.31,7.36-3.94c2.27-2.9,3.4-6.84,3.4-11.82s-1.13-8.94-3.4-11.84c-2.03-2.62-4.49-3.94-7.38-3.94ZM213.72,78.88c-1.19,2.2-2.68,3.3-4.49,3.3s-3.32-1.1-4.49-3.3c-1.17-2.24-1.76-5.06-1.76-8.44s.59-5.97,1.78-8.15c1.19-2.19,2.68-3.28,4.47-3.28s3.3,1.09,4.49,3.28c1.19,2.2,1.78,4.97,1.78,8.31s-.59,6.1-1.78,8.29Z"/>
        <path class="cls-1" d="M267.08,75.93c1.32-1.56,2.41-2.9,3.27-4.04.86-1.14,1.52-2.13,1.97-2.96.88-1.6,1.32-3.22,1.32-4.88,0-2.61-.95-4.8-2.85-6.57-1.89-1.77-4.22-2.65-7-2.65-5.76,0-9.01,3.22-9.75,9.65h4.59c.45-3.65,2.21-5.48,5.3-5.48,1.48,0,2.72.48,3.72,1.44,1,.96,1.5,2.16,1.5,3.58,0,.99-.38,2.1-1.13,3.34-.37.63-.91,1.42-1.61,2.35-.71.94-1.58,2.04-2.62,3.32l-10.6,12.83h20.51v-4.33h-11.37l4.75-5.62Z"/>
        <path class="cls-1" d="M327.51,66.58c-.16,0-.38.01-.65.04-.28.03-.61.07-1.01.12l7.3-9.93-3.38-2.53-10.68,14.49c-1.99,2.7-2.99,5.26-2.99,7.67,0,2.69,1.02,5.02,3.06,6.98,2.08,1.96,4.51,2.95,7.28,2.95s5.19-1,7.18-2.99c2-2,3.01-4.4,3.01-7.2,0-2.64-.9-4.89-2.69-6.76-1.81-1.9-3.95-2.85-6.43-2.85ZM330.44,80.5c-1.12,1.12-2.47,1.68-4.05,1.68s-2.99-.56-4.11-1.68c-1.12-1.12-1.68-2.48-1.68-4.07s.56-2.95,1.68-4.07c1.12-1.12,2.48-1.68,4.09-1.68s2.96.57,4.09,1.7c1.12,1.12,1.68,2.49,1.68,4.11s-.57,2.88-1.7,4.01Z"/>
      </g>
    </g>
  </g>
</svg>