<?xml version="1.0" encoding="UTF-8"?>
<svg id="Capa_2" data-name="Capa 2" xmlns="http://www.w3.org/2000/svg" viewBox="0 0 426.32 217.37">
  <defs>
    <style>
      .cls-1 {
        fill: #223048;
      }

      .cls-2 {
        fill: #8a174f;
      }
    </style>
  </defs>
  <g id="Layer_1" data-name="Layer 1">
    <g>
      <g>
        <g>
          <path class="cls-1" d="M0,52.04c1.91,0,3.7,0,5.49,0,4.3,0,8.6,0,12.91-.01.48,0,.76.15,1.04.54,4.57,6.33,9.16,12.64,13.75,18.95.34.46.71.9,1.06,1.35.3.39.52.37.81-.04,1.14-1.61,2.31-3.21,3.48-4.81,3.73-5.15,7.47-10.29,11.2-15.45.29-.41.61-.55,1.11-.54,5.77.02,11.54,0,17.32.02.24,0,.58-.13.7.14.11.24-.13.46-.28.66-7.79,10.85-15.58,21.7-23.37,32.55-1.07,1.48-1.03,1.73.08,3.15,1.85,2.36,3.67,4.75,5.52,7.11.41.52.11,1.03.07,1.52-.15,1.84-.39,3.66-.59,5.49-.34,3.18-.68,6.36-1,9.54-.28,2.7-.53,5.41-.8,8.11-.02.22.05.52-.24.59-.29.07-.28-.27-.4-.42-1.26-1.52-2.29-3.2-3.41-4.81-1.68-2.42-3.29-4.88-4.94-7.33-1.31-1.95-2.63-3.9-3.95-5.85-.05-.07-.11-.13-.17-.19-.79-.92-.99-.9-1.66.1-1.79,2.66-3.6,5.31-5.39,7.97-1.7,2.52-3.36,5.07-5.08,7.58-.71,1.04-1.44,2.07-2.36,3-.4-.67-.27-1.39-.34-2.06-.35-3.08-.62-6.17-.94-9.25-.23-2.21-.52-4.42-.75-6.63-.23-2.21-.43-4.43-.66-6.64-.04-.35.08-.6.28-.87,2.08-2.69,4.15-5.4,6.25-8.08.32-.4.23-.64-.02-.99-4.15-5.76-8.3-11.53-12.44-17.3-3.89-5.42-7.79-10.85-11.68-16.28-.17-.24-.33-.48-.57-.83Z"/>
          <path class="cls-1" d="M.34,60.66c-.1-1.18-.21-2.36-.33-3.7.71.63,1.09,1.31,1.55,1.92,3.99,5.3,7.95,10.62,11.94,15.92.47.63.31,1.35.4,2.03.34,2.85.62,5.7.91,8.55.22,2.18.44,4.35.66,6.53.21,1.99.43,3.97.63,5.95.23,2.28.43,4.57.66,6.85.28,2.75.58,5.49.86,8.24.26,2.6.51,5.2.77,7.8-.26.08-.36-.13-.48-.25-4.39-3.99-8.78-7.98-13.17-11.96-.28-.26-.38-.55-.41-.89-.15-1.67-.28-3.35-.42-5.02-.2-2.26-.41-4.53-.61-6.79-.15-1.78-.27-3.56-.42-5.34-.19-2.29-.4-4.58-.59-6.86-.19-2.22-.37-4.45-.56-6.68-.19-2.27-.39-4.53-.57-6.8-.2-2.44-.39-4.88-.59-7.31,0-.68-.01-1.36-.02-2.04,0-.12.02-.29-.19-.14Z"/>
          <path class="cls-1" d="M54.75,81.82c.21-2.07.41-4.14.62-6.21.03-.33.15-.6.35-.87,4.31-5.75,8.61-11.51,12.91-17.26.09-.12.15-.32.41-.31.11.91-.09,1.8-.16,2.7-.18,2.37-.38,4.75-.59,7.12-.23,2.67-.47,5.34-.7,8.01-.2,2.35-.38,4.7-.58,7.06-.23,2.65-.47,5.29-.69,7.94-.21,2.46-.39,4.92-.59,7.37-.13,1.59-.27,3.17-.41,4.76-.16,1.8-.35,3.59-.47,5.4-.03.5-.22.84-.56,1.14-1.71,1.51-3.4,3.04-5.08,4.58-1.69,1.55-3.41,3.07-5.07,4.64-1.05.99-2.14,1.94-3.27,2.97-.19-.71.02-1.33.08-1.94.24-2.64.53-5.29.8-7.93.25-2.43.48-4.86.73-7.29.24-2.28.49-4.56.73-6.84.24-2.28.46-4.57.69-6.85.03-.27.08-.55.12-.82.17-.06.19-.2.2-.36.03-.86.15-1.73.2-2.58.09-1.47.48-2.92.33-4.41Z"/>
        </g>
        <g>
          <polygon class="cls-2" points="111.11 50.7 104.27 69.04 97.38 50.7 88.53 50.7 82.69 85.09 91.59 85.09 94.55 65.3 102.26 85.09 105.82 85.09 113.94 65.3 116.9 85.09 125.8 85.09 119.96 50.7 111.11 50.7"/>
          <path class="cls-2" d="M153.94,77.93h-7.98c-.91,1.46-2.27,2.19-4.06,2.19-3.35,0-5.02-1.78-5.02-5.34h17.38v-.87c0-2.04-.29-3.87-.87-5.5-.58-1.63-1.41-3-2.51-4.13-1.09-1.12-2.43-1.98-4.01-2.58-1.58-.59-3.36-.89-5.34-.89s-3.81.3-5.41.89c-1.6.59-2.96,1.44-4.08,2.53-1.13,1.09-1.99,2.43-2.6,3.99-.61,1.57-.91,3.32-.91,5.27s.32,3.59.96,5.11c.64,1.52,1.54,2.83,2.71,3.92,1.17,1.09,2.58,1.94,4.22,2.53,1.64.59,3.45.89,5.43.89,6.45,0,10.48-2.68,12.09-8.03ZM138.64,67.17c.81-.67,1.85-1,3.12-1s2.25.35,3.1,1.05c.85.7,1.41,1.63,1.69,2.78h-9.44c.21-1.22.72-2.16,1.53-2.83Z"/>
          <polygon class="cls-2" points="186.74 61.69 175.97 61.69 171.87 66.53 167.85 61.69 157.09 61.69 166.58 72.41 154.9 85.09 165.8 85.09 171.82 78.16 177.8 85.09 188.74 85.09 177.02 72.41 186.74 61.69"/>
          <rect class="cls-2" x="192.35" y="50.7" width="8.94" height="34.39"/>
          <polygon class="cls-2" points="239.28 85.09 239.28 50.7 230.34 50.7 230.34 63.97 217.43 63.97 217.43 50.7 208.49 50.7 208.49 85.09 217.43 85.09 217.43 70.91 230.34 70.91 230.34 85.09 239.28 85.09"/>
          <path class="cls-2" d="M256.94,61.12c.82-.84,1.8-1.5,2.94-1.98,1.14-.49,2.38-.73,3.72-.73,3.04,0,5.6,1.26,7.66,3.79v-10.67c-1.46-.61-2.85-1.06-4.17-1.35-1.32-.29-2.67-.43-4.04-.43-2.4,0-4.7.45-6.89,1.35-2.19.9-4.11,2.14-5.77,3.74-1.66,1.6-2.98,3.5-3.97,5.7-.99,2.21-1.48,4.63-1.48,7.28s.5,5.09,1.51,7.32c1,2.24,2.33,4.17,3.99,5.79,1.66,1.63,3.57,2.89,5.75,3.79,2.17.9,4.45,1.35,6.82,1.35,1.16,0,2.33-.11,3.51-.34,1.19-.23,2.46-.59,3.83-1.07l.91-.32v-10.58c-2.28,2.43-4.85,3.65-7.71,3.65-1.31,0-2.52-.24-3.65-.73-1.13-.49-2.11-1.16-2.94-2.01-.84-.85-1.49-1.85-1.96-3.01-.47-1.16-.71-2.42-.71-3.79s.24-2.58.71-3.74c.47-1.16,1.12-2.15,1.94-2.99Z"/>
          <path d="M117.88,107.09c1-1.17,1.82-2.19,2.47-3.05.65-.86,1.15-1.61,1.49-2.23.67-1.2,1-2.43,1-3.69,0-1.97-.72-3.62-2.15-4.96-1.42-1.33-3.19-2-5.29-2-4.35,0-6.81,2.43-7.36,7.29h3.46c.34-2.76,1.67-4.14,4-4.14,1.11,0,2.05.36,2.81,1.09.76.73,1.14,1.63,1.14,2.7,0,.75-.28,1.59-.85,2.52-.28.48-.68,1.07-1.22,1.78-.53.71-1.19,1.54-1.98,2.51l-8.01,9.69h15.49v-3.27h-8.59l3.58-4.24Z"/>
          <path d="M158.03,91.16c-2.18,0-4.04.99-5.57,2.97-1.71,2.19-2.57,5.12-2.57,8.8,0,3.86.86,6.89,2.57,9.08,1.55,1.98,3.42,2.97,5.59,2.97s4.02-.99,5.56-2.97c1.71-2.19,2.57-5.17,2.57-8.93s-.86-6.76-2.57-8.95c-1.53-1.98-3.39-2.97-5.57-2.97ZM161.42,109.32c-.9,1.66-2.03,2.49-3.39,2.49s-2.5-.83-3.39-2.49c-.89-1.69-1.33-3.82-1.33-6.38s.45-4.51,1.34-6.15c.9-1.65,2.02-2.48,3.38-2.48s2.49.83,3.39,2.48c.9,1.66,1.34,3.75,1.34,6.27s-.45,4.61-1.34,6.26Z"/>
          <path d="M201.72,107.09c1-1.17,1.82-2.19,2.47-3.05.65-.86,1.15-1.61,1.49-2.23.67-1.2,1-2.43,1-3.69,0-1.97-.72-3.62-2.15-4.96-1.42-1.33-3.19-2-5.29-2-4.35,0-6.81,2.43-7.36,7.29h3.46c.34-2.76,1.67-4.14,4-4.14,1.12,0,2.05.36,2.81,1.09.76.73,1.14,1.63,1.14,2.7,0,.75-.28,1.59-.85,2.52-.28.48-.68,1.07-1.22,1.78-.53.71-1.19,1.54-1.98,2.51l-8.01,9.69h15.49v-3.27h-8.59l3.58-4.24Z"/>
          <path d="M247.37,100.03c-.12,0-.28,0-.49.03-.21.02-.46.05-.76.09l5.51-7.5-2.55-1.91-8.06,10.95c-1.5,2.04-2.26,3.97-2.26,5.8,0,2.03.77,3.79,2.31,5.27,1.57,1.48,3.41,2.23,5.5,2.23s3.92-.75,5.42-2.26c1.51-1.51,2.27-3.33,2.27-5.44,0-1.99-.68-3.69-2.03-5.11-1.36-1.43-2.98-2.15-4.85-2.15ZM249.58,110.54c-.85.85-1.87,1.27-3.06,1.27s-2.26-.42-3.11-1.27c-.85-.85-1.27-1.87-1.27-3.08s.42-2.23,1.27-3.08c.85-.85,1.88-1.27,3.09-1.27s2.24.43,3.09,1.28c.85.85,1.27,1.88,1.27,3.11s-.43,2.18-1.28,3.03Z"/>
        </g>
      </g>
      <g>
        <path class="cls-1" d="M139.46,183.36l4.99-25.51,8.14,18.44,8.43-18.44,4.49,25.51h-3.67l-2.29-14.32-7.02,15.41-6.82-15.43-2.55,14.34h-3.7Z"/>
        <path class="cls-1" d="M183.52,176.69h-10.72c.09,1.23.49,2.21,1.2,2.94.71.72,1.61,1.07,2.72,1.07.86,0,1.57-.21,2.13-.61.55-.41,1.18-1.17,1.89-2.27l2.92,1.63c-.45.77-.93,1.43-1.43,1.97-.5.55-1.04,1-1.61,1.35-.57.35-1.19.61-1.86.77-.67.17-1.39.25-2.17.25-2.23,0-4.03-.72-5.38-2.15-1.35-1.45-2.03-3.36-2.03-5.75s.66-4.28,1.97-5.75c1.32-1.45,3.07-2.17,5.26-2.17s3.95.7,5.23,2.11c1.27,1.39,1.91,3.32,1.91,5.79l-.02.81ZM179.97,173.87c-.48-1.84-1.65-2.77-3.49-2.77-.42,0-.81.07-1.18.19-.37.13-.7.31-1.01.55s-.56.53-.78.87c-.21.34-.38.72-.49,1.15h6.95Z"/>
        <path class="cls-1" d="M191.34,175.27l-5.38-6.87h4.12l3.33,4.36,3.4-4.36h4.24l-5.53,6.87,6.41,8.1h-4.12l-4.39-5.59-4.5,5.59h-4.23l6.65-8.1Z"/>
        <path class="cls-1" d="M203.74,162.17c0-.6.22-1.13.66-1.57s.97-.66,1.58-.66,1.16.22,1.6.66c.44.43.66.96.66,1.58s-.22,1.16-.66,1.6c-.43.44-.96.66-1.58.66s-1.16-.22-1.6-.66-.66-.98-.66-1.61ZM207.72,168.4v14.97h-3.46v-14.97h3.46Z"/>
        <path class="cls-1" d="M223.75,169.04v4.59c-.79-.96-1.5-1.62-2.12-1.98-.61-.37-1.34-.55-2.17-.55-1.3,0-2.38.46-3.24,1.37-.86.91-1.29,2.05-1.29,3.43s.41,2.56,1.24,3.46c.84.9,1.91,1.35,3.21,1.35.83,0,1.56-.18,2.2-.54.62-.35,1.34-1.02,2.17-2.03v4.56c-1.4.73-2.81,1.09-4.21,1.09-2.31,0-4.25-.75-5.81-2.24-1.56-1.51-2.33-3.38-2.33-5.61s.79-4.12,2.37-5.66c1.58-1.54,3.51-2.3,5.81-2.3,1.48,0,2.87.35,4.18,1.06Z"/>
        <path class="cls-1" d="M238.13,168.4h3.47v14.97h-3.47v-1.57c-1.42,1.33-2.96,2-4.59,2-2.07,0-3.78-.75-5.13-2.24-1.34-1.53-2.01-3.43-2.01-5.72s.67-4.11,2.01-5.61c1.34-1.5,3.02-2.24,5.04-2.24,1.74,0,3.3.72,4.69,2.15v-1.74ZM229.92,175.83c0,1.44.38,2.6,1.15,3.5.79.91,1.78,1.37,2.98,1.37,1.28,0,2.32-.44,3.1-1.32.79-.91,1.18-2.07,1.18-3.47s-.39-2.56-1.18-3.47c-.79-.89-1.81-1.34-3.07-1.34-1.19,0-2.18.45-2.98,1.35-.79.91-1.18,2.04-1.18,3.38Z"/>
        <path class="cls-1" d="M245.97,168.4h3.47v1.38c1.21-1.2,2.57-1.8,4.09-1.8,1.74,0,3.1.55,4.07,1.65.84.93,1.26,2.45,1.26,4.56v9.17h-3.47v-8.36c0-1.48-.21-2.49-.62-3.06-.4-.57-1.13-.86-2.18-.86-1.15,0-1.96.38-2.44,1.14-.47.75-.71,2.05-.71,3.92v7.22h-3.47v-14.97Z"/>
        <path class="cls-1" d="M284.58,169.04v4.59c-.79-.96-1.5-1.62-2.12-1.98-.61-.37-1.34-.55-2.17-.55-1.3,0-2.38.46-3.24,1.37s-1.29,2.05-1.29,3.43.41,2.56,1.24,3.46c.84.9,1.91,1.35,3.21,1.35.83,0,1.56-.18,2.2-.54.62-.35,1.34-1.02,2.17-2.03v4.56c-1.4.73-2.81,1.09-4.21,1.09-2.31,0-4.25-.75-5.81-2.24-1.56-1.51-2.33-3.38-2.33-5.61s.79-4.12,2.37-5.66c1.58-1.54,3.51-2.3,5.81-2.3,1.48,0,2.87.35,4.18,1.06Z"/>
        <path class="cls-1" d="M287.22,175.77c0-2.16.77-4,2.32-5.52,1.55-1.52,3.43-2.27,5.66-2.27s4.13.76,5.68,2.29c1.54,1.53,2.3,3.4,2.3,5.62s-.77,4.12-2.32,5.64c-1.56,1.51-3.47,2.26-5.73,2.26s-4.12-.77-5.64-2.3c-1.52-1.52-2.27-3.42-2.27-5.72ZM290.76,175.83c0,1.5.4,2.68,1.2,3.55.82.88,1.9,1.32,3.24,1.32s2.43-.44,3.24-1.31c.81-.87,1.21-2.03,1.21-3.49s-.41-2.62-1.21-3.49c-.82-.88-1.9-1.32-3.24-1.32s-2.39.44-3.21,1.32-1.23,2.02-1.23,3.41Z"/>
        <path class="cls-1" d="M306.85,168.4h3.47v1.38c1.21-1.2,2.57-1.8,4.09-1.8,1.74,0,3.1.55,4.07,1.65.84.93,1.26,2.45,1.26,4.56v9.17h-3.47v-8.36c0-1.48-.21-2.49-.62-3.06-.4-.57-1.13-.86-2.18-.86-1.15,0-1.96.38-2.44,1.14-.47.75-.71,2.05-.71,3.92v7.22h-3.47v-14.97Z"/>
        <path class="cls-1" d="M327.68,171.62v11.74h-3.47v-11.74h-1.23v-3.23h1.23v-5.78c0-1.88.33-3.22.98-4,.9-1.09,2.21-1.63,3.93-1.63.62,0,1.39.18,2.32.54v3.53l-.35-.19c-.75-.38-1.36-.57-1.84-.57-.61,0-1.03.22-1.24.66-.22.43-.32,1.26-.32,2.49v4.93h3.76v3.23h-3.76Z"/>
        <path class="cls-1" d="M347.55,176.69h-10.72c.09,1.23.49,2.21,1.2,2.94.71.72,1.61,1.07,2.72,1.07.86,0,1.57-.21,2.13-.61.55-.41,1.18-1.17,1.89-2.27l2.92,1.63c-.45.77-.93,1.43-1.43,1.97-.5.55-1.04,1-1.61,1.35-.57.35-1.19.61-1.86.77-.67.17-1.39.25-2.17.25-2.23,0-4.03-.72-5.38-2.15-1.35-1.45-2.03-3.36-2.03-5.75s.66-4.28,1.97-5.75c1.32-1.45,3.07-2.17,5.26-2.17s3.95.7,5.23,2.11c1.27,1.39,1.91,3.32,1.91,5.79l-.02.81ZM344,173.87c-.48-1.84-1.65-2.77-3.49-2.77-.42,0-.81.07-1.18.19-.37.13-.7.31-1.01.55s-.56.53-.78.87c-.21.34-.38.72-.49,1.15h6.95Z"/>
        <path class="cls-1" d="M351.33,168.4h3.46v1.34c.64-.67,1.2-1.12,1.69-1.37.5-.26,1.1-.39,1.78-.39.91,0,1.86.3,2.86.89l-1.58,3.17c-.66-.47-1.3-.71-1.92-.71-1.88,0-2.83,1.42-2.83,4.27v7.76h-3.46v-14.97Z"/>
        <path class="cls-1" d="M376.51,176.69h-10.72c.09,1.23.49,2.21,1.2,2.94.71.72,1.61,1.07,2.72,1.07.86,0,1.57-.21,2.13-.61.55-.41,1.18-1.17,1.89-2.27l2.92,1.63c-.45.77-.93,1.43-1.43,1.97-.5.55-1.04,1-1.61,1.35-.57.35-1.19.61-1.86.77-.67.17-1.39.25-2.17.25-2.23,0-4.03-.72-5.38-2.15-1.35-1.45-2.03-3.36-2.03-5.75s.66-4.28,1.97-5.75c1.32-1.45,3.07-2.17,5.26-2.17s3.95.7,5.23,2.11c1.27,1.39,1.91,3.32,1.91,5.79l-.02.81ZM372.97,173.87c-.48-1.84-1.65-2.77-3.49-2.77-.42,0-.81.07-1.18.19-.37.13-.7.31-1.01.55s-.56.53-.78.87c-.21.34-.38.72-.49,1.15h6.95Z"/>
        <path class="cls-1" d="M380.3,168.4h3.47v1.38c1.21-1.2,2.57-1.8,4.09-1.8,1.74,0,3.1.55,4.07,1.65.84.93,1.26,2.45,1.26,4.56v9.17h-3.47v-8.36c0-1.48-.21-2.49-.62-3.06-.4-.57-1.13-.86-2.18-.86-1.15,0-1.96.38-2.44,1.14-.47.75-.71,2.05-.71,3.92v7.22h-3.47v-14.97Z"/>
        <path class="cls-1" d="M409.2,169.04v4.59c-.79-.96-1.5-1.62-2.12-1.98-.61-.37-1.34-.55-2.17-.55-1.3,0-2.38.46-3.24,1.37-.86.91-1.29,2.05-1.29,3.43s.41,2.56,1.24,3.46c.84.9,1.91,1.35,3.21,1.35.83,0,1.56-.18,2.2-.54.62-.35,1.34-1.02,2.17-2.03v4.56c-1.4.73-2.81,1.09-4.21,1.09-2.31,0-4.25-.75-5.81-2.24-1.56-1.51-2.33-3.38-2.33-5.61s.79-4.12,2.37-5.66c1.58-1.54,3.51-2.3,5.81-2.3,1.48,0,2.87.35,4.18,1.06Z"/>
        <path class="cls-1" d="M426.18,176.69h-10.72c.09,1.23.49,2.21,1.2,2.94.71.72,1.61,1.07,2.72,1.07.86,0,1.57-.21,2.13-.61.55-.41,1.18-1.17,1.89-2.27l2.92,1.63c-.45.77-.93,1.43-1.43,1.97-.5.55-1.04,1-1.61,1.35-.57.35-1.19.61-1.86.77-.67.17-1.39.25-2.17.25-2.23,0-4.03-.72-5.38-2.15-1.35-1.45-2.03-3.36-2.03-5.75s.66-4.28,1.97-5.75c1.32-1.45,3.07-2.17,5.26-2.17s3.95.7,5.23,2.11c1.27,1.39,1.91,3.32,1.91,5.79l-.02.81ZM422.63,173.87c-.48-1.84-1.65-2.77-3.49-2.77-.42,0-.81.07-1.18.19-.37.13-.7.31-1.01.55s-.56.53-.78.87c-.21.34-.38.72-.49,1.15h6.95Z"/>
        <path class="cls-1" d="M.01,204.79c0-1.74.62-3.22,1.87-4.44,1.24-1.22,2.76-1.83,4.55-1.83s3.32.61,4.57,1.84c1.24,1.23,1.85,2.74,1.85,4.52s-.62,3.32-1.87,4.53c-1.25,1.21-2.79,1.82-4.61,1.82s-3.32-.62-4.53-1.85c-1.22-1.22-1.83-2.75-1.83-4.6ZM2.85,204.84c0,1.2.32,2.16.96,2.85.66.71,1.53,1.06,2.61,1.06s1.96-.35,2.61-1.05c.65-.7.98-1.63.98-2.8s-.33-2.1-.98-2.8c-.66-.71-1.53-1.06-2.61-1.06s-1.92.35-2.58,1.06-.99,1.62-.99,2.74Z"/>
        <path class="cls-1" d="M15.79,198.86h2.79v1.11c.97-.96,2.07-1.45,3.29-1.45,1.4,0,2.49.44,3.27,1.32.68.75,1.01,1.97,1.01,3.67v7.38h-2.79v-6.72c0-1.19-.17-2.01-.5-2.46-.32-.46-.91-.69-1.75-.69-.92,0-1.58.3-1.96.92-.38.6-.57,1.65-.57,3.15v5.81h-2.79v-12.04Z"/>
        <path class="cls-2" d="M42.68,199.18h7.16v-7.36h4.96v19.08h-4.96v-7.87h-7.16v7.87h-4.96v-19.08h4.96v7.36Z"/>
        <path class="cls-2" d="M62.95,197.91v7.31c0,1.6.78,2.4,2.33,2.4s2.33-.8,2.33-2.4v-7.31h4.58v8.2c0,1.76-.58,3.07-1.73,3.95-1.16.88-2.88,1.32-5.18,1.32s-4.02-.44-5.18-1.32c-1.16-.88-1.73-2.19-1.73-3.95v-8.2h4.58Z"/>
        <path class="cls-2" d="M75.3,197.91h4.58v1.59c1.25-1.2,2.65-1.8,4.2-1.8,1.92,0,3.39.81,4.4,2.43,1.03-1.64,2.5-2.45,4.4-2.45.61,0,1.18.09,1.72.27.54.18,1,.45,1.39.83s.7.87.92,1.48c.23.61.34,1.34.34,2.2v8.43h-4.58v-6.4c0-.66-.05-1.2-.14-1.62-.09-.42-.23-.75-.41-.99s-.38-.4-.62-.48-.49-.13-.76-.13c-1.47,0-2.2,1.07-2.2,3.21v6.4h-4.58v-6.4c0-.66-.04-1.2-.13-1.63-.08-.43-.21-.77-.37-1.03-.16-.25-.37-.43-.62-.52-.25-.09-.55-.14-.89-.14-.29,0-.56.04-.81.13s-.48.25-.67.49c-.19.24-.35.58-.45,1.01-.11.43-.17.99-.17,1.68v6.4h-4.58v-12.98Z"/>
        <path class="cls-2" d="M110.43,197.91h4.61v12.98h-4.61v-1.44c-.98,1.23-2.3,1.85-3.97,1.85-.94,0-1.81-.17-2.61-.52-.79-.34-1.49-.83-2.08-1.45s-1.05-1.36-1.38-2.2c-.33-.84-.49-1.76-.49-2.76,0-.93.16-1.81.48-2.65.32-.83.77-1.56,1.34-2.19.57-.62,1.26-1.12,2.05-1.48.79-.36,1.67-.54,2.63-.54,1.62,0,2.96.57,4.02,1.7v-1.29ZM104.66,204.37c0,.42.08.81.23,1.18s.36.68.62.95.57.48.94.63c.36.15.75.23,1.18.23s.79-.08,1.15-.23c.36-.15.68-.36.94-.63s.47-.58.63-.94c.16-.35.24-.73.24-1.14s-.08-.79-.24-1.15c-.16-.36-.37-.68-.63-.95s-.57-.48-.94-.63c-.36-.15-.75-.23-1.15-.23s-.81.08-1.18.23c-.36.15-.68.36-.94.63s-.47.58-.62.92-.23.72-.23,1.13Z"/>
        <path class="cls-2" d="M118.15,197.91h4.58v1.65c.62-.76,1.26-1.27,1.9-1.53.64-.26,1.39-.39,2.25-.39.91,0,1.69.15,2.34.44s1.2.71,1.66,1.25c.37.44.62.93.76,1.47.13.54.2,1.16.2,1.85v8.25h-4.58v-6.55c0-.64-.05-1.16-.14-1.56-.09-.4-.26-.71-.49-.95-.2-.2-.43-.34-.68-.43s-.52-.13-.81-.13c-.78,0-1.37.23-1.78.7s-.62,1.13-.62,1.99v6.93h-4.58v-12.98Z"/>
        <path class="cls-2" d="M133.38,202.22h7.26v3.82h-7.26v-3.82Z"/>
        <path class="cls-2" d="M156.39,198.19c-1.15-1.4-2.57-2.1-4.25-2.1-.74,0-1.43.13-2.06.4-.63.27-1.18.64-1.63,1.1s-.81,1.02-1.08,1.66c-.26.64-.39,1.33-.39,2.07s.13,1.46.39,2.1c.26.64.62,1.2,1.09,1.67s1.01.84,1.63,1.11c.62.27,1.3.41,2.02.41,1.59,0,3.01-.67,4.28-2.02v5.87l-.51.18c-.76.27-1.47.47-2.13.6-.66.13-1.31.19-1.95.19-1.32,0-2.58-.25-3.78-.75-1.21-.5-2.27-1.2-3.19-2.1-.92-.9-1.66-1.97-2.21-3.21s-.83-2.59-.83-4.06.27-2.81.82-4.04c.55-1.22,1.28-2.28,2.2-3.16s1.99-1.58,3.2-2.07c1.21-.5,2.49-.75,3.82-.75.76,0,1.51.08,2.24.24.73.16,1.51.41,2.32.75v5.92Z"/>
        <path class="cls-2" d="M158.59,204.29c0-.96.19-1.86.58-2.69.39-.83.93-1.56,1.62-2.18.69-.61,1.51-1.1,2.47-1.45s2-.53,3.13-.53,2.15.17,3.1.52c.95.34,1.78.83,2.48,1.44.7.62,1.24,1.35,1.63,2.2s.58,1.79.58,2.82-.2,1.97-.59,2.82c-.4.85-.94,1.59-1.63,2.2-.69.62-1.52,1.09-2.49,1.43s-2.02.51-3.15.51-2.14-.17-3.09-.51-1.76-.82-2.44-1.44c-.68-.62-1.22-1.37-1.61-2.24-.39-.87-.58-1.83-.58-2.9ZM163.42,204.34c0,.44.08.84.24,1.2.16.36.37.68.63.95s.57.48.94.63c.36.15.75.23,1.15.23s.79-.08,1.15-.23c.36-.15.68-.36.94-.63.26-.27.47-.59.63-.95.16-.36.24-.76.24-1.18s-.08-.79-.24-1.15c-.16-.36-.37-.68-.63-.95-.26-.27-.57-.48-.94-.63-.36-.15-.75-.23-1.15-.23s-.79.08-1.15.23c-.36.15-.68.36-.94.63s-.47.58-.63.94c-.16.35-.24.73-.24,1.14Z"/>
        <path class="cls-2" d="M176.81,197.91h4.58v1.59c1.25-1.2,2.65-1.8,4.2-1.8,1.92,0,3.39.81,4.4,2.43,1.03-1.64,2.5-2.45,4.4-2.45.61,0,1.18.09,1.72.27.54.18,1,.45,1.39.83s.7.87.92,1.48c.23.61.34,1.34.34,2.2v8.43h-4.58v-6.4c0-.66-.05-1.2-.14-1.62-.09-.42-.23-.75-.41-.99s-.38-.4-.62-.48-.49-.13-.76-.13c-1.47,0-2.2,1.07-2.2,3.21v6.4h-4.58v-6.4c0-.66-.04-1.2-.13-1.63-.08-.43-.21-.77-.37-1.03-.16-.25-.37-.43-.62-.52-.25-.09-.55-.14-.89-.14-.29,0-.56.04-.81.13s-.48.25-.67.49c-.19.24-.35.58-.45,1.01-.11.43-.17.99-.17,1.68v6.4h-4.58v-12.98Z"/>
        <path class="cls-2" d="M206.95,217.37h-4.58v-19.46h4.58v1.44c.98-1.23,2.31-1.85,4-1.85.93,0,1.79.18,2.59.54.8.36,1.5.86,2.09,1.48s1.05,1.36,1.38,2.2c.33.84.49,1.75.49,2.71s-.17,1.86-.49,2.68c-.33.83-.79,1.55-1.37,2.18-.58.62-1.27,1.11-2.06,1.47-.79.35-1.65.53-2.58.53-1.62,0-2.97-.56-4.05-1.67v7.74ZM212.72,204.44c0-.4-.07-.79-.22-1.15-.14-.36-.35-.68-.62-.95-.27-.27-.59-.48-.95-.64-.36-.16-.76-.24-1.18-.24s-.78.08-1.14.23-.66.36-.92.63c-.26.27-.47.59-.63.95-.16.36-.24.75-.24,1.15s.08.78.23,1.14.36.66.63.92c.27.26.59.47.95.63.36.16.75.24,1.15.24s.79-.08,1.14-.23.66-.36.92-.63.47-.58.63-.94c.16-.35.24-.72.24-1.11Z"/>
        <path class="cls-2" d="M224.69,197.91v7.31c0,1.6.78,2.4,2.33,2.4s2.33-.8,2.33-2.4v-7.31h4.58v8.2c0,1.76-.58,3.07-1.73,3.95-1.16.88-2.88,1.32-5.18,1.32s-4.02-.44-5.18-1.32c-1.16-.88-1.73-2.19-1.73-3.95v-8.2h4.58Z"/>
        <path class="cls-2" d="M242.16,201.74v9.16h-4.58v-9.16h-1.52v-3.82h1.52v-3.9h4.58v3.9h2.61v3.82h-2.61Z"/>
        <path class="cls-2" d="M250.86,205.18c0,1.97.93,2.96,2.78,2.96,1,0,1.75-.41,2.25-1.22h4.43c-.89,2.97-3.13,4.45-6.71,4.45-1.1,0-2.1-.16-3.01-.49-.91-.33-1.69-.8-2.34-1.41s-1.15-1.33-1.51-2.18c-.35-.84-.53-1.79-.53-2.83s.17-2.05.51-2.92c.34-.87.82-1.61,1.44-2.21.62-.61,1.38-1.08,2.27-1.4s1.89-.49,3-.49,2.08.17,2.96.49c.88.33,1.62.81,2.23,1.43.61.62,1.07,1.39,1.39,2.29.32.9.48,1.92.48,3.05v.48h-9.64ZM256.23,202.52c-.15-.64-.46-1.16-.94-1.54s-1.05-.58-1.72-.58-1.29.19-1.73.56c-.45.37-.73.9-.85,1.57h5.24Z"/>
        <path class="cls-2" d="M263.11,197.91h4.58v2.13c.49-.78,1.09-1.37,1.8-1.78s1.54-.62,2.48-.62h.39c.14,0,.31.02.49.05v4.38c-.61-.3-1.27-.45-1.97-.45-1.06,0-1.86.32-2.39.95-.53.63-.8,1.56-.8,2.77v5.57h-4.58v-12.98Z"/>
        <path class="cls-2" d="M288.87,191.81v19.08h-4.96v-19.08h4.96Z"/>
        <path class="cls-2" d="M292.44,197.91h4.58v1.65c.62-.76,1.26-1.27,1.9-1.53.64-.26,1.39-.39,2.25-.39.91,0,1.69.15,2.34.44s1.2.71,1.66,1.25c.37.44.62.93.76,1.47.13.54.2,1.16.2,1.85v8.25h-4.58v-6.55c0-.64-.05-1.16-.14-1.56-.09-.4-.26-.71-.49-.95-.2-.2-.43-.34-.68-.43s-.52-.13-.81-.13c-.78,0-1.37.23-1.78.7s-.62,1.13-.62,1.99v6.93h-4.58v-12.98Z"/>
        <path class="cls-2" d="M314.36,201.74v9.16h-4.58v-9.16h-1.52v-3.82h1.52v-3.9h4.58v3.9h2.61v3.82h-2.61Z"/>
        <path class="cls-2" d="M323.06,205.18c0,1.97.93,2.96,2.78,2.96,1,0,1.75-.41,2.25-1.22h4.43c-.89,2.97-3.13,4.45-6.71,4.45-1.1,0-2.1-.16-3.01-.49-.91-.33-1.69-.8-2.34-1.41s-1.15-1.33-1.51-2.18c-.35-.84-.53-1.79-.53-2.83s.17-2.05.51-2.92c.34-.87.82-1.61,1.44-2.21.62-.61,1.38-1.08,2.27-1.4s1.89-.49,3-.49,2.08.17,2.96.49c.88.33,1.62.81,2.23,1.43.61.62,1.07,1.39,1.39,2.29.32.9.48,1.92.48,3.05v.48h-9.64ZM328.43,202.52c-.15-.64-.46-1.16-.94-1.54s-1.05-.58-1.72-.58-1.29.19-1.73.56c-.45.37-.73.9-.85,1.57h5.24Z"/>
        <path class="cls-2" d="M335.31,197.91h4.58v2.13c.49-.78,1.09-1.37,1.8-1.78s1.54-.62,2.48-.62h.39c.14,0,.31.02.49.05v4.38c-.61-.3-1.27-.45-1.97-.45-1.06,0-1.86.32-2.39.95-.53.63-.8,1.56-.8,2.77v5.57h-4.58v-12.98Z"/>
        <path class="cls-2" d="M357.28,197.91h4.61v12.98h-4.61v-1.44c-.98,1.23-2.3,1.85-3.97,1.85-.94,0-1.81-.17-2.61-.52-.79-.34-1.49-.83-2.08-1.45s-1.05-1.36-1.38-2.2c-.33-.84-.49-1.76-.49-2.76,0-.93.16-1.81.48-2.65.32-.83.77-1.56,1.34-2.19.57-.62,1.26-1.12,2.05-1.48.79-.36,1.67-.54,2.63-.54,1.62,0,2.96.57,4.02,1.7v-1.29ZM351.51,204.37c0,.42.08.81.23,1.18s.36.68.62.95.57.48.94.63c.36.15.75.23,1.18.23s.79-.08,1.15-.23c.36-.15.68-.36.94-.63s.47-.58.63-.94c.16-.35.24-.73.24-1.14s-.08-.79-.24-1.15c-.16-.36-.37-.68-.63-.95s-.57-.48-.94-.63c-.36-.15-.75-.23-1.15-.23s-.81.08-1.18.23c-.36.15-.68.36-.94.63s-.47.58-.62.92-.23.72-.23,1.13Z"/>
        <path class="cls-2" d="M374.79,202.12c-.79-.54-1.59-.81-2.41-.81-.44,0-.85.08-1.23.23s-.71.37-1,.65c-.29.28-.51.61-.67.99-.16.38-.24.81-.24,1.28s.08.87.24,1.25c.16.38.38.71.66.99.28.28.61.49,1,.65s.8.23,1.24.23c.86,0,1.66-.3,2.41-.89v3.9c-1.13.49-2.2.73-3.21.73-.94,0-1.84-.16-2.69-.48-.85-.32-1.6-.78-2.25-1.38s-1.17-1.32-1.56-2.15c-.39-.83-.58-1.77-.58-2.8s.19-1.97.56-2.82c.37-.85.88-1.59,1.52-2.2s1.41-1.1,2.29-1.44c.89-.34,1.83-.52,2.85-.52,1.11,0,2.14.24,3.09.71v3.9Z"/>
        <path class="cls-2" d="M382.51,201.74v9.16h-4.58v-9.16h-1.52v-3.82h1.52v-3.9h4.58v3.9h2.61v3.82h-2.61Z"/>
        <path class="cls-2" d="M386.89,192.93c0-.35.07-.69.2-1,.13-.31.32-.59.56-.82.23-.24.51-.42.82-.56.31-.13.65-.2,1-.2s.69.07,1,.2c.31.14.59.32.82.56s.42.51.56.82c.13.31.2.65.2,1s-.07.69-.2,1c-.14.31-.32.59-.56.82s-.51.42-.82.56c-.31.14-.65.2-1,.2s-.69-.07-1-.2c-.31-.13-.59-.32-.82-.56-.24-.24-.42-.51-.56-.82-.14-.31-.2-.64-.2-1ZM391.77,197.91v12.98h-4.58v-12.98h4.58Z"/>
        <path class="cls-2" d="M394.4,204.29c0-.96.19-1.86.58-2.69.39-.83.93-1.56,1.62-2.18.69-.61,1.51-1.1,2.47-1.45s2-.53,3.13-.53,2.15.17,3.1.52c.95.34,1.78.83,2.48,1.44.7.62,1.24,1.35,1.63,2.2s.58,1.79.58,2.82-.2,1.97-.59,2.82c-.4.85-.94,1.59-1.63,2.2-.69.62-1.52,1.09-2.49,1.43s-2.02.51-3.15.51-2.14-.17-3.09-.51-1.76-.82-2.44-1.44c-.68-.62-1.22-1.37-1.61-2.24-.39-.87-.58-1.83-.58-2.9ZM399.24,204.34c0,.44.08.84.24,1.2.16.36.37.68.63.95s.57.48.94.63c.36.15.75.23,1.15.23s.79-.08,1.15-.23c.36-.15.68-.36.94-.63.26-.27.47-.59.63-.95.16-.36.24-.76.24-1.18s-.08-.79-.24-1.15c-.16-.36-.37-.68-.63-.95-.26-.27-.57-.48-.94-.63-.36-.15-.75-.23-1.15-.23s-.79.08-1.15.23c-.36.15-.68.36-.94.63s-.47.58-.63.94c-.16.35-.24.73-.24,1.14Z"/>
        <path class="cls-2" d="M412.62,197.91h4.58v1.65c.62-.76,1.26-1.27,1.9-1.53.64-.26,1.39-.39,2.25-.39.91,0,1.69.15,2.34.44s1.2.71,1.66,1.25c.37.44.62.93.76,1.47.13.54.2,1.16.2,1.85v8.25h-4.58v-6.55c0-.64-.05-1.16-.14-1.56-.09-.4-.26-.71-.49-.95-.2-.2-.43-.34-.68-.43s-.52-.13-.81-.13c-.78,0-1.37.23-1.78.7s-.62,1.13-.62,1.99v6.93h-4.58v-12.98Z"/>
        <g>
          <path class="cls-2" d="M12.46,166.77h-6.76v3.66h6.39v4.82h-6.39v3.77h6.76v4.82H.01v-21.88h12.45v4.82Z"/>
          <path class="cls-2" d="M21.31,159.75v24.09h-5.25v-24.09h5.25Z"/>
          <path class="cls-2" d="M29.64,177.28c0,2.26,1.06,3.4,3.19,3.4,1.14,0,2-.46,2.58-1.39h5.08c-1.03,3.41-3.59,5.11-7.69,5.11-1.26,0-2.41-.19-3.45-.57-1.04-.38-1.94-.91-2.68-1.61-.74-.7-1.32-1.53-1.73-2.5-.41-.97-.61-2.05-.61-3.25s.19-2.36.58-3.35c.39-1,.94-1.84,1.65-2.54s1.58-1.23,2.6-1.61c1.02-.38,2.16-.57,3.44-.57s2.39.19,3.39.57c1.01.38,1.86.92,2.55,1.64.7.72,1.23,1.59,1.6,2.63.37,1.04.55,2.2.55,3.5v.55h-11.06ZM35.79,174.23c-.17-.74-.53-1.33-1.07-1.77-.54-.44-1.2-.67-1.97-.67-.81,0-1.47.21-1.99.64-.51.43-.84,1.03-.97,1.8h6.01Z"/>
          <path class="cls-2" d="M47.11,168.95l3.54,7.63,3.6-7.63h5.86l-7.75,14.89h-3.51l-7.66-14.89h5.92Z"/>
          <path class="cls-2" d="M65.95,177.28c0,2.26,1.06,3.4,3.19,3.4,1.14,0,2-.46,2.58-1.39h5.08c-1.03,3.41-3.59,5.11-7.69,5.11-1.26,0-2.41-.19-3.45-.57-1.04-.38-1.94-.91-2.68-1.61-.74-.7-1.32-1.53-1.73-2.5-.41-.97-.61-2.05-.61-3.25s.19-2.36.58-3.35c.39-1,.94-1.84,1.65-2.54s1.58-1.23,2.6-1.61c1.02-.38,2.16-.57,3.44-.57s2.39.19,3.39.57c1.01.38,1.86.92,2.55,1.64.7.72,1.23,1.59,1.6,2.63.37,1.04.55,2.2.55,3.5v.55h-11.06ZM72.1,174.23c-.17-.74-.53-1.33-1.07-1.77-.54-.44-1.2-.67-1.97-.67-.81,0-1.47.21-1.99.64-.51.43-.84,1.03-.97,1.8h6.01Z"/>
          <path class="cls-2" d="M79.99,168.95h5.25v1.89c.72-.87,1.44-1.46,2.18-1.76.73-.3,1.6-.45,2.58-.45,1.04,0,1.94.17,2.68.51.74.34,1.38.82,1.9,1.44.43.5.72,1.06.87,1.68.15.62.23,1.33.23,2.12v9.46h-5.25v-7.52c0-.74-.05-1.33-.16-1.78s-.29-.82-.57-1.09c-.23-.23-.49-.4-.78-.49-.29-.1-.6-.15-.93-.15-.89,0-1.57.27-2.05.8s-.71,1.29-.71,2.28v7.95h-5.25v-14.89Z"/>
          <path class="cls-2" d="M105.12,173.33v10.51h-5.25v-10.51h-1.74v-4.38h1.74v-4.47h5.25v4.47h2.99v4.38h-2.99Z"/>
          <path class="cls-2" d="M110.75,159.75h5.25v11.09c.72-.87,1.44-1.46,2.18-1.76.73-.3,1.6-.45,2.58-.45,1.88,0,3.29.52,4.25,1.55.96,1.04,1.44,2.43,1.44,4.19v9.46h-5.25v-7.52c0-.75-.06-1.36-.17-1.83s-.31-.82-.58-1.07c-.46-.41-1.03-.61-1.68-.61-.89,0-1.57.27-2.05.8s-.71,1.29-.71,2.28v7.95h-5.25v-24.09Z"/>
        </g>
      </g>
      <path class="cls-1" d="M387.63,25.47l1.15,10.65c13.08.45,24.12,6.28,30.77,17.63,13.09,22.36,7.93,66.63-21.77,73.38-37.76,8.57-53.4-25.29-47.96-57.62,3.2-19.06,16.27-32.96,36.28-33.2.34-3.32.37-6.99.77-10.27.07-.54.22-1.12.77-.57ZM385.22,57.69c-14.4,2-13.57,30.91-9.59,40.74,4.33,10.71,18.33,11.66,23.31,1.22,5.42-11.36,5.78-44.67-13.71-41.96Z"/>
      <path class="cls-1" d="M287.37,48.5c8.79-7.26,18.8-12.53,30.58-12.19.09-1.18.46-10.33.97-10.45.78-.19.64.63.76,1.15.73,3.11.6,6.11.61,9.28,13.04.74,24.02,8.75,26.2,21.99,3.18,19.36-14.22,34.44-26.22,46.91h27.1c-.21.49.39,1.15.39,1.35v14.9c-4.34-.31-8.64-1.17-12.97-1.55-10.3-.9-22.21-1.28-32.53-.79-6.14.29-12.23,1.66-18.37,1.95v-6c0-.81,5.23-5.17,6.21-6.17,7.61-7.81,27.59-27.95,30.87-37.26,4.73-13.44-6.76-16.07-16.95-11.14-5.16,2.49-10.64,8.04-15.11,10.05-.52.24-.97.27-1.53.21v-22.25Z"/>
      <path class="cls-1" d="M425.18,132.28l-4.07.77c-40.21,3.46-82.42-9.51-122.14-.97-11.88,2.56-23.64,7.17-35.45,10.23-42.57,11.02-87.47,11.33-130.01,0-14.5-3.86-28.76-9.59-43.57-12.17-11.1-1.93-22.06-2.23-33.31-2.31,19.42-2.54,39.08-.41,58.08,3.87,26.28,5.91,48.73,13.6,76.47,12.6,31.97-1.15,61.14-14.86,92.56-19.31,35.44-5.02,63.78.96,98.32,4.93,14.32,1.65,28.68,2.62,43.11,2.38Z"/>
      <path class="cls-1" d="M226.59,132.28l-7.27,1.82c-17.37,3.31-33.79,3.69-51.25.77-12.03-2.01-23.72-5.81-35.8-7.55-5.71-.83-10.85-.99-16.59-1.23-.47-.02-1.44.29-1.35-.38,13.68-1.26,27.18-.9,40.84.39,11.14,1.05,22.19,3.01,33.3,4.25,12.68,1.41,25.4,2.61,38.13,1.94Z"/>
      <path class="cls-2" d="M390.73,29.73c1.72-6.44-.2-12.32-5.23-16.63-3.67,5.04-3.4,11.13-.97,16.63-13.15-4.08-7.44-21.58-1.75-29.72,10.37,5.49,20.84,20.92,7.95,29.73Z"/>
      <path class="cls-2" d="M322.21,30.11c1.65-5.01.75-9.82-2.55-13.9-2.75-3.39-3.24-2.74-4.44,1.3-1.28,4.3-.75,8.58,1.18,12.59-10.59-3.21-8.69-14.6-5.61-22.82.8-2.13,1.95-4.98,3.55-6.54,1.46-.38,7.29,5.2,8.45,6.53,3.14,3.61,5.94,8.43,5.62,13.37-.23,3.59-2.64,8.2-6.21,9.46Z"/>
    </g>
  </g>
</svg>