<?xml version="1.0" encoding="UTF-8"?>
<svg id="Capa_2" data-name="Capa 2" xmlns="http://www.w3.org/2000/svg" viewBox="0 0 55.49 55.39">
  <defs>
    <style>
      .cls-1 {
        fill: #223048;
      }
    </style>
  </defs>
  <g id="Layer_1" data-name="Layer 1">
    <g>
      <path class="cls-1" d="M0,.02c1.54,0,2.97,0,4.41,0,3.46,0,6.91,0,10.37,0,.39,0,.61.12.84.43,3.67,5.08,7.36,10.16,11.05,15.23.27.37.57.72.85,1.09.24.31.41.29.65-.03.92-1.3,1.86-2.58,2.79-3.86,3-4.14,6-8.27,9-12.41.24-.33.49-.44.89-.44,4.64.01,9.27,0,13.91.01.19,0,.46-.11.56.11.08.19-.1.37-.22.53-6.26,8.72-12.52,17.43-18.78,26.15-.86,1.19-.83,1.39.07,2.53,1.49,1.9,2.95,3.82,4.43,5.71.33.42.09.83.06,1.22-.12,1.47-.32,2.94-.47,4.41-.27,2.55-.54,5.11-.81,7.66-.22,2.17-.43,4.34-.65,6.51-.02.17.04.42-.2.47-.23.05-.22-.22-.32-.34-1.01-1.22-1.84-2.57-2.74-3.87-1.35-1.94-2.65-3.92-3.97-5.89-1.06-1.57-2.12-3.13-3.18-4.7-.04-.06-.09-.1-.14-.15-.63-.74-.79-.73-1.34.08-1.44,2.14-2.89,4.27-4.33,6.4-1.36,2.03-2.7,4.07-4.08,6.09-.57.83-1.16,1.67-1.9,2.41-.32-.54-.21-1.12-.28-1.66-.28-2.47-.5-4.96-.76-7.43-.19-1.78-.41-3.55-.6-5.33-.19-1.78-.34-3.56-.53-5.33-.03-.28.06-.48.23-.7,1.67-2.16,3.33-4.34,5.02-6.49.25-.32.18-.51-.02-.79-3.34-4.63-6.66-9.26-9.99-13.9C6.71,9.41,3.58,5.05.46.69.32.5.19.3,0,.02Z"/>
      <path class="cls-1" d="M.27,6.94c-.08-.95-.17-1.89-.26-2.97.57.51.88,1.05,1.24,1.54,3.2,4.26,6.39,8.53,9.59,12.79.38.51.25,1.09.32,1.63.27,2.29.5,4.58.73,6.87.18,1.75.35,3.5.53,5.24.16,1.59.35,3.19.51,4.78.18,1.83.34,3.67.53,5.51.22,2.21.47,4.41.69,6.62.21,2.09.41,4.17.62,6.26-.21.07-.29-.11-.39-.2-3.53-3.2-7.05-6.41-10.58-9.61-.23-.21-.31-.44-.33-.72-.12-1.34-.22-2.69-.34-4.03-.16-1.82-.33-3.64-.49-5.46-.12-1.43-.22-2.86-.34-4.29-.15-1.84-.32-3.68-.48-5.51-.15-1.79-.3-3.58-.45-5.36-.15-1.82-.31-3.64-.46-5.47-.16-1.96-.32-3.92-.47-5.87,0-.55,0-1.09-.01-1.64,0-.1.01-.23-.15-.11Z"/>
      <path class="cls-1" d="M43.99,23.95c.17-1.66.33-3.33.49-4.99.03-.26.12-.48.28-.7,3.46-4.62,6.91-9.25,10.37-13.87.07-.1.12-.25.33-.25.08.73-.07,1.45-.13,2.17-.15,1.91-.31,3.81-.47,5.72-.18,2.14-.38,4.29-.56,6.43-.16,1.89-.31,3.78-.47,5.67-.18,2.13-.38,4.25-.55,6.38-.17,1.97-.31,3.95-.48,5.92-.1,1.28-.22,2.55-.33,3.83-.13,1.44-.28,2.89-.37,4.33-.03.4-.17.67-.45.91-1.37,1.21-2.73,2.45-4.08,3.68-1.36,1.24-2.74,2.46-4.07,3.73-.84.8-1.72,1.56-2.63,2.38-.15-.57.02-1.07.06-1.56.19-2.12.43-4.25.64-6.37.2-1.95.38-3.91.59-5.86.19-1.83.4-3.66.59-5.5.19-1.83.37-3.67.56-5.5.02-.22.06-.44.1-.66.14-.05.16-.16.16-.29.03-.69.12-1.39.16-2.07.08-1.18.38-2.35.27-3.54Z"/>
    </g>
  </g>
</svg>