<?xml version="1.0" encoding="UTF-8"?>
<svg id="Capa_2" data-name="Capa 2" xmlns="http://www.w3.org/2000/svg" viewBox="0 0 517.91 189.04">
  <defs>
    <style>
      .cls-1 {
        fill: #223048;
      }

      .cls-2 {
        fill: #8a174f;
      }
    </style>
  </defs>
  <g id="Layer_1" data-name="Layer 1">
    <g>
      <path class="cls-2" d="M17.45,134.65h-5.91v3.19h5.58v4.21h-5.58v3.29h5.91v4.21H6.58v-19.11h10.87v4.21Z"/>
      <path class="cls-2" d="M25.18,128.52v21.04h-4.59v-21.04h4.59Z"/>
      <path class="cls-2" d="M32.45,143.83c0,1.98.93,2.97,2.79,2.97,1,0,1.75-.41,2.26-1.22h4.44c-.9,2.97-3.13,4.46-6.72,4.46-1.1,0-2.1-.17-3.02-.49-.91-.33-1.69-.8-2.34-1.41-.65-.61-1.15-1.33-1.51-2.18-.36-.84-.53-1.79-.53-2.84s.17-2.06.51-2.93c.34-.87.82-1.61,1.45-2.22.62-.61,1.38-1.08,2.27-1.41.89-.33,1.89-.49,3-.49s2.09.16,2.97.49,1.62.81,2.23,1.43c.61.63,1.07,1.39,1.39,2.29.32.9.48,1.92.48,3.05v.48h-9.66ZM37.83,141.17c-.15-.64-.46-1.16-.94-1.55-.47-.39-1.05-.58-1.72-.58-.71,0-1.29.19-1.74.56-.45.37-.73.9-.85,1.57h5.25Z"/>
      <path class="cls-2" d="M47.71,136.56l3.09,6.67,3.14-6.67h5.12l-6.77,13h-3.07l-6.69-13h5.17Z"/>
      <path class="cls-2" d="M64.16,143.83c0,1.98.93,2.97,2.79,2.97,1,0,1.75-.41,2.26-1.22h4.44c-.9,2.97-3.13,4.46-6.72,4.46-1.1,0-2.1-.17-3.02-.49-.91-.33-1.69-.8-2.34-1.41-.65-.61-1.15-1.33-1.51-2.18-.36-.84-.53-1.79-.53-2.84s.17-2.06.51-2.93c.34-.87.82-1.61,1.45-2.22.62-.61,1.38-1.08,2.27-1.41.89-.33,1.89-.49,3-.49s2.09.16,2.97.49,1.62.81,2.23,1.43c.61.63,1.07,1.39,1.39,2.29.32.9.48,1.92.48,3.05v.48h-9.66ZM69.53,141.17c-.15-.64-.46-1.16-.94-1.55-.47-.39-1.05-.58-1.72-.58-.71,0-1.29.19-1.74.56-.45.37-.73.9-.85,1.57h5.25Z"/>
      <path class="cls-2" d="M76.43,136.56h4.59v1.65c.62-.76,1.26-1.27,1.9-1.53.64-.26,1.39-.39,2.26-.39.91,0,1.69.15,2.34.44.65.3,1.2.71,1.66,1.25.37.44.63.93.76,1.47.13.54.2,1.16.2,1.85v8.26h-4.59v-6.56c0-.64-.05-1.16-.14-1.56-.09-.4-.26-.71-.49-.95-.2-.2-.43-.35-.68-.43-.25-.08-.52-.13-.81-.13-.78,0-1.37.23-1.79.7-.41.46-.62,1.13-.62,1.99v6.94h-4.59v-13Z"/>
      <path class="cls-2" d="M98.37,140.38v9.18h-4.59v-9.18h-1.52v-3.83h1.52v-3.9h4.59v3.9h2.61v3.83h-2.61Z"/>
      <path class="cls-2" d="M103.29,128.52h4.59v9.68c.62-.76,1.26-1.27,1.9-1.53.64-.26,1.39-.39,2.26-.39,1.64,0,2.88.45,3.71,1.36.84.9,1.25,2.12,1.25,3.66v8.26h-4.59v-6.56c0-.66-.05-1.19-.15-1.6-.1-.41-.27-.72-.51-.94-.4-.35-.9-.53-1.47-.53-.78,0-1.37.23-1.79.7-.41.46-.62,1.13-.62,1.99v6.94h-4.59v-21.04Z"/>
      <path d="M127.99,149.56l4.02-20.54,6.56,14.85,6.79-14.85,3.61,20.54h-2.96l-1.84-11.53-5.66,12.41-5.49-12.43-2.05,11.55h-2.98Z"/>
      <path d="M163.47,144.19h-8.64c.07.99.4,1.78.97,2.36.57.58,1.3.87,2.19.87.69,0,1.27-.16,1.72-.49.45-.33.95-.94,1.52-1.83l2.35,1.31c-.36.62-.75,1.15-1.15,1.59s-.84.8-1.3,1.09-.96.49-1.5.62-1.12.2-1.74.2c-1.8,0-3.24-.58-4.33-1.73-1.09-1.16-1.63-2.71-1.63-4.63s.53-3.45,1.58-4.63c1.06-1.16,2.47-1.74,4.23-1.74s3.18.57,4.21,1.7c1.02,1.12,1.53,2.68,1.53,4.67v.66ZM160.61,141.91c-.39-1.49-1.32-2.23-2.81-2.23-.34,0-.66.05-.95.15-.3.1-.57.25-.81.45-.24.19-.45.43-.62.7-.17.27-.31.58-.4.93h5.59Z"/>
      <path d="M169.77,143.04l-4.33-5.53h3.32l2.69,3.51,2.73-3.51h3.42l-4.46,5.53,5.16,6.52h-3.32l-3.54-4.5-3.63,4.5h-3.4l5.36-6.52Z"/>
      <path d="M179.76,132.49c0-.49.18-.91.53-1.26.35-.35.78-.53,1.27-.53s.93.18,1.29.53c.36.35.53.77.53,1.27s-.18.93-.53,1.29c-.35.35-.77.53-1.27.53s-.93-.18-1.29-.53c-.36-.35-.53-.79-.53-1.3ZM182.96,137.5v12.05h-2.78v-12.05h2.78Z"/>
      <path d="M195.87,138.02v3.7c-.64-.78-1.2-1.31-1.71-1.6-.5-.3-1.08-.45-1.74-.45-1.05,0-1.92.37-2.61,1.1-.69.73-1.04,1.65-1.04,2.76s.33,2.06,1,2.78c.68.73,1.54,1.09,2.59,1.09.67,0,1.26-.14,1.77-.43.5-.28,1.08-.82,1.74-1.63v3.68c-1.13.59-2.26.88-3.39.88-1.86,0-3.42-.6-4.68-1.81-1.25-1.21-1.88-2.72-1.88-4.52s.64-3.32,1.91-4.55,2.83-1.86,4.68-1.86c1.19,0,2.31.28,3.37.85Z"/>
      <path d="M207.45,137.5h2.8v12.05h-2.8v-1.26c-1.15,1.07-2.38,1.61-3.7,1.61-1.67,0-3.04-.6-4.13-1.81-1.08-1.23-1.62-2.76-1.62-4.6s.54-3.31,1.62-4.52c1.08-1.2,2.43-1.81,4.06-1.81,1.4,0,2.66.58,3.77,1.73v-1.4ZM200.85,143.49c0,1.16.31,2.1.93,2.82.64.73,1.44,1.1,2.4,1.1,1.03,0,1.86-.35,2.5-1.06.64-.73.95-1.67.95-2.8s-.32-2.06-.95-2.8c-.64-.72-1.46-1.08-2.48-1.08-.96,0-1.76.36-2.4,1.09-.64.73-.95,1.64-.95,2.72Z"/>
      <path d="M213.77,137.5h2.8v1.11c.97-.97,2.07-1.45,3.29-1.45,1.4,0,2.5.44,3.28,1.32.68.75,1.01,1.98,1.01,3.68v7.39h-2.8v-6.73c0-1.19-.17-2.01-.5-2.46-.32-.46-.91-.69-1.76-.69-.92,0-1.58.31-1.97.92-.38.6-.57,1.65-.57,3.16v5.82h-2.8v-12.05Z"/>
      <path d="M238.9,130.45v19.11h-2.88v-19.11h2.88Z"/>
      <path d="M242.96,137.5h2.8v1.11c.97-.97,2.07-1.45,3.29-1.45,1.4,0,2.5.44,3.28,1.32.68.75,1.01,1.98,1.01,3.68v7.39h-2.8v-6.73c0-1.19-.17-2.01-.5-2.46-.32-.46-.91-.69-1.76-.69-.92,0-1.58.31-1.97.92-.38.6-.57,1.65-.57,3.16v5.82h-2.8v-12.05Z"/>
      <path d="M259.73,140.1v9.45h-2.78v-9.45h-1.19v-2.6h1.19v-4.42h2.78v4.42h2.17v2.6h-2.17Z"/>
      <path d="M274.99,144.19h-8.64c.07.99.4,1.78.97,2.36.57.58,1.3.87,2.19.87.69,0,1.27-.16,1.72-.49.45-.33.95-.94,1.52-1.83l2.35,1.31c-.36.62-.75,1.15-1.15,1.59s-.84.8-1.3,1.09-.96.49-1.5.62-1.12.2-1.74.2c-1.8,0-3.24-.58-4.33-1.73-1.09-1.16-1.63-2.71-1.63-4.63s.53-3.45,1.58-4.63c1.06-1.16,2.47-1.74,4.23-1.74s3.18.57,4.21,1.7c1.02,1.12,1.53,2.68,1.53,4.67v.66ZM272.13,141.91c-.39-1.49-1.32-2.23-2.81-2.23-.34,0-.66.05-.95.15-.3.1-.57.25-.81.45-.24.19-.45.43-.62.7-.17.27-.31.58-.4.93h5.59Z"/>
      <path d="M278.03,137.5h2.78v1.08c.51-.54.97-.9,1.36-1.1.4-.21.88-.31,1.44-.31.73,0,1.5.24,2.3.72l-1.27,2.55c-.53-.38-1.04-.57-1.55-.57-1.52,0-2.28,1.15-2.28,3.44v6.25h-2.78v-12.05Z"/>
      <path d="M287.89,137.5h2.8v1.11c.97-.97,2.07-1.45,3.29-1.45,1.4,0,2.5.44,3.28,1.32.68.75,1.01,1.98,1.01,3.68v7.39h-2.8v-6.73c0-1.19-.17-2.01-.5-2.46-.32-.46-.91-.69-1.76-.69-.92,0-1.58.31-1.97.92-.38.6-.57,1.65-.57,3.16v5.82h-2.8v-12.05Z"/>
      <path d="M310.68,137.5h2.8v12.05h-2.8v-1.26c-1.15,1.07-2.38,1.61-3.7,1.61-1.67,0-3.04-.6-4.13-1.81-1.08-1.23-1.62-2.76-1.62-4.6s.54-3.31,1.62-4.52c1.08-1.2,2.43-1.81,4.06-1.81,1.4,0,2.66.58,3.77,1.73v-1.4ZM304.07,143.49c0,1.16.31,2.1.93,2.82.64.73,1.44,1.1,2.4,1.1,1.03,0,1.86-.35,2.5-1.06.64-.73.95-1.67.95-2.8s-.32-2.06-.95-2.8c-.64-.72-1.46-1.08-2.48-1.08-.96,0-1.76.36-2.4,1.09-.64.73-.95,1.64-.95,2.72Z"/>
      <path d="M319.86,140.1v9.45h-2.78v-9.45h-1.19v-2.6h1.19v-4.42h2.78v4.42h2.17v2.6h-2.17Z"/>
      <path d="M323.5,132.49c0-.49.18-.91.53-1.26.35-.35.78-.53,1.27-.53s.93.18,1.29.53c.36.35.53.77.53,1.27s-.18.93-.53,1.29c-.35.35-.77.53-1.27.53s-.93-.18-1.29-.53c-.36-.35-.53-.79-.53-1.3ZM326.7,137.5v12.05h-2.78v-12.05h2.78Z"/>
      <path d="M329.66,143.44c0-1.74.62-3.22,1.87-4.44,1.25-1.22,2.76-1.83,4.55-1.83s3.32.61,4.58,1.84c1.24,1.23,1.86,2.74,1.86,4.53s-.62,3.32-1.87,4.54c-1.25,1.21-2.79,1.82-4.62,1.82s-3.32-.62-4.54-1.86c-1.22-1.22-1.83-2.76-1.83-4.6ZM332.51,143.49c0,1.2.32,2.16.97,2.86.66.71,1.53,1.06,2.61,1.06s1.96-.35,2.61-1.05c.65-.7.98-1.64.98-2.81s-.33-2.11-.98-2.81c-.66-.71-1.53-1.06-2.61-1.06s-1.93.35-2.59,1.06c-.66.71-.99,1.63-.99,2.75Z"/>
      <path d="M345.47,137.5h2.8v1.11c.97-.97,2.07-1.45,3.29-1.45,1.4,0,2.5.44,3.28,1.32.68.75,1.01,1.98,1.01,3.68v7.39h-2.8v-6.73c0-1.19-.17-2.01-.5-2.46-.32-.46-.91-.69-1.76-.69-.92,0-1.58.31-1.97.92-.38.6-.57,1.65-.57,3.16v5.82h-2.8v-12.05Z"/>
      <path d="M368.25,137.5h2.8v12.05h-2.8v-1.26c-1.15,1.07-2.38,1.61-3.7,1.61-1.67,0-3.04-.6-4.13-1.81-1.08-1.23-1.62-2.76-1.62-4.6s.54-3.31,1.62-4.52c1.08-1.2,2.43-1.81,4.06-1.81,1.4,0,2.66.58,3.77,1.73v-1.4ZM361.64,143.49c0,1.16.31,2.1.93,2.82.64.73,1.44,1.1,2.4,1.1,1.03,0,1.86-.35,2.5-1.06.64-.73.95-1.67.95-2.8s-.32-2.06-.95-2.8c-.64-.72-1.46-1.08-2.48-1.08-.96,0-1.76.36-2.4,1.09-.64.73-.95,1.64-.95,2.72Z"/>
      <path d="M377.35,128.66v20.9h-2.78v-20.9h2.78Z"/>
      <path d="M403.35,131.48v3.42c-1.67-1.39-3.39-2.09-5.17-2.09-1.96,0-3.62.71-4.96,2.12-1.35,1.4-2.03,3.12-2.03,5.15s.68,3.7,2.03,5.07c1.35,1.38,3.01,2.07,4.97,2.07,1.02,0,1.88-.17,2.59-.5.4-.16.81-.39,1.23-.67.43-.28.87-.62,1.34-1.01v3.48c-1.65.93-3.38,1.4-5.2,1.4-2.73,0-5.06-.95-6.99-2.86-1.92-1.92-2.88-4.24-2.88-6.96,0-2.43.8-4.6,2.41-6.51,1.98-2.33,4.54-3.5,7.69-3.5,1.72,0,3.37.47,4.97,1.4Z"/>
      <path d="M405.88,143.44c0-1.74.62-3.22,1.87-4.44,1.25-1.22,2.76-1.83,4.55-1.83s3.32.61,4.58,1.84c1.24,1.23,1.86,2.74,1.86,4.53s-.62,3.32-1.87,4.54c-1.25,1.21-2.79,1.82-4.62,1.82s-3.32-.62-4.54-1.86c-1.22-1.22-1.83-2.76-1.83-4.6ZM408.73,143.49c0,1.2.32,2.16.97,2.86.66.71,1.53,1.06,2.61,1.06s1.96-.35,2.61-1.05c.65-.7.98-1.64.98-2.81s-.33-2.11-.98-2.81c-.66-.71-1.53-1.06-2.61-1.06s-1.93.35-2.59,1.06c-.66.71-.99,1.63-.99,2.75Z"/>
      <path d="M421.69,137.5h2.8v1.11c.97-.97,2.07-1.45,3.29-1.45,1.4,0,2.5.44,3.28,1.32.68.75,1.01,1.98,1.01,3.68v7.39h-2.8v-6.73c0-1.19-.17-2.01-.5-2.46-.32-.46-.91-.69-1.76-.69-.92,0-1.58.31-1.97.92-.38.6-.57,1.65-.57,3.16v5.82h-2.8v-12.05Z"/>
      <path d="M438.47,140.1v9.45h-2.8v-9.45h-.99v-2.6h.99v-4.65c0-1.52.26-2.59.79-3.22.73-.87,1.78-1.31,3.17-1.31.5,0,1.12.14,1.87.43v2.85l-.28-.15c-.6-.31-1.1-.46-1.48-.46-.5,0-.83.18-1,.53-.17.35-.26,1.01-.26,2v3.97h3.03v2.6h-3.03Z"/>
      <path d="M454.47,144.19h-8.64c.07.99.4,1.78.97,2.36.57.58,1.3.87,2.19.87.69,0,1.27-.16,1.72-.49.45-.33.95-.94,1.52-1.83l2.35,1.31c-.36.62-.75,1.15-1.15,1.59s-.84.8-1.3,1.09-.96.49-1.5.62-1.12.2-1.74.2c-1.8,0-3.24-.58-4.33-1.73-1.09-1.16-1.63-2.71-1.63-4.63s.53-3.45,1.58-4.63c1.06-1.16,2.47-1.74,4.23-1.74s3.18.57,4.21,1.7c1.02,1.12,1.53,2.68,1.53,4.67v.66ZM451.61,141.91c-.39-1.49-1.32-2.23-2.81-2.23-.34,0-.66.05-.95.15-.3.1-.57.25-.81.45-.24.19-.45.43-.62.7-.17.27-.31.58-.4.93h5.59Z"/>
      <path d="M457.51,137.5h2.78v1.08c.51-.54.97-.9,1.36-1.1.4-.21.88-.31,1.44-.31.73,0,1.5.24,2.3.72l-1.27,2.55c-.53-.38-1.04-.57-1.55-.57-1.52,0-2.28,1.15-2.28,3.44v6.25h-2.78v-12.05Z"/>
      <path d="M477.8,144.19h-8.64c.07.99.4,1.78.97,2.36.57.58,1.3.87,2.19.87.69,0,1.27-.16,1.72-.49.45-.33.95-.94,1.52-1.83l2.35,1.31c-.36.62-.75,1.15-1.15,1.59s-.84.8-1.3,1.09-.96.49-1.5.62-1.12.2-1.74.2c-1.8,0-3.24-.58-4.33-1.73-1.09-1.16-1.63-2.71-1.63-4.63s.53-3.45,1.58-4.63c1.06-1.16,2.47-1.74,4.23-1.74s3.18.57,4.21,1.7c1.02,1.12,1.53,2.68,1.53,4.67v.66ZM474.94,141.91c-.39-1.49-1.32-2.23-2.81-2.23-.34,0-.66.05-.95.15-.3.1-.57.25-.81.45-.24.19-.45.43-.62.7-.17.27-.31.58-.4.93h5.59Z"/>
      <path d="M480.84,137.5h2.8v1.11c.97-.97,2.07-1.45,3.29-1.45,1.4,0,2.5.44,3.28,1.32.68.75,1.01,1.98,1.01,3.68v7.39h-2.8v-6.73c0-1.19-.17-2.01-.5-2.46-.32-.46-.91-.69-1.76-.69-.92,0-1.58.31-1.97.92-.38.6-.57,1.65-.57,3.16v5.82h-2.8v-12.05Z"/>
      <path d="M504.12,138.02v3.7c-.64-.78-1.2-1.31-1.71-1.6-.5-.3-1.08-.45-1.74-.45-1.05,0-1.92.37-2.61,1.1-.69.73-1.04,1.65-1.04,2.76s.33,2.06,1,2.78c.68.73,1.54,1.09,2.59,1.09.67,0,1.26-.14,1.77-.43.5-.28,1.08-.82,1.74-1.63v3.68c-1.13.59-2.26.88-3.39.88-1.86,0-3.42-.6-4.68-1.81-1.25-1.21-1.88-2.72-1.88-4.52s.64-3.32,1.91-4.55,2.83-1.86,4.68-1.86c1.19,0,2.31.28,3.37.85Z"/>
      <path d="M517.8,144.19h-8.64c.07.99.4,1.78.97,2.36.57.58,1.3.87,2.19.87.69,0,1.27-.16,1.72-.49.45-.33.95-.94,1.52-1.83l2.35,1.31c-.36.62-.75,1.15-1.15,1.59s-.84.8-1.3,1.09-.96.49-1.5.62-1.12.2-1.74.2c-1.8,0-3.24-.58-4.33-1.73-1.09-1.16-1.63-2.71-1.63-4.63s.53-3.45,1.58-4.63c1.06-1.16,2.47-1.74,4.23-1.74s3.18.57,4.21,1.7c1.02,1.12,1.53,2.68,1.53,4.67v.66ZM514.94,141.91c-.39-1.49-1.32-2.23-2.81-2.23-.34,0-.66.05-.95.15-.3.1-.57.25-.81.45-.24.19-.45.43-.62.7-.17.27-.31.58-.4.93h5.59Z"/>
      <path d="M5.76,173.93c0-2.09.75-3.86,2.24-5.33,1.49-1.46,3.32-2.2,5.46-2.2s3.99.74,5.49,2.21c1.48,1.47,2.23,3.29,2.23,5.43s-.75,3.98-2.24,5.45c-1.5,1.45-3.35,2.18-5.54,2.18s-3.98-.74-5.45-2.23c-1.46-1.46-2.2-3.31-2.2-5.52ZM9.18,173.99c0,1.45.39,2.59,1.16,3.43.79.85,1.84,1.28,3.13,1.28s2.35-.42,3.13-1.26c.78-.84,1.17-1.96,1.17-3.37s-.39-2.53-1.17-3.37c-.79-.85-1.84-1.28-3.13-1.28s-2.31.43-3.1,1.28c-.79.85-1.19,1.95-1.19,3.3Z"/>
      <path d="M24.72,166.8h3.36v1.34c1.17-1.16,2.48-1.74,3.95-1.74,1.68,0,2.99.53,3.93,1.59.81.9,1.22,2.37,1.22,4.41v8.86h-3.35v-8.08c0-1.42-.2-2.41-.59-2.95-.39-.55-1.09-.83-2.11-.83-1.11,0-1.9.37-2.36,1.1-.46.72-.68,1.98-.68,3.79v6.98h-3.36v-14.46Z"/>
      <path class="cls-2" d="M57.03,167.18h8.6v-8.85h5.96v22.92h-5.96v-9.46h-8.6v9.46h-5.96v-22.92h5.96v8.85Z"/>
      <path class="cls-2" d="M81.38,165.66v8.79c0,1.93.93,2.89,2.8,2.89s2.8-.96,2.8-2.89v-8.79h5.5v9.85c0,2.11-.7,3.69-2.08,4.74-1.39,1.05-3.46,1.58-6.22,1.58s-4.83-.53-6.22-1.58c-1.39-1.05-2.08-2.63-2.08-4.74v-9.85h5.5Z"/>
      <path class="cls-2" d="M96.21,165.66h5.5v1.92c1.5-1.44,3.18-2.16,5.05-2.16,2.31,0,4.07.97,5.29,2.92,1.24-1.97,3-2.95,5.29-2.95.73,0,1.42.11,2.07.32.65.21,1.21.55,1.67,1s.84,1.05,1.11,1.78c.27.73.41,1.61.41,2.65v10.12h-5.5v-7.69c0-.79-.06-1.44-.17-1.95s-.27-.9-.49-1.19c-.21-.28-.46-.48-.74-.58-.28-.1-.59-.15-.91-.15-1.76,0-2.65,1.29-2.65,3.86v7.69h-5.5v-7.69c0-.79-.05-1.44-.15-1.96-.1-.52-.25-.93-.44-1.23s-.44-.51-.74-.62-.66-.17-1.06-.17c-.35,0-.67.05-.97.15-.3.1-.57.3-.81.59s-.42.7-.55,1.22c-.13.52-.2,1.19-.2,2.02v7.69h-5.5v-15.6Z"/>
      <path class="cls-2" d="M138.42,165.66h5.53v15.6h-5.53v-1.73c-1.18,1.48-2.77,2.22-4.77,2.22-1.14,0-2.18-.21-3.13-.62-.95-.42-1.78-1-2.49-1.75-.71-.75-1.26-1.63-1.66-2.65s-.59-2.12-.59-3.31c0-1.11.19-2.17.58-3.18.38-1,.92-1.88,1.61-2.63.69-.75,1.51-1.34,2.46-1.78.95-.44,2.01-.65,3.16-.65,1.95,0,3.56.68,4.83,2.04v-1.55ZM131.48,173.42c0,.51.09.98.27,1.41.18.44.43.82.75,1.14.31.32.69.58,1.12.76.44.18.91.27,1.41.27s.95-.09,1.38-.27c.44-.18.81-.44,1.12-.76.31-.32.57-.7.76-1.12.19-.43.29-.88.29-1.37s-.1-.95-.29-1.38-.45-.82-.76-1.14c-.31-.32-.69-.58-1.12-.76-.44-.18-.9-.27-1.38-.27s-.98.09-1.41.27c-.44.18-.81.44-1.12.76-.31.32-.56.69-.75,1.11s-.27.87-.27,1.35Z"/>
      <path class="cls-2" d="M147.69,165.66h5.5v1.98c.75-.91,1.51-1.53,2.28-1.84.77-.31,1.67-.47,2.71-.47,1.1,0,2.03.18,2.81.53.78.35,1.44.86,1.99,1.5.45.53.75,1.11.91,1.76.16.65.24,1.39.24,2.22v9.91h-5.5v-7.87c0-.77-.06-1.39-.17-1.87-.11-.48-.31-.86-.59-1.14-.24-.24-.52-.42-.82-.52-.3-.1-.63-.15-.97-.15-.93,0-1.65.28-2.14.84-.5.56-.74,1.35-.74,2.39v8.33h-5.5v-15.6Z"/>
      <path class="cls-2" d="M165.99,170.83h8.73v4.59h-8.73v-4.59Z"/>
      <path class="cls-2" d="M193.63,166c-1.38-1.68-3.08-2.52-5.11-2.52-.89,0-1.72.16-2.48.49-.76.32-1.41.77-1.96,1.32s-.98,1.22-1.29,1.99-.47,1.6-.47,2.49.16,1.75.47,2.52c.31.77.75,1.44,1.31,2.01.56.57,1.21,1.01,1.96,1.34.75.32,1.56.49,2.43.49,1.9,0,3.62-.81,5.14-2.43v7.05l-.61.21c-.91.32-1.76.56-2.55.71s-1.57.23-2.34.23c-1.58,0-3.1-.3-4.55-.9-1.45-.6-2.73-1.44-3.83-2.52s-1.99-2.37-2.66-3.86c-.67-1.49-1-3.12-1-4.88s.33-3.38.99-4.85c.66-1.47,1.54-2.74,2.64-3.8,1.1-1.06,2.39-1.9,3.85-2.49,1.46-.6,2.99-.9,4.59-.9.91,0,1.81.1,2.69.29.88.19,1.81.49,2.78.9v7.11Z"/>
      <path class="cls-2" d="M196.27,173.33c0-1.15.23-2.23.7-3.24.47-1,1.11-1.87,1.95-2.62.83-.74,1.82-1.32,2.96-1.75,1.15-.43,2.4-.64,3.75-.64s2.58.21,3.72.62c1.15.42,2.14.99,2.98,1.73.84.74,1.49,1.62,1.96,2.65.47,1.02.7,2.15.7,3.39s-.24,2.37-.71,3.39c-.48,1.02-1.13,1.91-1.96,2.65-.83.74-1.83,1.31-2.99,1.72-1.17.41-2.43.61-3.79.61s-2.57-.2-3.71-.61c-1.13-.4-2.11-.98-2.93-1.73s-1.46-1.65-1.93-2.69-.7-2.2-.7-3.48ZM202.08,173.39c0,.53.1,1.01.29,1.44.19.44.45.82.76,1.14.31.32.69.58,1.12.76.44.18.9.27,1.38.27s.95-.09,1.38-.27c.44-.18.81-.44,1.12-.76.31-.32.57-.7.76-1.14.19-.44.29-.91.29-1.41s-.1-.95-.29-1.38c-.19-.44-.45-.82-.76-1.14-.32-.32-.69-.58-1.12-.76-.44-.18-.9-.27-1.38-.27s-.95.09-1.38.27-.81.44-1.12.76-.57.7-.76,1.12c-.19.43-.29.88-.29,1.37Z"/>
      <path class="cls-2" d="M218.16,165.66h5.5v1.92c1.5-1.44,3.18-2.16,5.05-2.16,2.31,0,4.07.97,5.29,2.92,1.24-1.97,3-2.95,5.29-2.95.73,0,1.42.11,2.07.32.65.21,1.21.55,1.67,1s.84,1.05,1.11,1.78c.27.73.41,1.61.41,2.65v10.12h-5.5v-7.69c0-.79-.06-1.44-.17-1.95s-.27-.9-.49-1.19c-.21-.28-.46-.48-.74-.58-.28-.1-.59-.15-.91-.15-1.76,0-2.65,1.29-2.65,3.86v7.69h-5.5v-7.69c0-.79-.05-1.44-.15-1.96-.1-.52-.25-.93-.44-1.23s-.44-.51-.74-.62-.66-.17-1.06-.17c-.35,0-.67.05-.97.15-.3.1-.57.3-.81.59s-.42.7-.55,1.22c-.13.52-.2,1.19-.2,2.02v7.69h-5.5v-15.6Z"/>
      <path class="cls-2" d="M254.37,189.04h-5.5v-23.38h5.5v1.73c1.18-1.48,2.78-2.22,4.8-2.22,1.11,0,2.15.22,3.12.65.96.44,1.8,1.03,2.51,1.78s1.26,1.63,1.66,2.65c.4,1.01.59,2.1.59,3.25s-.2,2.23-.59,3.22c-.4.99-.94,1.86-1.64,2.61s-1.53,1.34-2.48,1.76-1.99.64-3.1.64c-1.95,0-3.57-.67-4.86-2.01v9.3ZM261.31,173.51c0-.49-.09-.95-.26-1.38-.17-.44-.42-.82-.75-1.14s-.7-.58-1.14-.78c-.44-.19-.91-.29-1.41-.29s-.94.09-1.37.27c-.43.18-.8.44-1.11.76s-.57.7-.76,1.14c-.19.44-.29.9-.29,1.38s.09.94.27,1.37c.18.43.44.8.76,1.11.32.31.7.57,1.14.76s.9.29,1.38.29.94-.09,1.37-.27c.43-.18.8-.44,1.11-.76.31-.32.57-.7.76-1.12.19-.43.29-.87.29-1.34Z"/>
      <path class="cls-2" d="M275.69,165.66v8.79c0,1.93.93,2.89,2.8,2.89s2.8-.96,2.8-2.89v-8.79h5.5v9.85c0,2.11-.7,3.69-2.08,4.74-1.39,1.05-3.46,1.58-6.22,1.58s-4.83-.53-6.22-1.58c-1.39-1.05-2.08-2.63-2.08-4.74v-9.85h5.5Z"/>
      <path class="cls-2" d="M296.66,170.25v11.01h-5.5v-11.01h-1.82v-4.59h1.82v-4.68h5.5v4.68h3.13v4.59h-3.13Z"/>
      <path class="cls-2" d="M307.12,174.39c0,2.37,1.11,3.56,3.35,3.56,1.2,0,2.1-.49,2.71-1.46h5.32c-1.07,3.57-3.76,5.35-8.06,5.35-1.32,0-2.52-.2-3.62-.59-1.09-.4-2.03-.96-2.81-1.69-.78-.73-1.38-1.6-1.81-2.61s-.64-2.15-.64-3.4.2-2.47.61-3.51c.41-1.04.98-1.93,1.73-2.66.75-.73,1.66-1.29,2.72-1.69,1.06-.4,2.26-.59,3.6-.59s2.5.2,3.56.59,1.95.97,2.68,1.72c.73.75,1.29,1.67,1.67,2.75.38,1.08.58,2.31.58,3.66v.58h-11.58ZM313.57,171.2c-.18-.77-.56-1.39-1.12-1.85-.57-.47-1.26-.7-2.07-.7-.85,0-1.55.22-2.08.67-.54.45-.88,1.07-1.02,1.89h6.29Z"/>
      <path class="cls-2" d="M321.84,165.66h5.5v2.55c.59-.93,1.31-1.65,2.16-2.14.85-.5,1.84-.75,2.98-.75h.47c.17,0,.37.02.59.06v5.26c-.73-.37-1.52-.55-2.37-.55-1.28,0-2.23.38-2.87,1.14-.64.76-.96,1.87-.96,3.33v6.69h-5.5v-15.6Z"/>
      <path class="cls-2" d="M352.79,158.34v22.92h-5.96v-22.92h5.96Z"/>
      <path class="cls-2" d="M357.07,165.66h5.5v1.98c.75-.91,1.51-1.53,2.28-1.84.77-.31,1.67-.47,2.71-.47,1.1,0,2.03.18,2.81.53.78.35,1.44.86,1.99,1.5.45.53.75,1.11.91,1.76.16.65.24,1.39.24,2.22v9.91h-5.5v-7.87c0-.77-.06-1.39-.17-1.87-.11-.48-.31-.86-.59-1.14-.24-.24-.52-.42-.82-.52-.3-.1-.63-.15-.97-.15-.93,0-1.65.28-2.14.84-.5.56-.74,1.35-.74,2.39v8.33h-5.5v-15.6Z"/>
      <path class="cls-2" d="M383.4,170.25v11.01h-5.5v-11.01h-1.82v-4.59h1.82v-4.68h5.5v4.68h3.13v4.59h-3.13Z"/>
      <path class="cls-2" d="M393.86,174.39c0,2.37,1.11,3.56,3.35,3.56,1.2,0,2.1-.49,2.71-1.46h5.32c-1.07,3.57-3.76,5.35-8.06,5.35-1.32,0-2.52-.2-3.62-.59-1.09-.4-2.03-.96-2.81-1.69-.78-.73-1.38-1.6-1.81-2.61s-.64-2.15-.64-3.4.2-2.47.61-3.51c.41-1.04.98-1.93,1.73-2.66.75-.73,1.66-1.29,2.72-1.69,1.06-.4,2.26-.59,3.6-.59s2.5.2,3.56.59,1.95.97,2.68,1.72c.73.75,1.29,1.67,1.67,2.75.38,1.08.58,2.31.58,3.66v.58h-11.58ZM400.31,171.2c-.18-.77-.56-1.39-1.12-1.85-.57-.47-1.26-.7-2.07-.7-.85,0-1.55.22-2.08.67-.54.45-.88,1.07-1.02,1.89h6.29Z"/>
      <path class="cls-2" d="M408.58,165.66h5.5v2.55c.59-.93,1.31-1.65,2.16-2.14.85-.5,1.84-.75,2.98-.75h.47c.17,0,.37.02.59.06v5.26c-.73-.37-1.52-.55-2.37-.55-1.28,0-2.23.38-2.87,1.14-.64.76-.96,1.87-.96,3.33v6.69h-5.5v-15.6Z"/>
      <path class="cls-2" d="M434.97,165.66h5.53v15.6h-5.53v-1.73c-1.18,1.48-2.77,2.22-4.77,2.22-1.14,0-2.18-.21-3.13-.62-.95-.42-1.78-1-2.49-1.75-.71-.75-1.26-1.63-1.66-2.65s-.59-2.12-.59-3.31c0-1.11.19-2.17.58-3.18.38-1,.92-1.88,1.61-2.63.69-.75,1.51-1.34,2.46-1.78.95-.44,2.01-.65,3.16-.65,1.95,0,3.56.68,4.83,2.04v-1.55ZM428.04,173.42c0,.51.09.98.27,1.41.18.44.43.82.75,1.14.31.32.69.58,1.12.76.44.18.91.27,1.41.27s.95-.09,1.38-.27c.44-.18.81-.44,1.12-.76.31-.32.57-.7.76-1.12.19-.43.29-.88.29-1.37s-.1-.95-.29-1.38-.45-.82-.76-1.14c-.31-.32-.69-.58-1.12-.76-.44-.18-.9-.27-1.38-.27s-.98.09-1.41.27c-.44.18-.81.44-1.12.76-.31.32-.56.69-.75,1.11s-.27.87-.27,1.35Z"/>
      <path class="cls-2" d="M456.01,170.71c-.95-.65-1.92-.97-2.89-.97-.53,0-1.02.09-1.47.27-.46.18-.86.44-1.2.78-.35.33-.61.73-.81,1.19-.19.46-.29.97-.29,1.54s.1,1.05.29,1.5c.19.46.46.85.79,1.19s.73.59,1.2.78c.47.18.96.27,1.49.27,1.03,0,2-.35,2.89-1.06v4.68c-1.36.59-2.65.88-3.86.88-1.14,0-2.22-.19-3.24-.58-1.02-.38-1.93-.94-2.71-1.66-.78-.72-1.4-1.58-1.87-2.58-.47-1-.7-2.12-.7-3.36s.22-2.37.67-3.39c.45-1.02,1.05-1.91,1.82-2.65.77-.74,1.69-1.32,2.75-1.73,1.06-.41,2.2-.62,3.42-.62,1.34,0,2.57.28,3.71.85v4.68Z"/>
      <path class="cls-2" d="M465.28,170.25v11.01h-5.5v-11.01h-1.82v-4.59h1.82v-4.68h5.5v4.68h3.13v4.59h-3.13Z"/>
      <path class="cls-2" d="M470.54,159.67c0-.43.08-.83.24-1.2.16-.37.38-.7.67-.99s.61-.51.99-.67.78-.24,1.2-.24.83.08,1.2.24.7.38.99.67c.28.28.51.61.67.99s.24.78.24,1.2-.08.83-.24,1.2-.38.7-.67.99c-.28.28-.61.51-.99.67-.37.16-.78.24-1.2.24s-.83-.08-1.2-.24c-.37-.16-.7-.38-.99-.67-.28-.28-.51-.61-.67-.99-.16-.37-.24-.78-.24-1.2ZM476.41,165.66v15.6h-5.5v-15.6h5.5Z"/>
      <path class="cls-2" d="M479.57,173.33c0-1.15.23-2.23.7-3.24.47-1,1.11-1.87,1.95-2.62.83-.74,1.82-1.32,2.96-1.75,1.15-.43,2.4-.64,3.75-.64s2.58.21,3.72.62c1.15.42,2.14.99,2.98,1.73.84.74,1.49,1.62,1.96,2.65.47,1.02.7,2.15.7,3.39s-.24,2.37-.71,3.39c-.48,1.02-1.13,1.91-1.96,2.65-.83.74-1.83,1.31-2.99,1.72-1.17.41-2.43.61-3.79.61s-2.57-.2-3.71-.61c-1.13-.4-2.11-.98-2.93-1.73s-1.46-1.65-1.93-2.69-.7-2.2-.7-3.48ZM485.37,173.39c0,.53.1,1.01.29,1.44.19.44.45.82.76,1.14.31.32.69.58,1.12.76.44.18.9.27,1.38.27s.95-.09,1.38-.27c.44-.18.81-.44,1.12-.76.31-.32.57-.7.76-1.14.19-.44.29-.91.29-1.41s-.1-.95-.29-1.38c-.19-.44-.45-.82-.76-1.14-.32-.32-.69-.58-1.12-.76-.44-.18-.9-.27-1.38-.27s-.95.09-1.38.27-.81.44-1.12.76-.57.7-.76,1.12c-.19.43-.29.88-.29,1.37Z"/>
      <path class="cls-2" d="M501.46,165.66h5.5v1.98c.75-.91,1.51-1.53,2.28-1.84.77-.31,1.67-.47,2.71-.47,1.1,0,2.03.18,2.81.53.78.35,1.44.86,1.99,1.5.45.53.75,1.11.91,1.76.16.65.24,1.39.24,2.22v9.91h-5.5v-7.87c0-.77-.06-1.39-.17-1.87-.11-.48-.31-.86-.59-1.14-.24-.24-.52-.42-.82-.52-.3-.1-.63-.15-.97-.15-.93,0-1.65.28-2.14.84-.5.56-.74,1.35-.74,2.39v8.33h-5.5v-15.6Z"/>
    </g>
    <g>
      <path class="cls-1" d="M84.82,73.14c-3.09-3.94-6.12-7.93-9.21-11.86-1.86-2.37-1.92-2.79-.14-5.27,13-18.12,26.01-36.23,39.02-54.34.25-.34.64-.71.46-1.11-.21-.46-.77-.24-1.17-.24-9.64-.01-19.27,0-28.91-.03-.83,0-1.36.23-1.85.91-6.22,8.61-12.46,17.2-18.69,25.79-1.94,2.67-3.89,5.33-5.8,8.03-.48.68-.85.72-1.34.07-.58-.76-1.21-1.49-1.78-2.26-7.66-10.54-15.32-21.08-22.96-31.64-.47-.65-.93-.91-1.74-.9-7.18.03-14.37.02-21.55.02H0c.4.58.66.99.95,1.39,6.5,9.06,12.99,18.12,19.5,27.17,6.92,9.63,13.83,19.26,20.76,28.88.42.58.56.97.03,1.65-3.51,4.47-6.95,8.99-10.43,13.49-.34.45-.53.86-.47,1.45.38,3.69.71,7.39,1.1,11.08.39,3.69.87,7.38,1.25,11.07.54,5.15.98,10.3,1.57,15.44.13,1.11-.1,2.32.57,3.44,1.53-1.55,2.75-3.28,3.94-5.01,2.87-4.19,5.65-8.44,8.49-12.65,2.99-4.44,6-8.87,9-13.3,1.13-1.67,1.46-1.7,2.78-.16.09.11.2.2.28.32,2.2,3.25,4.41,6.51,6.6,9.77,2.75,4.08,5.44,8.19,8.24,12.23,1.87,2.7,3.6,5.5,5.7,8.03.21.25.18.81.67.7.49-.11.37-.62.41-.98.45-4.51.88-9.03,1.34-13.54.54-5.31,1.11-10.62,1.68-15.92.33-3.06.74-6.11.98-9.17.07-.81.57-1.67-.11-2.54Z"/>
      <path class="cls-1" d="M27.97,88.25c-.38-3.81-.72-7.63-1.1-11.44-.33-3.31-.71-6.63-1.05-9.94-.38-3.63-.73-7.27-1.1-10.9-.49-4.76-.96-9.53-1.53-14.28-.13-1.13.13-2.34-.66-3.39C15.88,29.46,9.26,20.58,2.6,11.73c-.76-1.02-1.4-2.15-2.58-3.21.2,2.24.37,4.21.55,6.17.35-.24.32.03.32.24.01,1.14.02,2.27.03,3.41.33,4.07.65,8.14.98,12.21.31,3.79.64,7.57.96,11.36.31,3.71.62,7.43.94,11.14.33,3.82.67,7.64.99,11.46.25,2.97.45,5.95.7,8.92.32,3.78.68,7.56,1.01,11.34.24,2.79.46,5.59.7,8.38.05.57.21,1.06.69,1.49,7.34,6.65,14.66,13.32,21.99,19.97.21.19.37.55.81.41-.43-4.34-.84-8.68-1.28-13.02-.47-4.59-.97-9.17-1.44-13.76Z"/>
      <path class="cls-1" d="M115.25,8.86c-.44,0-.53.32-.69.52-7.19,9.6-14.36,19.22-21.55,28.82-.34.45-.53.91-.58,1.45-.34,3.46-.68,6.91-1.03,10.37.24,2.48-.4,4.9-.56,7.36-.09,1.42-.28,2.87-.34,4.31,0,.26-.05.5-.33.6-.07.45-.15.91-.2,1.37-.39,3.81-.76,7.63-1.16,11.44-.4,3.81-.82,7.61-1.22,11.42-.42,4.06-.81,8.11-1.22,12.17-.45,4.41-.93,8.82-1.33,13.23-.09,1.02-.44,2.05-.13,3.24,1.89-1.71,3.71-3.3,5.46-4.95,2.78-2.63,5.64-5.17,8.46-7.75,2.81-2.57,5.63-5.13,8.49-7.65.56-.5.87-1.07.93-1.9.19-3.01.51-6.01.78-9.01.23-2.65.47-5.3.69-7.95.34-4.1.64-8.21.99-12.31.37-4.42.77-8.84,1.15-13.26.33-3.93.64-7.85.98-11.78.38-4.46.78-8.91,1.16-13.37.34-3.96.67-7.92.98-11.89.12-1.49.44-2.98.27-4.5Z"/>
    </g>
    <polygon class="cls-2" points="149.94 42.92 162.47 75.09 168.25 75.09 181.44 42.92 186.26 75.09 200.71 75.09 191.23 19.2 176.85 19.2 165.73 49 154.54 19.2 140.16 19.2 130.67 75.09 145.12 75.09 149.94 42.92"/>
    <path class="cls-2" d="M211.13,70.94c1.9,1.78,4.19,3.15,6.86,4.11,2.67.96,5.61,1.45,8.82,1.45,10.48,0,17.02-4.35,19.64-13.05h-12.97c-1.48,2.37-3.68,3.56-6.6,3.56-5.44,0-8.15-2.89-8.15-8.67h28.24v-1.41c0-3.31-.47-6.29-1.41-8.93-.94-2.64-2.3-4.88-4.08-6.71-1.78-1.83-3.95-3.22-6.52-4.19-2.57-.96-5.46-1.45-8.67-1.45s-6.19.48-8.78,1.45c-2.59.96-4.81,2.33-6.63,4.11-1.83,1.78-3.24,3.94-4.23,6.49-.99,2.55-1.48,5.4-1.48,8.56s.52,5.83,1.56,8.3c1.04,2.47,2.51,4.6,4.41,6.37ZM221.58,45.96c1.31-1.09,3-1.63,5.08-1.63s3.66.57,5.04,1.71c1.38,1.14,2.3,2.64,2.74,4.52h-15.34c.35-1.98,1.17-3.51,2.48-4.6Z"/>
    <polygon class="cls-2" points="265.72 75.09 275.5 63.82 285.21 75.09 303 75.09 283.95 54.48 299.74 37.07 282.25 37.07 275.58 44.92 269.06 37.07 251.56 37.07 266.98 54.48 248 75.09 265.72 75.09"/>
    <rect class="cls-2" x="308.86" y="19.2" width="14.53" height="55.89"/>
    <polygon class="cls-2" points="349.63 52.04 370.6 52.04 370.6 75.09 385.13 75.09 385.13 19.2 370.6 19.2 370.6 40.77 349.63 40.77 349.63 19.2 335.1 19.2 335.1 75.09 349.63 75.09 349.63 52.04"/>
    <path class="cls-2" d="M403.25,68.31c2.69,2.64,5.81,4.7,9.34,6.15,3.53,1.46,7.23,2.19,11.08,2.19,1.88,0,3.78-.19,5.71-.56,1.93-.37,4-.95,6.23-1.74l1.48-.52v-17.2c-3.71,3.95-7.88,5.93-12.53,5.93-2.12,0-4.1-.39-5.93-1.19-1.83-.79-3.42-1.88-4.78-3.26-1.36-1.38-2.42-3.01-3.19-4.89-.77-1.88-1.15-3.93-1.15-6.15s.38-4.2,1.15-6.08c.77-1.88,1.82-3.5,3.15-4.86,1.33-1.36,2.93-2.43,4.78-3.22,1.85-.79,3.87-1.19,6.04-1.19,4.94,0,9.09,2.05,12.45,6.15v-17.34c-2.37-.99-4.63-1.72-6.78-2.19-2.15-.47-4.34-.7-6.56-.7-3.9,0-7.63.73-11.19,2.19-3.56,1.46-6.68,3.48-9.38,6.08-2.69,2.59-4.84,5.68-6.45,9.27-1.61,3.58-2.41,7.52-2.41,11.82s.82,8.27,2.45,11.9c1.63,3.63,3.79,6.77,6.49,9.41Z"/>
    <path class="cls-1" d="M472.35,99.01c-36.27-4.93-66.02-12.34-103.23-6.11-32.99,5.52-63.61,22.53-97.18,23.95-29.13,1.24-52.69-8.3-80.29-15.63-19.94-5.3-40.58-7.94-60.98-4.8,11.8.1,23.31.47,34.97,2.87,15.56,3.2,30.53,10.31,45.75,15.1,44.67,14.05,91.81,13.67,136.51,0,12.4-3.79,24.74-9.52,37.22-12.69,41.7-10.6,86.02,5.49,128.24,1.2l4.27-.95c-15.15.3-30.23-.9-45.27-2.95Z"/>
    <path class="cls-1" d="M191.24,93.8c-.1.84.92.45,1.42.48,6.02.29,11.42.49,17.41,1.52,12.68,2.17,24.96,6.87,37.59,9.37,18.33,3.62,35.57,3.15,53.81-.95l7.64-2.25c-13.36.83-26.71-.66-40.03-2.41-11.66-1.54-23.27-3.97-34.96-5.27-14.34-1.6-28.52-2.05-42.88-.48Z"/>
    <path class="cls-1" d="M472.08,71.46c-.71.94-1.59,2.06-2.64,3.35l-10.69,12.94h20.68v-4.37h-11.47l4.79-5.66c1.33-1.57,2.43-2.93,3.3-4.08.87-1.15,1.53-2.14,1.98-2.98.89-1.61,1.34-3.25,1.34-4.93,0-2.63-.96-4.84-2.87-6.62-1.9-1.78-4.26-2.67-7.06-2.67-5.81,0-9.09,3.24-9.83,9.73h4.63c.45-3.68,2.23-5.53,5.35-5.53,1.49,0,2.74.49,3.75,1.46,1.01.97,1.52,2.17,1.52,3.61,0,1-.38,2.12-1.14,3.37-.37.64-.91,1.43-1.63,2.37Z"/>
    <path class="cls-1" d="M499.7,85.29c2.1,1.98,4.55,2.97,7.34,2.97s5.23-1,7.24-3.01c2.02-2.02,3.03-4.44,3.03-7.26,0-2.66-.9-4.93-2.71-6.82-1.82-1.91-3.98-2.87-6.48-2.87-.16,0-.38.01-.66.04-.28.03-.62.07-1.02.12l7.36-10.01-3.41-2.55-10.77,14.62c-2.01,2.73-3.01,5.31-3.01,7.74,0,2.71,1.03,5.06,3.09,7.04ZM502.84,74.12c1.13-1.13,2.51-1.7,4.13-1.7s2.98.57,4.13,1.72c1.13,1.13,1.7,2.51,1.7,4.15s-.57,2.91-1.71,4.05c-1.13,1.13-2.49,1.7-4.09,1.7s-3.02-.57-4.15-1.7c-1.13-1.13-1.7-2.5-1.7-4.11s.57-2.98,1.7-4.11Z"/>
    <path class="cls-2" d="M504.01,11.01c-.9-2.04-1-4.3.36-6.16,1.86,1.6,2.58,3.78,1.94,6.16,4.78-3.26.9-8.98-2.94-11.01-2.11,3.02-4.22,9.5.65,11.01Z"/>
    <path class="cls-2" d="M470.26,11.16c-.71-1.49-.91-3.07-.44-4.67.45-1.5.63-1.74,1.64-.48,1.22,1.51,1.55,3.29.94,5.15,1.32-.47,2.21-2.17,2.3-3.51.12-1.83-.92-3.62-2.08-4.95-.43-.49-2.59-2.56-3.13-2.42-.59.58-1.02,1.63-1.32,2.42-1.14,3.05-1.84,7.27,2.08,8.46Z"/>
    <path class="cls-1" d="M475,38.87c1.35-1.6,2.48-3,3.37-4.16.94-1.24,1.65-2.3,2.14-3.22,1.05-1.9,1.59-3.89,1.59-5.9,0-3.2-1.18-5.92-3.51-8.08-1.9-1.78-4.18-2.81-6.81-3.11,0-1.5-.05-2.97-.4-4.48-.08-.34.01-.88-.5-.75-.24.06-.43,3.11-.54,5.14-.06,0-.12,0-.18,0-4.79,0-10.73,2-11.82,11.51l-.26,2.23h8.65l.22-1.76c.41-3.31,1.85-3.77,3.36-3.77.97,0,1.72.29,2.36.9.62.59.9,1.28.9,2.16,0,.61-.29,1.42-.86,2.36-.34.57-.84,1.31-1.5,2.18h0c-.7.93-1.57,2.03-2.59,3.28l-13.4,16.22h26.94v-8.38h-9.16l2-2.37Z"/>
    <path class="cls-1" d="M514.06,19.04c-2.22-2.86-4.93-4.43-8.08-4.69,0-1.49-.05-2.94-.4-4.44-.08-.34.01-.88-.5-.75-.24.06-.43,3.13-.54,5.16-3.34.14-6.21,1.72-8.52,4.71-2.56,3.27-3.86,7.64-3.86,12.98s1.3,10.09,3.86,13.36c2.46,3.14,5.5,4.74,9.04,4.74s6.57-1.6,9-4.74c2.56-3.27,3.86-7.7,3.86-13.16s-1.3-9.91-3.85-13.17ZM507.8,39.6c-1.23,2.28-2.39,2.28-2.77,2.28-.42,0-1.55,0-2.75-2.26-1.03-1.96-1.55-4.52-1.55-7.59s.52-5.37,1.55-7.26h0c1.23-2.27,2.37-2.27,2.75-2.27.42,0,1.54,0,2.77,2.26,1.03,1.92,1.55,4.42,1.55,7.43s-.52,5.5-1.55,7.41Z"/>
  </g>
</svg>