<?xml version="1.0" encoding="UTF-8"?>
<svg id="Capa_2" data-name="Capa 2" xmlns="http://www.w3.org/2000/svg" viewBox="0 0 302 301.47">
  <defs>
    <style>
      .cls-1 {
        fill: #F0EFEC;
        stroke-width: 0px;
      }
    </style>
  </defs>
  <g id="Capa_1-2" data-name="Capa 1">
    <g>
      <path class="cls-1" d="M0,.12c8.37,0,16.18,0,23.99,0,18.81,0,37.63.04,56.44-.05,2.12-.01,3.33.67,4.55,2.36,20,27.66,40.06,55.27,60.13,82.88,1.47,2.03,3.13,3.93,4.65,5.92,1.3,1.69,2.26,1.61,3.52-.18,5-7.06,10.12-14.03,15.2-21.03,16.33-22.51,32.68-45.01,48.96-67.56,1.29-1.78,2.69-2.39,4.86-2.38,25.24.07,50.48.04,75.72.07,1.05,0,2.52-.58,3.06.62.46,1.03-.57,1.99-1.21,2.9-34.08,47.44-68.14,94.88-102.2,142.33-4.66,6.49-4.51,7.58.37,13.79,8.1,10.32,16.03,20.77,24.13,31.08,1.79,2.27.47,4.51.3,6.64-.65,8.02-1.72,16.01-2.57,24.02-1.49,13.9-2.97,27.8-4.39,41.7-1.21,11.81-2.33,23.64-3.52,35.45-.09.94.23,2.28-1.06,2.57-1.27.29-1.21-1.18-1.75-1.83-5.5-6.64-10.03-13.97-14.92-21.04-7.33-10.58-14.4-21.35-21.59-32.03-5.75-8.54-11.52-17.06-17.29-25.58-.21-.31-.5-.55-.74-.83-3.45-4.02-4.32-3.95-7.27.42-7.84,11.62-15.73,23.21-23.56,34.85-7.43,11.03-14.71,22.16-22.23,33.13-3.11,4.54-6.31,9.07-10.32,13.12-1.75-2.93-1.17-6.09-1.5-9.01-1.54-13.46-2.71-26.97-4.12-40.45-1.01-9.68-2.25-19.33-3.28-29-1.02-9.67-1.87-19.35-2.87-29.02-.16-1.54.33-2.63,1.23-3.8,9.11-11.77,18.13-23.61,27.32-35.32,1.38-1.76,1.01-2.79-.09-4.31-18.15-25.19-36.27-50.41-54.38-75.63C36.52,51.21,19.5,27.49,2.48,3.76,1.74,2.72,1.04,1.64,0,.12Z"/>
      <path class="cls-1" d="M1.48,37.79c-.46-5.15-.91-10.3-1.43-16.16,3.1,2.77,4.77,5.74,6.77,8.4,17.43,23.17,34.77,46.42,52.2,69.6,2.07,2.75,1.38,5.91,1.73,8.87,1.48,12.45,2.7,24.93,3.99,37.4.98,9.51,1.91,19.03,2.89,28.54.9,8.68,1.88,17.35,2.75,26.03,1,9.99,1.87,19.99,2.88,29.97,1.21,12.02,2.54,24.03,3.76,36.04,1.15,11.36,2.24,22.72,3.35,34.09-1.14.36-1.56-.58-2.11-1.08-19.21-17.43-38.38-34.9-57.61-52.31-1.24-1.12-1.67-2.42-1.8-3.9-.64-7.32-1.21-14.64-1.85-21.96-.86-9.9-1.8-19.8-2.65-29.7-.66-7.78-1.19-15.57-1.84-23.35-.83-10.01-1.73-20.01-2.59-30.01-.83-9.73-1.64-19.46-2.46-29.19-.84-9.91-1.69-19.83-2.51-29.74-.88-10.66-1.72-21.32-2.57-31.97-.02-2.97-.05-5.95-.08-8.93,0-.54.08-1.26-.83-.62Z"/>
      <path class="cls-1" d="M239.4,130.33c.9-9.05,1.8-18.11,2.69-27.17.14-1.43.65-2.63,1.53-3.81,18.83-25.15,37.63-50.33,56.45-75.48.4-.54.64-1.38,1.79-1.37.46,3.98-.4,7.88-.7,11.8-.81,10.38-1.68,20.76-2.56,31.13-1,11.67-2.05,23.34-3.05,35.01-.88,10.28-1.68,20.57-2.56,30.85-.98,11.58-2.04,23.15-3.01,34.73-.9,10.74-1.71,21.49-2.59,32.24-.57,6.94-1.19,13.88-1.8,20.82-.7,7.86-1.53,15.72-2.04,23.59-.14,2.17-.95,3.66-2.43,4.97-7.48,6.61-14.87,13.31-22.23,20.04-7.39,6.76-14.89,13.41-22.17,20.3-4.58,4.33-9.34,8.49-14.29,12.97-.81-3.12.09-5.82.33-8.48,1.05-11.56,2.32-23.11,3.49-34.66,1.07-10.63,2.09-21.26,3.18-31.88,1.03-9.97,2.15-19.94,3.19-29.91,1.04-9.98,2.01-19.97,3.03-29.95.12-1.2.35-2.39.53-3.58.75-.27.85-.89.87-1.58.14-3.78.65-7.56.89-11.29.41-6.43,2.08-12.78,1.46-19.28Z"/>
    </g>
  </g>
</svg>