<?xml version="1.0" encoding="UTF-8"?>
<svg id="Capa_2" data-name="Capa 2" xmlns="http://www.w3.org/2000/svg" viewBox="0 0 328.49 460.04">
  <defs>
    <style>
      .cls-1 {
        fill: none;
      }
      path:not(.cls-1) {
        fill: #223048;
      }
    </style>
  </defs>
  <g id="Capa_1-2" data-name="Capa 1">
    <g>
      <path class="cls-1" d="M162.64,460.04H0V0h328.49v137.85c-.99-4.81-2.28-9.62-6.16-13.3,3.29-7.23,4.84-14.48,1.38-21.97-1.06-2.29-2.68-3.89-5.14-4.91V.76c-1.7-.27-3.06-.36-5.04-.36H14.96c-1.84,0-3.08.11-4.64.37v96.88c-2.34,1.03-4.02,2.49-5.04,4.67-3.45,7.33-2.27,14.71,1.29,22.11-5.98,6.28-7.75,15.89-4.61,23.84.2.5,1.36.82,1.76.66,1.85-.76.92-3.63,4.45-6.17,2.84-2.03,6.88-3.61,10.48-2.69,6.68,1.72,10.11,8.78,8.44,15.25-1.05,4.07-2.37,7.73-4.14,11.52l-9.25,19.89C5.56,204.23-.53,223.39.68,242.86c1.01,16.26,3.59,32.17,8.83,47.67-5.21,4.53-9.36,12.88-4.14,19.07l1.25.67c.28.15,1-.38,1.16-.66,2.17-3.74,5.35-6.7,9.54-8.46,12.33,5.23,15.57,15.58,15.13,28.28-.4,11.45-.63,22.57-.21,34.02.68,18.78,4.02,35.59,17.22,49.54,5.58,5.9,11.48,11.2,18.36,15.63,14.71,9.47,36.3,16.05,53.98,14.43.28,2.59,1.61,4.1,3.55,5.4,11.21,7.51,24.11,10.68,37.28,11.59Z"/>
      <path d="M328.49,137.85v4.81l-1.21,4.85c-.13.54-.9,1.42-1.41,1.47-2.6.26-1.21-3.37-5.15-6.22-2.82-2.04-6.89-3.62-10.47-2.69-7.01,1.8-10.23,9.2-8.32,15.92,1.59,5.59,3.79,10.54,6.27,15.8,9.11,19.3,18.21,37.67,19.92,59.41.08.95.04,1.94.37,2.43v7.21c-.58-.41-.37,4.39-.58,6.69-1.29,14.64-3.76,28.97-8.55,42.99,5.37,4.59,9.59,13.51,3.71,19.46l-1.04.32c-.24.07-.81-.5-.93-.71-2.19-3.71-5.33-6.7-9.55-8.45-12.32,5.22-15.58,15.59-15.13,28.28.4,11.32.63,22.3.23,33.63-.67,19.09-3.96,35.99-17.43,50.13-5.53,5.81-11.36,11.03-18.15,15.41-14.72,9.5-36.29,16.04-53.98,14.46-.36,2.39-1.47,4.01-3.32,5.24-9.41,6.26-20.08,9.79-31.33,11.12-2.69.32-6.42,0-6.19.62h-3.61c-13.17-.91-26.08-4.08-37.28-11.59-1.95-1.3-3.27-2.82-3.55-5.4-17.68,1.62-39.27-4.96-53.98-14.43-6.88-4.43-12.78-9.73-18.36-15.63-13.2-13.95-16.54-30.77-17.22-49.54-.42-11.45-.19-22.57.21-34.02.44-12.7-2.8-23.05-15.13-28.28-4.19,1.76-7.37,4.72-9.54,8.46-.16.28-.89.81-1.16.66l-1.25-.67c-5.22-6.19-1.07-14.53,4.14-19.07-5.24-15.49-7.82-31.4-8.83-47.67-1.2-19.47,4.88-38.64,13.02-56.13l9.25-19.89c1.76-3.79,3.09-7.45,4.14-11.52,1.67-6.47-1.76-13.54-8.44-15.25-3.61-.93-7.65.65-10.48,2.69-3.54,2.54-2.6,5.41-4.45,6.17-.4.16-1.56-.16-1.76-.66-3.14-7.95-1.37-17.56,4.61-23.84-3.55-7.4-4.73-14.78-1.29-22.11,1.02-2.18,2.71-3.64,5.04-4.67V.77c1.56-.26,2.8-.37,4.64-.37h298.57c1.98,0,3.34.09,5.04.36v96.9c2.46,1.02,4.08,2.62,5.14,4.91,3.46,7.5,1.91,14.75-1.38,21.97,3.89,3.68,5.17,8.49,6.16,13.3ZM165.8,438.97l1.36,12.92c.18,1.69,1.83,2.96,3.47,2.77l3.87-.44c.67-.08,1.29-1.89,1.12-2.56l-3.65-14.18c-.14-.52.43-1.52.9-1.56.39-.04,1.41.28,1.62.71l6.32,13.2c1.28,2.66,3.58,3.06,6.16,2.07.95-.36,2.11-.75,2.6-1.32.53-.62.57-2.54.19-3.22l-7.42-13.51c-.36-.66-.22-1.84.32-2.05.75-.29,1.58,0,2.03.55l10.59,13.01c1.6,1.97,3.96,1.45,5.67.19.79-.58,1.8-1.27,2.04-1.93s-.06-2.37-.55-2.95l-15.92-18.81,3.09-6.28c.1-.21.26-.8.3-.99.03-.12-.53-.06-.67-.03l-10.73,1.72c-.72.65-1.11,2.09-1.12,3.44.73.06,1.73.07,2.31-.04,1.29-.24.88-2.67,2.39-2.55,1.01.08.66,4.14.16,5.25l-6.03.83c-1.48.2-2.88-1.6-2.49-3l1.4-5.08c.19-.68,1.21-1.76,1.95-1.87,5.45-.81,10.41-1.38,15.74-2.8,16.47-4.37,31.78-11.86,45.15-22.48,27-21.45,44.19-53.87,44.27-88.67l.27-123.26.13-13.35c.2-20.96,13.96-44.04,35.16-52.26,1.92-.74,3.22-3.03,3.25-4.77.03-1.85-.93-3.67-2.82-4.51l-.97,6.59c-.05.32-.71,1.13-.99.97l-1.08-.67-.04-104.02H13.72s0,103.31,0,103.31c-.16.68-.61,1.39-1.02,1.38-.32,0-1-.63-1.05-.96l-.99-6.6c-1.87.84-2.83,2.65-2.8,4.52.02,1.54,1.2,3.92,3,4.62,8.43,3.29,15.57,8.24,21.36,15.44,8.52,10.59,13.96,23.56,14.02,37.35l.16,32.55.28,104.07c.09,34.97,17.63,67.43,44.94,88.79,13.55,10.6,29.1,18.07,45.75,22.26,4.79,1.2,9.23,1.72,14.1,2.41.61.09,1.88.79,2.07,1.39.89,2.84,2.49,6.27.93,7.96-.36.39-1.63.77-2.16.69l-5.66-.87c-.49-1.02-.84-5.13.17-5.22,1.5-.14.93,2.02,2.37,2.55.5.18,1.77.18,2.22-.05.22-1.08-.33-2.78-1.03-3.35l-11.56-1.84,3.52,7.52-15.71,18.5c-.58.68-.97,2.42-.72,3.16.23.66,1.29,1.39,2.04,1.93,1.88,1.38,4.16,1.7,5.91-.44l10.82-13.29c.32-.39,1.79-.11,1.94.3.13.34.22,1.16-.01,1.58l-7.48,13.67c-.39.72-.33,2.6.2,3.21.5.57,6.43,4.02,8.63-.54l6.6-13.68c.22-.45,1.77-.56,2.04-.16.22.33.37,1.18.26,1.6l-3.58,13.85c-.18.69.45,2.44,1.13,2.55,2.3.4,6.97,1.3,7.34-2.26l1.36-13.19c.06-.55.83-1.37,1.34-1.38.6-.01,1.27.77,1.36,1.59ZM15.58,193.36c-3.69,8.54-6.49,16.75-8.61,25.59-2.42,10.09-3.04,19.97-1.81,30.32s3.12,20.22,5.78,30.19l13.69-10.7c-1.59-1.78-2.17-3.45-1.14-5.24l4.02-3.19c1.73-1.37,4.06-1.65,5.55.38s2.84,4.47,3.77,7.03c.46,1.26-.33,2.74-1.2,3.46l-6.34,5.23,5.66,8.05c4.79-6.74,8.22-14.2,8.22-22.39v-21.26c-.01-5.92-10.12-13.17-15.45-15.01-4.51,2.47-9.12,6.31-12.41,9.16-.31.27-1.19.21-1.17-.02l.05-.85c3.98-4.51,8.08-8.6,12.98-12.22,6.2,2.39,11.45,5.55,16.08,10.45l-.13-68.42c-.04-19.47-11.97-41.03-30.05-49.15-2.14-.96-3.82-1.79-5.92-2.96-2.69,2.9,17.08,9.3,14.54,11.12-.24.17-.81.08-1.18-.08l-12.43-5.4c-2.89,2.24,17.78,7.63,15.12,10.6-4.58-2.01-8.9-3.78-13.4-5.1.14,1.34.22,2.37-.11,2.84l-1.62,2.33c4.74-.11,9.6.39,13.95,1.67.32.09.85,1.08.58,1.22-.22.11-.84.23-1.22.15-4.75-.93-9.87-1.13-14.8.08-.61.79-1.1,2.15-1.06,3.09,4.65-1.57,10.1-1.85,14.54-.97.3.06.8.92.55,1-1.98.66-10.47-.63-15.73,3.53-.79.65-.74,2.66-.35,3.62,4.51-4.23,11.42-6.32,17.37-3.81,6.56,2.77,9.62,10.1,8.54,16.99-.82,5.25-2.43,9.95-4.52,14.79l-10.33,23.89ZM312.82,192.22l-9.51-21.9c-2.21-5.1-4.01-10.08-4.87-15.63-1.07-6.91,1.98-14.23,8.55-17,5.95-2.51,12.85-.41,17.36,3.82.39-1.02.39-2.9-.33-3.63-4.24-3.09-10.02-3.48-15.04-3.19-.27.01-.93-.71-.75-.86,2.25-1.84,12.1-.75,15.17.49-.09-1.06-.54-2.27-1.1-3.09-5.2-1.17-10.07-1.07-15.25.05l-.84-.44c-.21-.11.43-.98.78-1.08,3.97-1.18,9.26-1.77,13.77-1.62l-1.68-2.51c-.33-.49-.1-1.74,0-2.69-4.65,1.44-8.88,3.14-13.43,5.14-2.65-2.98,18.27-8.46,15.04-10.57l-12.34,5.37c-.39.17-.96.29-1.2.11-2.53-1.87,17.25-8.2,14.55-11.18-1.9,1.1-3.39,1.91-5.33,2.74-18.27,7.84-30.56,29.62-30.61,49.02l-.17,68.79c4.67-4.81,9.87-8.06,16.1-10.42,4.91,3.63,8.98,7.7,13,12.23l-.09,1.01c-.02.24-.95-.03-1.17-.23-3.64-3.22-7.78-6.55-12.29-9.1-5.38,1.95-15.32,8.97-15.43,15.03-.13,7.34-.23,14.33.02,21.66.28,8.05,3.49,15.35,8.19,22l5.65-8.05-6.76-5.63c-2.47-2.06,1.32-7.73,2.86-9.97.54-.79,1.81-1.58,2.6-1.64.99-.07,2.28.48,3.07,1.11l4.06,3.19c1.01,1.81.41,3.45-1.15,5.25l13.69,10.7c2.62-9.85,4.5-19.6,5.74-29.8s.71-20.25-1.69-30.39c-2.22-9.36-5.25-18.05-9.16-27.06ZM12.64,284.44l20.34-16.17-2.79-5.36-3.78,2.54,2.13,4.31-16.44,12.83c-.3.27.12,1.69.53,1.85ZM315.97,281.95l-15.65-12.2,2.14-4.31-3.72-2.51c-1.19,1.91-2.07,3.5-2.75,5.41l20.31,16.13.63-1.33c.13-.28-.54-.86-.97-1.19ZM38.47,382.61c4.02,17.62,14.17,29.72,28.94,40.21-1.37-6.77-1.81-13.11-.52-19.73.24-1.23.84-2.25,2.27-2.61l14.6-3.64c.27-.07.95.38.87.52-.07.13-.39.69-.75.84l-13.49,5.58c-1.47,5.82-.46,20.86,4.87,23.93,13.91,7.99,29.8,11.98,45.99,10.97l-5.21-10.12c-1.61,1.51-3.31,2.88-5.1,1.73-2.17-1.39-8.99-7.67-5.17-10.67,1.55-1.21,3.01-2.4,4.57-3.42,1.93-1.27,3.83.5,5.1,2.19l10.28-7.76c-52.04-19.21-81.77-61.78-82.36-117.26l-.16-15.33c-2.89,3.14-2.38,16.04-2.24,20.23,0,.24-.55.76-.68.63-1.73-1.75-1.36-9.88-1.77-12.73-.55.09-2.08,1.52-2.04,2.33.17,4.5,1,9.1,1.82,13.24.07.33-.2.88-.39,1.04-1.46,1.26-3.6-11.06-3.99-11.76l-2.24,1.95-3.52-.66c2.94,3.22,5.56,6.69,7.28,10.37.17.35-.06,1.32-.36,1.27-.24-.04-.85-.36-.99-.59-2.92-4.92-6.94-9.37-12.17-11.91-1.06-.52-2.98-.17-3.95.33,5.15,2.24,10.33,6.65,13.46,10.74.26.34.17,1.37-.09,1.38-1.54.05-5.66-7.43-16.17-10.08-2.15-.54-3.92-.01-5.07,1.95,3.83.28,7.04,1.45,10.36,3.12,7.74,3.89,13.23,10.63,14.88,19.2.68,3.51.81,6.9.67,10.55-.65,17.08-1.29,37.48,2.48,53.99ZM292.89,328.43c-.48-12.83,3.39-23.03,14.75-29.12,3.55-1.91,7.04-3.26,11.18-3.54-1.15-1.99-2.92-2.51-5.06-1.97-10.71,2.75-14.5,10.04-16.19,10.08-.26,0-.35-1.02-.16-1.27,3.38-4.43,8.31-8.49,13.55-10.84-1.16-.57-3-.83-4.24-.21-5.14,2.58-9.2,7.18-12,11.94-.17.28-.96.57-1.08.35-1.09-2.02,5.46-9.76,7.12-11.55l-3.53.66-2.24-1.97-2.79,10.88c-.1.38-.91,1.02-1.19.88s-.44-.84-.36-1.21c.89-4.37,1.59-8.53,1.8-13.03.04-.8-1.55-2.32-2.02-2.27-.4,1.46-.13,14.92-2.5,12.32-.02-4.54.91-17-2.31-20.55l-.16,22.19c-.35,48.66-35.53,95.04-82.27,110.43l10.36,7.76c1.2-1.71,2.89-3.32,4.76-2.28,1.55.86,3.1,2.19,4.58,3.31s1.93,3.11.8,4.74c-1.56,2.27-3.41,4.66-5.73,6.14-1.79,1.15-3.49-.27-5.12-1.69l-5.2,10.08c15.42,1.03,29.87-2.72,43.28-9.35,3.2-1.58,5.35-3.75,6.49-7.27,1.89-5.85,2.09-12,1.15-18.26l-14.2-5.88.27-1.01c.03-.13.68-.05.83-.02l14.67,3.68c.85.4,1.62,1.23,1.8,2.15,1.38,6.76.93,13.19-.45,20.09,23.26-16.54,30.55-33.91,31.64-61.78.43-10.9.18-21.46-.24-32.62ZM30.64,289.47l2.17-2.35-6-8.67-11.45,8.86c5.59-.15,10.19.01,15.28,2.16ZM298.44,289.4c5.13-2.07,9.87-2.32,15.31-1.88l-11.71-9.05-5.94,8.57c.62.85,1.46,1.75,2.34,2.35ZM14.61,300.17c-2.52-1.05-4.98-.8-7.22.17-1.5,1.41-1.94,3.56-.92,5.59,2.31-2.68,4.86-4.32,8.14-5.76ZM322.41,305.9c1.05-2.18.48-4.16-.92-5.55-2.31-1.01-4.81-1.18-7.29-.18,3.38,1.42,5.86,3.13,8.21,5.73ZM108.24,422.31l4.02,4.3,19.06-13.97c-.33-.35-1.73-.87-2.17-.54l-14.08,10.31-3.4-3.09-3.43,2.99ZM217.11,419.28l-3.28,3.14-14.08-10.31c-.45-.33-1.88.16-2.19.53l19.06,13.97c1.58-1.59,2.69-2.86,3.96-4.45l-3.47-2.87ZM124.71,437.2l14.53-15.74-4.07-7.2-16.47,12.43,6.02,10.51ZM204.25,437.25l5.94-10.57-16.49-12.44-4.03,7.29,14.58,15.73Z"/>
      <path class="cls-1" d="M328.49,240.84v219.2h-162.24c-.23-.62,3.51-.3,6.19-.62,11.24-1.33,21.92-4.86,31.33-11.12,1.85-1.23,2.96-2.85,3.32-5.24,17.69,1.58,39.26-4.96,53.98-14.46,6.79-4.38,12.63-9.61,18.15-15.41,13.46-14.14,16.75-31.04,17.43-50.13.4-11.33.17-22.32-.23-33.63-.45-12.69,2.82-23.06,15.13-28.28,4.21,1.74,7.36,4.74,9.55,8.45.13.22.7.79.93.71l1.04-.32c5.88-5.95,1.65-14.88-3.71-19.46,4.79-14.02,7.25-28.36,8.55-42.99.2-2.31,0-7.11.58-6.69Z"/>
      <path class="cls-1" d="M328.49,142.66v90.97c-.34-.49-.3-1.48-.37-2.43-1.71-21.74-10.8-40.11-19.92-59.41-2.48-5.25-4.69-10.21-6.27-15.8-1.91-6.72,1.31-14.12,8.32-15.92,3.58-.92,7.65.65,10.47,2.69,3.94,2.85,2.55,6.48,5.15,6.22.51-.05,1.28-.93,1.41-1.47l1.21-4.85Z"/>
      <path class="cls-1" d="M165.8,438.97c-.09-.82-.76-1.6-1.36-1.59-.51,0-1.28.83-1.34,1.38l-1.36,13.19c-.37,3.56-5.04,2.66-7.34,2.26-.68-.12-1.31-1.86-1.13-2.55l3.58-13.85c.11-.43-.04-1.27-.26-1.6-.27-.4-1.82-.3-2.04.16l-6.6,13.68c-2.2,4.56-8.13,1.11-8.63.54-.53-.61-.59-2.49-.2-3.21l7.48-13.67c.23-.42.14-1.24.01-1.58-.16-.41-1.63-.69-1.94-.3l-10.82,13.29c-1.75,2.15-4.03,1.82-5.91.44-.75-.55-1.82-1.28-2.04-1.93-.26-.74.14-2.48.72-3.16l15.71-18.5-3.52-7.52,11.56,1.84c.7.57,1.25,2.27,1.03,3.35-.45.23-1.72.24-2.22.05-1.45-.53-.87-2.69-2.37-2.55-1.01.09-.66,4.19-.17,5.22l5.66.87c.54.08,1.8-.3,2.16-.69,1.56-1.68-.04-5.12-.93-7.96-.19-.6-1.46-1.3-2.07-1.39-4.87-.69-9.31-1.21-14.1-2.41-16.65-4.19-32.2-11.66-45.75-22.26-27.31-21.36-44.84-53.82-44.94-88.79l-.28-104.07-.16-32.55c-.07-13.79-5.5-26.76-14.02-37.35-5.79-7.2-12.93-12.16-21.36-15.44-1.8-.7-2.97-3.09-3-4.62-.03-1.86.93-3.68,2.8-4.52l.99,6.6c.05.33.73.95,1.05.96.41,0,.86-.7,1.02-1.38V4.02s301.42,0,301.42,0l.04,104.02,1.08.67c.27.17.94-.65.99-.97l.97-6.59c1.89.84,2.85,2.67,2.82,4.51-.03,1.74-1.33,4.02-3.25,4.77-21.2,8.21-34.96,31.3-35.16,52.26l-.13,13.35-.27,123.26c-.08,34.8-17.26,67.22-44.27,88.67-13.37,10.62-28.68,18.12-45.15,22.48-5.33,1.41-10.29,1.99-15.74,2.8-.74.11-1.76,1.19-1.95,1.87l-1.4,5.08c-.39,1.4,1.01,3.21,2.49,3l6.03-.83c.5-1.11.84-5.17-.16-5.25-1.51-.12-1.1,2.32-2.39,2.55-.58.11-1.58.11-2.31.04,0-1.36.4-2.79,1.12-3.44l10.73-1.72c.14-.02.71-.09.67.03-.05.19-.2.78-.3.99l-3.09,6.28,15.92,18.81c.49.58.78,2.3.55,2.95s-1.24,1.34-2.04,1.93c-1.71,1.25-4.07,1.77-5.67-.19l-10.59-13.01c-.45-.55-1.28-.83-2.03-.55-.54.21-.68,1.39-.32,2.05l7.42,13.51c.38.68.34,2.6-.19,3.22-.48.57-1.65.95-2.6,1.32-2.58.99-4.89.59-6.16-2.07l-6.32-13.2c-.2-.42-1.23-.74-1.62-.71-.47.05-1.04,1.04-.9,1.56l3.65,14.18c.17.66-.44,2.48-1.12,2.56l-3.87.44c-1.63.19-3.29-1.08-3.47-2.77l-1.36-12.92ZM302.04,16.75l.02,96.77c2.57-1.86,4.29-3.06,6.6-4.34V10.03s-288.53,0-288.53,0v99.19c2.42,1.17,4.3,2.4,6.6,4.06l.04-96.53h275.27ZM169.17,22.45c-.22-.01-1.27-.21-1.42-.06-.52.51-1.28,1.9-1.58,2.69,1.19,1.26,3.51-2.61,3-2.64ZM65.58,28.57c-.6-1.64-2.13-2.55-3.69-2.45-1.34.09-2.71,1.1-3.2,2.62-1.14,3.5-1.18,11.13,3.6,11.01,4.52-.11,4.59-7.63,3.29-11.18ZM154.46,28.42c.33.17.83.75,1.15,1.21.27.38,1.43,0,1.94-.4.05-1.4-1.22-2.86-2.45-3.05-1.65-.26-3.25.42-3.93,1.99-1.28,2.94-1.3,6.42-.08,9.35.72,1.71,2.3,2.45,4.09,2.15,1.07-.18,2.45-1.77,2.38-3.16-.03-.57-1.72-1.04-1.96-.5-.25.57-.75,1.3-1.14,1.42-2.21.71-1.97-10.02-.01-9.02ZM170.64,28.42c-.56-1.46-2-2.33-3.4-2.32-4.49.04-4.8,7.57-3.22,11.45.61,1.51,2.14,2.3,3.63,2.19,4.21-.3,4.43-7.55,3-11.32ZM262,38.73c2.22-2.28,1.06-5.48-1.33-6.97-.92-.58-2.07-1.68-1.37-2.9.3-.53,1.8-.27,2.52.04.48.2,1.17-1.5.79-1.88-1.38-1.3-4.35-1.27-5.51.5-1.54,2.35-.53,5.01,1.82,6.42.99.59,2.29,1.88,1.1,3.15-.54.58-1.93.1-3.01-.56l-.9,2.04c1.71,1.37,4.32,1.77,5.89.16ZM52.47,34.64c3.08.4,4.54-1.37,4.66-3.85.07-1.58-.48-3.77-2.33-4.19-1.55-.35-3.36-.27-4.93-.16l.02,12.94,2.43-.02.15-4.73ZM72.61,39.44l2.57-.09-1.6-5.19c2.2-2.02,2.25-6.1-.54-7.42-1.36-.64-3.27-.35-5.2-.34l-.05,12.93,2.51.07c.12-2.03.12-2.98.5-4.96l1.81,5ZM85.5,37.37l-2.97-.14v-10.82s-2.5.05-2.5.05v12.99s5.69-.01,5.69-.01c.15-.46.17-2.06-.22-2.08ZM91.91,39.15c.37.36,1.8.34,2.57.16l-2.62-12.7c-.83-.3-2.24-.3-3.07,0l-2.65,12.77c1.07.13,2.35.13,2.61-.36.43-1.22.52-1.96,1.59-2.05.94-.08,1.35.95,1.57,2.18ZM103.39,39.44l2.58-.1-1.64-5.19c2.19-1.92,2.35-6-.46-7.41-1.39-.69-3.54-.36-5.21-.29v12.88s2.42.06,2.42.06c.09-2.1.03-2.96.53-4.94l1.78,4.99ZM113.19,33.87l-.05-2.15-2.97-.1v-2.85s3.2-.16,3.2-.16v-2.24s-5.71.02-5.71.02l.03,13.09h5.65s.11-2.17.11-2.17l-3.29-.05.03-3.21,3.01-.18ZM119.91,39.12c.21.54,1.86.37,2.45.12l-2.63-12.8h-3.01s-2.68,12.94-2.68,12.94c.85.05,2.2.04,2.55-.09l.62-2.03c.13-.42,1.62-.4,1.89-.04s.51,1.17.8,1.91ZM129.11,37.32l-3.21-.14-.04-10.72-2.48-.03v13.01s5.73.02,5.73.02v-2.13ZM133.1,39.42l-.02-12.91c-.86-.23-2.15-.18-2.58.26v12.61s2.6.04,2.6.04ZM140.81,39.45l-.02-2.1-3.3-.22,3.11-8.37c.22-.58.06-2.05-.26-2.42l-5.7.02.05,2.2,3.05.22-2.61,7c-.43,1.15-.55,2.42-.47,3.68l6.15-.03ZM147.21,39.14c.37.4,1.74.37,2.5.13l-2.65-12.79c-1.05-.07-2.2-.06-3.03.04l-2.61,12.76c.76.32,2.48.34,2.59-.29.2-1.16.52-2.08,1.66-2.02.81.04,1.14,1.06,1.55,2.18ZM161.65,39.28v-12.81s-2.52-.04-2.52-.04l.02,13,2.49-.16ZM180.47,39.28v-12.81s-2.41-.06-2.41-.06l-.28,6.19-2.19-6.05c-.55-.1-1.7-.12-2.61-.09l-.02,12.94,2.56.04.09-6.68,2.43,6.5c.57.18,1.86.17,2.44.02ZM188.28,34.63c2.95.39,4.38-1.22,4.59-3.57.15-1.68-.36-4.03-2.35-4.47-1.51-.33-3.25-.25-4.94-.17v12.9s2.51.14,2.51.14l.18-4.83ZM200.01,37.32l-3.21-.15-.04-10.72-2.48-.05v13.03s5.73.01,5.73.01v-2.13ZM207.07,33.87l.05-2.18-3.12-.12.1-2.83,2.99-.15.03-2.23h-5.71s0,13.07,0,13.07l5.66.04.1-2.14-3.16-.15.02-3.12,3.03-.18ZM216.33,39.32l-.02-12.86c-.76-.15-2.11-.08-2.45.28l-.1,6.17-2.37-6.42-2.58-.05v12.98s2.5.02,2.5.02l.29-6.31,2.32,6.2c.6.11,1.83.1,2.41,0ZM223.15,39.4h2.5s-2.68-12.94-2.68-12.94h-3s-2.63,12.78-2.63,12.78c.74.29,2.33.43,2.55-.23s.43-1.43.7-1.78,1.76-.39,1.9.03l.67,2.14ZM237.03,29.28c-.99-3.46-4.6-3.04-7.31-2.84l.03,12.99h4.14c3.47.01,4.31-6.07,3.14-10.15ZM244.72,33.87l.06-2.18-3.12-.12.1-2.83,3-.15.03-2.23h-5.71s0,13.07,0,13.07l5.66.04.11-2.15-3.17-.14.03-3.13,3.03-.18ZM252.01,37.32l-2.91-.11-.04-10.77h-2.59s0,12.98,0,12.98l5.68.05c.09-.7.08-1.83-.14-2.15ZM270.21,33.43c-.01-.51.18-1.62-.21-1.65l-1.59-.13c-.43-.03-1.19.02-1.22-.25l-.11-.99c-.04-.39-.05-1.57.33-1.62l1.43-.18c.35-.05,1.42.19,1.44-.14l.15-2.05-5.85-.07.04,13.11,5.69-.02.07-1.97c.02-.57-3.03.2-3.19-.45-.06-.27-.15-1.02-.13-1.3l.11-1.42c.06-.76,3.05.17,3.02-.87ZM276.85,39.55l2.5-.17-1.63-5.24c2.14-1.92,2.33-5.89-.38-7.35-1.39-.75-3.59-.42-5.33-.36l.02,13.01h2.37s.46-5.11.46-5.11l2,5.22ZM275.92,298.87l-.05-252.38-222.88.02v252.93c1.98,60.72,52.06,108.14,111.88,107.92,59.52-.22,109.37-47.69,111.05-108.49ZM46.42,136.16l.02-16.35c0-4.65-1.98-8.8-5.05-12.14l-6.16-6.71c-3.44-3.75-2.49-8.91-4.14-7.55-.22.18-.66.85-.66,1.16l.04,14c.03,9.8,8.31,12.71,13.28,27.69.28.84,2.67,1.03,2.67-.11ZM285.19,136.18c4.44-14.26,13.2-17.79,13.22-27.57l.03-13.98c0-.47-.63-1.35-.98-1.31-1.65.18-.26,3.47-3.61,7.39-5.32,6.22-11.43,10.4-11.4,19.1l.06,16.48c0,.96,2.41.78,2.69-.12ZM169.66,423.59l1.96-9.89-14.5.1,2.06,9.7c3.54.77,6.68.71,10.48.08Z"/>
      <path class="cls-1" d="M292.89,328.43c.42,11.16.67,21.72.24,32.62-1.09,27.87-8.38,45.23-31.64,61.78,1.37-6.9,1.83-13.33.45-20.09-.19-.91-.95-1.74-1.8-2.15l-14.67-3.68c-.15-.04-.8-.12-.83.02l-.27,1.01,14.2,5.88c.93,6.25.73,12.41-1.15,18.26-1.14,3.52-3.29,5.69-6.49,7.27-13.41,6.64-27.86,10.38-43.28,9.35l5.2-10.08c1.63,1.41,3.33,2.84,5.12,1.69,2.31-1.48,4.17-3.86,5.73-6.14,1.12-1.64.7-3.6-.8-4.74s-3.03-2.46-4.58-3.31c-1.87-1.03-3.56.57-4.76,2.28l-10.36-7.76c46.74-15.39,81.92-61.77,82.27-110.43l.16-22.19c3.22,3.55,2.29,16.01,2.31,20.55,2.37,2.59,2.1-10.86,2.5-12.32.47-.05,2.06,1.47,2.02,2.27-.21,4.51-.91,8.67-1.8,13.03-.07.37.09,1.07.36,1.21s1.09-.5,1.19-.88l2.79-10.88,2.24,1.97,3.53-.66c-1.67,1.79-8.22,9.53-7.12,11.55.12.22.91-.07,1.08-.35,2.8-4.76,6.86-9.36,12-11.94,1.23-.62,3.08-.36,4.24.21-5.24,2.35-10.17,6.41-13.55,10.84-.19.25-.1,1.28.16,1.27,1.7-.04,5.49-7.33,16.19-10.08,2.14-.55,3.91-.03,5.06,1.97-4.14.28-7.63,1.63-11.18,3.54-11.35,6.09-15.22,16.28-14.75,29.12ZM279.36,376.23c-2.78,4.72-6.16,8.72-9.57,12.56-.28.32-.36,1.09-.1,1.24.21.13.99.04,1.17-.15l7.47-7.57c-.59,5.84-5.34,11.85-9.24,14.97-.29.24-.14,1.24.08,1.24s.83-.05,1.11-.25c5.88-4.08,10.22-10.89,11.97-18.02,1.88-7.67,1.44-15.1-.9-22.6-.23-.74-1.29-1.49-1.91-1.48-.54.01-1.77.51-2.06,1.23-4.11,10.22-11.26,20.28-18.51,28.24-.33.36-.34,1.21-.07,1.32s1.13.07,1.38-.15c6.98-6.21,13.3-13.56,18.36-21.74.36.51.97,2.6.51,3.33-3.8,6.01-8.13,11.7-12.49,17.08-.28.34-.27.85-.19,1.11.68,2,12.09-13.25,13.07-14.22.15.83.42,2.98-.09,3.86ZM231.93,404.97c-3.25.68-4.89,3.78-4.2,6.66s3.52,4.54,6.2,4.05c3.14-.57,4.94-3.35,4.45-6.35-.46-2.82-3.2-5.04-6.45-4.36Z"/>
      <path class="cls-1" d="M38.47,382.61c-3.77-16.51-3.12-36.91-2.48-53.99.14-3.64.01-7.04-.67-10.55-1.66-8.58-7.15-15.31-14.88-19.2-3.32-1.67-6.53-2.84-10.36-3.12,1.14-1.96,2.91-2.5,5.07-1.95,10.51,2.65,14.63,10.13,16.17,10.08.26,0,.35-1.04.09-1.38-3.13-4.08-8.31-8.5-13.46-10.74.97-.49,2.89-.84,3.95-.33,5.24,2.54,9.25,6.99,12.17,11.91.14.23.74.55.99.59.3.05.53-.91.36-1.27-1.73-3.68-4.35-7.15-7.28-10.37l3.52.66,2.24-1.95c.39.7,2.53,13.02,3.99,11.76.19-.16.45-.71.39-1.04-.82-4.15-1.64-8.75-1.82-13.24-.03-.8,1.5-2.24,2.04-2.33.41,2.85.04,10.98,1.77,12.73.14.14.69-.39.68-.63-.13-4.2-.65-17.1,2.24-20.23l.16,15.33c.58,55.47,30.32,98.05,82.36,117.26l-10.28,7.76c-1.27-1.69-3.17-3.46-5.1-2.19-1.56,1.03-3.03,2.21-4.57,3.42-3.82,3,3,9.27,5.17,10.67,1.78,1.15,3.49-.22,5.1-1.73l5.21,10.12c-16.19,1.01-32.08-2.98-45.99-10.97-5.34-3.06-6.34-18.11-4.87-23.93l13.49-5.58c.36-.15.68-.71.75-.84.07-.14-.6-.59-.87-.52l-14.6,3.64c-1.43.36-2.03,1.38-2.27,2.61-1.29,6.62-.85,12.96.52,19.73-14.77-10.48-24.91-22.59-28.94-40.21ZM49.43,372.38c.64.6,12.82,16.69,13.05,14.2l.07-.81c-4.71-5.71-8.85-11.37-12.95-17.57l.67-3.19c4.95,8.02,11.37,15.53,18.35,21.74.41.37,1.54.37,1.61.02.06-.28-.05-.96-.24-1.17-7.78-8.48-14.18-17.9-18.66-28.48-.24-.56-1.67-1-2.21-.9s-1.37.82-1.57,1.46c-2.36,7.56-2.82,15.19-.83,22.88,1.85,7.13,6.05,13.62,11.99,17.83.25.18.99.1,1.23-.05.18-.11.07-.91-.18-1.11-4.31-3.42-8.35-8.98-9.23-14.94l7.52,7.62c.22.22,1.28.23,1.33-.07.04-.24-.06-.81-.23-1-3.55-4.01-6.96-8.04-9.68-12.73-.45-.77-.18-2.92-.03-3.74ZM94.52,405.02c-3.25.83-4.74,3.97-3.84,6.98.78,2.61,3.68,4.33,6.52,3.59s4.62-3.53,3.95-6.56c-.6-2.69-3.43-4.83-6.62-4.01Z"/>
      <path class="cls-1" d="M15.58,193.36l10.33-23.89c2.1-4.85,3.7-9.54,4.52-14.79,1.07-6.88-1.99-14.22-8.54-16.99-5.95-2.51-12.86-.42-17.37,3.81-.39-.96-.44-2.97.35-3.62,5.27-4.16,13.76-2.87,15.73-3.53.24-.08-.25-.94-.55-1-4.44-.88-9.88-.61-14.54.97-.03-.94.45-2.3,1.06-3.09,4.94-1.21,10.05-1.01,14.8-.08.38.08,1-.04,1.22-.15.27-.14-.26-1.12-.58-1.22-4.36-1.28-9.21-1.78-13.95-1.67l1.62-2.33c.33-.47.26-1.5.11-2.84,4.5,1.32,8.83,3.09,13.4,5.1,2.66-2.96-18.01-8.35-15.12-10.6l12.43,5.4c.36.16.94.25,1.18.08,2.54-1.82-17.23-8.22-14.54-11.12,2.1,1.17,3.78,2,5.92,2.96,18.09,8.12,30.01,29.68,30.05,49.15l.13,68.42c-4.63-4.89-9.87-8.06-16.08-10.45-4.91,3.62-9,7.71-12.98,12.22l-.05.85c-.01.23.86.29,1.17.02,3.29-2.85,7.9-6.69,12.41-9.16,5.33,1.84,15.44,9.09,15.44,15.01v21.26c.01,8.18-3.42,15.64-8.21,22.39l-5.66-8.05,6.34-5.23c.88-.72,1.66-2.2,1.2-3.46-.93-2.55-2.22-4.93-3.77-7.03s-3.82-1.76-5.55-.38l-4.02,3.19c-1.02,1.8-.44,3.46,1.14,5.24l-13.69,10.7c-2.66-9.97-4.55-19.84-5.78-30.19s-.61-20.23,1.81-30.32c2.12-8.84,4.91-17.05,8.61-25.59ZM33.21,196.42c-.73,2.92-3.98,15.01-2.51,16.27.2.17.87-.49.91-.8.54-3.55,1.36-7.49,2.68-10.87,1.35,5.76.6,11.83-.22,17.26-.05.35.35,1.19.56,1.07s.78-.5.94-1.02c3.87-12.8,2.09-28.91-6.84-39.77-.34-.42-1.51-.65-1.89-.43-.32.19-.71.78-.92,1.47-3.35,11.06-5.13,23.91-5.59,35.2-.02.6.53,1.34.7,1.19s.62-.65.68-1.26c.88-9.31,2.86-20.9,6.27-31.02.91.96,1.42,1.88,1.95,3.21-1.57,3.27-5.23,23.42-3.31,24.95.14.12.72-.42.75-.78.57-5.97,1.95-13.85,4.29-19.99.72,1.31,1.96,3.65,1.54,5.32ZM17.61,245.11c-3.27.42-5.16,3.38-4.68,6.31s3.16,4.88,6.06,4.51,5.06-2.97,4.73-6.07c-.29-2.75-2.81-5.18-6.1-4.75Z"/>
      <path class="cls-1" d="M312.82,192.22c3.91,9.01,6.95,17.7,9.16,27.06,2.4,10.14,2.95,20.02,1.69,30.39s-3.11,19.95-5.74,29.8l-13.69-10.7c1.57-1.8,2.16-3.44,1.15-5.25l-4.06-3.19c-.79-.62-2.08-1.18-3.07-1.11-.79.06-2.06.84-2.6,1.64-1.54,2.24-5.33,7.91-2.86,9.97l6.76,5.63-5.65,8.05c-4.7-6.65-7.91-13.95-8.19-22-.25-7.33-.15-14.32-.02-21.66.11-6.06,10.05-13.08,15.43-15.03,4.51,2.55,8.65,5.88,12.29,9.1.22.2,1.15.47,1.17.23l.09-1.01c-4.01-4.53-8.08-8.6-13-12.23-6.23,2.36-11.43,5.6-16.1,10.42l.17-68.79c.05-19.4,12.34-41.18,30.61-49.02,1.94-.83,3.43-1.64,5.33-2.74,2.7,2.98-17.08,9.3-14.55,11.18.24.18.81.06,1.2-.11l12.34-5.37c3.23,2.11-17.69,7.59-15.04,10.57,4.54-2,8.78-3.7,13.43-5.14-.1.95-.33,2.2,0,2.69l1.68,2.51c-4.51-.14-9.8.44-13.77,1.62-.35.11-1,.97-.78,1.08l.84.44c5.18-1.11,10.05-1.21,15.25-.05.56.82,1.01,2.03,1.1,3.09-3.07-1.24-12.93-2.33-15.17-.49-.19.15.48.87.75.86,5.02-.28,10.81.11,15.04,3.19.72.73.72,2.61.33,3.63-4.52-4.22-11.42-6.32-17.36-3.82-6.57,2.77-9.62,10.08-8.55,17,.86,5.55,2.65,10.53,4.87,15.63l9.51,21.9ZM297.24,191.04c2.32,6.95,3.69,13.2,4.19,20.1l.82.69c.2.17.63-.81.62-1.09-.31-8.02-1.47-16.26-3.92-23.86.5-1.22,1.08-2.3,1.97-3.09,3.44,10.21,5.36,21.71,6.25,30.97.06.6.52,1.09.68,1.22s.71-.59.7-.97c-.46-11.56-2.26-24.23-5.59-35.4-.24-.79-.75-1.48-1.19-1.57s-1.45.27-1.78.69c-8.76,10.8-10.58,26.87-6.63,39.8.11.35.66.74.89.84s.62-.73.57-1.1c-.81-5.35-1.61-11.53-.2-17.24,1.28,3.33,2.19,7.85,2.73,11.07.06.36.99.7,1.08.46.81-2.2-1.83-13.21-2.93-16.16.28-1.98.76-3.67,1.76-5.37ZM310.05,245.09c-3.31.35-5.3,3.2-4.84,6.32.4,2.71,2.95,4.92,6.09,4.51,2.74-.36,5.01-2.82,4.7-6-.26-2.62-2.64-5.18-5.94-4.82Z"/>
      <polygon class="cls-1" points="204.25 437.25 189.67 421.53 193.7 414.24 210.19 426.69 204.25 437.25"/>
      <polygon class="cls-1" points="124.71 437.2 118.69 426.69 135.17 414.25 139.24 421.46 124.71 437.2"/>
      <path class="cls-1" d="M298.44,289.4c-.88-.6-1.72-1.5-2.34-2.35l5.94-8.57,11.71,9.05c-5.44-.44-10.18-.2-15.31,1.88Z"/>
      <path class="cls-1" d="M30.64,289.47c-5.08-2.15-9.69-2.31-15.28-2.16l11.45-8.86,6,8.67-2.17,2.35Z"/>
      <path class="cls-1" d="M315.97,281.95c.43.34,1.1.91.97,1.19l-.63,1.33-20.31-16.13c.68-1.91,1.55-3.5,2.75-5.41l3.72,2.51-2.14,4.31,15.65,12.2Z"/>
      <path class="cls-1" d="M12.64,284.44c-.41-.16-.83-1.57-.53-1.85l16.44-12.83-2.13-4.31,3.78-2.54,2.79,5.36-20.34,16.17Z"/>
      <path class="cls-1" d="M108.24,422.31l3.43-2.99,3.4,3.09,14.08-10.31c.45-.33,1.84.19,2.17.54l-19.06,13.97-4.02-4.3Z"/>
      <path class="cls-1" d="M217.11,419.28l3.47,2.87c-1.26,1.59-2.38,2.86-3.96,4.45l-19.06-13.97c.31-.37,1.74-.86,2.19-.53l14.08,10.31,3.28-3.14Z"/>
      <path class="cls-1" d="M14.61,300.17c-3.28,1.44-5.83,3.08-8.14,5.76-1.02-2.03-.58-4.17.92-5.59,2.24-.98,4.69-1.22,7.22-.17Z"/>
      <path class="cls-1" d="M322.41,305.9c-2.35-2.61-4.83-4.32-8.21-5.73,2.47-1,4.98-.83,7.29.18,1.4,1.39,1.97,3.37.92,5.55Z"/>
      <path d="M275.92,298.87c-1.68,60.8-51.53,108.27-111.05,108.49-59.82.22-109.9-47.2-111.89-107.92V46.52s222.89-.02,222.89-.02l.05,252.38ZM269.29,297.29l-.03-244.04H59.62s-.03,243.41-.03,243.41c.5,57.78,47.56,103.81,104.46,104.02,56.81.22,104.33-45.39,105.24-103.39Z"/>
      <path d="M302.04,16.75H26.77s-.04,96.53-.04,96.53c-2.29-1.66-4.18-2.89-6.61-4.06V10.03s288.53,0,288.53,0v99.15c-2.31,1.28-4.03,2.48-6.6,4.34l-.02-96.77Z"/>
      <path d="M46.42,136.16c0,1.13-2.39.95-2.67.11-4.97-14.98-13.25-17.9-13.28-27.69l-.04-14c0-.3.43-.97.66-1.16,1.66-1.37.7,3.8,4.14,7.55l6.16,6.71c3.07,3.34,5.05,7.49,5.05,12.14l-.02,16.35ZM38.68,110.03l-5.05-6.05c-.48,4.4.6,8.57,2.93,12.11l6.18,9.41c.49-6.04-.14-10.78-4.06-15.47Z"/>
      <path d="M285.19,136.18c-.28.9-2.69,1.08-2.69.12l-.06-16.48c-.03-8.7,6.08-12.88,11.4-19.1,3.35-3.92,1.96-7.21,3.61-7.39.36-.04.98.84.98,1.31l-.03,13.98c-.02,9.78-8.78,13.31-13.22,27.57ZM286.09,125.62l5.79-8.75c2.61-3.95,3.86-8.54,3.47-13.26-6.26,8.71-9.89,8.94-9.26,22.01Z"/>
      <path d="M169.66,423.59c-3.8.63-6.94.69-10.48-.08l-2.06-9.7,14.5-.1-1.96,9.89Z"/>
      <path d="M180.47,39.28c-.58.15-1.87.16-2.44-.02l-2.43-6.5-.09,6.68-2.56-.04.02-12.94c.91-.04,2.06-.01,2.61.09l2.19,6.05.28-6.19,2.41.06v12.81Z"/>
      <path d="M216.33,39.32c-.58.09-1.81.11-2.41,0l-2.32-6.2-.29,6.31-2.49-.02v-12.98s2.57.05,2.57.05l2.37,6.42.1-6.17c.34-.36,1.69-.43,2.45-.28l.02,12.86Z"/>
      <path d="M237.03,29.28c1.17,4.08.33,10.16-3.14,10.16h-4.14s-.03-13-.03-13c2.7-.2,6.32-.61,7.31,2.84ZM234.55,29.85c-.19-.82-1.41-1.33-2.2-1.09v8.53c3.31.36,2.66-5.44,2.2-7.44Z"/>
      <path d="M72.61,39.44l-1.81-5c-.39,1.97-.38,2.93-.5,4.96l-2.51-.07.05-12.93c1.93-.01,3.85-.3,5.2.34,2.79,1.32,2.75,5.4.54,7.42l1.6,5.19-2.57.09ZM70.7,32.74c1.93-.87,1.8-1.5,1.82-2.51.01-.75-.75-1.53-1.79-1.66-.43,1.31-.39,2.86-.03,4.17Z"/>
      <path d="M103.39,39.44l-1.78-4.99c-.5,1.98-.44,2.84-.53,4.94l-2.43-.06v-12.88c1.68-.07,3.83-.4,5.22.29,2.82,1.41,2.65,5.49.46,7.41l1.64,5.19-2.58.1ZM101.34,32.65c1.66-.47,1.87-1.11,1.96-2.04.08-.86-.46-2.19-1.75-1.85-.55.61-.44,2.56-.21,3.89Z"/>
      <path d="M276.85,39.55l-2-5.22-.46,5.1h-2.37s-.02-13-.02-13c1.74-.06,3.95-.38,5.33.36,2.71,1.46,2.52,5.42.38,7.35l1.63,5.24-2.5.17ZM276.56,30.18c-.07-.54-.38-1.47-.74-1.43l-1.3.15.06,3.46c1.54.36,2.17-.7,1.98-2.19Z"/>
      <path d="M65.58,28.57c1.3,3.55,1.23,11.07-3.29,11.18-4.78.12-4.74-7.51-3.6-11.01.5-1.52,1.87-2.53,3.2-2.62,1.56-.1,3.09.81,3.69,2.45ZM62.28,28.42c-1.93-.88-2.39,9.4,0,8.98,1.78-.31,2.08-8.03,0-8.98Z"/>
      <path d="M170.64,28.42c1.43,3.77,1.22,11.02-3,11.32-1.49.11-3.01-.69-3.63-2.19-1.58-3.88-1.26-11.41,3.22-11.45,1.41-.01,2.85.85,3.4,2.32ZM167.24,28.42c-2.05.66-1.93,8.56.02,9,2.14.48,2.02-9.66-.02-9Z"/>
      <path d="M147.21,39.14c-.4-1.13-.73-2.14-1.55-2.18-1.14-.06-1.46.87-1.66,2.02-.11.63-1.82.61-2.59.29l2.61-12.76c.83-.1,1.98-.11,3.03-.04l2.65,12.79c-.76.24-2.12.28-2.5-.13ZM146.45,34.72l-.87-4.77-.86,4.76h1.73Z"/>
      <path d="M223.15,39.4l-.67-2.14c-.13-.43-1.62-.39-1.9-.03s-.47,1.1-.7,1.78-1.82.52-2.55.23l2.63-12.79h3s2.68,12.94,2.68,12.94h-2.5ZM222.47,34.8l-1.05-4.15-.85,4.19,1.91-.04Z"/>
      <path d="M119.91,39.12c-.29-.74-.54-1.55-.8-1.91s-1.76-.38-1.89.04l-.62,2.03c-.35.13-1.7.14-2.55.09l2.68-12.93h3.01s2.63,12.79,2.63,12.79c-.6.25-2.24.41-2.45-.12ZM119.11,34.81l-.79-4.49-1.06,4.52,1.85-.03Z"/>
      <path d="M91.91,39.15c-.22-1.23-.64-2.27-1.57-2.18-1.06.1-1.16.83-1.59,2.05-.25.49-1.53.48-2.61.36l2.65-12.77c.83-.3,2.24-.3,3.07,0l2.62,12.7c-.77.18-2.2.2-2.57-.16ZM91.15,34.37l-.82-4.01-.84,4.28c.21.28,1.75.14,1.66-.27Z"/>
      <path d="M52.47,34.64l-.15,4.73-2.43.02-.02-12.94c1.57-.11,3.38-.19,4.93.16,1.85.42,2.4,2.6,2.33,4.19-.11,2.48-1.57,4.25-4.66,3.85ZM52.72,32.59c1.87-.45,1.78-1.45,1.79-2.39,0-.74-.74-1.56-1.78-1.58-.5,1.07-.47,3.08,0,3.97Z"/>
      <path d="M188.28,34.63l-.18,4.83-2.53-.14v-12.9c1.69-.08,3.44-.16,4.95.17,1.99.44,2.5,2.79,2.35,4.47-.21,2.35-1.64,3.95-4.59,3.57ZM188.19,32.62c1.85-.41,2.01-1.06,2.09-1.98.08-1-.3-2.09-1.94-1.97l-.15,3.95Z"/>
      <path d="M270.21,33.43c.02,1.04-2.97.11-3.02.87l-.11,1.42c-.02.27.06,1.03.13,1.3.16.65,3.21-.11,3.19.45l-.07,1.97-5.69.02-.04-13.11,5.85.07-.15,2.05c-.02.33-1.09.1-1.44.14l-1.43.18c-.38.05-.37,1.22-.33,1.62l.11.99c.03.27.79.21,1.22.25l1.59.13c.39.03.2,1.14.21,1.65Z"/>
      <path d="M262,38.73c-1.57,1.61-4.18,1.22-5.89-.16l.9-2.04c1.09.67,2.47,1.14,3.01.56,1.19-1.27-.11-2.55-1.1-3.15-2.34-1.41-3.36-4.07-1.82-6.42,1.16-1.78,4.14-1.8,5.51-.5.38.37-.31,2.08-.79,1.88-.71-.31-2.21-.56-2.52-.04-.7,1.22.44,2.32,1.37,2.9,2.38,1.49,3.55,4.69,1.33,6.97Z"/>
      <polygon points="244.72 33.87 241.69 34.06 241.67 37.19 244.84 37.33 244.72 39.48 239.06 39.44 239.07 26.38 244.78 26.37 244.75 28.6 241.75 28.75 241.65 31.58 244.78 31.7 244.72 33.87"/>
      <polygon points="207.07 33.87 204.04 34.06 204.01 37.18 207.17 37.34 207.07 39.48 201.41 39.44 201.41 26.38 207.12 26.37 207.09 28.6 204.1 28.75 204 31.58 207.12 31.7 207.07 33.87"/>
      <polygon points="113.19 33.87 110.18 34.04 110.15 37.25 113.44 37.3 113.33 39.47 107.69 39.48 107.66 26.39 113.38 26.37 113.37 28.6 110.17 28.77 110.17 31.62 113.15 31.72 113.19 33.87"/>
      <path d="M154.46,28.42c-1.96-1-2.2,9.73.01,9.02.38-.12.88-.85,1.14-1.42.24-.54,1.92-.07,1.96.5.08,1.38-1.31,2.98-2.38,3.16-1.78.3-3.37-.44-4.09-2.15-1.22-2.93-1.2-6.41.08-9.35.68-1.57,2.28-2.24,3.93-1.99,1.23.19,2.5,1.65,2.45,3.05-.51.4-1.68.78-1.94.4-.32-.46-.82-1.04-1.15-1.21Z"/>
      <path d="M140.81,39.45l-6.15.03c-.08-1.26.04-2.53.47-3.68l2.61-7-3.05-.22-.05-2.2,5.7-.02c.31.37.47,1.84.26,2.42l-3.11,8.37,3.3.22.02,2.1Z"/>
      <path d="M252.01,37.32c.22.32.23,1.45.14,2.15l-5.68-.05v-12.97s2.59,0,2.59,0l.04,10.77,2.91.11Z"/>
      <polygon points="200.01 37.32 200.02 39.45 194.29 39.44 194.29 26.42 196.77 26.46 196.8 37.18 200.01 37.32"/>
      <polygon points="129.11 37.32 129.11 39.45 123.38 39.44 123.39 26.43 125.86 26.46 125.9 37.18 129.11 37.32"/>
      <path d="M85.5,37.37c.39.02.37,1.62.22,2.08h-5.69s0-12.98,0-12.98l2.49-.05v10.82s2.98.14,2.98.14Z"/>
      <polygon points="161.65 39.28 159.15 39.44 159.13 26.43 161.64 26.47 161.65 39.28"/>
      <path d="M133.1,39.42l-2.59-.04v-12.61c.42-.44,1.71-.49,2.57-.26l.02,12.91Z"/>
      <path d="M169.17,22.45c.51.03-1.8,3.9-3,2.64.3-.79,1.06-2.18,1.58-2.69.15-.15,1.2.05,1.42.06Z"/>
      <path d="M279.36,376.23c.52-.88.25-3.03.09-3.86-.98.97-12.38,16.22-13.07,14.22-.09-.26-.09-.76.19-1.11,4.36-5.38,8.69-11.07,12.49-17.08.46-.73-.16-2.81-.51-3.33-5.06,8.18-11.38,15.53-18.36,21.74-.25.22-1.12.26-1.38.15s-.26-.96.07-1.32c7.24-7.95,14.4-18.02,18.51-28.24.29-.71,1.52-1.21,2.06-1.23.62-.01,1.68.75,1.91,1.48,2.34,7.5,2.79,14.93.9,22.6-1.75,7.13-6.09,13.94-11.97,18.02-.28.2-.9.24-1.11.25-.22,0-.38-1-.08-1.24,3.9-3.13,8.65-9.13,9.24-14.97l-7.47,7.57c-.18.19-.97.27-1.17.15-.26-.16-.18-.92.1-1.24,3.41-3.84,6.79-7.84,9.57-12.56Z"/>
      <path d="M231.93,404.97c3.25-.68,5.99,1.54,6.45,4.36.49,3-1.31,5.78-4.45,6.35-2.68.49-5.53-1.27-6.2-4.05s.94-5.98,4.2-6.66ZM232.34,408.14c-1.37.46-1.93,1.97-1.43,3.05.43.91,1.79,1.63,2.65,1.37,1.14-.35,1.99-1.7,1.7-2.78s-1.5-2.12-2.92-1.64Z"/>
      <path d="M49.43,372.38c-.15.81-.41,2.96.03,3.74,2.71,4.7,6.12,8.73,9.68,12.73.17.19.27.76.23,1-.05.3-1.11.29-1.33.07l-7.52-7.62c.88,5.96,4.92,11.52,9.23,14.94.25.2.35.99.18,1.11-.24.15-.98.23-1.23.05-5.93-4.21-10.14-10.7-11.99-17.83-1.99-7.69-1.53-15.32.83-22.88.2-.65,1.04-1.36,1.57-1.46s1.97.34,2.21.9c4.49,10.58,10.88,20,18.66,28.48.2.21.3.89.24,1.17-.07.35-1.2.35-1.61-.02-6.98-6.21-13.39-13.71-18.35-21.74l-.67,3.19c4.1,6.2,8.24,11.87,12.95,17.57l-.07.81c-.23,2.49-12.41-13.6-13.05-14.2Z"/>
      <path d="M94.52,405.02c3.19-.82,6.03,1.32,6.62,4.01.67,3.03-1.07,5.81-3.95,6.56s-5.74-.98-6.52-3.59c-.9-3.01.6-6.14,3.84-6.98ZM94.99,408.19c-1.4.62-1.74,2.14-1.08,3.32.42.75,1.89,1.35,2.78.92,1.13-.55,1.71-1.8,1.32-2.9s-1.77-1.91-3.03-1.35Z"/>
      <path d="M33.21,196.42c.42-1.67-.82-4.01-1.54-5.32-2.34,6.15-3.72,14.03-4.29,19.99-.03.36-.61.9-.75.78-1.92-1.53,1.74-21.68,3.31-24.95-.53-1.32-1.04-2.25-1.95-3.21-3.41,10.13-5.39,21.71-6.27,31.02-.06.61-.5,1.11-.68,1.26s-.72-.59-.7-1.19c.46-11.29,2.24-24.14,5.59-35.2.21-.69.6-1.29.92-1.47.38-.23,1.55,0,1.89.43,8.93,10.86,10.71,26.98,6.84,39.77-.16.51-.72.91-.94,1.02s-.61-.73-.56-1.07c.82-5.43,1.57-11.5.22-17.26-1.32,3.38-2.14,7.32-2.68,10.87-.05.31-.72.97-.91.8-1.47-1.26,1.78-13.36,2.51-16.27Z"/>
      <path d="M17.61,245.11c3.29-.42,5.81,2,6.1,4.75.33,3.1-1.74,5.69-4.73,6.07s-5.59-1.67-6.06-4.51,1.42-5.88,4.68-6.31ZM18.01,248.25c-1.44.24-2.2,1.6-1.94,2.73.24,1.07,1.47,1.96,2.54,1.81,1.21-.17,2.05-1.34,1.98-2.52-.06-1.07-1.27-2.24-2.58-2.02Z"/>
      <path d="M297.24,191.04c-1,1.7-1.48,3.39-1.76,5.37,1.1,2.95,3.74,13.96,2.93,16.16-.09.24-1.02-.1-1.08-.46-.54-3.22-1.45-7.74-2.73-11.07-1.41,5.72-.61,11.89.2,17.24.06.36-.34,1.2-.57,1.1s-.78-.49-.89-.84c-3.95-12.93-2.13-29,6.63-39.8.33-.41,1.35-.77,1.78-.69s.95.77,1.19,1.57c3.33,11.17,5.13,23.84,5.59,35.4.01.38-.53,1.1-.7.97s-.63-.62-.68-1.22c-.89-9.27-2.81-20.77-6.25-30.97-.88.79-1.47,1.86-1.97,3.09,2.45,7.6,3.61,15.84,3.92,23.86.01.28-.43,1.26-.62,1.09l-.82-.69c-.5-6.9-1.87-13.15-4.19-20.1Z"/>
      <path d="M310.05,245.09c3.3-.35,5.69,2.2,5.94,4.82.31,3.18-1.95,5.64-4.7,6-3.14.41-5.69-1.8-6.09-4.51-.46-3.12,1.53-5.96,4.84-6.32ZM310.49,248.23c-1.63.15-2.37,1.4-2.14,2.78.15.91,1.23,1.91,2.57,1.77.94-.1,1.95-1.19,1.95-2.46,0-.89-1.23-2.2-2.39-2.09Z"/>
      <path class="cls-1" d="M269.29,297.29c-.91,58.01-48.43,103.61-105.24,103.39-56.9-.22-103.96-46.24-104.46-104.02l.03-243.42h209.65s.03,244.05.03,244.05ZM262.79,298.12l-.02-238.46H66.03s-.02,238.62-.02,238.62c1.42,53.79,45.46,95.97,98.44,95.96s97.01-42.17,98.34-96.12Z"/>
      <path class="cls-1" d="M38.68,110.03c3.92,4.69,4.55,9.43,4.06,15.47l-6.18-9.41c-2.33-3.54-3.41-7.71-2.93-12.11l5.05,6.05Z"/>
      <path class="cls-1" d="M286.09,125.62c-.63-13.07,3-13.3,9.26-22.01.39,4.72-.86,9.31-3.47,13.26l-5.79,8.75Z"/>
      <path class="cls-1" d="M234.55,29.85c.46,2,1.11,7.8-2.19,7.44v-8.53c.79-.24,2,.27,2.19,1.09Z"/>
      <path class="cls-1" d="M70.7,32.74c-.37-1.31-.4-2.86.03-4.17,1.04.12,1.8.9,1.79,1.66-.01,1.01.11,1.64-1.82,2.51Z"/>
      <path class="cls-1" d="M101.34,32.65c-.23-1.33-.34-3.27.21-3.89,1.29-.34,1.84.99,1.75,1.85-.09.93-.3,1.56-1.96,2.04Z"/>
      <path class="cls-1" d="M276.56,30.18c.19,1.49-.44,2.55-1.98,2.19l-.06-3.46,1.3-.15c.36-.04.67.89.74,1.43Z"/>
      <path class="cls-1" d="M62.28,28.42c2.09.95,1.78,8.68,0,8.98-2.39.42-1.94-9.87,0-8.98Z"/>
      <path class="cls-1" d="M167.24,28.42c2.04-.66,2.16,9.48.02,9-1.95-.44-2.07-8.34-.02-9Z"/>
      <polygon class="cls-1" points="146.45 34.72 144.72 34.71 145.58 29.95 146.45 34.72"/>
      <polygon class="cls-1" points="222.47 34.8 220.56 34.84 221.41 30.65 222.47 34.8"/>
      <polygon class="cls-1" points="119.11 34.81 117.26 34.84 118.32 30.32 119.11 34.81"/>
      <path class="cls-1" d="M91.15,34.37c.09.42-1.45.55-1.66.27l.84-4.28.82,4.01Z"/>
      <path class="cls-1" d="M52.72,32.59c-.46-.89-.49-2.9,0-3.97,1.04.01,1.78.84,1.78,1.58,0,.94.09,1.94-1.79,2.39Z"/>
      <path class="cls-1" d="M188.19,32.62l.15-3.95c1.63-.12,2.01.97,1.94,1.97-.07.92-.24,1.56-2.09,1.98Z"/>
      <path class="cls-1" d="M232.34,408.14c1.42-.48,2.62.52,2.92,1.64s-.56,2.42-1.7,2.78c-.86.27-2.22-.45-2.65-1.37-.5-1.07.06-2.58,1.43-3.05Z"/>
      <path class="cls-1" d="M94.99,408.19c1.26-.56,2.66.29,3.03,1.35s-.19,2.35-1.32,2.9c-.89.43-2.36-.17-2.78-.92-.66-1.19-.32-2.7,1.08-3.32Z"/>
      <path class="cls-1" d="M18.01,248.25c1.31-.22,2.52.95,2.58,2.02.07,1.18-.77,2.35-1.98,2.52-1.07.15-2.3-.74-2.54-1.81-.26-1.13.51-2.49,1.94-2.73Z"/>
      <path class="cls-1" d="M310.49,248.23c1.16-.11,2.39,1.2,2.39,2.09,0,1.27-1.01,2.36-1.95,2.46-1.34.14-2.42-.85-2.57-1.77-.23-1.38.51-2.63,2.14-2.78Z"/>
      <path d="M262.79,298.12c-1.32,53.95-45.51,96.11-98.34,96.12s-97.02-42.17-98.44-95.96l.02-238.62h196.74s.02,238.47.02,238.47ZM91.29,88.94c-.1.49-.94,1.56-1.48,1.6-5.51.34-15.86,1.67-15.68-5,.16-6.08,9.06-4.77,14.74-4.84,1.79-.02,2,1.04,3.16,2.86.28-3.25.36-5.95-.1-8.81l-1.15,1.82c-.17.27-1.02.4-1.41.41l-10.56.12c-3.8.04-6.04,2.7-6.43,6.21-.52,4.61,2.19,8.58,7.09,8.74l9.69.32c1.5.05,1.69,1.1,2.96,2.55l.17-6.56c0-.18-.67-.87-.71-.68l-.27,1.27ZM255.94,86.81l-1.36,2.27-4.91-1.36.05-5.33,4.67-1.63,1.6,2.04c.23-2.79.22-5.1.07-8.21-1.31,1.48-1.67,2.44-3.11,2.94l-15.74,5.47c-.21.07-.57.39-.71.52s.35,1.03.65,1.15l16.08,6.08c1.45.55,1.59,1.47,2.67,2.96.37-2.43.38-4.22.03-6.89ZM229.94,296.63V92.52s-131.07,0-131.07,0v202.65c-.2,36.44,28.94,65.7,64.78,66.15,35.69.44,65.68-28.16,66.3-64.68ZM255.98,104.31c.29-3.65.32-5.79-.08-8.83l-1.22,2.02c-.23.39-1.32.58-1.86.58h-12.51c-.55.01-1.93-.11-2.21-.54l-1.37-2.12c-.24,3.43-.24,5.83.04,8.92,1.12-1.51,1.24-2.68,2.73-2.67l14.84.06,1.65,2.57ZM74.31,114.35l15.07.23c1.46.02,1.53,1.32,2.63,2.82.31-2.77.34-4.83-.06-7.61l-1.05,2.2c-.77,1.62-9.49.88-12.23.93l13.29-10.94c.41-1.53.37-3.66-.09-5.37-1.05,1.96-1.23,3.24-3.39,3.25-4.42.04-9.37.04-13.77-.36-.55-.05-1.15-1.56-1.77-2.29-.37,2.44-.38,4.65.03,7.19l1.21-2.39c.51-1.02,11.29-.88,12.78-.46l-13.88,10.94c-.33.26-.6,1.55-.31,1.64s.83.2,1.53.21ZM256,126.92c.24-2.75.26-4.95-.09-7.45-.96,1.06-1.05,2.84-1.95,2.91-4.3.35-8.08.4-12.51.24l14.51-11.18c.4-.3.54-1.89-.19-1.9l-15.83-.15c-.59,0-1.66-.3-1.89-.69l-1.19-1.98c-.46,2.58-.44,4.83-.01,7.43.86-1.1,1-2.84,1.9-2.93,4-.39,7.44-.45,11.34-.11l-13.47,11.03c-.09,1.83-.07,3.57.23,5.13,1.08-1.38,1.19-3.11,2.65-3.11l13.31.02c1.71,0,1.88.98,3.19,2.73ZM92.27,127.62l-.16-7.89c-1.26,1.3-1.22,2.53-2.73,2.52l-15.01-.08-1.47-2.49c-.27,3.34-.26,5.38-.02,8.87l1.5-2.58,15.35-.06c.6,0,1.46.94,1.57,1.43l.22.97c.04.18.76-.49.76-.69ZM256.02,145.74c.23-3.04.25-5.45-.12-8.18l-1.23,1.98c-.2.32-1.12.55-1.56.54l-5.52-.09c-.93-4.31,9.87-2.24,8.65-11.49l-1.67,1.51c-2.32,2.11-5.19,3.45-8.05,4.85-1.13-2.83-3.41-3.97-5.81-3.66-5.9.76-3.91,10.04-3.97,14.89l1.32-1.97c.25-.37,1.32-.58,1.84-.58l13.68.03c2.13,0,2.18,5.59,2.44,2.17ZM92.26,143.43c-.55.25-.99.45-.99.46l-.28,1.43c-.05.25-1.12.34-1.37.26l-11.93-3.94,13.05-4.84c.57,1.18.7,1.56,1.36,2.35.19-3.2.18-5.59,0-8.69-1.21,1.62-1.6,2.53-2.99,3.05l-15.41,5.68c-.44.16-1.12.92-1.03,1.26s.63.73,1.08.9l15.68,6.08c1.1.43,1.58,1.54,2.56,2.9.26-2.21.26-3.93.29-6.89ZM253.94,163.74c3.02-3.05,3.14-7.34,1.45-10.93-1.52-3.22-5.12-5.19-9.05-5.27-3.55-.07-6.87,1.45-8.62,4.12-1.95,2.98-2.13,6.8-.28,10,3.3,5.71,11.71,6.92,16.49,2.08ZM83.74,162.24l-.1-4.25h7.22c.24,1.96.16,3.96-.48,5.53-1.34.59-1.84.76-3.16,1.67,2.12.14,3.12.07,5.04-.07l-.09-13.25c-1.27,1.32-1.45,2.51-2.75,2.51l-14.19-.03c-1.21,0-1.23-1.48-2.41-2.67l-.11,14.22c2.04.47,3.48.84,5.38.64-1.13-1.2-2.83-1.37-3.43-2.27-1.01-1.84-.73-3.99-.31-6.1l7.91-.12-.23,4.4c-1.33.47-1.74.51-2.56,1.41,2.81.21,4.41.25,7.05-.12l-2.77-1.48ZM246.95,176.98l.16-4.81c1.18-.51,1.41-.6,2.5-1.31-2.53-.32-4-.3-6.75-.09.84.82,1.13.88,2.43,1.32l.17,4.91h-7.52c-.12-1.97-.19-4.24.29-6.08.68-.6,2.08-1.19,3.27-1.99-1.65-.23-2.79-.16-4.86-.03l.04,14.18c1.28-1.39,1.48-2.44,2.8-2.44h13.79c1.33,0,1.48,1.08,2.79,2.36l.16-8.12c0-.18-.77-.68-.8-.52l-.17.88c-.17.88-1.01,1.8-1.99,1.79l-6.3-.06ZM74.39,185.02c2.3-2.1,5.13-3.45,7.94-4.79,1.04,2.74,3.18,3.88,5.56,3.67,6.16-.55,4.01-9.82,4.2-14.95-1.17,1.38-1.36,2.56-2.72,2.56l-12.92.02c-.57,0-1.97-.15-2.25-.59l-1.36-2.1c-.18,3.3-.18,5.31.02,8.65l1.46-2.29c2.02-.17,4.34-.24,6.64-.03,2.06,3.9-9.69,2.18-8.26,11.39l1.69-1.54ZM255.96,195c.31-3.72.29-5.61,0-8.65l-1.38,2.04c-.22.33-1.31.48-1.78.47l-14.63-.1c-.55-1.14-.72-1.53-1.46-2.37-.23,3.38-.24,5.71.08,8.68,1-1.35,1.2-2.55,2.44-2.54l15.16.05,1.56,2.42ZM91.79,199.07c.9-2.28,1.11-4.32.4-6.38-.77-2.25-2.69-3.57-4.92-3.77-1.85-.16-4.09.77-5.12,2.67l-1.71,3.18c-.58,1.07-1.69,2.17-2.61,2.32-1.15.2-2.8-.11-3.49-.91-1.16-1.36-1-3.75.4-4.8l3.81-2.85c-1.87-.21-3.24.12-4.94.5-1.33,2.37-1.71,5.12-.66,7.66s3.32,3.77,5.75,3.72c4.73-.11,5.22-4.59,7.3-7.36,1.17-1.56,3.55-1.38,4.63-.22,1.18,1.26.95,3.62-.59,4.61-1.04.67-1.67.92-2.64,2.05l4.39-.43ZM236.75,211.34l1.4-2.15c.22-.34,1.27-.41,1.76-.41h12.91c.59,0,1.66.19,1.88.6.32.61.5,1.12,1.37,2.13l.15-13.69c-1.92-.54-3.25-.99-5.55-.76l3.37,2.1c1.12,1.52,1.24,4.11.18,5.86l-13.88.09c-.63,0-1.95-.08-2.22-.52l-1.37-2.19c-.24,3.52-.25,5.92.02,8.94ZM92.05,211.69c.26-3.63.27-5.68-.04-8.88l-1.18,2.08c-.18.32-1.04.59-1.46.59l-12.9.02c-.58,0-1.94-.06-2.23-.5l-1.38-2.08c-.19,3.33-.19,5.73.05,8.79,1.1-1.53,1.28-2.56,2.75-2.55l14.81.07,1.59,2.46ZM254.52,227.51l-4.85-1.43.04-5.27,4.68-1.68,1.61,2.03c.21-2.9.21-5.15.07-8.26-1.2,1.27-1.52,2.44-2.7,2.86l-16.78,5.88c-.07.69.56,1.46,1.19,1.7l15.58,5.84c1.06.4,1.49,1.44,2.56,2.81.35-2.39.37-4.26-.02-6.71l-1.38,2.24ZM92.1,215.14c-1.23,1.62-1.56,2.38-3.12,2.38l-13.3-.02c-1.5,0-1.66-1.09-2.77-2.64-.25,3.51-.35,6.9.02,10.23.63,5.65,4.88,9.39,10.39,9.3,4.66-.08,8.29-3.29,8.72-8.1.32-3.66.23-7.34.06-11.14ZM242.25,233.81c-2.02-.04-3.28.1-5.18.34-2.09,6.53.03,14.38,7.12,16,4.12.94,8.45-.37,10.71-3.99s2.03-7.86.72-11.72c-1.58-.66-3.51-1.28-5.25-1.03,1.54,1.46,3.1,2.01,4.02,3.32,2.08,2.97.62,6.86-2.57,8.34s-7.05,1.66-10.41.33c-3.55-1.4-5.09-5.66-2.91-8.87.85-1.24,2.36-1.2,3.74-2.73ZM72.86,245.16c-.2,3.39-.19,5.41.05,8.19,1.01-1.22,1.41-2.32,2.55-2.72l16.77-5.87c.25-.31-.18-1.39-.55-1.53l-16-6.02c-1.24-.47-1.7-1.45-2.74-2.86-.28,2.34-.29,4.07-.03,6.79l1.37-2.28,4.94,1.48v5.21s-4.91,1.7-4.91,1.7l-1.45-2.08ZM92.12,255.59c-1.3,1.7-1.54,2.41-3.15,2.41l-13.3-.02c-1.54,0-1.64-1.02-2.76-2.62-.46,6.31-1.23,15.92,5.96,18.7,3.71,1.43,7.61,1.16,10.48-1.52,4.11-3.85,2.68-11.48,2.77-16.95ZM255.99,274.6l-1.44,2.27-4.83-1.36-.05-5.31,4.87-1.66,1.46,2.08c.25-3.1.24-5.37-.02-8.28-1.17,1.58-1.69,2.52-3.1,3.01l-15.48,5.37c-.41.14-.82.36-.9.62s.52,1.09.89,1.23l14.86,5.57c1.93.72,2.4,1.39,3.76,3.35.19-2.55.2-4.12-.03-6.89ZM259.92,290.79c-.26-4.46-3.97-6.71-7.95-6.73l-13.7-.09-1.51-2.4c-.29,3.37-.32,5.67.05,8.81l1.17-2.07c.18-.32,1.09-.61,1.53-.61l14.84.07c2.28.01,3.55,1.37,5.58,3.01ZM72.8,296.44c-.1,3.42,0,5.69.58,8.4,1.05-1.46,1.35-2.8,2.51-3.21l15.81-5.51c.32-.11.74-.49.7-.77-.03-.2-.57-.89-.86-1l-15.92-6.01c-1.42-.54-1.61-1.43-2.67-2.93-.32,2.39-.33,4.24-.03,6.81l1.35-2.22,5,1.38.06,5.28-5.01,1.7c-.65-1.11-.76-1.44-1.53-1.94ZM254.04,306.5c-1.4.15-3.73-.79-4.86-1.45l.22-5.13,5.12-1.45,1.39,2.08.21-8.33c-1.35,1.29-1.41,2.46-2.8,2.86l-16.79,4.86c-.43.12.05,1.43.5,1.62l14.97,6.57c1.49.65,1.69,1.55,2.64,3.42.55-2.34.81-4.2.96-6.72-.57-.22-1.09,1.61-1.55,1.66ZM94.2,313.5l-.61,3.36-8.83,3.13c-1.57.56-3.81.54-5.31.06-2.06-.66-2.87-2.58-2.84-4.49.02-1.57,1.34-3.43,3.15-4.14,3.58-1.4,7.07-2.45,10.9-3.52,1.02-.29,1.57,1.08,2.74,2.05-.24-2.99-.62-5.75-1.2-8.73-.86,1.81-1.09,2.68-2.55,3.14l-10.31,3.25c-4.18,1.32-5.55,5.11-4.56,9.07s4.18,6.44,8.5,5.33c3.09-.8,6.24-1.87,9.43-2.88,1.57-.5,2.22.43,3.81,1.65l-2.31-7.29ZM249.41,330.09c1.84-4.99,5.5-11.73,2.11-15.2-1.2-1.23-3.19-2.11-5.1-1.52-1.58.49-2.68,1.92-3.58,3.25.26-2.58-.77-4.82-3.23-5.46-2.01-.52-4.41.61-5.22,3.02l-3.15,9.32c1.57-1.02,2.17-1.88,3.57-1.38l12.43,4.51c2.99,1.09.86,2.76,2.19,3.45ZM85.43,340.56c-.31-1.19.11-2.18,1.18-2.67l13.36-6.16c.78,1.19,1.76,2.49,1.76,3.65,0,1.04-1.57,1.47-1.98,2.87,1.72-.45,3.37-1.38,4.92-2.27-2.22-2.79-7.02-10.78-6.87-13.96l-5.43,2.45c1.51.43,2.2.31,3.63.37,1.05.7,1.9,2.25,2.24,3.69l-13.53,6.25c-1.53.71-2.1-.5-3.84-1.4.2,1.18,3.74,7.9,4.24,8.26.12.08.61.04.57-.1l-.26-1ZM228.6,346.76l2.76-3.31c1.35.3,1.78.47,2.95.38l-4.69-3.9c-.16-.14-1.02.31-.88.45l.59.59c.44.43.62,1.84.2,2.36l-2.04,2.55-5.45-4.26,3.08-4.24,3.89.66c-1.29-1.39-2.5-2.17-3.92-3.02l-8.11,10.47c2.05-.78,2.94-.97,4.38.17l10.73,8.43c.29.75-.1,2.16-.16,3.45,3.59-3.42,6.24-7.14,9.03-11.27l-2.96-3.51c-.14-.16-1,.28-.88.45l.42.63c1.25,1.88,1.06,3.78-.55,5.57-.57.63-1.81,2.34-2.85,1.55l-5.53-4.19ZM109.67,358.39c2.78-2.23,4.58-5.4,4.1-8.99-.59-4.41-4.39-8.02-8.91-8.24-5.28-.25-10.09,3.54-11.13,8.68-.85,4.2,1.64,7.94,4.9,9.8,3.58,2.05,7.72,1.43,11.05-1.25ZM111.33,341.05c.17.73,4.99,7.01,5.21,4.13.12-1.57-3.44-3.38-5.21-4.13ZM213.06,369.89c.89,1.21.27,2.16-.38,4,3.09-1.98,6.12-4.07,8.64-6.57,3.71-3.69,4.12-8.72,1.28-12.88-2.79-4.09-8.04-5.56-12.35-2.57l-8.87,6.17c1.4.1,2.77-.27,3.33.5l8.36,11.35ZM122.34,376.32l8.03-12.68c.96-1.52,2.12-1.55,4.3-1.84l-6.13-3.35c-.21.12-.62.36-.52.46l.59.58c.82.8,1.25,1.86.64,2.93-1.77,3.09-3.35,5.72-5.47,8.81l-2.33-17.38-3.89-2.92c.13,1.75,1.39,3.09.7,4.3-1.05,1.84-7.13,12.31-8.39,12.24l-2.49-.15c1.8,1.91,3.67,3.25,6.07,4.52l-1.27-2.59c-.58-1.19,4.97-9.44,6.28-11.37l1.86,17.52c.03.33.41,1.02.61,1.28s1.22-.02,1.41-.33ZM149.8,377.19c1.17-3.72.55-7.53-2.14-10.12-2.37-2.28-6.21-3.45-9.74-2.19-5.63,2.01-8.53,8.66-6.22,14.19,1.62,3.88,5.71,5.72,9.6,5.45s7.2-3.23,8.49-7.33ZM190.13,377.12l2.46,3.29c.23.31.35,1.08.15,1.36l-.97,1.38c2.71-.58,5.06-1.42,7.71-2.76-2.07-.43-3.11-.62-4.08-1.97l-9.21-12.86c-.21-.29-.97-.76-1.24-.58-.21.13-.55.68-.57,1.02l-1.3,17.76-2.13,2.03c2.7-.18,4.25-.54,6.75-1.47l-2.57-.63v-5.17s5.02-1.4,5.02-1.4ZM170.99,385.05c.04.82-1.43,1.28-2.27,2.26,3.11-.04,5.45-.19,8.53-.89l-2.61-1.09-.9-15.51c-.05-.89,1.16-1.54,2.21-2.52-1.69-.02-3.7.21-5.6.52l-5.23,13.74-6.41-13.79-5.76-.56c1.21,1.38,2.65,1.84,2.67,3.27.07,5.09-.08,10.06-.41,14.98l-2.41,1.11c2.57.67,4.79.86,7.2.6-1.39-.97-2.89-1.05-2.93-2.37-.13-4.09-.15-7.63.03-11.9l7.04,15.11,6.24-16.26.63,13.3Z"/>
      <path class="cls-1" d="M229.94,296.63c-.61,36.52-30.61,65.12-66.3,64.68-35.83-.45-64.97-29.71-64.79-66.15V92.51s131.07,0,131.07,0v204.11ZM208.77,99.06c-.17,25.04-20.51,44.48-44.72,44.29-24.07-.2-43.88-19.84-43.95-44.34l-14.76-.05.1,197.42c.02,32.65,27.06,58.48,59,58.48,31.94,0,58.98-25.83,59-58.48l.11-197.39-14.78.06ZM134.52,118.65c8.8-3.25,12.1,2.65,10.51,2.87-1.76.24-5.99-1.01-7.26,2.1,7.94-1.52,9.89,2.95,8.38,3.12-1.81.21-4.03-.62-4.97.97,2.09.48,3.45.82,4.79,1.95,3.55,2.97,7.53,5.25,12.02,6.37,2.94.73,6.21,1.48,9.28-.18-9.49-1.03-16.42-7.9-16.45-17.06s6.85-16.23,16.51-17.21c-5.33-3.28-15.58,2.09-20.44,1.61-3.42-.34-6.76-1.28-10.14-.34-3.1.86-6.42,2.56-8.26,5.51,3.29-.94,5.74-2.78,8.95-2.91,2.7-.11,11.18,1.31,10.24,4.09-.7,2.08-4.7-.85-9.07-.12-2.76.46-6.07,1.76-7.15,4.76,8.68-5.59,15.77.44,13.92,1.46-1.33.73-8.74-1.92-10.86,3.02ZM171.83,102.44c-9.4,1.38-15.3,10.1-13.8,19.05s9.79,14.83,18.75,13.46,15.14-9.72,13.71-18.79-9.36-15.09-18.66-13.72Z"/>
      <path class="cls-1" d="M170.99,385.05l-.63-13.3-6.24,16.26-7.04-15.11c-.18,4.27-.16,7.8-.03,11.9.04,1.31,1.55,1.4,2.93,2.37-2.41.26-4.63.07-7.2-.6l2.41-1.11c.33-4.92.49-9.9.41-14.98-.02-1.43-1.45-1.89-2.67-3.27l5.76.56,6.41,13.79,5.23-13.74c1.9-.31,3.91-.54,5.6-.52-1.05.98-2.26,1.63-2.21,2.52l.9,15.51,2.61,1.09c-3.08.71-5.42.85-8.53.89.84-.98,2.31-1.44,2.27-2.26Z"/>
      <path class="cls-1" d="M74.39,185.02l-1.69,1.54c-1.43-9.21,10.32-7.5,8.26-11.39-2.3-.21-4.62-.14-6.64.03l-1.46,2.29c-.2-3.34-.2-5.34-.02-8.65l1.36,2.1c.28.44,1.68.59,2.25.59l12.92-.02c1.36,0,1.55-1.18,2.72-2.56-.2,5.13,1.96,14.4-4.2,14.95-2.38.21-4.52-.93-5.56-3.67-2.81,1.34-5.64,2.69-7.94,4.79ZM90.78,175.04h-8.48c-.12,1.54.07,2.93,1.04,3.86,1.58,1.52,5.25,1.71,6.81-.01.85-.94,1.1-2.54.63-3.84Z"/>
      <path class="cls-1" d="M213.06,369.89l-8.36-11.35c-.56-.76-1.93-.4-3.33-.5l8.87-6.17c4.3-3,9.56-1.52,12.35,2.57,2.84,4.16,2.44,9.19-1.28,12.88-2.51,2.5-5.55,4.59-8.64,6.57.66-1.83,1.28-2.79.38-4ZM217.89,368.51c3.01-1.3,4.22-4.15,3.58-7.06-.75-3.37-3.06-6.56-6.19-8.04-2.87-1.36-5.98,0-8.07,2.45l8.44,11.54c.37.5,1.63,1.37,2.24,1.11Z"/>
      <path class="cls-1" d="M92.1,215.14c.17,3.8.26,7.48-.06,11.14-.42,4.81-4.06,8.03-8.72,8.1-5.51.09-9.76-3.65-10.39-9.3-.37-3.32-.26-6.72-.02-10.23,1.11,1.55,1.27,2.64,2.77,2.64l13.3.02c1.56,0,1.89-.76,3.12-2.38ZM88.35,228.84c2.7-1.68,3.1-5.07,2.36-7.72h-15.06c-.53,0-1.6.97-1.68,1.54-.37,2.71.96,5.49,3.65,6.62,3.27,1.39,7.47,1.58,10.73-.44Z"/>
      <path class="cls-1" d="M92.12,255.59c-.09,5.47,1.35,13.1-2.77,16.95-2.86,2.68-6.77,2.95-10.48,1.52-7.19-2.78-6.42-12.39-5.96-18.7,1.12,1.61,1.22,2.62,2.76,2.62l13.3.02c1.6,0,1.84-.7,3.15-2.41ZM88.38,269.33c2.62-1.64,2.97-4.82,2.42-7.63l-14.75-.05c-.58,0-1.86.6-1.99,1.22-.62,2.84.9,5.93,3.82,7.04,3.28,1.24,7.33,1.41,10.51-.59Z"/>
      <path class="cls-1" d="M249.41,330.09c-1.33-.69.8-2.37-2.19-3.45l-12.43-4.51c-1.39-.51-1.99.35-3.57,1.38l3.15-9.32c.81-2.41,3.21-3.54,5.22-3.02,2.47.64,3.49,2.87,3.23,5.46.9-1.34,2-2.76,3.58-3.25,1.91-.59,3.91.29,5.1,1.52,3.39,3.47-.27,10.21-2.11,15.2ZM241.05,320.74c.61-1.41.9-2.68.45-3.88-.61-1.61-4.09-3.06-6-1.38-.64.56-1.09,1.9-.98,2.85l6.54,2.41ZM250.17,323.26c1-.08,1.37-2.49,1.05-3.3-1.06-2.75-4.6-3.69-6.77-2.34-1.03.63-1.9,2.08-2.17,3.55,2.75.75,4.89,2.34,7.89,2.09Z"/>
      <path class="cls-1" d="M256.02,145.74c-.26,3.42-.3-2.16-2.44-2.17l-13.68-.03c-.52,0-1.6.21-1.84.58l-1.32,1.97c.06-4.85-1.93-14.13,3.97-14.89,2.4-.31,4.69.83,5.81,3.66,2.86-1.4,5.73-2.74,8.05-4.85l1.67-1.51c1.22,9.24-9.58,7.17-8.65,11.49l5.52.09c.44,0,1.35-.22,1.56-.54l1.23-1.98c.37,2.73.35,5.14.12,8.18ZM246.54,140.05c.07-1.63-.08-2.84-.88-3.69-1.66-1.75-5.39-1.94-7.04-.11-.78.87-.96,2.22-.7,3.78l8.62.02Z"/>
      <path class="cls-1" d="M109.67,358.39c-3.33,2.68-7.47,3.3-11.05,1.25-3.26-1.87-5.75-5.6-4.9-9.8,1.04-5.14,5.85-8.93,11.13-8.68,4.52.21,8.32,3.83,8.91,8.24.48,3.59-1.31,6.76-4.1,8.99ZM110.97,349.98c.79-1.81.35-3.85-.8-5.17-3.6-4.12-11.65,1.57-13.77,7.51-.67,1.86-.09,3.85,1.15,5.1,3.82,3.85,11.27-2.52,13.43-7.45Z"/>
      <path class="cls-1" d="M253.94,163.74c-4.79,4.84-13.19,3.63-16.49-2.08-1.85-3.2-1.67-7.02.28-10,1.75-2.67,5.07-4.19,8.62-4.12,3.93.08,7.53,2.05,9.05,5.27,1.69,3.59,1.57,7.88-1.45,10.93ZM252.77,160.91c1.91-1.06,2.58-2.97,2.4-4.81-.16-1.6-1.49-3.14-3.38-3.7-4.87-1.44-14.67-1.07-14.35,5.3.26,5.23,9.92,6.23,15.33,3.22Z"/>
      <path class="cls-1" d="M149.8,377.19c-1.29,4.1-4.49,7.05-8.49,7.33s-7.98-1.57-9.6-5.45c-2.31-5.53.59-12.18,6.22-14.19,3.53-1.26,7.37-.09,9.74,2.19,2.69,2.59,3.31,6.4,2.14,10.12ZM146.26,369.82c-.28-2.02-1.72-3.51-3.44-3.99s-3.68.18-4.91,1.8c-3.69,4.89-4.77,14.5,1.08,15.61,5.5,1.04,7.96-8.45,7.26-13.42Z"/>
      <path class="cls-1" d="M256,126.92c-1.32-1.75-1.48-2.73-3.19-2.73l-13.31-.02c-1.46,0-1.57,1.73-2.65,3.11-.3-1.56-.32-3.3-.23-5.13l13.47-11.03c-3.9-.34-7.33-.28-11.34.11-.9.09-1.04,1.83-1.9,2.93-.43-2.6-.44-4.85.01-7.43l1.19,1.98c.24.39,1.31.69,1.89.69l15.83.15c.73,0,.59,1.59.19,1.9l-14.51,11.18c4.42.15,8.2.1,12.51-.24.9-.07.99-1.86,1.95-2.91.35,2.5.34,4.69.09,7.45Z"/>
      <path class="cls-1" d="M122.34,376.32c-.19.31-1.21.59-1.41.33s-.58-.95-.61-1.28l-1.86-17.52c-1.31,1.93-6.86,10.18-6.28,11.37l1.27,2.59c-2.4-1.27-4.27-2.61-6.07-4.52l2.49.15c1.26.07,7.34-10.4,8.39-12.24.69-1.2-.56-2.54-.7-4.3l3.89,2.92,2.33,17.38c2.12-3.09,3.7-5.72,5.47-8.81.61-1.07.18-2.13-.64-2.93l-.59-.58c-.1-.1.31-.33.52-.46l6.13,3.35c-2.18.29-3.34.32-4.3,1.84l-8.03,12.68Z"/>
      <path class="cls-1" d="M74.31,114.35c-.69-.01-1.24-.11-1.53-.21s-.02-1.38.31-1.64l13.88-10.94c-1.49-.42-12.26-.55-12.78.46l-1.21,2.39c-.41-2.53-.39-4.75-.03-7.19.62.72,1.21,2.24,1.77,2.29,4.39.39,9.34.39,13.77.36,2.15-.02,2.33-1.3,3.39-3.25.46,1.71.5,3.83.09,5.37l-13.29,10.94c2.74-.04,11.45.7,12.23-.93l1.05-2.2c.4,2.78.36,4.84.06,7.61-1.1-1.5-1.18-2.8-2.63-2.82l-15.07-.23Z"/>
      <path class="cls-1" d="M94.2,313.5l2.31,7.29c-1.6-1.23-2.25-2.15-3.81-1.65-3.18,1.02-6.34,2.09-9.43,2.88-4.32,1.11-7.51-1.36-8.5-5.33s.37-7.75,4.56-9.07l10.31-3.25c1.47-.46,1.69-1.33,2.55-3.14.58,2.98.96,5.74,1.2,8.73-1.16-.97-1.71-2.34-2.74-2.05-3.83,1.07-7.33,2.12-10.9,3.52-1.81.71-3.12,2.57-3.15,4.14-.03,1.9.79,3.83,2.84,4.49,1.5.48,3.75.49,5.31-.06l8.83-3.13.61-3.36Z"/>
      <path class="cls-1" d="M228.6,346.76l5.53,4.19c1.04.79,2.28-.92,2.85-1.55,1.61-1.79,1.8-3.69.55-5.57l-.42-.63c-.12-.18.74-.62.88-.45l2.96,3.51c-2.79,4.13-5.44,7.85-9.03,11.27.06-1.29.45-2.71.16-3.45l-10.73-8.43c-1.44-1.14-2.34-.95-4.38-.17l8.11-10.47c1.41.86,2.62,1.63,3.92,3.02l-3.89-.66-3.08,4.24,5.45,4.26,2.04-2.55c.42-.52.24-1.93-.2-2.36l-.59-.59c-.15-.15.71-.59.88-.45l4.69,3.9c-1.17.09-1.6-.08-2.95-.38l-2.76,3.31Z"/>
      <path class="cls-1" d="M91.29,88.94l.27-1.27c.04-.18.71.5.71.68l-.17,6.56c-1.26-1.46-1.46-2.5-2.96-2.55l-9.69-.32c-4.9-.16-7.61-4.13-7.09-8.74.4-3.51,2.64-6.17,6.43-6.21l10.56-.12c.39,0,1.24-.14,1.41-.41l1.15-1.82c.45,2.86.38,5.55.1,8.81-1.16-1.82-1.37-2.88-3.16-2.86-5.68.06-14.58-1.24-14.74,4.84-.18,6.67,10.18,5.34,15.68,5,.54-.03,1.38-1.11,1.48-1.6Z"/>
      <path class="cls-1" d="M83.74,162.24l2.77,1.48c-2.65.37-4.25.34-7.05.12.82-.9,1.23-.94,2.56-1.41l.23-4.4-7.91.12c-.42,2.12-.7,4.26.31,6.1.6.9,2.31,1.07,3.43,2.27-1.9.2-3.34-.17-5.38-.64l.11-14.22c1.18,1.19,1.2,2.67,2.41,2.67l14.19.03c1.3,0,1.48-1.19,2.75-2.51l.09,13.25c-1.92.15-2.92.22-5.04.07,1.32-.91,1.82-1.08,3.16-1.67.64-1.56.73-3.57.48-5.52h-7.22s.1,4.24.1,4.24Z"/>
      <path class="cls-1" d="M72.8,296.44c.77.49.88.82,1.53,1.94l5.01-1.7-.06-5.28-5-1.38-1.35,2.22c-.3-2.58-.3-4.42.03-6.81,1.06,1.5,1.25,2.39,2.67,2.93l15.92,6.01c.3.11.83.8.86,1,.04.27-.39.66-.7.77l-15.81,5.51c-1.16.4-1.47,1.75-2.51,3.21-.59-2.71-.68-4.98-.58-8.4ZM87.01,294l-6.23-2.14v4.35s6.23-2.21,6.23-2.21Z"/>
      <path class="cls-1" d="M190.13,377.12l-5.01,1.4v5.17s2.56.63,2.56.63c-2.5.93-4.05,1.29-6.75,1.47l2.13-2.03,1.3-17.76c.02-.34.37-.89.57-1.02.28-.18,1.04.3,1.24.58l9.21,12.86c.97,1.35,2.01,1.55,4.08,1.97-2.65,1.35-4.99,2.19-7.71,2.76l.97-1.38c.2-.28.08-1.05-.15-1.36l-2.46-3.29ZM189.21,375.72l-3.86-5.2-.28,6.56,4.14-1.36Z"/>
      <path class="cls-1" d="M254.04,306.5c.46-.05.98-1.88,1.55-1.66-.15,2.52-.41,4.38-.96,6.72-.96-1.87-1.16-2.77-2.64-3.42l-14.97-6.57c-.45-.2-.93-1.5-.5-1.62l16.79-4.86c1.39-.4,1.44-1.57,2.8-2.86l-.21,8.33-1.39-2.08-5.12,1.45-.22,5.13c1.13.66,3.46,1.59,4.86,1.45ZM247.71,304.66l.24-4.35-6.24,1.82,6.01,2.53Z"/>
      <path class="cls-1" d="M254.52,227.51l1.38-2.24c.4,2.45.37,4.32.02,6.71-1.08-1.37-1.5-2.42-2.56-2.81l-15.58-5.84c-.64-.24-1.26-1.01-1.19-1.7l16.78-5.88c1.19-.42,1.5-1.58,2.7-2.86.14,3.11.14,5.36-.07,8.26l-1.61-2.03-4.68,1.68-.04,5.27,4.85,1.43ZM248.14,225.67l-.04-4.33-6.08,2.18,6.12,2.15Z"/>
      <path class="cls-1" d="M255.94,86.81c.35,2.67.34,4.46-.03,6.89-1.08-1.49-1.22-2.41-2.67-2.96l-16.08-6.08c-.3-.11-.79-1.02-.65-1.15s.5-.44.71-.52l15.74-5.47c1.43-.5,1.8-1.46,3.11-2.94.15,3.11.16,5.42-.07,8.21l-1.6-2.04-4.67,1.63-.05,5.33,4.91,1.36,1.36-2.27ZM248.11,87.23v-4.24s-6.3,2.13-6.3,2.13l6.3,2.11Z"/>
      <path class="cls-1" d="M85.43,340.56l.26,1c.04.14-.46.18-.57.1-.51-.36-4.04-7.08-4.24-8.26,1.74.91,2.31,2.11,3.84,1.4l13.53-6.25c-.33-1.44-1.19-2.99-2.24-3.69-1.43-.07-2.12.05-3.63-.37l5.43-2.45c-.15,3.17,4.65,11.17,6.87,13.96-1.55.88-3.2,1.82-4.92,2.27.4-1.4,1.98-1.83,1.98-2.87,0-1.17-.98-2.46-1.76-3.65l-13.36,6.16c-1.06.49-1.49,1.48-1.18,2.67Z"/>
      <path class="cls-1" d="M255.99,274.6c.23,2.77.22,4.34.03,6.89-1.36-1.96-1.83-2.63-3.76-3.35l-14.86-5.57c-.38-.14-.98-.98-.89-1.23s.48-.48.9-.62l15.48-5.37c1.41-.49,1.93-1.43,3.1-3.01.25,2.92.26,5.19.02,8.28l-1.46-2.08-4.87,1.66.05,5.31,4.83,1.36,1.44-2.27ZM248.13,275.09v-4.39s-6.12,2.17-6.12,2.17l6.12,2.22Z"/>
      <path class="cls-1" d="M72.86,245.16l1.45,2.08,4.9-1.7v-5.21s-4.93-1.48-4.93-1.48l-1.37,2.28c-.26-2.72-.25-4.45.03-6.79,1.04,1.42,1.5,2.4,2.74,2.86l16,6.02c.37.14.8,1.22.55,1.53l-16.77,5.87c-1.14.4-1.54,1.5-2.55,2.72-.24-2.78-.25-4.8-.05-8.19ZM87.01,242.84l-6.26-2.2v4.4s6.26-2.2,6.26-2.2Z"/>
      <path class="cls-1" d="M246.95,176.98l6.3.06c.98.01,1.83-.91,1.99-1.79l.17-.88c.03-.16.8.34.8.52l-.16,8.12c-1.31-1.28-1.47-2.36-2.79-2.36h-13.79c-1.32,0-1.52,1.04-2.8,2.43l-.04-14.18c2.08-.13,3.22-.2,4.86.03-1.19.8-2.59,1.39-3.27,1.99-.48,1.84-.41,4.11-.29,6.08h7.52s-.17-4.91-.17-4.91c-1.3-.45-1.58-.51-2.43-1.32,2.75-.21,4.22-.23,6.75.09-1.09.71-1.32.79-2.5,1.31l-.16,4.81Z"/>
      <path class="cls-1" d="M242.25,233.81c-1.38,1.52-2.89,1.48-3.74,2.73-2.18,3.2-.64,7.46,2.91,8.87,3.37,1.33,7.13,1.18,10.41-.33s4.65-5.37,2.57-8.34c-.92-1.31-2.48-1.86-4.02-3.32,1.73-.25,3.67.37,5.25,1.03,1.31,3.85,1.5,8.18-.72,11.72s-6.59,4.93-10.71,3.99c-7.09-1.62-9.21-9.47-7.12-16,1.9-.24,3.16-.38,5.18-.34Z"/>
      <path class="cls-1" d="M92.26,143.43c-.03,2.96-.04,4.68-.29,6.89-.98-1.36-1.47-2.47-2.56-2.9l-15.68-6.08c-.44-.17-.99-.56-1.08-.9s.59-1.1,1.03-1.26l15.41-5.68c1.39-.51,1.77-1.43,2.99-3.05.19,3.1.2,5.48,0,8.69-.66-.79-.79-1.17-1.36-2.35l-13.05,4.84,11.93,3.94c.25.08,1.32-.01,1.37-.26l.28-1.43s.44-.2.99-.46Z"/>
      <path class="cls-1" d="M91.79,199.07l-4.39.43c.96-1.13,1.59-1.38,2.64-2.05,1.55-.99,1.77-3.35.59-4.61-1.09-1.16-3.47-1.33-4.63.22-2.08,2.78-2.57,7.26-7.3,7.36-2.44.06-4.75-1.29-5.75-3.72s-.67-5.29.66-7.66c1.71-.38,3.08-.71,4.94-.5l-3.81,2.85c-1.4,1.05-1.57,3.43-.4,4.8.69.81,2.34,1.11,3.49.91.92-.16,2.04-1.25,2.61-2.32l1.71-3.18c1.02-1.9,3.26-2.84,5.12-2.67,2.23.19,4.15,1.52,4.92,3.77.71,2.06.5,4.1-.4,6.38Z"/>
      <path class="cls-1" d="M236.75,211.34c-.27-3.02-.26-5.42-.02-8.94l1.37,2.19c.27.43,1.59.52,2.22.52l13.88-.09c1.07-1.75.95-4.34-.18-5.86l-3.37-2.1c2.3-.23,3.64.21,5.55.76l-.15,13.69c-.86-1.01-1.04-1.52-1.37-2.13-.22-.41-1.28-.6-1.88-.6h-12.91c-.49,0-1.54.08-1.76.42l-1.4,2.15Z"/>
      <path class="cls-1" d="M259.92,290.79c-2.03-1.65-3.3-3-5.58-3.01l-14.84-.07c-.43,0-1.35.29-1.53.61l-1.17,2.07c-.37-3.15-.35-5.44-.05-8.81l1.51,2.4,13.7.09c3.98.03,7.69,2.27,7.95,6.73Z"/>
      <path class="cls-1" d="M255.98,104.31l-1.65-2.57-14.84-.06c-1.5,0-1.61,1.16-2.73,2.67-.27-3.09-.28-5.5-.04-8.92l1.37,2.12c.27.42,1.66.55,2.21.55h12.51c.54-.01,1.62-.21,1.86-.6l1.22-2.02c.4,3.04.37,5.19.08,8.83Z"/>
      <path class="cls-1" d="M92.05,211.69l-1.59-2.46-14.81-.07c-1.47,0-1.65,1.02-2.75,2.55-.24-3.06-.24-5.46-.05-8.79l1.38,2.08c.29.43,1.65.5,2.23.5l12.9-.02c.42,0,1.28-.27,1.46-.59l1.18-2.08c.31,3.21.3,5.25.04,8.88Z"/>
      <path class="cls-1" d="M255.96,195l-1.56-2.42-15.16-.05c-1.24,0-1.45,1.19-2.44,2.54-.32-2.96-.31-5.3-.08-8.68.74.84.91,1.24,1.46,2.37l14.63.1c.46,0,1.55-.15,1.78-.47l1.38-2.04c.3,3.04.32,4.93,0,8.65Z"/>
      <path class="cls-1" d="M92.27,127.62c0,.2-.72.86-.76.69l-.22-.97c-.11-.49-.97-1.43-1.57-1.43l-15.35.06-1.5,2.58c-.24-3.49-.24-5.53.02-8.87l1.47,2.49,15.01.08c1.51,0,1.47-1.22,2.73-2.52l.16,7.89Z"/>
      <path class="cls-1" d="M111.33,341.05c1.76.75,5.32,2.56,5.21,4.13-.22,2.88-5.04-3.4-5.21-4.13Z"/>
      <path d="M208.77,99.06l14.78-.06-.11,197.39c-.02,32.65-27.06,58.48-59,58.48-31.94,0-58.98-25.83-59-58.48l-.1-197.42,14.76.05c.07,24.5,19.88,44.14,43.95,44.34,24.21.2,44.55-19.25,44.72-44.29ZM118.46,111.13l-1.52-9.02h-8.4s.05,12.88.05,12.88l9.86-3.86ZM220.29,114.9l.06-12.81-8.39.02-1.48,9.06,9.82,3.72ZM118.01,125.47l2.48,2.24,3.83-3.19-4.22-8.29-11.53,2.98v17.78s3.64-2.77,3.64-2.77c-.48-3.18-3.27-12.89,1.04-13.42,3.43-.42,3.56,3.57,4.76,4.66ZM216.71,134.21l3.61,2.74v-17.75s-11.53-2.99-11.53-2.99l-4.21,8.3,3.88,3.14,2.4-2.18c1.12-1.02,1.52-5.54,5.13-4.58,3.81,1.01,1.14,10.05.73,13.31ZM171.65,309.09c6.56-22.59,1.14-29.16,3.37-39.9,2.69-12.94,6.08-30.18,2.14-42.88-.84.88-1.39,1.47-2.2,2.11.56-2.74,1.7-4.92,1.69-7.57l-.02-6-2.44,1.2c2.56-4.35,3.53-8.72,3.34-13.47-2.58.09-4.9.14-7.29-1.06,1.25-.1,2.39-.06,3.57.02,6.51.49,6.71-9.52,8.75-13.84,3.4-5.06,7.74-9.36,10.49-14.98.86-1.76,1.42-4.01,2.57-5.47l4.27-5.42c3.46-4.39,17.19-29.07,15.07-34.85l-1.48,4.76c-1.49,1.58-2.67,2.89-3.91,4.57-.51-5.33,3.88-1.69,3.88-9.68l-1.85,3.91c-1.16-.08-1.39.5-1.88.97-2.06,1.99-1.57,3.55-1.55,6.02.03,3.03-2.36,6.32-4.58,8.35-5.49,5.01-9.46,10.47-12.88,17-.77,1.47-9.92,10.06-11.75,13.38l-4.75,1.56c-2.5.82-4.1,2.39-5.93,4.36.76-2.29,1.64-3.9,1-5.99-2.61,2.36-6.69,2.78-9.6-.03-.78,1.88.15,3.67.94,6.01-1.83-1.95-3.44-3.54-5.94-4.36l-4.77-1.55c-3.84-5.52-7.46-8.32-11.65-13.18-3.32-6.42-7.16-11.85-12.57-16.81-2.36-2.16-4.99-5.5-4.98-8.76,0-1.64.88-5.7-3.49-7.17l-1.79-3.73c-.04,7.98,4.38,4.34,3.89,9.68-1.26-1.67-2.44-2.99-3.92-4.58l-1.49-4.79c-.59,3.76.74,6.93,2.07,10.24,3.52,8.73,7.73,16.83,12.99,24.66,1.24,1.85,3.28,3.49,4.21,5.34l3.76,7.55,9.3,13c1.79,2.5,2.07,14.09,8.43,13.81,1.31-.06,2.57-.09,3.96-.06-2.42,1.3-4.8,1.14-7.33,1.12-.07,4.99.86,9.2,3.4,13.43-.87-.35-1.36-.63-2.41-1.21l-.13,3.57c-.13,3.6.72,6.46,1.8,10.01-.88-.62-1.39-1.19-2.25-2.1-3.94,12.77-.54,29.88,2.14,42.87,2.24,10.87-3.23,17.29,3.45,40.22,3.98,13.68-.97,19.32.13,24.74.54,2.65,3.03,4.48,5.7,5.07l-.19-16.58.83-18.88-.74-11.23.61-15.99c.14-3.72-.26-6.94-.06-10.64.44-7.94-.14-15.87-.3-23.89-1.38-.83-2.59-1.65-3.31-2.8l-3.24-5.2c3.41.66,4.01,6.37,7.71,6.36s4.25-5.64,7.69-6.37l-2.6,4.21c-1.01,1.63-2.04,2.85-3.94,3.77-.17,7.78-.7,15.52-.35,23.3.18,3.92-.16,7.34-.01,11.26l.6,16.01-.75,11.63.83,18.75-.2,16.32c2.61-.59,4.89-2.25,5.64-4.77,1.53-5.14-3.97-10.71.29-25.37ZM127.41,144.64l6.34-9.29-6.01-6.07-4.68,3.17c1.4,5.64-2.88,5.95,4.35,12.2ZM205.77,132.31l-4.61-3.03-5.98,6.04,6.29,9.24c7.03-5.86,3.11-6.46,4.29-12.26ZM108.7,172.07l12.46-18.17-7.33-15.38-5.29,3.61.17,29.94ZM220.24,172.05l.09-30.07-5.3-3.48-7.27,15.37,12.48,18.19ZM140.68,162.1l5.78-19.01-7.03-3.61-7.44,9.61c3.91,3.93,5.66,8.57,8.69,13.01ZM188.3,162.28c2.77-5.04,5.11-9.33,8.57-13.35l-7.38-9.48-6.99,3.56,5.8,19.27ZM164.84,150.81c5.39.19,9.73,3.99,9.75,9.53.01,3.97-.88,8.03-2.11,11.77-.38,1.17-.61,2.1-.78,3.41l5.8-1.52c1.73-2.69,3.5-4.92,5.77-7.35l-7.52-21.51c-7.55,1.85-15.03,1.67-22.6.09l-7.49,21.45c2.23,2.43,3.98,4.59,5.72,7.36l6.01,1.43c-1.6-5.12-2.77-9.16-3.12-13.94-.45-6.22,4.17-10.95,10.58-10.72ZM166.55,176.07c1.49-1.82,3.04-3.35,3.68-5.39,1-3.21,1.49-6.62,1.58-9.93.11-4.25-3.14-7.01-7.15-7.1s-7.69,2.67-7.58,7.1c.15,5.75.96,11.52,5.46,15.26.86.71,2.81.35,4.01.06ZM180.74,253.98l-2.78,13.01c-2.97,13.88,2.75,17.41-1.18,32.54l-3.8,14.66c-.71,2.72-.8,5.53-.2,8.25l1.86,8.54c.78,3.57-.52,6.26-3.09,8.5-4.29,3.72-9.93,3.71-14.21-.01-2.57-2.23-3.86-4.92-3.08-8.48l1.87-8.54c.6-2.74.5-5.54-.21-8.27l-3.8-14.65c-3.97-15.31,1.9-18.23-1.3-33.13l-2.63-12.25c-2.22-10.34-1.12-20.14.86-30.37.7-3.61.12-7.96.28-11.78.15-3.59-1.63-7.09-1.22-10.65-2.3-4.09-3.41-8.3-4.39-12.79l-4.23-4.19-13.74,39.08c-.2.55-1.5.65-1.92.49s-1.26-1-1.12-1.46l13.04-43.63c-1.96-3.4-3.5-6.68-4.97-10.25-2.5-2.91-4.68-5.93-6.78-9.14l-15.41,19.86.02,117.23c0,17.5,8.65,33.88,22.93,44.4l.07-38.98c1.02-.63,1.85-1.03,3.19-1.47l.04,36.38c8.17-3.2,16.11-1.22,21.87,4.55,2.07,2.07,4.58,3.51,7.54,3.8,3.01-.13,5.66-1.5,7.75-3.62,5.8-5.86,13.79-7.98,22.07-4.72l.04-36.3c1.1.19,2.11.67,3.2,1.4l.1,38.95c13.91-10.36,22.82-26.35,22.83-43.58l.1-118.1-15.44-19.88c-2.21,3.51-4.31,6.36-6.78,9.23-1.45,3.57-3,6.84-4.92,10.21l13.07,43.93c.27.91-2.69,1.82-2.98.99l-13.87-39.44-4.25,4.31c-.92,4.53-2.21,8.85-4.45,12.97.53,3.6-1.35,6.95-1.17,10.44.2,3.84-.39,8.14.3,11.78,1.93,10.12,3.12,19.77.88,30.21ZM188.13,338.56c-5.76-.62-10.31,1.67-14,5.5-5.41,5.62-13.96,5.64-19.37,0-3.78-3.94-8.54-6.19-14.19-5.46-2.81.45-5.56,1.34-8.15,2.97,19.21,13.54,44.84,13.53,64.05,0-2.58-1.62-5.32-2.51-8.34-3Z"/>
      <path d="M171.83,102.44c9.31-1.36,17.3,5.05,18.66,13.72s-4.84,17.43-13.71,18.79-17.27-4.65-18.75-13.46,4.4-17.67,13.8-19.05ZM175.95,122.72l2.74.41-.16-2.95,2.01-1.5-1.99-1.74.14-2.77c-.99.08-2.28.54-2.67.14l-1.77-1.8c-.59.59-1.23,1.54-1.73,1.83s-1.79-.05-2.71-.12l.19,2.78-2.01,1.74c2.19,2.11,2,.69,1.85,4.35l2.58-.24,1.81,2.14,1.73-2.24Z"/>
      <path d="M134.52,118.65c2.12-4.94,9.53-2.29,10.86-3.02,1.85-1.01-5.24-7.05-13.92-1.46,1.08-3,4.39-4.3,7.15-4.76,4.38-.73,8.38,2.2,9.07.12.94-2.78-7.54-4.19-10.24-4.09-3.22.13-5.67,1.97-8.95,2.91,1.84-2.95,5.15-4.65,8.26-5.51,3.39-.94,6.73,0,10.14.34,4.86.48,15.11-4.9,20.44-1.61-9.67.98-16.54,7.96-16.51,17.21s6.96,16.03,16.45,17.06c-3.06,1.66-6.33.91-9.28.18-4.5-1.12-8.47-3.4-12.02-6.37-1.34-1.12-2.7-1.47-4.79-1.95.94-1.59,3.16-.76,4.97-.97,1.51-.17-.44-4.64-8.38-3.12,1.27-3.11,5.5-1.86,7.26-2.1,1.59-.21-1.71-6.11-10.51-2.87Z"/>
      <path d="M90.78,175.04c.47,1.31.22,2.9-.63,3.84-1.56,1.72-5.23,1.54-6.81.01-.97-.93-1.16-2.31-1.04-3.86h8.48Z"/>
      <path d="M217.89,368.51c-.61.26-1.88-.61-2.24-1.11l-8.44-11.54c2.09-2.45,5.2-3.82,8.07-2.45,3.14,1.49,5.45,4.67,6.19,8.04.64,2.91-.57,5.76-3.58,7.06Z"/>
      <path d="M88.35,228.84c-3.26,2.02-7.46,1.83-10.73.44-2.68-1.14-4.02-3.92-3.65-6.62.08-.57,1.15-1.54,1.68-1.54h15.06c.74,2.65.34,6.04-2.36,7.72Z"/>
      <path d="M88.38,269.33c-3.18,1.99-7.22,1.83-10.51.59-2.91-1.1-4.44-4.2-3.82-7.04.14-.62,1.41-1.22,1.99-1.22l14.75.05c.55,2.81.2,5.99-2.42,7.63Z"/>
      <path d="M250.17,323.26c-2.99.25-5.14-1.34-7.89-2.09.27-1.48,1.14-2.92,2.17-3.55,2.17-1.34,5.71-.41,6.77,2.34.31.82-.05,3.22-1.05,3.3Z"/>
      <path d="M241.05,320.74l-6.54-2.41c-.11-.95.35-2.29.98-2.85,1.92-1.68,5.39-.23,6,1.38.45,1.2.17,2.47-.45,3.88Z"/>
      <path d="M246.54,140.05l-8.62-.02c-.26-1.56-.08-2.91.7-3.78,1.65-1.83,5.38-1.64,7.04.11.8.85.95,2.06.88,3.69Z"/>
      <path d="M110.97,349.98c-2.16,4.93-9.61,11.29-13.43,7.45-1.24-1.25-1.81-3.24-1.15-5.1,2.13-5.94,10.17-11.63,13.77-7.51,1.15,1.31,1.59,3.35.8,5.17Z"/>
      <path d="M252.77,160.91c-5.41,3.02-15.07,2.01-15.33-3.22-.32-6.37,9.48-6.74,14.35-5.3,1.89.56,3.22,2.1,3.38,3.7.19,1.84-.49,3.75-2.4,4.81Z"/>
      <path d="M146.26,369.82c.7,4.97-1.77,14.47-7.26,13.42-5.85-1.11-4.77-10.72-1.08-15.61,1.22-1.62,3.18-2.29,4.91-1.8s3.15,1.97,3.44,3.99Z"/>
      <polygon points="87.01 294 80.77 296.21 80.78 291.87 87.01 294"/>
      <polygon points="189.21 375.72 185.06 377.08 185.34 370.52 189.21 375.72"/>
      <polygon points="247.71 304.66 241.7 302.14 247.94 300.31 247.71 304.66"/>
      <polygon points="248.14 225.67 242.02 223.52 248.1 221.34 248.14 225.67"/>
      <polygon points="248.11 87.23 241.81 85.12 248.12 82.99 248.11 87.23"/>
      <polygon points="248.13 275.09 242.01 272.87 248.13 270.69 248.13 275.09"/>
      <polygon points="87.01 242.84 80.75 245.04 80.75 240.65 87.01 242.84"/>
      <path class="cls-1" d="M180.74,253.98c2.23-10.44,1.04-20.09-.88-30.21-.69-3.64-.1-7.94-.3-11.78-.18-3.49,1.7-6.84,1.17-10.44,2.24-4.13,3.53-8.44,4.45-12.97l4.25-4.31,13.87,39.44c.29.83,3.25-.07,2.98-.99l-13.07-43.93c1.92-3.37,3.47-6.65,4.92-10.21,2.47-2.87,4.57-5.72,6.78-9.23l15.44,19.88-.1,118.1c-.01,17.22-8.93,33.22-22.83,43.58l-.1-38.95c-1.09-.73-2.1-1.21-3.2-1.4l-.04,36.3c-8.28-3.26-16.27-1.14-22.07,4.72-2.1,2.12-4.75,3.49-7.75,3.62-2.96-.29-5.47-1.73-7.54-3.8-5.76-5.77-13.7-7.75-21.87-4.55l-.04-36.38c-1.35.44-2.18.83-3.19,1.47l-.07,38.98c-14.28-10.52-22.93-26.9-22.93-44.4l-.02-117.23,15.41-19.86c2.09,3.21,4.28,6.23,6.78,9.14,1.46,3.57,3.01,6.85,4.97,10.25l-13.04,43.63c-.14.46.7,1.3,1.12,1.46s1.73.07,1.92-.49l13.74-39.08,4.23,4.19c.98,4.5,2.09,8.7,4.39,12.79-.41,3.57,1.37,7.06,1.22,10.65-.16,3.82.42,8.18-.28,11.78-1.98,10.23-3.07,20.04-.86,30.37l2.63,12.25c3.2,14.9-2.67,17.82,1.3,33.13l3.8,14.65c.71,2.73.81,5.53.21,8.27l-1.87,8.54c-.78,3.56.52,6.25,3.08,8.48,4.28,3.73,9.93,3.73,14.21.01,2.58-2.24,3.87-4.92,3.09-8.5l-1.86-8.54c-.59-2.73-.5-5.54.2-8.25l3.8-14.66c3.92-15.12-1.79-18.66,1.18-32.54l2.78-13.01ZM152.97,313.29c-1.73-5.28-3.27-10.48-4.31-15.82-3.46-2.32-7.59-2.2-11.17-.46v36.39c4.77-1.35,9.5-1.08,14.16,1.31.22-8.35,4.5-13.38,1.32-21.42ZM177.27,334.66c4.87-2.38,9.43-2.57,14.12-1.26v-36.38c-3.59-1.75-7.7-1.85-11.18.45-1.06,5.33-2.51,10.59-4.35,15.82-3,8.55.98,12.55,1.41,21.38Z"/>
      <path class="cls-1" d="M171.65,309.09c-4.26,14.66,1.24,20.22-.29,25.37-.75,2.52-3.03,4.19-5.64,4.77l.2-16.32-.83-18.75.75-11.63-.6-16.01c-.15-3.92.19-7.34.01-11.26-.35-7.78.18-15.52.35-23.3,1.9-.92,2.94-2.14,3.94-3.77l2.6-4.21c-3.43.73-4.01,6.37-7.69,6.37s-4.3-5.7-7.71-6.36l3.24,5.2c.72,1.16,1.93,1.98,3.31,2.8.17,8.02.74,15.96.3,23.89-.2,3.7.2,6.92.06,10.64l-.61,15.99.74,11.23-.83,18.88.19,16.58c-2.67-.59-5.16-2.42-5.7-5.07-1.1-5.42,3.85-11.06-.13-24.74-6.68-22.93-1.21-29.36-3.45-40.22-2.68-13-6.08-30.11-2.14-42.87.86.91,1.37,1.48,2.25,2.1-1.08-3.56-1.93-6.41-1.8-10.01l.13-3.57c1.05.58,1.54.86,2.41,1.21-2.53-4.23-3.47-8.44-3.4-13.43,2.52.02,4.91.18,7.33-1.12-1.39-.04-2.65,0-3.96.06-6.36.27-6.64-11.31-8.43-13.81l-9.3-13-3.76-7.55c-.92-1.85-2.96-3.48-4.21-5.34-5.26-7.83-9.46-15.93-12.99-24.66-1.34-3.31-2.67-6.48-2.07-10.24l1.49,4.79c1.48,1.59,2.67,2.9,3.92,4.58.49-5.34-3.92-1.7-3.89-9.68l1.79,3.73c4.37,1.47,3.49,5.53,3.49,7.17,0,3.26,2.62,6.6,4.98,8.76,5.41,4.96,9.25,10.39,12.57,16.81,4.19,4.86,7.81,7.66,11.65,13.18l4.77,1.55c2.5.81,4.11,2.4,5.94,4.36-.79-2.34-1.72-4.12-.94-6.01,2.91,2.81,6.99,2.39,9.6.03.64,2.09-.24,3.7-1,5.99,1.83-1.97,3.43-3.54,5.93-4.36l4.75-1.56c1.83-3.32,10.98-11.91,11.75-13.38,3.41-6.53,7.38-11.99,12.88-17,2.22-2.02,4.61-5.31,4.58-8.35-.03-2.47-.52-4.03,1.55-6.02.49-.47.72-1.05,1.88-.97l1.85-3.91c0,8-4.38,4.35-3.88,9.68,1.24-1.69,2.42-2.99,3.91-4.57l1.48-4.76c2.12,5.78-11.61,30.46-15.07,34.85l-4.27,5.42c-1.15,1.47-1.71,3.72-2.57,5.47-2.74,5.62-7.08,9.92-10.49,14.98-2.04,4.32-2.24,14.33-8.75,13.84-1.18-.09-2.32-.13-3.57-.02,2.38,1.21,4.71,1.15,7.29,1.06.19,4.74-.78,9.12-3.34,13.47l2.44-1.2.02,6c.01,2.65-1.14,4.83-1.69,7.57.81-.64,1.36-1.23,2.2-2.11,3.94,12.69.55,29.94-2.14,42.88-2.23,10.74,3.19,17.31-3.37,39.9ZM155.94,183.76l5.79,2.75c2.55-1.32-5.11-3.79-5.79-2.75ZM167.55,186.3l5.42-2.53c-6.04-.7-7.03,3.28-6.05,2.83l.63-.3ZM157.62,214.69c2.66-.3,3.15-5.07,5.16-7.65-3.02-.08-2.71,4.21-5.16,7.65ZM171.11,214.66c-2.13-3.39-2.18-7.86-5.03-7.61,1.98,2.45,2.52,7.24,5.03,7.61Z"/>
      <path class="cls-1" d="M164.84,150.81c-6.41-.23-11.04,4.5-10.58,10.72.35,4.79,1.52,8.82,3.12,13.94l-6.01-1.43c-1.74-2.76-3.49-4.93-5.72-7.36l7.49-21.45c7.57,1.58,15.06,1.75,22.6-.09l7.52,21.51c-2.26,2.44-4.04,4.66-5.77,7.35l-5.8,1.52c.17-1.31.39-2.24.78-3.41,1.23-3.74,2.12-7.81,2.11-11.77-.02-5.54-4.36-9.34-9.75-9.53Z"/>
      <path class="cls-1" d="M188.13,338.56c3.02.48,5.76,1.38,8.34,3-19.21,13.54-44.84,13.54-64.05,0,2.59-1.63,5.34-2.51,8.15-2.97,5.65-.73,10.41,1.52,14.19,5.46,5.41,5.64,13.96,5.62,19.37,0,3.69-3.83,8.24-6.12,14-5.5Z"/>
      <polygon class="cls-1" points="108.7 172.07 108.53 142.13 113.82 138.52 121.16 153.91 108.7 172.07"/>
      <polygon class="cls-1" points="220.24 172.05 207.75 153.87 215.03 138.5 220.33 141.98 220.24 172.05"/>
      <path class="cls-1" d="M166.55,176.07c-1.2.29-3.15.65-4.01-.06-4.51-3.73-5.31-9.5-5.46-15.26-.11-4.42,3.39-7.19,7.58-7.1s7.26,2.85,7.15,7.1c-.09,3.31-.58,6.72-1.58,9.93-.64,2.04-2.18,3.58-3.68,5.39ZM162.59,163.22c.24,0,.81-.13.77-.32-.32-1.32-5.03-1.29-5.57.26l4.81.06ZM169.76,164.11l-2.97-.73c1.4-.29,2.68-.22,4.37-.22-1.58-1.77-3.95-1.4-5.88-.52-.03,1.32.03,2.63.21,3.92l.83-1.1c.51-.68,2.98.92,3.44-1.35ZM162.77,164.54c-1.17-1.17-2.61-1.06-3.7-.27.76,1.51,2.59,1.58,3.7.27Z"/>
      <path class="cls-1" d="M140.68,162.1c-3.03-4.44-4.78-9.08-8.69-13.01l7.44-9.61,7.03,3.61-5.78,19.01Z"/>
      <path class="cls-1" d="M188.3,162.28l-5.8-19.27,6.99-3.56,7.38,9.48c-3.46,4.02-5.8,8.31-8.57,13.35Z"/>
      <path class="cls-1" d="M118.01,125.47c-1.2-1.09-1.34-5.08-4.76-4.66-4.31.53-1.52,10.24-1.04,13.42l-3.62,2.77v-17.78s11.51-2.98,11.51-2.98l4.22,8.29-3.83,3.19-2.48-2.24Z"/>
      <path class="cls-1" d="M216.71,134.21c.41-3.26,3.08-12.3-.73-13.31-3.6-.96-4.01,3.56-5.13,4.58l-2.4,2.18-3.88-3.14,4.21-8.3,11.54,2.99v17.75s-3.61-2.74-3.61-2.74Z"/>
      <polygon class="cls-1" points="118.46 111.13 108.6 114.99 108.55 102.1 116.94 102.11 118.46 111.13"/>
      <polygon class="cls-1" points="220.29 114.9 210.46 111.18 211.95 102.11 220.34 102.09 220.29 114.9"/>
      <path class="cls-1" d="M127.41,144.64c-7.24-6.25-2.95-6.56-4.35-12.2l4.68-3.17,6.01,6.07-6.34,9.29Z"/>
      <path class="cls-1" d="M205.77,132.31c-1.18,5.8,2.74,6.4-4.29,12.26l-6.29-9.24,5.98-6.04,4.61,3.03Z"/>
      <path class="cls-1" d="M175.95,122.72l-1.73,2.24-1.81-2.14-2.58.24c.15-3.66.33-2.24-1.85-4.35l2.01-1.74-.19-2.78c.91.08,2.21.42,2.71.12s1.15-1.24,1.73-1.83l1.77,1.8c.39.4,1.68-.05,2.67-.14l-.14,2.77,1.99,1.74-2.01,1.5.16,2.95-2.74-.41Z"/>
      <path d="M177.27,334.66c-.43-8.83-4.41-12.83-1.41-21.38,1.84-5.23,3.29-10.49,4.35-15.82,3.48-2.3,7.59-2.19,11.18-.45v36.38c-4.7-1.31-9.25-1.13-14.12,1.26Z"/>
      <path d="M152.97,313.29c3.19,8.05-1.1,13.07-1.32,21.42-4.66-2.4-9.39-2.66-14.16-1.31v-36.39c3.58-1.74,7.7-1.86,11.17.46,1.04,5.34,2.58,10.54,4.31,15.82Z"/>
      <path d="M157.62,214.69c2.45-3.43,2.14-7.72,5.16-7.65-2.01,2.58-2.5,7.35-5.16,7.65Z"/>
      <path d="M171.11,214.66c-2.51-.37-3.05-5.16-5.03-7.61,2.84-.25,2.89,4.22,5.03,7.61Z"/>
      <path d="M155.94,183.76c.68-1.04,8.34,1.43,5.79,2.75l-5.79-2.75Z"/>
      <path d="M167.55,186.3l-.63.3c-.98.46.01-3.52,6.05-2.83l-5.42,2.53Z"/>
      <path d="M169.76,164.11c-.46,2.27-2.93.67-3.44,1.35l-.83,1.1c-.18-1.29-.24-2.59-.21-3.92,1.93-.88,4.3-1.25,5.88.52-1.68,0-2.97-.07-4.37.22l2.97.73Z"/>
      <path d="M162.59,163.22l-4.81-.06c.54-1.54,5.26-1.57,5.57-.26.05.19-.52.32-.77.32Z"/>
      <path d="M162.77,164.54c-1.11,1.31-2.94,1.24-3.7-.27,1.09-.79,2.53-.9,3.7.27Z"/>
    </g>
  </g>
</svg>