<?xml version="1.0" encoding="UTF-8"?>
<svg id="Capa_2" data-name="Capa 2" xmlns="http://www.w3.org/2000/svg" xmlns:xlink="http://www.w3.org/1999/xlink" viewBox="0 0 349.37 248.14">
  <defs>
    <style>
      .cls-1 {
        fill: none;
      }

      .cls-2 {
        fill: #011638;
      }

      .cls-3 {
        clip-path: url(#clippath);
      }
    </style>
    <clipPath id="clippath">
      <rect class="cls-1" width="349.37" height="248.14"/>
    </clipPath>
  </defs>
  <g id="Layer_1" data-name="Layer 1">
    <g class="cls-3">
      <g>
        <path class="cls-2" d="M-50.18,160.72c36.77-9.11,65.98-35.49,101.9-46.77,37.57-12.98,73.62.19,111.62-.14,7.99-.11,15.97-.88,23.77-2.66,1.11-.25,2.76-.66,3.89-.94,6.53-1.61,13.23-2.51,19.94-2.87,34.72-1.89,69.32,10.25,103.88,3.46,2.63-.5,5.19-1.18,7.81-1.79,10.48-2.4,21.3-2.98,32.01-2.58,31.89,1.17,64.11,10.64,95.77,2.61-31.56,8.37-63.94-.85-95.79-1.89-12-.42-24.08.52-35.68,3.67-19.66,4.87-40.16,2.99-60.03.68-21.13-2.44-42.67-5.35-63.73-1.04-5.2,1.12-10.43,2.6-15.74,3.27-42.42,5.91-85.84-13.52-127.45,1.02-35.89,11.09-65.31,37.3-102.15,45.96h0Z"/>
        <path class="cls-2" d="M-50.18,160.72c37.59-9.45,70.47-31.61,107.97-41.33,14.16-4.06,29.09-4.53,43.69-3.51,28.95,1.95,58.37,9.2,87.13,2.17,2.57-.65,5.2-1.28,7.81-1.76,10.52-1.98,21.28-2.22,31.94-1.64,26.49,1.43,52.86,7.86,79.42,4.53,3.94-.5,7.86-1.21,11.71-2.16,22.1-5.85,45.2-3.05,67.54-.32,21.01,2.58,42.63,4.87,63.42-.41-5.15,1.36-10.4,2.28-15.7,2.82-31.93,3.27-63.53-6.75-95.46-4.44-6.62.47-13.17,1.54-19.59,3.22-1.29.33-2.6.63-3.91.9-7.84,1.65-15.88,2.32-23.88,2.34-31.81.09-63.59-9.67-95.28-3.7-2.62.48-5.16,1.11-7.75,1.76-7.8,1.89-15.83,2.77-23.84,2.96-34.45.79-68.98-10.92-103.18-2.87-1.68.4-4.1,1.04-5.78,1.49-36.75,9.76-69.21,31.15-106.27,39.97h0Z"/>
        <path class="cls-2" d="M-34.76,177.01c10.09-2.65,19.8-6.76,28.68-12.25,8.93-5.44,16.94-12.16,25.32-18.39,8.36-6.28,17.32-11.88,27.05-15.8,29.97-12.81,61.79-6.88,92.96-3.55,16.79,1.68,33.95,2.23,50.4-2,13.98-3.67,28.64-3.97,42.96-2.89,25.92,1.88,51.9,7.81,77.88,3.89,3.81-.54,7.73-1.44,11.46-2.38,42.55-10.12,86.08,10.63,128.56-.14-42.3,11.25-85.97-9.24-128.35,1.01-3.75.97-7.73,1.88-11.52,2.45-26.05,4.05-52.16-1.9-78.1-3.73-12.97-.94-26.09-.79-38.8,2.02-1.91.41-3.8.92-5.7,1.37-16.01,3.73-32.66,3.13-48.88,1.48-30.97-3.37-62.77-9.29-92.56,3.22-14.68,5.67-27.06,15.57-39.51,24.95-12.48,9.48-26.53,17.08-41.84,20.74h0Z"/>
        <path class="cls-2" d="M-70.54,172.36c13.44-6.46,26.74-13.32,39.76-20.59,23.33-13.16,46.5-27.18,70.59-38.96,3.87-1.9,8.2-4.03,12.12-5.84,4.12-1.83,8.43-3.24,12.84-4.2,20.84-4.57,41.88,1.81,61.74,7.81,23.91,7.4,49.87,14.58,73.85,3.55,4.05-1.92,8.28-3.64,12.63-4.79,11.65-3.2,23.99-2.82,35.77-.63,29.06,5.22,57.08,20.87,87.24,16.14,5.85-.94,11.57-2.7,16.96-5.18,1.69-.81,10.26-4.74,12.21-5.61,0,0,4.09-1.83,4.09-1.83l2.05-.91,2.06-.89c20.48-9.08,41.72-16.34,62.47-24.75,11.05-4.52,21.97-9.37,32.81-14.39-7.91,3.79-16.46,7.73-24.43,11.2-23.24,10.19-47.37,18.27-70.52,28.66-6.25,2.72-14.1,6.42-20.34,9.34-28.47,13.76-59.24,1.6-87.41-6.55-16.99-4.85-35.26-8.31-52.64-3.49-4.32,1.15-8.41,2.83-12.46,4.74-18.08,8.34-38.69,6.47-57.39,1.37-22.9-5.88-45.58-15.93-69.67-14.12-7.39.57-14.69,2.36-21.47,5.36-20.22,9.34-40.16,20.05-59.46,31.14-20.67,11.89-41.72,23.39-63.38,33.42h0Z"/>
        <path class="cls-2" d="M-42.91,141.81c11.12,1.21,22.17,3.01,33.18,4.98,5.47.9,11.04,1.99,16.59,1.46,2.76-.27,5.45-.98,8.03-2.01,2.58-1.02,5.06-2.3,7.49-3.66,8.26-4.61,20.15-12.78,28.28-18.01,20.26-13.04,43.6-8.72,65.16-1.79,25.92,8.08,54.12,20.48,81.1,10.01,1.29-.5,2.57-1.03,3.82-1.62,14.01-6.9,30.19-7.97,45.4-5.26,22.14,3.71,42.78,13.23,64.99,16.43,10.99,1.6,22.35,1.31,33-2.02,4.87-1.38,10.8-4.39,15.39-6.47,3.81-1.77,7.65-3.46,11.48-5.17,19.17-8.53,38.96-15.55,58.48-23.2,7.73-3.09,15.59-6.36,23.19-9.75,4.83-2.11,10.56-4.76,15.28-6.92-7.41,3.54-15.41,7.26-22.87,10.51-23.01,10.21-46.92,18.2-69.93,28.41-5.11,2.21-10.25,4.57-15.28,6.91-4.64,2.18-10.65,5.16-15.48,6.59-16.24,5.23-33.71,3.01-49.9-1.26-28.9-7.55-59.92-21.81-89.47-9.41-1.29.52-2.54,1.1-3.81,1.68-11.53,5.46-24.67,6.71-37.21,5.01-22.32-2.93-42.82-13.03-64.65-17.87-16.25-3.82-33.85-3.29-48.24,5.97-7.99,5.15-20.14,13.23-28.42,17.85-2.46,1.35-4.97,2.63-7.6,3.65-2.62,1.02-5.39,1.74-8.21,1.99-5.63.47-11.2-.68-16.71-1.64-10.99-2.09-22.01-3.99-33.11-5.37h0Z"/>
        <path class="cls-2" d="M-53.09,176.43c25.89-17.47,49.1-6.02,76.76-6.23,10.47-.16,20.85-3.1,29.64-8.81,13.11-8.96,28.27-14.37,43.56-18.22,27.76-7.04,57.52-10.46,81.64-27.08,29.32-18.73,65.42-19.21,97.46-30.76,7.7-2.78,15.16-6.23,22.09-10.58,19.44-13.39,42.92-18.46,65.63-23.3,20.46-4.39,41.36-9.32,59.06-20.97-17.58,11.86-38.52,16.95-58.94,21.51-22.62,4.98-45.96,10.09-65.27,23.53-6.97,4.42-14.49,7.95-22.24,10.75-31.96,11.6-67.97,12.11-97.17,30.8-24.24,16.67-54.16,20.09-82.01,27.1-15.25,3.82-30.26,9.14-43.35,17.97-8.93,5.73-19.52,8.67-30.1,8.76-27.69.1-50.64-11.63-76.78,5.53h0Z"/>
        <path class="cls-2" d="M-50.18,192.14c31.27-21.27,59.99-6.03,91.74-16.94,6.14-2.12,11.98-5.41,17.36-9.04,0,0,1.69-1.04,1.69-1.04,35.32-21.36,79.94-17.71,115.27-38.98,3.82-2.37,7.83-5.11,11.83-7.17,28.18-15.01,60.97-16.1,90.64-26.8,8-2.89,15.77-6.49,22.93-11.1,19.26-13.06,42.43-17.99,64.83-22.79,20.47-4.39,41.37-9.32,59.08-20.98-17.58,11.87-38.53,16.96-58.96,21.51-22.3,4.93-45.33,9.9-64.46,23.01-7.2,4.68-15.02,8.36-23.08,11.28-29.61,10.74-62.36,11.88-90.44,26.87-3.97,2.06-7.96,4.79-11.78,7.14-35.39,21.27-79.98,17.62-115.4,38.77l-1.67,1.02c-5.44,3.64-11.37,6.92-17.58,9.03-31.91,10.8-60.59-4.65-92,16.19h0Z"/>
        <path class="cls-2" d="M-56.29,190.1c29.32-19.99,62.3-2.09,93.98-7.27,7.87-1.31,15.38-4.33,21.98-8.79,11.19-7.44,23.9-12.27,36.77-15.83,28.07-7.82,58.36-10.43,83.48-26.27,2-1.29,4.76-3.11,6.8-4.27,28.07-16.36,61.54-17.54,91.76-27.89,7.86-2.69,15.51-6.04,22.65-10.31,1.99-1.19,3.94-2.51,5.92-3.74,18.31-11.38,39.72-15.95,60.52-20.44,20.78-4.45,42.04-9.34,60.03-21.18-17.86,12.06-39.17,17.1-59.91,21.73-20.71,4.61-41.99,9.22-60.17,20.64-1.96,1.23-3.92,2.57-5.91,3.78-7.17,4.34-14.88,7.75-22.8,10.47-30.17,10.41-63.52,11.6-91.5,27.94-2.32,1.33-4.5,2.81-6.77,4.25-25.24,15.88-55.68,18.5-83.83,26.27-12.82,3.53-25.4,8.29-36.55,15.6-6.7,4.48-14.38,7.52-22.35,8.8-31.74,5.07-64.66-13.11-94.1,6.51h0Z"/>
        <path class="cls-2" d="M-59.49,176.43c40.48-40.25,58.75,7.13,99.46-33.96,36.94-35.58,93.97-8.91,134.45-35.41,3.1-2.05,6.03-4.38,8.74-6.92,34.44-35.18,85.49-14.25,126.33-31.58,6.84-2.96,13.19-7.05,18.65-12.12,31.49-32.24,76.64-17.73,115.7-27.81,11.61-3.01,22.56-8.77,31.14-17.2-8.53,8.53-19.45,14.39-31.07,17.48-29.05,7.88-60.35,1.51-88.96,11.49-9.92,3.44-18.85,9.23-26.2,16.7-9.92,9.4-22.84,15.1-36.16,17.67-36.83,7.27-79.64-3.66-108.65,26.21-2.76,2.58-5.74,4.95-8.9,7.03-36.47,23.95-84.48,4.73-121.92,25.81-4.54,2.58-8.75,5.71-12.55,9.29-41.14,41.12-59.5-6.3-100.07,33.31h0Z"/>
        <path class="cls-2" d="M-60.65,183.12c33.74-33.28,55.23.07,85.48-10.14,5.69-1.98,10.81-5.31,15.38-9.21,1.65-1.38,3.42-3.11,4.98-4.62,2.78-2.61,5.76-5.01,8.94-7.12,26.16-17.3,59-12.22,88.59-15.91,17.26-1.94,34.23-7.76,46.68-20.29.41-.4,1.25-1.19,1.67-1.57,28.37-26.32,69.69-17.08,104.6-23.33,14.95-2.59,29.06-8.88,39.78-19.8,25.6-24.62,62.82-19.31,95.28-22.52,18.05-1.65,36.23-7.33,49.34-20.38-8.61,8.61-19.65,14.5-31.39,17.57-29.33,7.85-60.98,1.28-89.74,11.8-9.21,3.38-17.61,8.79-24.51,15.75-10.45,10.17-24.34,16.09-38.57,18.57-34.73,6.34-75.81-2.95-104,23.2-.42.38-1.24,1.15-1.64,1.55-12.65,12.69-29.86,18.6-47.36,20.54-23.98,2.95-48.76.17-71.98,7.82-9.29,3.08-17.95,8.05-25.07,14.78-1.36,1.34-3.52,3.35-5.04,4.62-6.94,5.92-15.43,10.45-24.65,11.16-12.3,1.09-23.87-4.1-35.72-6.32-16.43-3.33-29.3,2.41-41.05,13.86h0Z"/>
        <path class="cls-2" d="M-56.29,184.58c14.42-14.27,27.95-15.88,45.97-7.35,10.09,4.53,19.8,10.83,31.03,11.93,9.98,1.04,19.07-3.53,26.29-10.09,41.4-43.61,106.34-5.76,147.71-46.62,5.06-4.91,10.91-9,17.25-12.07,33.47-16.07,72.87-3.8,106.86-17.83,5.12-2.15,9.99-4.89,14.42-8.24,4.51-3.31,8.23-7.53,12.58-11.05,6.47-5.36,13.9-9.84,22.14-11.86,17.44-4.25,31.92,3.2,49.63-4.95,7.66-3.44,14.33-8.73,20.36-14.52-5.96,5.87-12.59,11.26-20.24,14.78-17.85,8.38-32.17,1.06-49.58,5.36-8.12,2.04-15.39,6.49-21.77,11.84-4.33,3.55-8.04,7.8-12.56,11.14-4.48,3.41-9.41,6.23-14.6,8.41-33.96,14.15-73.33,1.93-106.75,17.94-6.23,3.03-11.97,7.06-16.94,11.89-39.78,39.94-104.67,5.2-144.86,43.56-8.03,8.06-18.21,14.31-30.01,13.02-11.3-1.16-21.09-7.53-31.17-12.19-17.84-8.66-31.26-7.09-45.76,6.9h0Z"/>
        <path class="cls-2" d="M-46.98,153.45c4.08-1.1,8.01-2.64,11.9-4.27,27.1-11.77,52.79-26.47,79.1-39.86,11.27-5.78,22.56-11.54,34.17-16.61,5.82-2.49,11.76-4.95,18-6.2,23.05-4.77,46.26,3.94,69.39,1.75,3.12-.3,6.23-.8,9.28-1.54,21.83-5.99,44.19,1.36,66.22,1.32,5.24-.03,10.49-.47,15.61-1.59,3.07-.73,6.19-1.49,9.34-1.87,21.12-2.83,42.02,4.27,63.14,3.05,4.21-.24,8.4-.83,12.5-1.84-8.18,2.2-16.73,2.56-25.15,2.09-16.78-.87-33.56-4.84-50.37-2.47-4.2.51-8.22,1.84-12.38,2.56-12.57,2.21-25.43.56-37.96-.89-12.5-1.45-25.23-2.74-37.6.03-12.32,3.47-25.33,2.95-37.88,1.46-15.6-1.75-31.55-4.4-47.01-.48-5.08,1.33-9.96,3.33-14.79,5.38-27.03,11.91-52.82,26.39-79.22,39.61-11.31,5.68-22.64,11.38-34.34,16.21-3.91,1.59-7.86,3.1-11.95,4.16h0Z"/>
        <path class="cls-2" d="M-53.09,149.67c4.1-1.1,8.11-2.49,12.1-3.93,27.84-10.36,54.89-22.66,82.29-34.1,11.74-4.93,23.49-9.84,35.4-14.33,5.98-2.21,11.98-4.44,18.2-5.91,14.64-3.4,29.78-1.05,44.47.59,11.53,1.29,23.26,2.14,34.64-.46,5.15-1.35,10.46-2.26,15.78-2.47,21.23-1,42.22,6.03,63.37,2.66,4.2-.64,8.26-1.98,12.48-2.49,21.23-2.98,42.25,4.21,63.48,2.99,4.23-.24,8.45-.82,12.56-1.85-4.1,1.09-8.31,1.76-12.55,2.05-21.19,1.52-42.23-5.46-63.37-2.37-4.22.55-8.26,1.92-12.45,2.58-21.17,3.52-42.29-3.52-63.46-2.46-4.73.23-9.45.91-14.02,2.1-20.44,5.18-41.31-1.04-61.87-1.6-8.44-.25-16.92.62-24.97,3.24-32.16,10.81-62.97,25.26-94.41,37.97-15.73,6.33-31.34,13.18-47.68,17.77h0Z"/>
        <path class="cls-2" d="M-9.01,65.71c22.22-11.01,45.56,2.69,67.77,6.54,10.98,1.85,20.3.96,30.29-4,7.57-3.28,16.04-4,24.16-2.94,13.88,1.76,26.89,7.59,40.53,10.19,10.12,2.04,20.93,1.64,30.29-3,1.07-.49,2.15-.95,3.26-1.35,15.79-6.01,32.63-.47,47.98,4.23,13.06,4,27.32,7.52,40.67,2.85,2.21-.72,4.25-1.76,6.42-2.64,6.55-2.56,13.62-3.47,20.59-3.88,32.58-1.38,64.75,6.38,97.31,6,9.23-.24,18.72-.98,27.23-4.84-8.47,3.94-17.99,4.79-27.22,5.08-32.53.64-64.73-6.94-97.26-5.45-6.9.44-13.86,1.36-20.3,3.91-2.13.88-4.24,1.96-6.45,2.69-13.51,4.84-28.04,1.3-41.27-2.72-15.16-4.59-31.73-10.09-47.28-4.15-1.07.39-2.13.84-3.17,1.32-9.57,4.72-20.68,5.12-30.99,3.02-13.75-2.65-26.59-8.46-40.45-10.26-7.98-1.05-16.24-.38-23.69,2.77-10.16,4.96-19.69,5.8-30.76,3.86-22.23-3.96-45.27-17.92-67.65-7.23h0Z"/>
        <path class="cls-2" d="M-9.44,76.88c26.04-12.81,52.1,7.64,78.51,7.42,6.66-.03,13.27-1.79,19.22-4.74,6.22-2.74,13.1-3.82,19.86-3.48,18.03.9,34.43,10.03,52.31,11.58,8.54.77,16.47-.66,24.15-4.44,17.85-7.98,36.74-.61,54.26,4.52,13.14,3.94,27.81,6.2,40.64.07,7.66-3.61,16.17-5,24.55-5.56,26.88-1.61,53.58,3.9,80.45,2.74,8.89-.46,17.94-1.66,26.1-5.42-8.13,3.84-17.19,5.15-26.09,5.67-26.83,1.4-53.59-3.93-80.41-2.22-7.75.57-15.55,1.8-22.7,4.92-14.09,7.12-28.27,5.04-42.82.8-17.23-4.99-36.01-12.33-53.51-4.45-7.8,3.84-16.07,5.3-24.71,4.48-17.92-1.57-34.29-10.73-52.26-11.69-6.64-.34-13.35.67-19.46,3.31-6.05,2.96-12.82,4.7-19.57,4.69-26.47.13-52.36-20.62-78.52-8.19h0Z"/>
        <path class="cls-2" d="M-50.18,160.72C-3.74,138.14,41.41,112.99,87.98,90.67c22.91-10.08,46.09,4.63,68.81,7.8,9.57,1.35,18.42.31,27.12-3.96,18.14-8.27,37.35-.58,55.16,4.58,6.74,1.9,13.6,3.5,20.61,3.7,5.22.15,10.48-.53,15.42-2.23,1.66-.56,3.24-1.24,4.85-1.97,22.73-10.63,46.12,3.84,68.69,7.55,9.23,1.55,18.96.86,27.49-3.2-8.49,4.19-18.27,5-27.55,3.54-22.45-3.36-45.78-17.74-68.26-7.08-1.59.74-3.24,1.46-4.92,2.04-5.04,1.77-10.42,2.5-15.75,2.35-7.09-.19-14.08-1.79-20.87-3.69-18.43-5.28-37.51-13.03-56.01-3.8-8.11,3.78-17.37,4.57-26.14,3.28-22.6-3.14-45.51-17.86-68.31-8.06C44.01,112.48-5.89,139.76-50.18,160.72h0Z"/>
        <path class="cls-2" d="M11.69,141.96c17.55-11.89,39.45-12.94,59.13-19.3,6.58-2.13,12.97-4.92,18.71-8.77,2.91-1.95,5.99-3.64,9.16-5.1,15.91-7.28,33.65-8.7,50.16-14.01,6.58-2.11,12.96-4.88,18.69-8.7,5.85-3.88,12.35-6.68,19-8.79,19.71-6.27,41.51-7.16,59.16-18.79,17.74-11.72,39.64-12.56,59.44-18.72,6.61-2.07,13.06-4.8,18.89-8.6-5.76,3.9-12.19,6.74-18.8,8.89-19.63,6.44-41.5,7.4-59.04,19.18-5.81,3.9-12.29,6.73-18.94,8.85-19.67,6.32-41.5,7.24-59.07,18.96-17.72,11.77-39.64,12.67-59.41,18.94-6.58,2.1-12.98,4.84-18.75,8.64-5.85,3.86-12.34,6.63-18.98,8.72-19.77,6.25-41.6,7-59.35,18.6h0Z"/>
        <path class="cls-2" d="M-61.82,169.74c3.59-2.35,7.54-4.11,11.5-5.76,40.08-15.4,82.65-23.13,123.1-37.44,6-2.22,12.05-4.5,17.52-7.83,5.36-3.61,11.25-6.47,17.37-8.56,16.23-5.65,33.68-7.02,49.59-13.53,3.94-1.62,7.75-3.55,11.31-5.87,3.58-2.4,7.43-4.45,11.41-6.14,19.82-8.43,42.25-8.49,61.48-18.41,3.85-1.91,7.27-4.54,11.1-6.5,3.82-2.02,7.83-3.65,11.91-5.02,16.29-5.48,33.75-6.73,49.71-13.26,3.97-1.63,7.81-3.57,11.4-5.91-7.13,4.83-15.24,7.99-23.5,10.32-18.4,5.24-38.41,6.93-54.6,17.92-3.6,2.38-7.46,4.38-11.45,6.04-17.9,7.42-37.82,8.26-55.61,15.87-3.92,1.67-7.67,3.69-11.22,6.07-3.63,2.36-7.52,4.31-11.52,5.94-16,6.51-33.46,7.84-49.69,13.43-6.07,2.08-11.88,4.81-17.22,8.37-9.32,5.44-19.75,8.57-29.94,11.91-32.78,10.24-66.36,17.67-99.01,28.32-4.07,1.36-8.12,2.78-12.1,4.38-3.97,1.61-7.93,3.33-11.54,5.65h0Z"/>
        <path class="cls-2" d="M-39.42,169.74c6.85-4.43,14.57-7.3,22.19-10.09,23.05-8.11,46.76-14.12,70.1-21.32,11.61-3.65,23.33-7.28,34.27-12.64,3.69-1.76,6.92-4.25,10.52-6.17,1.8-.98,3.65-1.87,5.53-2.69,21.45-9.29,46.42-8.66,66.45-21.44,12.74-8.79,28.25-11.92,43.09-15.14,11.86-2.6,23.83-5.58,34.27-11.95,17.04-11.89,38.3-13.47,57.79-18.83,7.82-2.19,15.49-5.16,22.32-9.61-6.76,4.58-14.41,7.67-22.22,9.95-19.37,5.63-40.54,7.29-57.41,19.27-10.46,6.53-22.63,9.56-34.52,12.2-13.8,3.07-28,5.87-40.14,13.45-1.68,1.06-3.46,2.26-5.2,3.23-17.95,10.2-39.19,10.91-58.38,17.58-3.82,1.34-7.56,2.9-11.13,4.8-3.61,1.88-6.89,4.38-10.58,6.11-11.03,5.35-22.79,8.93-34.45,12.54-23.36,7.12-47.12,12.93-70.22,20.86-7.64,2.74-15.38,5.51-22.27,9.88h0Z"/>
        <path class="cls-2" d="M-46.98,177.01c13.8-12.95,31.24-21.11,47.93-29.64,21.04-10.52,42.75-19.88,62.76-32.33,4.96-3.14,9.78-6.51,14.14-10.43,2.14-1.96,4.27-4.12,6.47-6.02,14.6-13.16,33.24-20.1,50.16-29.58,8.16-4.62,15.83-10.12,22.59-16.64.84-.79,1.7-1.66,2.64-2.41,6.5-5.5,15.44-6.97,23.69-6.43,21.99,1.03,48.21,14.9,69.29,9.86,4.5-1.15,8.67-3.45,11.97-6.73,17.98-17.77,44.91-11.72,67.55-15.57,9.26-1.54,18.28-5.39,25.04-12.03-6.68,6.76-15.7,10.73-24.98,12.37-22.39,4.14-49.3-1.81-66.99,15.88-10.6,10.78-27.11,8.86-40.57,5.92-13.81-2.92-27.26-7.68-41.38-8.58-8.05-.5-16.59.89-22.89,6.22-.89.73-1.7,1.54-2.57,2.36-6.84,6.56-14.61,12.11-22.85,16.75-8.2,4.67-16.82,8.53-25.18,12.88-8.87,4.58-17.36,9.91-24.91,16.45-2.2,1.88-4.36,4.03-6.5,5.97-4.41,3.94-9.31,7.32-14.3,10.46-20.09,12.37-41.85,21.69-63,32.05-8.47,4.12-16.9,8.35-25.08,13.01-8.14,4.71-16.22,9.71-23.05,16.23h0Z"/>
        <path class="cls-2" d="M-46.98,177.01c4.48-4.38,9.77-7.85,15.21-10.93,10.95-6.1,22.64-10.71,34.33-15.17,17.53-6.67,35.39-12.54,52.53-20.19,9.19-4.2,18.37-8.8,26.03-15.45,1.77-1.55,3.38-3.28,5.25-4.72,2.47-1.97,5.17-3.66,8.02-5.04,22.91-10.96,50.76-1.02,72.98-14,5.5-3.07,9.45-8.05,14.47-11.79,12.5-9.83,28.27-14.03,43.77-16.13,15.49-2.13,31.1-3.39,46.32-7.12,58.01-12.83,116.66-23.68,175.95-28.41,10.53-.73,21.1-1.49,31.66-1.26-.05-.16.3.23.07.25-.06,0-.1,0-.16.01h-.3s-.59,0-.59,0c-14.08-.35-28.1-1.94-42.07-3.66,12.42,1.5,24.88,2.76,37.38,3.32,1.86.07,3.71.15,5.56.11.05,0,.1,0,.14,0-.04,0,.03.35-.06.19-4.29-.15-8.59.05-12.88.21-65.61,3.59-130.46,15.9-194.51,30.1-21.24,5.55-43.53,5.28-64.67,11.02-8.98,2.52-17.54,6.54-24.91,12.27-2.48,1.89-4.76,3.98-7.01,6.15-2.3,2.18-4.85,4.1-7.58,5.71-19.57,11.43-43.33,5.25-64.41,10.74-7.52,1.92-14.56,5.63-20.09,11.09-3.41,3.28-7.3,6.03-11.32,8.48-10.76,6.49-22.45,11.18-34.14,15.67-17.54,6.68-35.44,12.43-52.75,19.69-11.42,4.94-23.05,10.24-32.22,18.83h0Z"/>
      </g>
    </g>
  </g>
</svg>