<?xml version="1.0" encoding="UTF-8"?>
<svg id="Capa_2" data-name="Capa 2" xmlns="http://www.w3.org/2000/svg" viewBox="0 0 529.92 267.84">
  <defs>
    <style>
      .cls-1, .cls-2 {
        fill: #223048;
      }

      .cls-2 {
        font-family: Arial-BoldMT, Arial;
        font-size: 13.37px;
        font-weight: 700;
      }
    </style>
  </defs>
  <g id="Layer_1" data-name="Layer 1">
    <path class="cls-1" d="M0,210.23c0-20.7,16.78-37.48,37.48-37.48h47.18s0,19.43,0,19.43h-42.92c-10.35,0-18.74,8.39-18.74,18.74v13.11c0,10.35,8.39,18.74,18.74,18.74h42.92v18.46c0,.53.02,1.06.07,1.58h-47.24c-20.7,0-37.48-16.78-37.48-37.48v-15.1Z"/>
    <path class="cls-1" d="M132.53,210.23c0-20.7,16.78-37.48,37.48-37.48h47.18s0,19.43,0,19.43h-42.92c-10.35,0-18.74,8.39-18.74,18.74v13.11c0,10.35,8.39,18.74,18.74,18.74h42.92v18.46c0,.53.02,1.06.07,1.58h-47.24c-20.7,0-37.48-16.78-37.48-37.48v-15.1Z"/>
    <path class="cls-1" d="M322.82,200.58c0-15.37,12.65-27.83,28.26-27.83h59.03v19.43h-58.32c-3.31,0-6,3.56-6,7.95s2.69,7.95,6,7.95h31.7c15.61,0,28.26,12.46,28.26,27.83s-12.65,26.9-28.26,26.9h-58.05v-20.04h57.34c3.31,0,6-2.85,6-7.24s-2.69-8.03-6-8.03h-34.69c-15.61,0-25.28-11.54-25.28-26.91Z"/>
    <path class="cls-1" d="M225.49,200.12c0-15.12,13-27.37,29.03-27.37h54.57v19.43h-54.68c-3.31,0-6,3.56-6,7.95s2.54,7.76,5.73,7.94h.37s.54,0,.54,0h54.04v19.44h-54.57c-3.42,0-6.1,3.55-6.1,7.94s2.69,7.33,6,7.33h54.68v20.04h-54.57c-16.04,0-29.03-12.26-29.03-27.37,0-6.73,2.57-12.89,6.85-17.66-4.27-4.77-6.85-10.93-6.85-17.66Z"/>
    <polygon class="cls-1" points="254.15 214.4 254.42 214.41 254.75 214.41 309.09 214.41 255.06 214.4 254.52 214.4 254.15 214.4"/>
    <path class="cls-1" d="M419.94,200.12c0-15.12,13-27.37,29.03-27.37h54.57v19.43h-54.68c-3.31,0-6,3.56-6,7.95s2.54,7.76,5.73,7.94h.37s.54,0,.54,0h54.04v19.44h-54.57c-3.42,0-6.1,3.55-6.1,7.94s2.69,7.33,6,7.33h54.68v20.04h-54.57c-16.04,0-29.03-12.26-29.03-27.37,0-6.73,2.57-12.89,6.85-17.66-4.27-4.77-6.85-10.93-6.85-17.66Z"/>
    <polygon class="cls-1" points="448.61 214.4 448.87 214.41 449.2 214.41 503.55 214.41 449.51 214.4 448.98 214.4 448.61 214.4"/>
    <rect class="cls-1" x="97.88" y="172.75" width="22.58" height="90.06"/>
    <path class="cls-1" d="M144.51,35.89c-1.01.47-2.05,1-3.03,1.59-4.26,2.55-22.54,9.14-31.55.24,0,0,17.53-6.09,27.71-8.76-.71-.65-1.42-1.28-2.14-1.91-4.43.14-11.33.58-18.02,1.9-11.09,2.19-27.65,2.8-32.77-6.7,0,0,26.1-2.29,41.42-2.18-2.33-1.46-4.7-2.74-7.11-3.81l-.24-.1h-29.19C69.99,15.93,60.54,1.47,59.68.07l-.15-.02h57.08s26.27-1.95,56.93,18.53c36.59,24.45,36.25,45.37,50.97,63.71,14.72,18.35,28.56,14.94,28.56,14.94-29.43-8.46-26.35-38.17-52.94-66.78-12.17-13.1-33.75-24.23-56.43-29.35,21.35,1.98,50.97,7.38,72.2,21.87,36.93,25.21,28.96,73.36,55.6,73.36s25.98-40.63,27.01-42.67c1.02-2.04,34.97-7.06,53.4,13.09,9.65,0,110.74,1.02,110.74,1.02,9.56.61,12.07,7.71,12.07,7.71h-124.65c-23.82-20.05-38.76-12.64-50.13,12.3-10.81,23.71-34.05,58.78-99.6,58.78-70.79,0-84.05-34.23-130.62-39.91,33.51-1.92,83.33-5.82,83.33-5.82,19.9-1.23,17.65-14.04,15.13-25.84-1.3-6.1-6.63-16.9-14.52-27.81-5.89,1.19-14.59,2.39-16.18-.54,0,0,5.57-3.99,10.31-6.99-1.06-1.26-2.15-2.51-3.26-3.74h0ZM466.87,81.27c-16.46,0-132.23,1.23-132.23,1.23-26.92,0-45.94,20.65-27.99,35.14,24.77,20,121.98-30.22,160.22-36.37h0ZM327.42,72.53c-.64-1.7-2.39-2.79-4.26-2.53-2.17.31-3.68,2.31-3.38,4.48.31,2.17,2.31,3.68,4.48,3.38.84-.12,1.58-.49,2.16-1.03l15.03-2.98-14.03-1.32h0ZM65.18,107.78s.27,5.43,2.58,11.04c2.31,5.61,8.86,7.36,18.84,7.12,9.99-.24,24.7-1.67,24.7-1.67,0,0-19.59-10.61-46.12-16.48Z"/>
    <text class="cls-2" transform="translate(509.13 262.81)"><tspan x="0" y="0">MR</tspan></text>
  </g>
</svg>