<?xml version="1.0" encoding="UTF-8"?>
<svg id="Capa_2" data-name="Capa 2" xmlns="http://www.w3.org/2000/svg" viewBox="0 0 426.31 171.61">
  <defs>
    <style>
      .cls-1 {
        fill: #223048;
      }

      .cls-2 {
        fill: #8a174f;
      }
    </style>
  </defs>
  <g id="Layer_1" data-name="Layer 1">
    <path class="cls-1" d="M139.45,137.6l4.99-25.51,8.14,18.44,8.43-18.44,4.49,25.51h-3.67l-2.29-14.32-7.02,15.41-6.82-15.43-2.55,14.34h-3.7Z"/>
    <path class="cls-1" d="M183.51,130.93h-10.72c.09,1.23.49,2.21,1.2,2.94.71.72,1.61,1.07,2.72,1.07.86,0,1.57-.21,2.13-.61.55-.41,1.18-1.17,1.89-2.27l2.92,1.63c-.45.77-.93,1.43-1.43,1.97-.5.55-1.04,1-1.61,1.35-.57.35-1.19.61-1.86.77-.67.17-1.39.25-2.17.25-2.23,0-4.03-.72-5.38-2.15-1.35-1.45-2.03-3.36-2.03-5.75s.66-4.28,1.97-5.75c1.32-1.45,3.07-2.17,5.26-2.17s3.95.7,5.23,2.11c1.27,1.39,1.91,3.32,1.91,5.79l-.02.81ZM179.96,128.1c-.48-1.84-1.65-2.77-3.49-2.77-.42,0-.81.07-1.18.19-.37.13-.7.31-1.01.55s-.56.53-.78.87c-.21.34-.38.72-.49,1.15h6.95Z"/>
    <path class="cls-1" d="M191.33,129.5l-5.38-6.87h4.12l3.33,4.36,3.4-4.36h4.24l-5.53,6.87,6.41,8.1h-4.12l-4.39-5.59-4.5,5.59h-4.23l6.65-8.1Z"/>
    <path class="cls-1" d="M203.73,116.41c0-.6.22-1.13.66-1.57s.97-.66,1.58-.66,1.16.22,1.6.66c.44.43.66.96.66,1.58s-.22,1.16-.66,1.6c-.43.44-.96.66-1.58.66s-1.16-.22-1.6-.66-.66-.98-.66-1.61ZM207.71,122.63v14.97h-3.46v-14.97h3.46Z"/>
    <path class="cls-1" d="M223.74,123.28v4.59c-.79-.96-1.5-1.62-2.12-1.98-.61-.37-1.34-.55-2.17-.55-1.3,0-2.38.46-3.24,1.37-.86.91-1.29,2.05-1.29,3.43s.41,2.56,1.24,3.46c.84.9,1.91,1.35,3.21,1.35.83,0,1.56-.18,2.2-.54.62-.35,1.34-1.02,2.17-2.03v4.56c-1.4.73-2.81,1.09-4.21,1.09-2.31,0-4.25-.75-5.81-2.24-1.56-1.51-2.33-3.38-2.33-5.61s.79-4.12,2.37-5.66c1.58-1.54,3.51-2.3,5.81-2.3,1.48,0,2.87.35,4.18,1.06Z"/>
    <path class="cls-1" d="M238.12,122.63h3.47v14.97h-3.47v-1.57c-1.42,1.33-2.96,2-4.59,2-2.07,0-3.78-.75-5.13-2.24-1.34-1.53-2.01-3.43-2.01-5.72s.67-4.11,2.01-5.61c1.34-1.5,3.02-2.24,5.04-2.24,1.74,0,3.3.72,4.69,2.15v-1.74ZM229.91,130.07c0,1.44.38,2.6,1.15,3.5.79.91,1.78,1.37,2.98,1.37,1.28,0,2.32-.44,3.1-1.32.79-.91,1.18-2.07,1.18-3.47s-.39-2.56-1.18-3.47c-.79-.89-1.81-1.34-3.07-1.34-1.19,0-2.18.45-2.98,1.35-.79.91-1.18,2.04-1.18,3.38Z"/>
    <path class="cls-1" d="M245.96,122.63h3.47v1.38c1.21-1.2,2.57-1.8,4.09-1.8,1.74,0,3.1.55,4.07,1.65.84.93,1.26,2.45,1.26,4.56v9.17h-3.47v-8.36c0-1.48-.21-2.49-.62-3.06-.4-.57-1.13-.86-2.18-.86-1.15,0-1.96.38-2.44,1.14-.47.75-.71,2.05-.71,3.92v7.22h-3.47v-14.97Z"/>
    <path class="cls-1" d="M284.57,123.28v4.59c-.79-.96-1.5-1.62-2.12-1.98-.61-.37-1.34-.55-2.17-.55-1.3,0-2.38.46-3.24,1.37s-1.29,2.05-1.29,3.43.41,2.56,1.24,3.46c.84.9,1.91,1.35,3.21,1.35.83,0,1.56-.18,2.2-.54.62-.35,1.34-1.02,2.17-2.03v4.56c-1.4.73-2.81,1.09-4.21,1.09-2.31,0-4.25-.75-5.81-2.24-1.56-1.51-2.33-3.38-2.33-5.61s.79-4.12,2.37-5.66c1.58-1.54,3.51-2.3,5.81-2.3,1.48,0,2.87.35,4.18,1.06Z"/>
    <path class="cls-1" d="M287.21,130.01c0-2.16.77-4,2.32-5.52,1.55-1.52,3.43-2.27,5.66-2.27s4.13.76,5.68,2.29c1.54,1.53,2.3,3.4,2.3,5.62s-.77,4.12-2.32,5.64c-1.56,1.51-3.47,2.26-5.73,2.26s-4.12-.77-5.64-2.3c-1.52-1.52-2.27-3.42-2.27-5.72ZM290.75,130.07c0,1.5.4,2.68,1.2,3.55.82.88,1.9,1.32,3.24,1.32s2.43-.44,3.24-1.31c.81-.87,1.21-2.03,1.21-3.49s-.41-2.62-1.21-3.49c-.82-.88-1.9-1.32-3.24-1.32s-2.39.44-3.21,1.32-1.23,2.02-1.23,3.41Z"/>
    <path class="cls-1" d="M306.84,122.63h3.47v1.38c1.21-1.2,2.57-1.8,4.09-1.8,1.74,0,3.1.55,4.07,1.65.84.93,1.26,2.45,1.26,4.56v9.17h-3.47v-8.36c0-1.48-.21-2.49-.62-3.06-.4-.57-1.13-.86-2.18-.86-1.15,0-1.96.38-2.44,1.14-.47.75-.71,2.05-.71,3.92v7.22h-3.47v-14.97Z"/>
    <path class="cls-1" d="M327.67,125.86v11.74h-3.47v-11.74h-1.23v-3.23h1.23v-5.78c0-1.88.33-3.22.98-4,.9-1.09,2.21-1.63,3.93-1.63.62,0,1.39.18,2.32.54v3.53l-.35-.19c-.75-.38-1.36-.57-1.84-.57-.61,0-1.03.22-1.24.66-.22.43-.32,1.26-.32,2.49v4.93h3.76v3.23h-3.76Z"/>
    <path class="cls-1" d="M347.54,130.93h-10.72c.09,1.23.49,2.21,1.2,2.94.71.72,1.61,1.07,2.72,1.07.86,0,1.57-.21,2.13-.61.55-.41,1.18-1.17,1.89-2.27l2.92,1.63c-.45.77-.93,1.43-1.43,1.97-.5.55-1.04,1-1.61,1.35-.57.35-1.19.61-1.86.77-.67.17-1.39.25-2.17.25-2.23,0-4.03-.72-5.38-2.15-1.35-1.45-2.03-3.36-2.03-5.75s.66-4.28,1.97-5.75c1.32-1.45,3.07-2.17,5.26-2.17s3.95.7,5.23,2.11c1.27,1.39,1.91,3.32,1.91,5.79l-.02.81ZM343.99,128.1c-.48-1.84-1.65-2.77-3.49-2.77-.42,0-.81.07-1.18.19-.37.13-.7.31-1.01.55s-.56.53-.78.87c-.21.34-.38.72-.49,1.15h6.95Z"/>
    <path class="cls-1" d="M351.32,122.63h3.46v1.34c.64-.67,1.2-1.12,1.69-1.37.5-.26,1.1-.39,1.78-.39.91,0,1.86.3,2.86.89l-1.58,3.17c-.66-.47-1.3-.71-1.92-.71-1.88,0-2.83,1.42-2.83,4.27v7.76h-3.46v-14.97Z"/>
    <path class="cls-1" d="M376.5,130.93h-10.72c.09,1.23.49,2.21,1.2,2.94.71.72,1.61,1.07,2.72,1.07.86,0,1.57-.21,2.13-.61.55-.41,1.18-1.17,1.89-2.27l2.92,1.63c-.45.77-.93,1.43-1.43,1.97-.5.55-1.04,1-1.61,1.35-.57.35-1.19.61-1.86.77-.67.17-1.39.25-2.17.25-2.23,0-4.03-.72-5.38-2.15-1.35-1.45-2.03-3.36-2.03-5.75s.66-4.28,1.97-5.75c1.32-1.45,3.07-2.17,5.26-2.17s3.95.7,5.23,2.11c1.27,1.39,1.91,3.32,1.91,5.79l-.02.81ZM372.96,128.1c-.48-1.84-1.65-2.77-3.49-2.77-.42,0-.81.07-1.18.19-.37.13-.7.31-1.01.55s-.56.53-.78.87c-.21.34-.38.72-.49,1.15h6.95Z"/>
    <path class="cls-1" d="M380.29,122.63h3.47v1.38c1.21-1.2,2.57-1.8,4.09-1.8,1.74,0,3.1.55,4.07,1.65.84.93,1.26,2.45,1.26,4.56v9.17h-3.47v-8.36c0-1.48-.21-2.49-.62-3.06-.4-.57-1.13-.86-2.18-.86-1.15,0-1.96.38-2.44,1.14-.47.75-.71,2.05-.71,3.92v7.22h-3.47v-14.97Z"/>
    <path class="cls-1" d="M409.19,123.28v4.59c-.79-.96-1.5-1.62-2.12-1.98-.61-.37-1.34-.55-2.17-.55-1.3,0-2.38.46-3.24,1.37-.86.91-1.29,2.05-1.29,3.43s.41,2.56,1.24,3.46c.84.9,1.91,1.35,3.21,1.35.83,0,1.56-.18,2.2-.54.62-.35,1.34-1.02,2.17-2.03v4.56c-1.4.73-2.81,1.09-4.21,1.09-2.31,0-4.25-.75-5.81-2.24-1.56-1.51-2.33-3.38-2.33-5.61s.79-4.12,2.37-5.66c1.58-1.54,3.51-2.3,5.81-2.3,1.48,0,2.87.35,4.18,1.06Z"/>
    <path class="cls-1" d="M426.17,130.93h-10.72c.09,1.23.49,2.21,1.2,2.94.71.72,1.61,1.07,2.72,1.07.86,0,1.57-.21,2.13-.61.55-.41,1.18-1.17,1.89-2.27l2.92,1.63c-.45.77-.93,1.43-1.43,1.97-.5.55-1.04,1-1.61,1.35-.57.35-1.19.61-1.86.77-.67.17-1.39.25-2.17.25-2.23,0-4.03-.72-5.38-2.15-1.35-1.45-2.03-3.36-2.03-5.75s.66-4.28,1.97-5.75c1.32-1.45,3.07-2.17,5.26-2.17s3.95.7,5.23,2.11c1.27,1.39,1.91,3.32,1.91,5.79l-.02.81ZM422.62,128.1c-.48-1.84-1.65-2.77-3.49-2.77-.42,0-.81.07-1.18.19-.37.13-.7.31-1.01.55s-.56.53-.78.87c-.21.34-.38.72-.49,1.15h6.95Z"/>
    <path class="cls-1" d="M0,159.03c0-1.74.62-3.22,1.87-4.44,1.24-1.22,2.76-1.83,4.55-1.83s3.32.61,4.57,1.84c1.24,1.23,1.85,2.74,1.85,4.52s-.62,3.32-1.87,4.53c-1.25,1.21-2.79,1.82-4.61,1.82s-3.32-.62-4.53-1.85c-1.22-1.22-1.83-2.75-1.83-4.6ZM2.84,159.08c0,1.2.32,2.16.96,2.85.66.71,1.53,1.06,2.61,1.06s1.96-.35,2.61-1.05c.65-.7.98-1.63.98-2.8s-.33-2.1-.98-2.8c-.66-.71-1.53-1.06-2.61-1.06s-1.92.35-2.58,1.06-.99,1.62-.99,2.74Z"/>
    <path class="cls-1" d="M15.78,153.1h2.79v1.11c.97-.96,2.07-1.45,3.29-1.45,1.4,0,2.49.44,3.27,1.32.68.75,1.01,1.97,1.01,3.67v7.38h-2.79v-6.72c0-1.19-.17-2.01-.5-2.46-.32-.46-.91-.69-1.75-.69-.92,0-1.58.3-1.96.92-.38.6-.57,1.65-.57,3.15v5.81h-2.79v-12.04Z"/>
    <path class="cls-2" d="M42.67,153.41h7.16v-7.36h4.96v19.08h-4.96v-7.87h-7.16v7.87h-4.96v-19.08h4.96v7.36Z"/>
    <path class="cls-2" d="M62.94,152.15v7.31c0,1.6.78,2.4,2.33,2.4s2.33-.8,2.33-2.4v-7.31h4.58v8.2c0,1.76-.58,3.07-1.73,3.95-1.16.88-2.88,1.32-5.18,1.32s-4.02-.44-5.18-1.32c-1.16-.88-1.73-2.19-1.73-3.95v-8.2h4.58Z"/>
    <path class="cls-2" d="M75.29,152.15h4.58v1.59c1.25-1.2,2.65-1.8,4.2-1.8,1.92,0,3.39.81,4.4,2.43,1.03-1.64,2.5-2.45,4.4-2.45.61,0,1.18.09,1.72.27.54.18,1,.45,1.39.83s.7.87.92,1.48c.23.61.34,1.34.34,2.2v8.43h-4.58v-6.4c0-.66-.05-1.2-.14-1.62-.09-.42-.23-.75-.41-.99s-.38-.4-.62-.48-.49-.13-.76-.13c-1.47,0-2.2,1.07-2.2,3.21v6.4h-4.58v-6.4c0-.66-.04-1.2-.13-1.63-.08-.43-.21-.77-.37-1.03-.16-.25-.37-.43-.62-.52-.25-.09-.55-.14-.89-.14-.29,0-.56.04-.81.13s-.48.25-.67.49c-.19.24-.35.58-.45,1.01-.11.43-.17.99-.17,1.68v6.4h-4.58v-12.98Z"/>
    <path class="cls-2" d="M110.42,152.15h4.61v12.98h-4.61v-1.44c-.98,1.23-2.3,1.85-3.97,1.85-.94,0-1.81-.17-2.61-.52-.79-.34-1.49-.83-2.08-1.45s-1.05-1.36-1.38-2.2c-.33-.84-.49-1.76-.49-2.76,0-.93.16-1.81.48-2.65.32-.83.77-1.56,1.34-2.19.57-.62,1.26-1.12,2.05-1.48.79-.36,1.67-.54,2.63-.54,1.62,0,2.96.57,4.02,1.7v-1.29ZM104.65,158.6c0,.42.08.81.23,1.18s.36.68.62.95.57.48.94.63c.36.15.75.23,1.18.23s.79-.08,1.15-.23c.36-.15.68-.36.94-.63s.47-.58.63-.94c.16-.35.24-.73.24-1.14s-.08-.79-.24-1.15c-.16-.36-.37-.68-.63-.95s-.57-.48-.94-.63c-.36-.15-.75-.23-1.15-.23s-.81.08-1.18.23c-.36.15-.68.36-.94.63s-.47.58-.62.92-.23.72-.23,1.13Z"/>
    <path class="cls-2" d="M118.14,152.15h4.58v1.65c.62-.76,1.26-1.27,1.9-1.53.64-.26,1.39-.39,2.25-.39.91,0,1.69.15,2.34.44s1.2.71,1.66,1.25c.37.44.62.93.76,1.47.13.54.2,1.16.2,1.85v8.25h-4.58v-6.55c0-.64-.05-1.16-.14-1.56-.09-.4-.26-.71-.49-.95-.2-.2-.43-.34-.68-.43s-.52-.13-.81-.13c-.78,0-1.37.23-1.78.7s-.62,1.13-.62,1.99v6.93h-4.58v-12.98Z"/>
    <path class="cls-2" d="M133.37,156.45h7.26v3.82h-7.26v-3.82Z"/>
    <path class="cls-2" d="M156.38,152.43c-1.15-1.4-2.57-2.1-4.25-2.1-.74,0-1.43.13-2.06.4-.63.27-1.18.64-1.63,1.1s-.81,1.02-1.08,1.66c-.26.64-.39,1.33-.39,2.07s.13,1.46.39,2.1c.26.64.62,1.2,1.09,1.67s1.01.84,1.63,1.11c.62.27,1.3.41,2.02.41,1.59,0,3.01-.67,4.28-2.02v5.87l-.51.18c-.76.27-1.47.47-2.13.6-.66.13-1.31.19-1.95.19-1.32,0-2.58-.25-3.78-.75-1.21-.5-2.27-1.2-3.19-2.1-.92-.9-1.66-1.97-2.21-3.21s-.83-2.59-.83-4.06.27-2.81.82-4.04c.55-1.22,1.28-2.28,2.2-3.16s1.99-1.58,3.2-2.07c1.21-.5,2.49-.75,3.82-.75.76,0,1.51.08,2.24.24.73.16,1.51.41,2.32.75v5.92Z"/>
    <path class="cls-2" d="M158.58,158.53c0-.96.19-1.86.58-2.69.39-.83.93-1.56,1.62-2.18.69-.61,1.51-1.1,2.47-1.45s2-.53,3.13-.53,2.15.17,3.1.52c.95.34,1.78.83,2.48,1.44.7.62,1.24,1.35,1.63,2.2s.58,1.79.58,2.82-.2,1.97-.59,2.82c-.4.85-.94,1.59-1.63,2.2-.69.62-1.52,1.09-2.49,1.43s-2.02.51-3.15.51-2.14-.17-3.09-.51-1.76-.82-2.44-1.44c-.68-.62-1.22-1.37-1.61-2.24-.39-.87-.58-1.83-.58-2.9ZM163.41,158.58c0,.44.08.84.24,1.2.16.36.37.68.63.95s.57.48.94.63c.36.15.75.23,1.15.23s.79-.08,1.15-.23c.36-.15.68-.36.94-.63.26-.27.47-.59.63-.95.16-.36.24-.76.24-1.18s-.08-.79-.24-1.15c-.16-.36-.37-.68-.63-.95-.26-.27-.57-.48-.94-.63-.36-.15-.75-.23-1.15-.23s-.79.08-1.15.23c-.36.15-.68.36-.94.63s-.47.58-.63.94c-.16.35-.24.73-.24,1.14Z"/>
    <path class="cls-2" d="M176.8,152.15h4.58v1.59c1.25-1.2,2.65-1.8,4.2-1.8,1.92,0,3.39.81,4.4,2.43,1.03-1.64,2.5-2.45,4.4-2.45.61,0,1.18.09,1.72.27.54.18,1,.45,1.39.83s.7.87.92,1.48c.23.61.34,1.34.34,2.2v8.43h-4.58v-6.4c0-.66-.05-1.2-.14-1.62-.09-.42-.23-.75-.41-.99s-.38-.4-.62-.48-.49-.13-.76-.13c-1.47,0-2.2,1.07-2.2,3.21v6.4h-4.58v-6.4c0-.66-.04-1.2-.13-1.63-.08-.43-.21-.77-.37-1.03-.16-.25-.37-.43-.62-.52-.25-.09-.55-.14-.89-.14-.29,0-.56.04-.81.13s-.48.25-.67.49c-.19.24-.35.58-.45,1.01-.11.43-.17.99-.17,1.68v6.4h-4.58v-12.98Z"/>
    <path class="cls-2" d="M206.94,171.61h-4.58v-19.46h4.58v1.44c.98-1.23,2.31-1.85,4-1.85.93,0,1.79.18,2.59.54.8.36,1.5.86,2.09,1.48s1.05,1.36,1.38,2.2c.33.84.49,1.75.49,2.71s-.17,1.86-.49,2.68c-.33.83-.79,1.55-1.37,2.18-.58.62-1.27,1.11-2.06,1.47-.79.35-1.65.53-2.58.53-1.62,0-2.97-.56-4.05-1.67v7.74ZM212.71,158.68c0-.4-.07-.79-.22-1.15-.14-.36-.35-.68-.62-.95-.27-.27-.59-.48-.95-.64-.36-.16-.76-.24-1.18-.24s-.78.08-1.14.23-.66.36-.92.63c-.26.27-.47.59-.63.95-.16.36-.24.75-.24,1.15s.08.78.23,1.14.36.66.63.92c.27.26.59.47.95.63.36.16.75.24,1.15.24s.79-.08,1.14-.23.66-.36.92-.63.47-.58.63-.94c.16-.35.24-.72.24-1.11Z"/>
    <path class="cls-2" d="M224.68,152.15v7.31c0,1.6.78,2.4,2.33,2.4s2.33-.8,2.33-2.4v-7.31h4.58v8.2c0,1.76-.58,3.07-1.73,3.95-1.16.88-2.88,1.32-5.18,1.32s-4.02-.44-5.18-1.32c-1.16-.88-1.73-2.19-1.73-3.95v-8.2h4.58Z"/>
    <path class="cls-2" d="M242.14,155.97v9.16h-4.58v-9.16h-1.52v-3.82h1.52v-3.9h4.58v3.9h2.61v3.82h-2.61Z"/>
    <path class="cls-2" d="M250.85,159.41c0,1.97.93,2.96,2.78,2.96,1,0,1.75-.41,2.25-1.22h4.43c-.89,2.97-3.13,4.45-6.71,4.45-1.1,0-2.1-.16-3.01-.49-.91-.33-1.69-.8-2.34-1.41s-1.15-1.33-1.51-2.18c-.35-.84-.53-1.79-.53-2.83s.17-2.05.51-2.92c.34-.87.82-1.61,1.44-2.21.62-.61,1.38-1.08,2.27-1.4s1.89-.49,3-.49,2.08.17,2.96.49c.88.33,1.62.81,2.23,1.43.61.62,1.07,1.39,1.39,2.29.32.9.48,1.92.48,3.05v.48h-9.64ZM256.22,156.75c-.15-.64-.46-1.16-.94-1.54s-1.05-.58-1.72-.58-1.29.19-1.73.56c-.45.37-.73.9-.85,1.57h5.24Z"/>
    <path class="cls-2" d="M263.1,152.15h4.58v2.13c.49-.78,1.09-1.37,1.8-1.78s1.54-.62,2.48-.62h.39c.14,0,.31.02.49.05v4.38c-.61-.3-1.27-.45-1.97-.45-1.06,0-1.86.32-2.39.95-.53.63-.8,1.56-.8,2.77v5.57h-4.58v-12.98Z"/>
    <path class="cls-2" d="M288.86,146.05v19.08h-4.96v-19.08h4.96Z"/>
    <path class="cls-2" d="M292.43,152.15h4.58v1.65c.62-.76,1.26-1.27,1.9-1.53.64-.26,1.39-.39,2.25-.39.91,0,1.69.15,2.34.44s1.2.71,1.66,1.25c.37.44.62.93.76,1.47.13.54.2,1.16.2,1.85v8.25h-4.58v-6.55c0-.64-.05-1.16-.14-1.56-.09-.4-.26-.71-.49-.95-.2-.2-.43-.34-.68-.43s-.52-.13-.81-.13c-.78,0-1.37.23-1.78.7s-.62,1.13-.62,1.99v6.93h-4.58v-12.98Z"/>
    <path class="cls-2" d="M314.35,155.97v9.16h-4.58v-9.16h-1.52v-3.82h1.52v-3.9h4.58v3.9h2.61v3.82h-2.61Z"/>
    <path class="cls-2" d="M323.05,159.41c0,1.97.93,2.96,2.78,2.96,1,0,1.75-.41,2.25-1.22h4.43c-.89,2.97-3.13,4.45-6.71,4.45-1.1,0-2.1-.16-3.01-.49-.91-.33-1.69-.8-2.34-1.41s-1.15-1.33-1.51-2.18c-.35-.84-.53-1.79-.53-2.83s.17-2.05.51-2.92c.34-.87.82-1.61,1.44-2.21.62-.61,1.38-1.08,2.27-1.4s1.89-.49,3-.49,2.08.17,2.96.49c.88.33,1.62.81,2.23,1.43.61.62,1.07,1.39,1.39,2.29.32.9.48,1.92.48,3.05v.48h-9.64ZM328.42,156.75c-.15-.64-.46-1.16-.94-1.54s-1.05-.58-1.72-.58-1.29.19-1.73.56c-.45.37-.73.9-.85,1.57h5.24Z"/>
    <path class="cls-2" d="M335.3,152.15h4.58v2.13c.49-.78,1.09-1.37,1.8-1.78s1.54-.62,2.48-.62h.39c.14,0,.31.02.49.05v4.38c-.61-.3-1.27-.45-1.97-.45-1.06,0-1.86.32-2.39.95-.53.63-.8,1.56-.8,2.77v5.57h-4.58v-12.98Z"/>
    <path class="cls-2" d="M357.27,152.15h4.61v12.98h-4.61v-1.44c-.98,1.23-2.3,1.85-3.97,1.85-.94,0-1.81-.17-2.61-.52-.79-.34-1.49-.83-2.08-1.45s-1.05-1.36-1.38-2.2c-.33-.84-.49-1.76-.49-2.76,0-.93.16-1.81.48-2.65.32-.83.77-1.56,1.34-2.19.57-.62,1.26-1.12,2.05-1.48.79-.36,1.67-.54,2.63-.54,1.62,0,2.96.57,4.02,1.7v-1.29ZM351.5,158.6c0,.42.08.81.23,1.18s.36.68.62.95.57.48.94.63c.36.15.75.23,1.18.23s.79-.08,1.15-.23c.36-.15.68-.36.94-.63s.47-.58.63-.94c.16-.35.24-.73.24-1.14s-.08-.79-.24-1.15c-.16-.36-.37-.68-.63-.95s-.57-.48-.94-.63c-.36-.15-.75-.23-1.15-.23s-.81.08-1.18.23c-.36.15-.68.36-.94.63s-.47.58-.62.92-.23.72-.23,1.13Z"/>
    <path class="cls-2" d="M374.78,156.35c-.79-.54-1.59-.81-2.41-.81-.44,0-.85.08-1.23.23s-.71.37-1,.65c-.29.28-.51.61-.67.99-.16.38-.24.81-.24,1.28s.08.87.24,1.25c.16.38.38.71.66.99.28.28.61.49,1,.65s.8.23,1.24.23c.86,0,1.66-.3,2.41-.89v3.9c-1.13.49-2.2.73-3.21.73-.94,0-1.84-.16-2.69-.48-.85-.32-1.6-.78-2.25-1.38s-1.17-1.32-1.56-2.15c-.39-.83-.58-1.77-.58-2.8s.19-1.97.56-2.82c.37-.85.88-1.59,1.52-2.2s1.41-1.1,2.29-1.44c.89-.34,1.83-.52,2.85-.52,1.11,0,2.14.24,3.09.71v3.9Z"/>
    <path class="cls-2" d="M382.5,155.97v9.16h-4.58v-9.16h-1.52v-3.82h1.52v-3.9h4.58v3.9h2.61v3.82h-2.61Z"/>
    <path class="cls-2" d="M386.88,147.16c0-.35.07-.69.2-1,.13-.31.32-.59.56-.82.23-.24.51-.42.82-.56.31-.13.65-.2,1-.2s.69.07,1,.2c.31.14.59.32.82.56s.42.51.56.82c.13.31.2.65.2,1s-.07.69-.2,1c-.14.31-.32.59-.56.82s-.51.42-.82.56c-.31.14-.65.2-1,.2s-.69-.07-1-.2c-.31-.13-.59-.32-.82-.56-.24-.24-.42-.51-.56-.82-.14-.31-.2-.64-.2-1ZM391.76,152.15v12.98h-4.58v-12.98h4.58Z"/>
    <path class="cls-2" d="M394.39,158.53c0-.96.19-1.86.58-2.69.39-.83.93-1.56,1.62-2.18.69-.61,1.51-1.1,2.47-1.45s2-.53,3.13-.53,2.15.17,3.1.52c.95.34,1.78.83,2.48,1.44.7.62,1.24,1.35,1.63,2.2s.58,1.79.58,2.82-.2,1.97-.59,2.82c-.4.85-.94,1.59-1.63,2.2-.69.62-1.52,1.09-2.49,1.43s-2.02.51-3.15.51-2.14-.17-3.09-.51-1.76-.82-2.44-1.44c-.68-.62-1.22-1.37-1.61-2.24-.39-.87-.58-1.83-.58-2.9ZM399.23,158.58c0,.44.08.84.24,1.2.16.36.37.68.63.95s.57.48.94.63c.36.15.75.23,1.15.23s.79-.08,1.15-.23c.36-.15.68-.36.94-.63.26-.27.47-.59.63-.95.16-.36.24-.76.24-1.18s-.08-.79-.24-1.15c-.16-.36-.37-.68-.63-.95-.26-.27-.57-.48-.94-.63-.36-.15-.75-.23-1.15-.23s-.79.08-1.15.23c-.36.15-.68.36-.94.63s-.47.58-.63.94c-.16.35-.24.73-.24,1.14Z"/>
    <path class="cls-2" d="M412.61,152.15h4.58v1.65c.62-.76,1.26-1.27,1.9-1.53.64-.26,1.39-.39,2.25-.39.91,0,1.69.15,2.34.44s1.2.71,1.66,1.25c.37.44.62.93.76,1.47.13.54.2,1.16.2,1.85v8.25h-4.58v-6.55c0-.64-.05-1.16-.14-1.56-.09-.4-.26-.71-.49-.95-.2-.2-.43-.34-.68-.43s-.52-.13-.81-.13c-.78,0-1.37.23-1.78.7s-.62,1.13-.62,1.99v6.93h-4.58v-12.98Z"/>
    <path class="cls-2" d="M12.45,121.01h-6.76v3.66h6.39v4.82h-6.39v3.77h6.76v4.82H0v-21.88h12.45v4.82Z"/>
    <path class="cls-2" d="M21.3,113.99v24.09h-5.25v-24.09h5.25Z"/>
    <path class="cls-2" d="M29.63,131.52c0,2.26,1.06,3.4,3.19,3.4,1.14,0,2-.46,2.58-1.39h5.08c-1.03,3.41-3.59,5.11-7.69,5.11-1.26,0-2.41-.19-3.45-.57-1.04-.38-1.94-.91-2.68-1.61-.74-.7-1.32-1.53-1.73-2.5-.41-.97-.61-2.05-.61-3.25s.19-2.36.58-3.35c.39-1,.94-1.84,1.65-2.54s1.58-1.23,2.6-1.61c1.02-.38,2.16-.57,3.44-.57s2.39.19,3.39.57c1.01.38,1.86.92,2.55,1.64.7.72,1.23,1.59,1.6,2.63.37,1.04.55,2.2.55,3.5v.55h-11.06ZM35.78,128.47c-.17-.74-.53-1.33-1.07-1.77-.54-.44-1.2-.67-1.97-.67-.81,0-1.47.21-1.99.64-.51.43-.84,1.03-.97,1.8h6.01Z"/>
    <path class="cls-2" d="M47.1,123.19l3.54,7.63,3.6-7.63h5.86l-7.75,14.89h-3.51l-7.66-14.89h5.92Z"/>
    <path class="cls-2" d="M65.94,131.52c0,2.26,1.06,3.4,3.19,3.4,1.14,0,2-.46,2.58-1.39h5.08c-1.03,3.41-3.59,5.11-7.69,5.11-1.26,0-2.41-.19-3.45-.57-1.04-.38-1.94-.91-2.68-1.61-.74-.7-1.32-1.53-1.73-2.5-.41-.97-.61-2.05-.61-3.25s.19-2.36.58-3.35c.39-1,.94-1.84,1.65-2.54s1.58-1.23,2.6-1.61c1.02-.38,2.16-.57,3.44-.57s2.39.19,3.39.57c1.01.38,1.86.92,2.55,1.64.7.72,1.23,1.59,1.6,2.63.37,1.04.55,2.2.55,3.5v.55h-11.06ZM72.09,128.47c-.17-.74-.53-1.33-1.07-1.77-.54-.44-1.2-.67-1.97-.67-.81,0-1.47.21-1.99.64-.51.43-.84,1.03-.97,1.8h6.01Z"/>
    <path class="cls-2" d="M79.98,123.19h5.25v1.89c.72-.87,1.44-1.46,2.18-1.76.73-.3,1.6-.45,2.58-.45,1.04,0,1.94.17,2.68.51.74.34,1.38.82,1.9,1.44.43.5.72,1.06.87,1.68.15.62.23,1.33.23,2.12v9.46h-5.25v-7.52c0-.74-.05-1.33-.16-1.78s-.29-.82-.57-1.09c-.23-.23-.49-.4-.78-.49-.29-.1-.6-.15-.93-.15-.89,0-1.57.27-2.05.8s-.71,1.29-.71,2.28v7.95h-5.25v-14.89Z"/>
    <path class="cls-2" d="M105.11,127.57v10.51h-5.25v-10.51h-1.74v-4.38h1.74v-4.47h5.25v4.47h2.99v4.38h-2.99Z"/>
    <path class="cls-2" d="M110.74,113.99h5.25v11.09c.72-.87,1.44-1.46,2.18-1.76.73-.3,1.6-.45,2.58-.45,1.88,0,3.29.52,4.25,1.55.96,1.04,1.44,2.43,1.44,4.19v9.46h-5.25v-7.52c0-.75-.06-1.36-.17-1.83s-.31-.82-.58-1.07c-.46-.41-1.03-.61-1.68-.61-.89,0-1.57.27-2.05.8s-.71,1.29-.71,2.28v7.95h-5.25v-24.09Z"/>
    <g>
      <path class="cls-1" d="M69.71,60.06c-2.54-3.23-5.03-6.51-7.57-9.74-1.53-1.95-1.57-2.29-.11-4.32,10.68-14.88,21.36-29.75,32.04-44.62.2-.28.52-.59.38-.91-.17-.38-.63-.19-.96-.2-7.91,0-15.83,0-23.74-.02-.68,0-1.12.19-1.52.75-5.1,7.07-10.23,14.12-15.35,21.18-1.59,2.2-3.2,4.38-4.77,6.59-.4.56-.7.59-1.1.06-.48-.62-1-1.22-1.46-1.86-6.29-8.66-12.58-17.31-18.85-25.98-.38-.53-.76-.74-1.43-.74-5.9.03-11.8.02-17.69.02H.06c.33.48.54.82.78,1.14,5.34,7.44,10.67,14.88,16.01,22.31,5.68,7.91,11.36,15.81,17.05,23.71.34.48.46.8.03,1.35-2.88,3.67-5.71,7.39-8.57,11.07-.28.37-.44.71-.39,1.19.31,3.03.58,6.07.9,9.1.32,3.03.71,6.06,1.03,9.09.44,4.23.81,8.46,1.29,12.68.11.91-.08,1.91.47,2.82,1.26-1.27,2.26-2.69,3.23-4.11,2.36-3.44,4.64-6.93,6.97-10.39,2.45-3.65,4.93-7.28,7.39-10.93.93-1.37,1.2-1.39,2.28-.13.08.09.17.17.23.26,1.81,2.67,3.62,5.34,5.42,8.02,2.26,3.35,4.47,6.72,6.77,10.04,1.53,2.22,2.95,4.51,4.68,6.6.17.21.15.66.55.57.41-.09.3-.51.33-.81.37-3.7.72-7.41,1.1-11.12.45-4.36.91-8.72,1.38-13.07.27-2.51.6-5.02.81-7.53.05-.67.47-1.37-.09-2.08Z"/>
      <path class="cls-1" d="M23.03,72.47c-.32-3.13-.59-6.27-.9-9.4-.27-2.72-.58-5.44-.86-8.16-.31-2.98-.6-5.97-.91-8.95-.4-3.91-.79-7.82-1.25-11.73-.11-.93.11-1.92-.54-2.78C13.1,24.19,7.66,16.9,2.2,9.64c-.63-.83-1.15-1.77-2.12-2.63.16,1.84.31,3.45.45,5.07.29-.2.26.03.26.2,0,.93.02,1.87.02,2.8.27,3.34.53,6.68.81,10.02.26,3.11.52,6.22.79,9.33.26,3.05.51,6.1.77,9.15.27,3.14.55,6.27.81,9.41.2,2.44.37,4.88.58,7.32.26,3.11.56,6.21.83,9.31.2,2.29.38,4.59.58,6.88.04.47.18.87.57,1.22,6.03,5.46,12.04,10.94,18.06,16.4.17.16.3.45.66.34-.35-3.57-.69-7.13-1.05-10.69-.38-3.77-.8-7.53-1.18-11.3Z"/>
      <path class="cls-1" d="M94.7,7.28c-.36,0-.44.26-.56.43-5.9,7.89-11.79,15.78-17.7,23.67-.28.37-.43.75-.48,1.19-.28,2.84-.56,5.68-.84,8.52.2,2.04-.33,4.03-.46,6.04-.08,1.17-.23,2.35-.28,3.54,0,.21-.04.41-.27.49-.06.37-.13.75-.16,1.12-.32,3.13-.63,6.26-.95,9.39-.33,3.13-.68,6.25-1,9.38-.34,3.33-.66,6.66-1,10-.37,3.62-.76,7.24-1.09,10.87-.08.83-.36,1.68-.1,2.66,1.55-1.41,3.04-2.71,4.48-4.07,2.28-2.16,4.63-4.24,6.95-6.36,2.31-2.11,4.63-4.21,6.97-6.28.46-.41.72-.88.76-1.56.16-2.47.42-4.93.64-7.4.19-2.18.39-4.35.57-6.53.28-3.37.53-6.74.81-10.11.3-3.63.64-7.26.94-10.89.27-3.22.53-6.45.8-9.67.31-3.66.64-7.32.95-10.98.28-3.25.55-6.51.8-9.76.1-1.23.36-2.45.22-3.7Z"/>
    </g>
    <polygon class="cls-2" points="123.19 35.25 133.48 61.66 138.23 61.66 149.06 35.25 153.02 61.66 164.89 61.66 157.1 15.77 145.29 15.77 136.16 40.24 126.97 15.77 115.16 15.77 107.37 61.66 119.23 61.66 123.19 35.25"/>
    <path class="cls-2" d="M173.44,58.26c1.56,1.46,3.44,2.59,5.63,3.38,2.19.79,4.61,1.19,7.24,1.19,8.6,0,13.98-3.57,16.13-10.71h-10.65c-1.22,1.95-3.02,2.92-5.42,2.92-4.46,0-6.7-2.37-6.7-7.12h23.19v-1.16c0-2.72-.39-5.16-1.16-7.33-.77-2.17-1.89-4.01-3.35-5.51-1.46-1.5-3.25-2.65-5.36-3.44-2.11-.79-4.48-1.19-7.12-1.19s-5.08.4-7.21,1.19c-2.13.79-3.95,1.92-5.45,3.38-1.5,1.46-2.66,3.24-3.47,5.33-.81,2.09-1.22,4.43-1.22,7.03s.43,4.79,1.28,6.82c.85,2.03,2.06,3.77,3.62,5.23ZM182.02,37.74c1.08-.89,2.47-1.34,4.17-1.34s3,.47,4.14,1.4c1.14.93,1.89,2.17,2.25,3.71h-12.6c.28-1.62.96-2.88,2.04-3.77Z"/>
    <polygon class="cls-2" points="218.27 61.66 226.3 52.41 234.28 61.66 248.89 61.66 233.24 44.74 246.21 30.44 231.84 30.44 226.36 36.89 221.01 30.44 206.64 30.44 219.3 44.74 203.72 61.66 218.27 61.66"/>
    <rect class="cls-2" x="253.69" y="15.77" width="11.93" height="45.9"/>
    <polygon class="cls-2" points="287.17 42.73 304.4 42.73 304.4 61.66 316.33 61.66 316.33 15.77 304.4 15.77 304.4 33.48 287.17 33.48 287.17 15.77 275.24 15.77 275.24 61.66 287.17 61.66 287.17 42.73"/>
    <path class="cls-2" d="M331.21,56.09c2.21,2.17,4.77,3.86,7.67,5.05,2.9,1.2,5.94,1.8,9.1,1.8,1.54,0,3.1-.15,4.69-.46,1.58-.3,3.29-.78,5.11-1.43l1.22-.43v-14.12c-3.04,3.25-6.47,4.87-10.29,4.87-1.74,0-3.37-.32-4.87-.97-1.5-.65-2.81-1.54-3.93-2.68-1.12-1.14-1.99-2.47-2.62-4.02-.63-1.54-.94-3.23-.94-5.05s.31-3.45.94-4.99c.63-1.54,1.49-2.87,2.59-3.99,1.1-1.12,2.4-2,3.93-2.65,1.52-.65,3.18-.97,4.96-.97,4.06,0,7.47,1.68,10.23,5.05v-14.24c-1.95-.81-3.8-1.41-5.57-1.8-1.77-.39-3.56-.58-5.39-.58-3.21,0-6.27.6-9.19,1.8-2.92,1.2-5.49,2.86-7.7,4.99-2.21,2.13-3.98,4.67-5.3,7.61-1.32,2.94-1.98,6.18-1.98,9.71s.67,6.79,2.01,9.77c1.34,2.98,3.11,5.56,5.33,7.73Z"/>
    <path class="cls-1" d="M387.95,81.31c-29.79-4.04-54.22-10.13-84.77-5.02-27.09,4.53-52.24,18.5-79.81,19.67-23.92,1.02-43.27-6.81-65.93-12.83-16.38-4.35-33.33-6.52-50.07-3.94,9.69.08,19.15.39,28.72,2.36,12.77,2.62,25.07,8.46,37.57,12.4,36.68,11.54,75.4,11.23,112.1,0,10.18-3.11,20.32-7.82,30.56-10.42,34.25-8.7,70.64,4.51,105.31.99l3.51-.78c-12.44.25-24.83-.74-37.17-2.42Z"/>
    <path class="cls-1" d="M157.1,77.03c-.08.69.76.37,1.16.39,4.95.24,9.38.41,14.3,1.25,10.41,1.78,20.5,5.65,30.87,7.69,15.05,2.97,29.21,2.59,44.19-.78l6.27-1.85c-10.97.68-21.94-.54-32.87-1.98-9.58-1.26-19.11-3.26-28.71-4.33-11.77-1.31-23.42-1.68-35.21-.39Z"/>
    <path class="cls-1" d="M387.73,58.69c-.58.78-1.31,1.69-2.17,2.75l-8.78,10.63h16.99v-3.59h-9.42l3.93-4.65c1.09-1.29,2-2.4,2.71-3.35.72-.94,1.26-1.76,1.63-2.45.73-1.32,1.1-2.67,1.1-4.05,0-2.16-.79-3.97-2.36-5.44-1.56-1.46-3.49-2.19-5.8-2.19-4.77,0-7.46,2.66-8.08,7.99h3.8c.37-3.02,1.83-4.54,4.39-4.54,1.22,0,2.25.4,3.08,1.2.83.8,1.24,1.79,1.24,2.96,0,.82-.31,1.74-.93,2.77-.31.52-.75,1.17-1.34,1.95Z"/>
    <path class="cls-1" d="M410.42,70.04c1.73,1.63,3.73,2.44,6.03,2.44s4.3-.82,5.95-2.47c1.66-1.66,2.49-3.65,2.49-5.96,0-2.18-.74-4.05-2.23-5.6-1.5-1.57-3.27-2.36-5.32-2.36-.13,0-.31.01-.54.03-.23.02-.51.05-.84.1l6.04-8.22-2.8-2.1-8.84,12.01c-1.65,2.24-2.47,4.36-2.47,6.36,0,2.23.85,4.15,2.54,5.78ZM412.99,60.87c.93-.93,2.06-1.39,3.39-1.39s2.45.47,3.39,1.41c.93.93,1.39,2.06,1.39,3.41s-.47,2.39-1.41,3.33c-.93.93-2.05,1.39-3.36,1.39s-2.48-.46-3.41-1.39c-.93-.93-1.39-2.05-1.39-3.37s.46-2.45,1.39-3.37Z"/>
    <path class="cls-2" d="M413.95,9.04c-.74-1.67-.82-3.53.29-5.06,1.53,1.31,2.11,3.1,1.59,5.06,3.92-2.68.74-7.38-2.42-9.04-1.73,2.48-3.47,7.8.53,9.04Z"/>
    <path class="cls-2" d="M386.23,9.16c-.59-1.22-.75-2.52-.36-3.83.37-1.23.51-1.43,1.35-.4,1.01,1.24,1.28,2.7.78,4.23,1.08-.38,1.82-1.79,1.89-2.88.1-1.51-.75-2.97-1.71-4.07-.35-.4-2.13-2.1-2.57-1.99-.49.47-.84,1.34-1.08,1.99-.94,2.5-1.51,5.97,1.71,6.94Z"/>
    <path class="cls-1" d="M390.13,31.92c1.11-1.31,2.04-2.46,2.77-3.42.77-1.02,1.35-1.89,1.76-2.65.87-1.56,1.3-3.19,1.3-4.84,0-2.63-.97-4.86-2.88-6.64-1.56-1.46-3.44-2.31-5.59-2.56,0-1.24-.04-2.44-.33-3.68-.07-.28,0-.72-.41-.62-.2.05-.35,2.55-.44,4.22-.05,0-.1,0-.15,0-3.93,0-8.81,1.64-9.71,9.45l-.21,1.83h7.1l.18-1.44c.33-2.72,1.52-3.09,2.76-3.09.8,0,1.42.23,1.94.74.51.48.74,1.05.74,1.78,0,.5-.24,1.17-.71,1.94-.28.47-.69,1.07-1.23,1.79h0c-.57.76-1.29,1.66-2.12,2.69l-11,13.32h22.12v-6.88h-7.52l1.64-1.94Z"/>
    <path class="cls-1" d="M422.2,15.63c-1.82-2.35-4.05-3.64-6.63-3.85,0-1.22-.04-2.42-.33-3.64-.07-.28,0-.72-.41-.62-.2.05-.35,2.57-.45,4.24-2.74.12-5.1,1.41-7,3.87-2.1,2.69-3.17,6.27-3.17,10.66s1.06,8.28,3.17,10.97c2.02,2.58,4.52,3.89,7.42,3.89s5.39-1.31,7.39-3.89c2.1-2.69,3.17-6.32,3.17-10.81s-1.07-8.14-3.16-10.82ZM417.06,32.52c-1.01,1.87-1.96,1.87-2.27,1.87-.35,0-1.27,0-2.26-1.85-.84-1.61-1.27-3.71-1.27-6.23s.43-4.41,1.27-5.96h0c1.01-1.86,1.95-1.86,2.26-1.86.35,0,1.26,0,2.27,1.85.85,1.57,1.28,3.63,1.28,6.1s-.43,4.52-1.28,6.08Z"/>
  </g>
</svg>