<?xml version="1.0" encoding="UTF-8"?>
<svg id="Capa_2" data-name="Capa 2" xmlns="http://www.w3.org/2000/svg" viewBox="0 0 82.72 21.72">
  <defs>
    <style>
      .cls-1 {
        fill: #8a174f;
      }
    </style>
  </defs>
  <g id="Layer_1" data-name="Layer 1">
    <g>
      <path d="M0,.7c.58,0,1.13,0,1.67,0,1.31,0,2.62,0,3.94,0,.15,0,.23.05.32.16,1.39,1.93,2.79,3.85,4.19,5.78.1.14.22.27.32.41.09.12.16.11.25-.01.35-.49.71-.98,1.06-1.47,1.14-1.57,2.28-3.14,3.41-4.71.09-.12.19-.17.34-.17,1.76,0,3.52,0,5.28,0,.07,0,.18-.04.21.04.03.07-.04.14-.08.2-2.38,3.31-4.75,6.62-7.13,9.93-.32.45-.31.53.03.96.56.72,1.12,1.45,1.68,2.17.12.16.03.31.02.46-.05.56-.12,1.12-.18,1.68-.1.97-.21,1.94-.31,2.91-.08.82-.16,1.65-.25,2.47,0,.07.02.16-.07.18-.09.02-.08-.08-.12-.13-.38-.46-.7-.97-1.04-1.47-.51-.74-1-1.49-1.51-2.23-.4-.6-.8-1.19-1.21-1.78-.01-.02-.03-.04-.05-.06-.24-.28-.3-.28-.51.03-.55.81-1.1,1.62-1.64,2.43-.52.77-1.03,1.55-1.55,2.31-.22.32-.44.63-.72.92-.12-.2-.08-.42-.1-.63-.11-.94-.19-1.88-.29-2.82-.07-.67-.16-1.35-.23-2.02-.07-.67-.13-1.35-.2-2.02-.01-.11.02-.18.09-.26.64-.82,1.26-1.65,1.91-2.46.1-.12.07-.19,0-.3-1.27-1.76-2.53-3.52-3.79-5.27C2.55,4.26,1.36,2.61.17.96c-.05-.07-.1-.15-.17-.25Z"/>
      <path d="M.1,3.33c-.03-.36-.06-.72-.1-1.13.22.19.33.4.47.59,1.22,1.62,2.43,3.24,3.64,4.85.14.19.1.41.12.62.1.87.19,1.74.28,2.61.07.66.13,1.33.2,1.99.06.61.13,1.21.19,1.82.07.7.13,1.39.2,2.09.08.84.18,1.68.26,2.51.08.79.16,1.58.23,2.38-.08.03-.11-.04-.15-.08-1.34-1.22-2.68-2.43-4.02-3.65-.09-.08-.12-.17-.13-.27-.04-.51-.08-1.02-.13-1.53-.06-.69-.13-1.38-.18-2.07-.05-.54-.08-1.09-.13-1.63-.06-.7-.12-1.4-.18-2.09-.06-.68-.11-1.36-.17-2.04-.06-.69-.12-1.38-.18-2.07-.06-.74-.12-1.49-.18-2.23,0-.21,0-.42,0-.62,0-.04,0-.09-.06-.04Z"/>
      <path d="M16.7,9.78c.06-.63.13-1.26.19-1.89,0-.1.05-.18.11-.27,1.31-1.75,2.62-3.51,3.94-5.26.03-.04.04-.1.13-.1.03.28-.03.55-.05.82-.06.72-.12,1.45-.18,2.17-.07.81-.14,1.63-.21,2.44-.06.72-.12,1.43-.18,2.15-.07.81-.14,1.61-.21,2.42-.06.75-.12,1.5-.18,2.25-.04.48-.08.97-.13,1.45-.05.55-.11,1.1-.14,1.65,0,.15-.07.26-.17.35-.52.46-1.04.93-1.55,1.4-.52.47-1.04.94-1.55,1.42-.32.3-.65.59-1,.9-.06-.22,0-.41.02-.59.07-.81.16-1.61.24-2.42.07-.74.15-1.48.22-2.22.07-.7.15-1.39.22-2.09.07-.7.14-1.39.21-2.09,0-.08.02-.17.04-.25.05-.02.06-.06.06-.11.01-.26.05-.53.06-.79.03-.45.15-.89.1-1.34Z"/>
    </g>
    <g>
      <polygon class="cls-1" points="33.88 .29 31.8 5.88 29.69 .29 27 .29 25.22 10.78 27.93 10.78 28.83 4.74 31.18 10.78 32.27 10.78 34.74 4.74 35.65 10.78 38.36 10.78 36.58 .29 33.88 .29"/>
      <path class="cls-1" d="M46.94,8.6h-2.43c-.28.45-.69.67-1.24.67-1.02,0-1.53-.54-1.53-1.63h5.3v-.26c0-.62-.09-1.18-.26-1.68-.18-.5-.43-.92-.76-1.26-.33-.34-.74-.61-1.22-.79-.48-.18-1.02-.27-1.63-.27s-1.16.09-1.65.27c-.49.18-.9.44-1.24.77-.34.33-.61.74-.79,1.22-.19.48-.28,1.01-.28,1.61s.1,1.09.29,1.56c.19.46.47.86.83,1.2.36.33.79.59,1.29.77.5.18,1.05.27,1.66.27,1.97,0,3.19-.82,3.69-2.45ZM42.28,5.31c.25-.2.56-.31.95-.31s.69.11.95.32c.26.21.43.5.51.85h-2.88c.06-.37.22-.66.47-.86Z"/>
      <polygon class="cls-1" points="56.94 3.64 53.66 3.64 52.41 5.12 51.19 3.64 47.9 3.64 50.8 6.91 47.23 10.78 50.56 10.78 52.4 8.67 54.22 10.78 57.56 10.78 53.98 6.91 56.94 3.64"/>
      <rect class="cls-1" x="58.65" y=".29" width="2.73" height="10.49"/>
      <polygon class="cls-1" points="72.97 10.78 72.97 .29 70.24 .29 70.24 4.34 66.3 4.34 66.3 .29 63.58 .29 63.58 10.78 66.3 10.78 66.3 6.45 70.24 6.45 70.24 10.78 72.97 10.78"/>
      <path class="cls-1" d="M78.35,3.47c.25-.25.55-.46.9-.61.35-.15.73-.22,1.13-.22.93,0,1.71.38,2.34,1.15V.54c-.45-.19-.87-.32-1.27-.41-.4-.09-.81-.13-1.23-.13-.73,0-1.43.14-2.1.41-.67.27-1.25.65-1.76,1.14-.51.49-.91,1.07-1.21,1.74-.3.67-.45,1.41-.45,2.22s.15,1.55.46,2.23c.31.68.71,1.27,1.22,1.77.51.5,1.09.88,1.75,1.15.66.27,1.36.41,2.08.41.35,0,.71-.03,1.07-.1.36-.07.75-.18,1.17-.33l.28-.1v-3.23c-.7.74-1.48,1.11-2.35,1.11-.4,0-.77-.07-1.11-.22-.34-.15-.64-.35-.9-.61-.26-.26-.45-.57-.6-.92-.14-.35-.22-.74-.22-1.15s.07-.79.22-1.14c.14-.35.34-.66.59-.91Z"/>
      <path d="M35.95,17.49c.3-.36.55-.67.75-.93.2-.26.35-.49.45-.68.2-.37.31-.74.31-1.12,0-.6-.22-1.11-.66-1.51-.43-.41-.97-.61-1.61-.61-1.33,0-2.08.74-2.25,2.22h1.06c.1-.84.51-1.26,1.22-1.26.34,0,.63.11.86.33.23.22.35.5.35.82,0,.23-.09.48-.26.77-.09.15-.21.33-.37.54-.16.22-.36.47-.6.77l-2.44,2.96h4.72v-1h-2.62l1.09-1.29Z"/>
      <path d="M48.19,12.63c-.66,0-1.23.3-1.7.91-.52.67-.78,1.56-.78,2.68,0,1.18.26,2.1.78,2.77.47.6,1.04.91,1.7.91s1.23-.3,1.69-.91c.52-.67.78-1.58.78-2.72s-.26-2.06-.78-2.73c-.47-.6-1.03-.91-1.7-.91ZM49.22,18.17c-.27.51-.62.76-1.03.76s-.76-.25-1.03-.76c-.27-.52-.41-1.16-.41-1.94s.14-1.38.41-1.88c.27-.5.62-.76,1.03-.76s.76.25,1.03.76c.27.51.41,1.14.41,1.91s-.14,1.4-.41,1.91Z"/>
      <path d="M61.51,17.49c.3-.36.55-.67.75-.93.2-.26.35-.49.45-.68.2-.37.31-.74.31-1.12,0-.6-.22-1.11-.66-1.51-.43-.41-.97-.61-1.61-.61-1.33,0-2.08.74-2.25,2.22h1.06c.1-.84.51-1.26,1.22-1.26.34,0,.63.11.86.33.23.22.35.5.35.82,0,.23-.09.48-.26.77-.09.15-.21.33-.37.54-.16.22-.36.47-.6.77l-2.44,2.96h4.72v-1h-2.62l1.09-1.29Z"/>
      <path d="M75.43,15.33s-.09,0-.15,0c-.06,0-.14.02-.23.03l1.68-2.29-.78-.58-2.46,3.34c-.46.62-.69,1.21-.69,1.77,0,.62.24,1.16.71,1.61.48.45,1.04.68,1.68.68s1.19-.23,1.65-.69c.46-.46.69-1.01.69-1.66,0-.61-.21-1.13-.62-1.56-.42-.44-.91-.66-1.48-.66ZM76.11,18.54c-.26.26-.57.39-.93.39s-.69-.13-.95-.39c-.26-.26-.39-.57-.39-.94s.13-.68.39-.94c.26-.26.57-.39.94-.39s.68.13.94.39c.26.26.39.57.39.95s-.13.66-.39.92Z"/>
    </g>
  </g>
</svg>