<?xml version="1.0" encoding="UTF-8"?>
<svg id="Capa_2" data-name="Capa 2" xmlns="http://www.w3.org/2000/svg" viewBox="0 0 426.32 150.69">
  <defs>
    <style>
      .cls-1 {
        fill: #fff;
      }
    </style>
  </defs>
  <g id="Layer_1" data-name="Layer 1">
    <g>
      <g>
        <g>
          <path class="cls-1" d="M0,52.04c1.91,0,3.7,0,5.49,0,4.3,0,8.6,0,12.91-.01.48,0,.76.15,1.04.54,4.57,6.33,9.16,12.64,13.75,18.95.34.46.71.9,1.06,1.35.3.39.52.37.81-.04,1.14-1.61,2.31-3.21,3.48-4.81,3.73-5.15,7.47-10.29,11.2-15.45.29-.41.61-.55,1.11-.54,5.77.02,11.54,0,17.32.02.24,0,.58-.13.7.14.11.24-.13.46-.28.66-7.79,10.85-15.58,21.7-23.37,32.55-1.07,1.48-1.03,1.73.08,3.15,1.85,2.36,3.67,4.75,5.52,7.11.41.52.11,1.03.07,1.52-.15,1.84-.39,3.66-.59,5.49-.34,3.18-.68,6.36-1,9.54-.28,2.7-.53,5.41-.8,8.11-.02.22.05.52-.24.59-.29.07-.28-.27-.4-.42-1.26-1.52-2.29-3.2-3.41-4.81-1.68-2.42-3.29-4.88-4.94-7.33-1.31-1.95-2.63-3.9-3.95-5.85-.05-.07-.11-.13-.17-.19-.79-.92-.99-.9-1.66.1-1.79,2.66-3.6,5.31-5.39,7.97-1.7,2.52-3.36,5.07-5.08,7.58-.71,1.04-1.44,2.07-2.36,3-.4-.67-.27-1.39-.34-2.06-.35-3.08-.62-6.17-.94-9.25-.23-2.21-.52-4.42-.75-6.63-.23-2.21-.43-4.43-.66-6.64-.04-.35.08-.6.28-.87,2.08-2.69,4.15-5.4,6.25-8.08.32-.4.23-.64-.02-.99-4.15-5.76-8.3-11.53-12.44-17.3-3.89-5.42-7.79-10.85-11.68-16.28-.17-.24-.33-.48-.57-.83Z"/>
          <path class="cls-1" d="M.34,60.66c-.1-1.18-.21-2.36-.33-3.7.71.63,1.09,1.31,1.55,1.92,3.99,5.3,7.95,10.62,11.94,15.92.47.63.31,1.35.4,2.03.34,2.85.62,5.7.91,8.55.22,2.18.44,4.35.66,6.53.21,1.99.43,3.97.63,5.95.23,2.28.43,4.57.66,6.85.28,2.75.58,5.49.86,8.24.26,2.6.51,5.2.77,7.8-.26.08-.36-.13-.48-.25-4.39-3.99-8.78-7.98-13.17-11.96-.28-.26-.38-.55-.41-.89-.15-1.67-.28-3.35-.42-5.02-.2-2.26-.41-4.53-.61-6.79-.15-1.78-.27-3.56-.42-5.34-.19-2.29-.4-4.58-.59-6.86-.19-2.22-.37-4.45-.56-6.68-.19-2.27-.39-4.53-.57-6.8-.2-2.44-.39-4.88-.59-7.31,0-.68-.01-1.36-.02-2.04,0-.12.02-.29-.19-.14Z"/>
          <path class="cls-1" d="M54.75,81.82c.21-2.07.41-4.14.62-6.21.03-.33.15-.6.35-.87,4.31-5.75,8.61-11.51,12.91-17.26.09-.12.15-.32.41-.31.11.91-.09,1.8-.16,2.7-.18,2.37-.38,4.75-.59,7.12-.23,2.67-.47,5.34-.7,8.01-.2,2.35-.38,4.7-.58,7.06-.23,2.65-.47,5.29-.69,7.94-.21,2.46-.39,4.92-.59,7.37-.13,1.59-.27,3.17-.41,4.76-.16,1.8-.35,3.59-.47,5.4-.03.5-.22.84-.56,1.14-1.71,1.51-3.4,3.04-5.08,4.58-1.69,1.55-3.41,3.07-5.07,4.64-1.05.99-2.14,1.94-3.27,2.97-.19-.71.02-1.33.08-1.94.24-2.64.53-5.29.8-7.93.25-2.43.48-4.86.73-7.29.24-2.28.49-4.56.73-6.84.24-2.28.46-4.57.69-6.85.03-.27.08-.55.12-.82.17-.06.19-.2.2-.36.03-.86.15-1.73.2-2.58.09-1.47.48-2.92.33-4.41Z"/>
        </g>
        <g>
          <polygon class="cls-1" points="111.11 50.7 104.27 69.04 97.38 50.7 88.53 50.7 82.69 85.09 91.59 85.09 94.55 65.3 102.26 85.09 105.82 85.09 113.94 65.3 116.9 85.09 125.8 85.09 119.96 50.7 111.11 50.7"/>
          <path class="cls-1" d="M153.94,77.93h-7.98c-.91,1.46-2.27,2.19-4.06,2.19-3.35,0-5.02-1.78-5.02-5.34h17.38v-.87c0-2.04-.29-3.87-.87-5.5-.58-1.63-1.41-3-2.51-4.13-1.09-1.12-2.43-1.98-4.01-2.58-1.58-.59-3.36-.89-5.34-.89s-3.81.3-5.41.89c-1.6.59-2.96,1.44-4.08,2.53-1.13,1.09-1.99,2.43-2.6,3.99-.61,1.57-.91,3.32-.91,5.27s.32,3.59.96,5.11c.64,1.52,1.54,2.83,2.71,3.92,1.17,1.09,2.58,1.94,4.22,2.53,1.64.59,3.45.89,5.43.89,6.45,0,10.48-2.68,12.09-8.03ZM138.64,67.17c.81-.67,1.85-1,3.12-1s2.25.35,3.1,1.05c.85.7,1.41,1.63,1.69,2.78h-9.44c.21-1.22.72-2.16,1.53-2.83Z"/>
          <polygon class="cls-1" points="186.74 61.69 175.97 61.69 171.87 66.53 167.85 61.69 157.09 61.69 166.58 72.41 154.9 85.09 165.8 85.09 171.82 78.16 177.8 85.09 188.74 85.09 177.02 72.41 186.74 61.69"/>
          <rect class="cls-1" x="192.35" y="50.7" width="8.94" height="34.39"/>
          <polygon class="cls-1" points="239.28 85.09 239.28 50.7 230.34 50.7 230.34 63.97 217.43 63.97 217.43 50.7 208.49 50.7 208.49 85.09 217.43 85.09 217.43 70.91 230.34 70.91 230.34 85.09 239.28 85.09"/>
          <path class="cls-1" d="M256.94,61.12c.82-.84,1.8-1.5,2.94-1.98,1.14-.49,2.38-.73,3.72-.73,3.04,0,5.6,1.26,7.66,3.79v-10.67c-1.46-.61-2.85-1.06-4.17-1.35-1.32-.29-2.67-.43-4.04-.43-2.4,0-4.7.45-6.89,1.35-2.19.9-4.11,2.14-5.77,3.74-1.66,1.6-2.98,3.5-3.97,5.7-.99,2.21-1.48,4.63-1.48,7.28s.5,5.09,1.51,7.32c1,2.24,2.33,4.17,3.99,5.79,1.66,1.63,3.57,2.89,5.75,3.79,2.17.9,4.45,1.35,6.82,1.35,1.16,0,2.33-.11,3.51-.34,1.19-.23,2.46-.59,3.83-1.07l.91-.32v-10.58c-2.28,2.43-4.85,3.65-7.71,3.65-1.31,0-2.52-.24-3.65-.73-1.13-.49-2.11-1.16-2.94-2.01-.84-.85-1.49-1.85-1.96-3.01-.47-1.16-.71-2.42-.71-3.79s.24-2.58.71-3.74c.47-1.16,1.12-2.15,1.94-2.99Z"/>
          <path class="cls-1" d="M117.88,107.09c1-1.17,1.82-2.19,2.47-3.05.65-.86,1.15-1.61,1.49-2.23.67-1.2,1-2.43,1-3.69,0-1.97-.72-3.62-2.15-4.96-1.42-1.33-3.19-2-5.29-2-4.35,0-6.81,2.43-7.36,7.29h3.46c.34-2.76,1.67-4.14,4-4.14,1.11,0,2.05.36,2.81,1.09.76.73,1.14,1.63,1.14,2.7,0,.75-.28,1.59-.85,2.52-.28.48-.68,1.07-1.22,1.78-.53.71-1.19,1.54-1.98,2.51l-8.01,9.69h15.49v-3.27h-8.59l3.58-4.24Z"/>
          <path class="cls-1" d="M158.03,91.16c-2.18,0-4.04.99-5.57,2.97-1.71,2.19-2.57,5.12-2.57,8.8,0,3.86.86,6.89,2.57,9.08,1.55,1.98,3.42,2.97,5.59,2.97s4.02-.99,5.56-2.97c1.71-2.19,2.57-5.17,2.57-8.93s-.86-6.76-2.57-8.95c-1.53-1.98-3.39-2.97-5.57-2.97ZM161.42,109.32c-.9,1.66-2.03,2.49-3.39,2.49s-2.5-.83-3.39-2.49c-.89-1.69-1.33-3.82-1.33-6.38s.45-4.51,1.34-6.15c.9-1.65,2.02-2.48,3.38-2.48s2.49.83,3.39,2.48c.9,1.66,1.34,3.75,1.34,6.27s-.45,4.61-1.34,6.26Z"/>
          <path class="cls-1" d="M201.72,107.09c1-1.17,1.82-2.19,2.47-3.05.65-.86,1.15-1.61,1.49-2.23.67-1.2,1-2.43,1-3.69,0-1.97-.72-3.62-2.15-4.96-1.42-1.33-3.19-2-5.29-2-4.35,0-6.81,2.43-7.36,7.29h3.46c.34-2.76,1.67-4.14,4-4.14,1.12,0,2.05.36,2.81,1.09.76.73,1.14,1.63,1.14,2.7,0,.75-.28,1.59-.85,2.52-.28.48-.68,1.07-1.22,1.78-.53.71-1.19,1.54-1.98,2.51l-8.01,9.69h15.49v-3.27h-8.59l3.58-4.24Z"/>
          <path class="cls-1" d="M247.37,100.03c-.12,0-.28,0-.49.03-.21.02-.46.05-.76.09l5.51-7.5-2.55-1.91-8.06,10.95c-1.5,2.04-2.26,3.97-2.26,5.8,0,2.03.77,3.79,2.31,5.27,1.57,1.48,3.41,2.23,5.5,2.23s3.92-.75,5.42-2.26c1.51-1.51,2.27-3.33,2.27-5.44,0-1.99-.68-3.69-2.03-5.11-1.36-1.43-2.98-2.15-4.85-2.15ZM249.58,110.54c-.85.85-1.87,1.27-3.06,1.27s-2.26-.42-3.11-1.27c-.85-.85-1.27-1.87-1.27-3.08s.42-2.23,1.27-3.08c.85-.85,1.88-1.27,3.09-1.27s2.24.43,3.09,1.28c.85.85,1.27,1.88,1.27,3.11s-.43,2.18-1.28,3.03Z"/>
        </g>
      </g>
      <path class="cls-1" d="M387.63,25.47l1.15,10.65c13.08.45,24.12,6.28,30.77,17.63,13.09,22.36,7.93,66.63-21.77,73.38-37.76,8.57-53.4-25.29-47.96-57.62,3.2-19.06,16.27-32.96,36.28-33.2.34-3.32.37-6.99.77-10.27.07-.54.22-1.12.77-.57ZM385.22,57.69c-14.4,2-13.57,30.91-9.59,40.74,4.33,10.71,18.33,11.66,23.31,1.22,5.42-11.36,5.78-44.67-13.71-41.96Z"/>
      <path class="cls-1" d="M287.37,48.5c8.79-7.26,18.8-12.53,30.58-12.19.09-1.18.46-10.33.97-10.45.78-.19.64.63.76,1.15.73,3.11.6,6.11.61,9.28,13.04.74,24.02,8.75,26.2,21.99,3.18,19.36-14.22,34.44-26.22,46.91h27.1c-.21.49.39,1.15.39,1.35v14.9c-4.34-.31-8.64-1.17-12.97-1.55-10.3-.9-22.21-1.28-32.53-.79-6.14.29-12.23,1.66-18.37,1.95v-6c0-.81,5.23-5.17,6.21-6.17,7.61-7.81,27.59-27.95,30.87-37.26,4.73-13.44-6.76-16.07-16.95-11.14-5.16,2.49-10.64,8.04-15.11,10.05-.52.24-.97.27-1.53.21v-22.25Z"/>
      <path class="cls-1" d="M425.18,132.28l-4.07.77c-40.21,3.46-82.42-9.51-122.14-.97-11.88,2.56-23.64,7.17-35.45,10.23-42.57,11.02-87.47,11.33-130.01,0-14.5-3.86-28.76-9.59-43.57-12.17-11.1-1.93-22.06-2.23-33.31-2.31,19.42-2.54,39.08-.41,58.08,3.87,26.28,5.91,48.73,13.6,76.47,12.6,31.97-1.15,61.14-14.86,92.56-19.31,35.44-5.02,63.78.96,98.32,4.93,14.32,1.65,28.68,2.62,43.11,2.38Z"/>
      <path class="cls-1" d="M226.59,132.28l-7.27,1.82c-17.37,3.31-33.79,3.69-51.25.77-12.03-2.01-23.72-5.81-35.8-7.55-5.71-.83-10.85-.99-16.59-1.23-.47-.02-1.44.29-1.35-.38,13.68-1.26,27.18-.9,40.84.39,11.14,1.05,22.19,3.01,33.3,4.25,12.68,1.41,25.4,2.61,38.13,1.94Z"/>
      <path class="cls-1" d="M390.73,29.73c1.72-6.44-.2-12.32-5.23-16.63-3.67,5.04-3.4,11.13-.97,16.63-13.15-4.08-7.44-21.58-1.75-29.72,10.37,5.49,20.84,20.92,7.95,29.73Z"/>
      <path class="cls-1" d="M322.21,30.11c1.65-5.01.75-9.82-2.55-13.9-2.75-3.39-3.24-2.74-4.44,1.3-1.28,4.3-.75,8.58,1.18,12.59-10.59-3.21-8.69-14.6-5.61-22.82.8-2.13,1.95-4.98,3.55-6.54,1.46-.38,7.29,5.2,8.45,6.53,3.14,3.61,5.94,8.43,5.62,13.37-.23,3.59-2.64,8.2-6.21,9.46Z"/>
    </g>
  </g>
</svg>