<?xml version="1.0" encoding="UTF-8"?>
<svg id="Capa_2" data-name="Capa 2" xmlns="http://www.w3.org/2000/svg" viewBox="0 0 283.28 55.72">
  <defs>
    <style>
      .cls-1 {
        fill: #223048;
      }

      .cls-2 {
        fill: #8a174f;
      }
    </style>
  </defs>
  <g id="Layer_1" data-name="Layer 1">
    <g>
      <path class="cls-1" d="M0,.35c1.54,0,2.97,0,4.41,0,3.46,0,6.91,0,10.37,0,.39,0,.61.12.84.43,3.67,5.08,7.36,10.16,11.05,15.23.27.37.57.72.85,1.09.24.31.41.29.65-.03.92-1.3,1.86-2.58,2.79-3.86,3-4.14,6-8.27,9-12.41.24-.33.49-.44.89-.44,4.64.01,9.27,0,13.91.01.19,0,.46-.11.56.11.08.19-.1.37-.22.53-6.26,8.72-12.52,17.43-18.78,26.15-.86,1.19-.83,1.39.07,2.53,1.49,1.9,2.95,3.82,4.43,5.71.33.42.09.83.06,1.22-.12,1.47-.32,2.94-.47,4.41-.27,2.55-.54,5.11-.81,7.66-.22,2.17-.43,4.34-.65,6.51-.02.17.04.42-.2.47-.23.05-.22-.22-.32-.34-1.01-1.22-1.84-2.57-2.74-3.87-1.35-1.94-2.65-3.92-3.97-5.89-1.06-1.57-2.12-3.13-3.18-4.7-.04-.06-.09-.1-.14-.15-.63-.74-.79-.73-1.34.08-1.44,2.14-2.89,4.27-4.33,6.4-1.36,2.03-2.7,4.07-4.08,6.09-.57.83-1.16,1.67-1.9,2.41-.32-.54-.21-1.12-.28-1.66-.28-2.47-.5-4.96-.76-7.43-.19-1.78-.41-3.55-.6-5.33-.19-1.78-.34-3.56-.53-5.33-.03-.28.06-.48.23-.7,1.67-2.16,3.33-4.34,5.02-6.49.25-.32.18-.51-.02-.79-3.34-4.63-6.66-9.26-9.99-13.9C6.71,9.74,3.58,5.38.46,1.02c-.14-.19-.27-.39-.46-.67Z"/>
      <path class="cls-1" d="M.27,7.27c-.08-.95-.17-1.89-.26-2.97.57.51.88,1.05,1.24,1.54,3.2,4.26,6.39,8.53,9.59,12.79.38.51.25,1.09.32,1.63.27,2.29.5,4.58.73,6.87.18,1.75.35,3.5.53,5.24.16,1.59.35,3.19.51,4.78.18,1.83.34,3.67.53,5.51.22,2.21.47,4.41.69,6.62.21,2.09.41,4.17.62,6.26-.21.07-.29-.11-.39-.2-3.53-3.2-7.05-6.41-10.58-9.61-.23-.21-.31-.44-.33-.72-.12-1.34-.22-2.69-.34-4.03-.16-1.82-.33-3.64-.49-5.46-.12-1.43-.22-2.86-.34-4.29-.15-1.84-.32-3.68-.48-5.51-.15-1.79-.3-3.58-.45-5.36-.15-1.82-.31-3.64-.46-5.47-.16-1.96-.32-3.92-.47-5.87,0-.55,0-1.09-.01-1.64,0-.1.01-.23-.15-.11Z"/>
      <path class="cls-1" d="M43.99,24.28c.17-1.66.33-3.33.49-4.99.03-.26.12-.48.28-.7,3.46-4.62,6.91-9.25,10.37-13.87.07-.1.12-.25.33-.25.08.73-.07,1.45-.13,2.17-.15,1.91-.31,3.81-.47,5.72-.18,2.14-.38,4.29-.56,6.43-.16,1.89-.31,3.78-.47,5.67-.18,2.13-.38,4.25-.55,6.38-.17,1.97-.31,3.95-.48,5.92-.1,1.28-.22,2.55-.33,3.83-.13,1.44-.28,2.89-.37,4.33-.03.4-.17.67-.45.91-1.37,1.21-2.73,2.45-4.08,3.68-1.36,1.24-2.74,2.46-4.07,3.73-.84.8-1.72,1.56-2.63,2.38-.15-.57.02-1.07.06-1.56.19-2.12.43-4.25.64-6.37.2-1.95.38-3.91.59-5.86.19-1.83.4-3.66.59-5.5.19-1.83.37-3.67.56-5.5.02-.22.06-.44.1-.66.14-.05.16-.16.16-.29.03-.69.12-1.39.16-2.07.08-1.18.38-2.35.27-3.54Z"/>
    </g>
    <g>
      <path class="cls-2" d="M65.56,24.62L69.6.83h6.12l4.76,12.68,4.73-12.68h6.12l4.04,23.79h-6.15l-2.05-13.69-5.62,13.69h-2.46l-5.33-13.69-2.05,13.69h-6.15Z"/>
      <path class="cls-2" d="M103.04,17.49c0,2.46,1.16,3.69,3.47,3.69,1.24,0,2.18-.5,2.81-1.51h5.52c-1.11,3.7-3.9,5.55-8.36,5.55-1.37,0-2.62-.21-3.75-.62s-2.11-.99-2.92-1.75-1.44-1.66-1.88-2.71c-.44-1.05-.66-2.23-.66-3.53s.21-2.56.63-3.64c.42-1.08,1.02-2,1.8-2.76.78-.76,1.72-1.34,2.82-1.75,1.1-.41,2.35-.62,3.74-.62s2.6.21,3.69.62c1.09.41,2.02,1,2.78,1.78.76.78,1.34,1.73,1.73,2.86.4,1.13.6,2.39.6,3.8v.6h-12.02ZM109.72,14.17c-.19-.8-.58-1.44-1.17-1.92-.59-.48-1.3-.73-2.15-.73-.88,0-1.6.23-2.16.69-.56.46-.91,1.11-1.06,1.96h6.53Z"/>
      <path class="cls-2" d="M123.57,15.85l-6.56-7.41h7.45l2.78,3.34,2.84-3.34h7.45l-6.72,7.41,8.11,8.77h-7.57l-4.13-4.8-4.16,4.8h-7.54l8.08-8.77Z"/>
      <path class="cls-2" d="M147.58.83v23.79h-6.18V.83h6.18Z"/>
      <path class="cls-2" d="M158.75,10.01h8.93V.83h6.18v23.79h-6.18v-9.81h-8.93v9.81h-6.18V.83h6.18v9.18Z"/>
      <path class="cls-2" d="M195.98,8.78c-1.43-1.75-3.2-2.62-5.3-2.62-.93,0-1.78.17-2.57.5-.79.34-1.47.79-2.03,1.37-.57.58-1.01,1.27-1.34,2.07-.33.8-.49,1.66-.49,2.59s.16,1.82.49,2.62c.33.8.78,1.49,1.36,2.08.58.59,1.26,1.05,2.03,1.39.78.34,1.62.5,2.52.5,1.98,0,3.75-.84,5.33-2.52v7.32l-.63.22c-.95.34-1.83.58-2.65.74-.82.16-1.63.24-2.43.24-1.64,0-3.21-.31-4.72-.93-1.5-.62-2.83-1.49-3.98-2.62-1.15-1.13-2.07-2.46-2.76-4.01-.69-1.55-1.04-3.23-1.04-5.06s.34-3.51,1.03-5.03c.68-1.52,1.6-2.84,2.74-3.94,1.15-1.1,2.48-1.97,3.99-2.59,1.51-.62,3.1-.93,4.76-.93.95,0,1.88.1,2.79.3.91.2,1.88.51,2.89.93v7.38Z"/>
      <path class="cls-1" d="M215.03,21.24h8.86v3.37h-15.97l8.26-10c.81-1,1.49-1.86,2.04-2.59.55-.73.97-1.34,1.26-1.83.59-.97.88-1.83.88-2.6,0-1.11-.39-2.04-1.17-2.79-.78-.75-1.75-1.12-2.9-1.12-2.4,0-3.78,1.42-4.13,4.27h-3.57c.58-5.01,3.11-7.52,7.59-7.52,2.17,0,3.98.69,5.45,2.06,1.48,1.38,2.22,3.08,2.22,5.11,0,1.29-.34,2.56-1.03,3.8-.35.65-.86,1.41-1.53,2.3-.67.89-1.52,1.94-2.55,3.15l-3.7,4.38Z"/>
      <path class="cls-1" d="M227.94,12.57c0-3.79.88-6.81,2.65-9.07,1.58-2.04,3.5-3.07,5.75-3.07s4.16,1.02,5.75,3.07c1.77,2.26,2.65,5.34,2.65,9.23s-.88,6.95-2.65,9.21c-1.58,2.04-3.49,3.07-5.73,3.07s-4.16-1.02-5.76-3.07c-1.77-2.26-2.65-5.38-2.65-9.37ZM231.47,12.59c0,2.64.46,4.83,1.37,6.58.91,1.72,2.08,2.57,3.5,2.57s2.57-.86,3.5-2.57c.92-1.7,1.39-3.86,1.39-6.45s-.46-4.75-1.39-6.47c-.92-1.7-2.09-2.56-3.5-2.56s-2.56.85-3.48,2.56c-.92,1.69-1.39,3.81-1.39,6.35Z"/>
      <path class="cls-1" d="M253.98,21.24h8.86v3.37h-15.97l8.26-10c.81-1,1.49-1.86,2.04-2.59.55-.73.97-1.34,1.26-1.83.59-.97.88-1.83.88-2.6,0-1.11-.39-2.04-1.17-2.79-.78-.75-1.75-1.12-2.9-1.12-2.4,0-3.78,1.42-4.13,4.27h-3.57c.58-5.01,3.11-7.52,7.59-7.52,2.17,0,3.98.69,5.45,2.06,1.48,1.38,2.22,3.08,2.22,5.11,0,1.29-.34,2.56-1.03,3.8-.35.65-.86,1.41-1.53,2.3-.67.89-1.52,1.94-2.55,3.15l-3.7,4.38Z"/>
      <path class="cls-1" d="M277.93,0l2.63,1.97-5.68,7.73c.31-.04.57-.07.79-.09.22-.02.38-.03.51-.03,1.93,0,3.6.74,5.01,2.22,1.4,1.46,2.09,3.21,2.09,5.27,0,2.18-.78,4.05-2.34,5.61-1.55,1.55-3.41,2.33-5.59,2.33s-4.05-.77-5.67-2.3c-1.59-1.53-2.39-3.34-2.39-5.44,0-1.88.78-3.87,2.33-5.98l8.32-11.29ZM279.78,17.3c0-1.26-.44-2.33-1.31-3.2-.88-.88-1.95-1.32-3.19-1.32s-2.32.44-3.19,1.31c-.87.87-1.31,1.93-1.31,3.17s.44,2.3,1.31,3.17c.87.87,1.94,1.31,3.2,1.31s2.28-.44,3.16-1.31c.88-.88,1.32-1.93,1.32-3.13Z"/>
    </g>
    <g>
      <g>
        <path class="cls-1" d="M121.9,39.3l2.06-10.5,3.35,7.59,3.47-7.59,1.85,10.5h-1.51l-.94-5.89-2.89,6.34-2.81-6.35-1.05,5.9h-1.52Z"/>
        <path class="cls-1" d="M140.03,36.56h-4.41c.04.51.2.91.49,1.21.29.29.66.44,1.12.44.35,0,.65-.08.88-.25.23-.17.49-.48.78-.94l1.2.67c-.19.32-.38.59-.59.81-.21.23-.43.41-.66.56-.24.14-.49.25-.76.32-.27.07-.57.1-.89.1-.92,0-1.66-.3-2.21-.89-.56-.59-.83-1.38-.83-2.36s.27-1.76.81-2.36c.54-.59,1.26-.89,2.16-.89s1.62.29,2.15.87c.52.57.78,1.37.78,2.38v.34ZM138.57,35.4c-.2-.76-.68-1.14-1.44-1.14-.17,0-.34.03-.49.08-.15.05-.29.13-.41.23s-.23.22-.32.36c-.09.14-.16.3-.2.47h2.86Z"/>
        <path class="cls-1" d="M143.25,35.97l-2.21-2.83h1.69l1.37,1.8,1.4-1.8h1.74l-2.28,2.83,2.64,3.33h-1.69l-1.81-2.3-1.85,2.3h-1.74l2.74-3.33Z"/>
        <path class="cls-1" d="M148.35,30.58c0-.25.09-.46.27-.64s.4-.27.65-.27.48.09.66.27c.18.18.27.39.27.65s-.09.48-.27.66c-.18.18-.39.27-.65.27s-.48-.09-.66-.27-.27-.4-.27-.66ZM149.99,33.14v6.16h-1.42v-6.16h1.42Z"/>
        <path class="cls-1" d="M156.58,33.41v1.89c-.32-.4-.62-.67-.87-.82-.25-.15-.55-.23-.89-.23-.54,0-.98.19-1.33.56s-.53.85-.53,1.41.17,1.05.51,1.42c.35.37.79.56,1.32.56.34,0,.64-.07.9-.22.25-.14.55-.42.89-.83v1.88c-.58.3-1.15.45-1.73.45-.95,0-1.75-.31-2.39-.92-.64-.62-.96-1.39-.96-2.31s.32-1.69.97-2.33c.65-.63,1.45-.95,2.39-.95.61,0,1.18.15,1.72.44Z"/>
        <path class="cls-1" d="M162.5,33.14h1.43v6.16h-1.43v-.64c-.59.55-1.22.82-1.89.82-.85,0-1.56-.31-2.11-.92-.55-.63-.83-1.41-.83-2.35s.28-1.69.83-2.31c.55-.62,1.24-.92,2.07-.92.72,0,1.36.3,1.93.89v-.71ZM159.12,36.2c0,.59.16,1.07.47,1.44.32.37.73.56,1.23.56.53,0,.95-.18,1.28-.54.32-.37.49-.85.49-1.43s-.16-1.05-.49-1.43c-.32-.37-.75-.55-1.26-.55-.49,0-.9.19-1.23.56-.32.37-.49.84-.49,1.39Z"/>
        <path class="cls-1" d="M165.72,33.14h1.43v.57c.5-.49,1.06-.74,1.68-.74.72,0,1.27.23,1.68.68.35.38.52,1.01.52,1.88v3.77h-1.43v-3.44c0-.61-.08-1.03-.25-1.26-.16-.24-.46-.35-.9-.35-.47,0-.81.16-1.01.47-.19.31-.29.84-.29,1.61v2.97h-1.43v-6.16Z"/>
        <path class="cls-1" d="M181.61,33.41v1.89c-.32-.4-.62-.67-.87-.82-.25-.15-.55-.23-.89-.23-.54,0-.98.19-1.33.56s-.53.85-.53,1.41.17,1.05.51,1.42c.35.37.79.56,1.32.56.34,0,.64-.07.9-.22.25-.14.55-.42.89-.83v1.88c-.58.3-1.15.45-1.73.45-.95,0-1.75-.31-2.39-.92-.64-.62-.96-1.39-.96-2.31s.32-1.69.97-2.33c.65-.63,1.45-.95,2.39-.95.61,0,1.18.15,1.72.44Z"/>
        <path class="cls-1" d="M182.7,36.18c0-.89.32-1.65.95-2.27.64-.62,1.41-.94,2.33-.94s1.7.31,2.34.94c.63.63.95,1.4.95,2.31s-.32,1.7-.95,2.32c-.64.62-1.43.93-2.36.93s-1.7-.32-2.32-.95c-.62-.62-.94-1.41-.94-2.35ZM184.15,36.2c0,.62.16,1.1.49,1.46.34.36.78.54,1.33.54s1-.18,1.33-.54c.33-.36.5-.84.5-1.44s-.17-1.08-.5-1.44c-.34-.36-.78-.54-1.33-.54s-.98.18-1.32.54-.51.83-.51,1.4Z"/>
        <path class="cls-1" d="M190.77,33.14h1.43v.57c.5-.49,1.06-.74,1.68-.74.72,0,1.27.23,1.68.68.35.38.52,1.01.52,1.88v3.77h-1.43v-3.44c0-.61-.08-1.03-.25-1.26-.16-.24-.46-.35-.9-.35-.47,0-.81.16-1.01.47-.19.31-.29.84-.29,1.61v2.97h-1.43v-6.16Z"/>
        <path class="cls-1" d="M199.35,34.47v4.83h-1.43v-4.83h-.51v-1.33h.51v-2.38c0-.78.13-1.32.4-1.64.37-.45.91-.67,1.62-.67.25,0,.57.07.96.22v1.45l-.15-.08c-.31-.16-.56-.23-.76-.23-.25,0-.42.09-.51.27-.09.18-.13.52-.13,1.02v2.03h1.55v1.33h-1.55Z"/>
        <path class="cls-1" d="M207.52,36.56h-4.41c.04.51.2.91.49,1.21.29.29.66.44,1.12.44.35,0,.65-.08.88-.25.23-.17.49-.48.78-.94l1.2.67c-.19.32-.38.59-.59.81-.21.23-.43.41-.66.56-.24.14-.49.25-.76.32-.27.07-.57.1-.89.1-.92,0-1.66-.3-2.21-.89-.56-.59-.83-1.38-.83-2.36s.27-1.76.81-2.36c.54-.59,1.26-.89,2.16-.89s1.62.29,2.15.87c.52.57.78,1.37.78,2.38v.34ZM206.06,35.4c-.2-.76-.68-1.14-1.44-1.14-.17,0-.34.03-.49.08-.15.05-.29.13-.41.23s-.23.22-.32.36c-.09.14-.16.3-.2.47h2.86Z"/>
        <path class="cls-1" d="M209.08,33.14h1.42v.55c.26-.27.49-.46.7-.56.21-.11.45-.16.73-.16.37,0,.77.12,1.18.37l-.65,1.3c-.27-.19-.53-.29-.79-.29-.78,0-1.16.59-1.16,1.76v3.19h-1.42v-6.16Z"/>
        <path class="cls-1" d="M219.44,36.56h-4.41c.04.51.2.91.49,1.21.29.29.66.44,1.12.44.35,0,.65-.08.88-.25.23-.17.49-.48.78-.94l1.2.67c-.19.32-.38.59-.59.81-.21.23-.43.41-.66.56-.24.14-.49.25-.76.32-.27.07-.57.1-.89.1-.92,0-1.66-.3-2.21-.89-.56-.59-.83-1.38-.83-2.36s.27-1.76.81-2.36c.54-.59,1.26-.89,2.16-.89s1.62.29,2.15.87c.52.57.78,1.37.78,2.38v.34ZM217.98,35.4c-.2-.76-.68-1.14-1.44-1.14-.17,0-.34.03-.49.08-.15.05-.29.13-.41.23s-.23.22-.32.36c-.09.14-.16.3-.2.47h2.86Z"/>
        <path class="cls-1" d="M221,33.14h1.43v.57c.5-.49,1.06-.74,1.68-.74.72,0,1.27.23,1.68.68.35.38.52,1.01.52,1.88v3.77h-1.43v-3.44c0-.61-.08-1.03-.25-1.26-.16-.24-.46-.35-.9-.35-.47,0-.81.16-1.01.47-.19.31-.29.84-.29,1.61v2.97h-1.43v-6.16Z"/>
        <path class="cls-1" d="M232.89,33.41v1.89c-.32-.4-.62-.67-.87-.82-.25-.15-.55-.23-.89-.23-.54,0-.98.19-1.33.56s-.53.85-.53,1.41.17,1.05.51,1.42c.35.37.79.56,1.32.56.34,0,.64-.07.9-.22.25-.14.55-.42.89-.83v1.88c-.58.3-1.15.45-1.73.45-.95,0-1.75-.31-2.39-.92-.64-.62-.96-1.39-.96-2.31s.32-1.69.97-2.33c.65-.63,1.45-.95,2.39-.95.61,0,1.18.15,1.72.44Z"/>
        <path class="cls-1" d="M239.87,36.56h-4.41c.04.51.2.91.49,1.21.29.29.66.44,1.12.44.35,0,.65-.08.88-.25.23-.17.49-.48.78-.94l1.2.67c-.19.32-.38.59-.59.81-.21.23-.43.41-.66.56-.24.14-.49.25-.76.32-.27.07-.57.1-.89.1-.92,0-1.66-.3-2.21-.89-.56-.59-.83-1.38-.83-2.36s.27-1.76.81-2.36c.54-.59,1.26-.89,2.16-.89s1.62.29,2.15.87c.52.57.78,1.37.78,2.38v.34ZM238.41,35.4c-.2-.76-.68-1.14-1.44-1.14-.17,0-.34.03-.49.08-.15.05-.29.13-.41.23s-.23.22-.32.36c-.09.14-.16.3-.2.47h2.86Z"/>
        <path class="cls-1" d="M63.41,48.13c0-.89.32-1.65.95-2.27.64-.62,1.41-.94,2.33-.94s1.7.31,2.34.94c.63.63.95,1.4.95,2.31s-.32,1.7-.95,2.32c-.64.62-1.43.93-2.36.93s-1.7-.32-2.32-.95c-.62-.62-.94-1.41-.94-2.35ZM64.86,48.16c0,.62.16,1.1.49,1.46.34.36.78.54,1.33.54s1-.18,1.33-.54c.33-.36.5-.84.5-1.44s-.17-1.08-.5-1.44c-.34-.36-.78-.54-1.33-.54s-.98.18-1.32.54-.51.83-.51,1.4Z"/>
        <path class="cls-1" d="M71.48,45.1h1.43v.57c.5-.49,1.06-.74,1.68-.74.72,0,1.27.23,1.68.68.35.38.52,1.01.52,1.88v3.77h-1.43v-3.44c0-.61-.08-1.03-.25-1.26-.16-.24-.46-.35-.9-.35-.47,0-.81.16-1.01.47-.19.31-.29.84-.29,1.61v2.97h-1.43v-6.16Z"/>
        <path class="cls-2" d="M85.24,45.26h3.66v-3.77h2.54v9.76h-2.54v-4.03h-3.66v4.03h-2.54v-9.76h2.54v3.77Z"/>
        <path class="cls-2" d="M95.61,44.61v3.74c0,.82.4,1.23,1.19,1.23s1.19-.41,1.19-1.23v-3.74h2.34v4.2c0,.9-.3,1.57-.89,2.02-.59.45-1.47.67-2.65.67s-2.06-.22-2.65-.67c-.59-.45-.89-1.12-.89-2.02v-4.2h2.34Z"/>
        <path class="cls-2" d="M101.93,44.61h2.34v.82c.64-.61,1.36-.92,2.15-.92.98,0,1.74.41,2.25,1.24.53-.84,1.28-1.26,2.25-1.26.31,0,.6.05.88.14.28.09.51.23.71.43s.36.45.47.76c.12.31.18.69.18,1.13v4.31h-2.34v-3.28c0-.34-.02-.61-.07-.83-.05-.22-.12-.38-.21-.5s-.2-.2-.32-.25-.25-.07-.39-.07c-.75,0-1.13.55-1.13,1.64v3.28h-2.34v-3.28c0-.34-.02-.62-.06-.83-.04-.22-.11-.39-.19-.52-.08-.13-.19-.22-.32-.27-.13-.05-.28-.07-.45-.07-.15,0-.28.02-.41.06s-.24.13-.34.25c-.1.12-.18.3-.23.52-.06.22-.08.51-.08.86v3.28h-2.34v-6.64Z"/>
        <path class="cls-2" d="M119.9,44.61h2.36v6.64h-2.36v-.74c-.5.63-1.18.95-2.03.95-.48,0-.93-.09-1.33-.27-.41-.18-.76-.43-1.06-.74s-.54-.69-.71-1.13c-.17-.43-.25-.9-.25-1.41,0-.47.08-.93.25-1.35.16-.43.39-.8.69-1.12.29-.32.64-.57,1.05-.76.41-.19.85-.28,1.35-.28.83,0,1.51.29,2.06.87v-.66ZM116.95,47.92c0,.22.04.42.12.6s.18.35.32.49.29.25.48.32c.19.08.39.12.6.12s.4-.04.59-.12c.19-.08.35-.19.48-.32s.24-.3.32-.48c.08-.18.12-.38.12-.58s-.04-.4-.12-.59c-.08-.19-.19-.35-.32-.49s-.29-.25-.48-.32c-.19-.08-.38-.12-.59-.12s-.42.04-.6.12c-.19.08-.35.19-.48.32s-.24.3-.32.47-.12.37-.12.58Z"/>
        <path class="cls-2" d="M123.85,44.61h2.34v.84c.32-.39.64-.65.97-.78.33-.13.71-.2,1.15-.2.47,0,.87.08,1.2.23s.62.36.85.64c.19.22.32.48.39.75.07.28.1.59.1.95v4.22h-2.34v-3.35c0-.33-.02-.59-.07-.8-.05-.2-.13-.36-.25-.49-.1-.1-.22-.18-.35-.22s-.27-.07-.41-.07c-.4,0-.7.12-.91.36s-.32.58-.32,1.02v3.55h-2.34v-6.64Z"/>
        <path class="cls-2" d="M131.65,46.81h3.72v1.95h-3.72v-1.95Z"/>
        <path class="cls-2" d="M143.42,44.76c-.59-.72-1.31-1.07-2.18-1.07-.38,0-.73.07-1.06.21-.32.14-.6.33-.83.56s-.42.52-.55.85c-.13.33-.2.68-.2,1.06s.07.75.2,1.07c.13.33.32.61.56.85s.52.43.84.57c.32.14.66.21,1.04.21.81,0,1.54-.34,2.19-1.04v3l-.26.09c-.39.14-.75.24-1.09.3-.34.06-.67.1-1,.1-.67,0-1.32-.13-1.94-.38-.62-.25-1.16-.61-1.63-1.07-.47-.46-.85-1.01-1.13-1.64s-.43-1.33-.43-2.08.14-1.44.42-2.06c.28-.63.66-1.17,1.13-1.62s1.02-.81,1.64-1.06c.62-.25,1.27-.38,1.96-.38.39,0,.77.04,1.15.12.37.08.77.21,1.18.38v3.03Z"/>
        <path class="cls-2" d="M144.55,47.88c0-.49.1-.95.3-1.38.2-.43.47-.8.83-1.11.35-.31.77-.56,1.26-.74s1.02-.27,1.6-.27,1.1.09,1.59.27c.49.18.91.42,1.27.74.36.32.64.69.83,1.13s.3.92.3,1.44-.1,1.01-.3,1.44c-.2.44-.48.81-.84,1.13-.35.32-.78.56-1.28.73s-1.03.26-1.61.26-1.1-.09-1.58-.26-.9-.42-1.25-.74c-.35-.32-.62-.7-.82-1.15-.2-.44-.3-.94-.3-1.48ZM147.02,47.9c0,.22.04.43.12.62.08.19.19.35.32.49s.29.25.48.32c.19.08.38.12.59.12s.4-.04.59-.12c.19-.08.35-.19.48-.32.13-.14.24-.3.32-.49.08-.19.12-.39.12-.6s-.04-.4-.12-.59c-.08-.19-.19-.35-.32-.49-.13-.14-.29-.25-.48-.32-.19-.08-.38-.12-.59-.12s-.4.04-.59.12c-.19.08-.35.19-.48.32s-.24.3-.32.48c-.08.18-.12.38-.12.58Z"/>
        <path class="cls-2" d="M153.87,44.61h2.34v.82c.64-.61,1.36-.92,2.15-.92.98,0,1.74.41,2.25,1.24.53-.84,1.28-1.26,2.25-1.26.31,0,.6.05.88.14.28.09.51.23.71.43s.36.45.47.76c.12.31.18.69.18,1.13v4.31h-2.34v-3.28c0-.34-.02-.61-.07-.83-.05-.22-.12-.38-.21-.5s-.2-.2-.32-.25-.25-.07-.39-.07c-.75,0-1.13.55-1.13,1.64v3.28h-2.34v-3.28c0-.34-.02-.62-.06-.83-.04-.22-.11-.39-.19-.52-.08-.13-.19-.22-.32-.27-.13-.05-.28-.07-.45-.07-.15,0-.28.02-.41.06s-.24.13-.34.25c-.1.12-.18.3-.23.52-.06.22-.08.51-.08.86v3.28h-2.34v-6.64Z"/>
        <path class="cls-2" d="M169.29,54.57h-2.34v-9.96h2.34v.74c.5-.63,1.18-.94,2.05-.94.47,0,.92.09,1.33.28.41.19.77.44,1.07.76s.54.69.71,1.13.25.89.25,1.39-.08.95-.25,1.37c-.17.42-.4.79-.7,1.11-.3.32-.65.57-1.06.75-.41.18-.85.27-1.32.27-.83,0-1.52-.28-2.07-.85v3.96ZM172.24,47.95c0-.21-.04-.4-.11-.59-.07-.19-.18-.35-.32-.49-.14-.14-.3-.25-.49-.33-.19-.08-.39-.12-.6-.12s-.4.04-.58.12-.34.19-.47.32c-.13.14-.24.3-.32.49-.08.19-.12.38-.12.59s.04.4.12.58.19.34.32.47c.14.13.3.24.49.32.19.08.38.12.59.12s.4-.04.58-.12.34-.19.47-.32.24-.3.32-.48c.08-.18.12-.37.12-.57Z"/>
        <path class="cls-2" d="M178.37,44.61v3.74c0,.82.4,1.23,1.19,1.23s1.19-.41,1.19-1.23v-3.74h2.34v4.2c0,.9-.3,1.57-.89,2.02-.59.45-1.47.67-2.65.67s-2.06-.22-2.65-.67c-.59-.45-.89-1.12-.89-2.02v-4.2h2.34Z"/>
        <path class="cls-2" d="M187.3,46.57v4.69h-2.34v-4.69h-.78v-1.96h.78v-1.99h2.34v1.99h1.33v1.96h-1.33Z"/>
        <path class="cls-2" d="M191.76,48.33c0,1.01.47,1.52,1.42,1.52.51,0,.89-.21,1.15-.62h2.27c-.46,1.52-1.6,2.28-3.43,2.28-.56,0-1.07-.08-1.54-.25-.47-.17-.87-.41-1.2-.72s-.59-.68-.77-1.11c-.18-.43-.27-.91-.27-1.45s.09-1.05.26-1.5c.17-.44.42-.82.74-1.13.32-.31.71-.55,1.16-.72s.96-.25,1.53-.25,1.07.08,1.51.25c.45.17.83.41,1.14.73.31.32.55.71.71,1.17.16.46.25.98.25,1.56v.25h-4.93ZM194.5,46.97c-.08-.33-.24-.59-.48-.79s-.54-.3-.88-.3-.66.1-.89.28c-.23.19-.37.46-.43.8h2.68Z"/>
        <path class="cls-2" d="M198.02,44.61h2.34v1.09c.25-.4.56-.7.92-.91s.79-.32,1.27-.32h.2c.07,0,.16,0,.25.03v2.24c-.31-.16-.65-.23-1.01-.23-.54,0-.95.16-1.22.49-.27.32-.41.8-.41,1.42v2.85h-2.34v-6.64Z"/>
        <path class="cls-2" d="M211.2,41.49v9.76h-2.54v-9.76h2.54Z"/>
        <path class="cls-2" d="M213.03,44.61h2.34v.84c.32-.39.64-.65.97-.78.33-.13.71-.2,1.15-.2.47,0,.87.08,1.2.23s.62.36.85.64c.19.22.32.48.39.75.07.28.1.59.1.95v4.22h-2.34v-3.35c0-.33-.02-.59-.07-.8-.05-.2-.13-.36-.25-.49-.1-.1-.22-.18-.35-.22s-.27-.07-.41-.07c-.4,0-.7.12-.91.36s-.32.58-.32,1.02v3.55h-2.34v-6.64Z"/>
        <path class="cls-2" d="M224.24,46.57v4.69h-2.34v-4.69h-.78v-1.96h.78v-1.99h2.34v1.99h1.33v1.96h-1.33Z"/>
        <path class="cls-2" d="M228.7,48.33c0,1.01.47,1.52,1.42,1.52.51,0,.89-.21,1.15-.62h2.27c-.46,1.52-1.6,2.28-3.43,2.28-.56,0-1.07-.08-1.54-.25-.47-.17-.87-.41-1.2-.72s-.59-.68-.77-1.11c-.18-.43-.27-.91-.27-1.45s.09-1.05.26-1.5c.17-.44.42-.82.74-1.13.32-.31.71-.55,1.16-.72s.96-.25,1.53-.25,1.07.08,1.51.25c.45.17.83.41,1.14.73.31.32.55.71.71,1.17.16.46.25.98.25,1.56v.25h-4.93ZM231.44,46.97c-.08-.33-.24-.59-.48-.79s-.54-.3-.88-.3-.66.1-.89.28c-.23.19-.37.46-.43.8h2.68Z"/>
        <path class="cls-2" d="M234.96,44.61h2.34v1.09c.25-.4.56-.7.92-.91s.79-.32,1.27-.32h.2c.07,0,.16,0,.25.03v2.24c-.31-.16-.65-.23-1.01-.23-.54,0-.95.16-1.22.49-.27.32-.41.8-.41,1.42v2.85h-2.34v-6.64Z"/>
        <path class="cls-2" d="M246.2,44.61h2.36v6.64h-2.36v-.74c-.5.63-1.18.95-2.03.95-.48,0-.93-.09-1.33-.27-.41-.18-.76-.43-1.06-.74s-.54-.69-.71-1.13c-.17-.43-.25-.9-.25-1.41,0-.47.08-.93.25-1.35.16-.43.39-.8.69-1.12.29-.32.64-.57,1.05-.76.41-.19.85-.28,1.35-.28.83,0,1.51.29,2.06.87v-.66ZM243.25,47.92c0,.22.04.42.12.6s.18.35.32.49.29.25.48.32c.19.08.39.12.6.12s.4-.04.59-.12c.19-.08.35-.19.48-.32s.24-.3.32-.48c.08-.18.12-.38.12-.58s-.04-.4-.12-.59c-.08-.19-.19-.35-.32-.49s-.29-.25-.48-.32c-.19-.08-.38-.12-.59-.12s-.42.04-.6.12c-.19.08-.35.19-.48.32s-.24.3-.32.47-.12.37-.12.58Z"/>
        <path class="cls-2" d="M255.16,46.76c-.41-.28-.82-.41-1.23-.41-.22,0-.43.04-.63.12s-.36.19-.51.33c-.15.14-.26.31-.34.5-.08.19-.12.41-.12.65s.04.45.12.64c.08.19.19.36.34.5.14.14.31.25.51.33s.41.12.63.12c.44,0,.85-.15,1.23-.45v1.99c-.58.25-1.13.38-1.64.38-.48,0-.94-.08-1.38-.25-.44-.16-.82-.4-1.15-.71s-.6-.67-.8-1.1c-.2-.43-.3-.9-.3-1.43s.09-1.01.28-1.44c.19-.44.45-.81.78-1.13s.72-.56,1.17-.74c.45-.18.94-.27,1.46-.27.57,0,1.1.12,1.58.36v1.99Z"/>
        <path class="cls-2" d="M259.11,46.57v4.69h-2.34v-4.69h-.78v-1.96h.78v-1.99h2.34v1.99h1.33v1.96h-1.33Z"/>
        <path class="cls-2" d="M261.35,42.06c0-.18.03-.35.1-.51.07-.16.16-.3.28-.42.12-.12.26-.22.42-.28.16-.07.33-.1.51-.1s.35.04.51.1c.16.07.3.16.42.28s.22.26.28.42c.07.16.1.33.1.51s-.04.35-.1.51c-.07.16-.16.3-.28.42s-.26.22-.42.28c-.16.07-.33.1-.51.1s-.35-.03-.51-.1c-.16-.07-.3-.16-.42-.28-.12-.12-.22-.26-.28-.42-.07-.16-.1-.33-.1-.51ZM263.85,44.61v6.64h-2.34v-6.64h2.34Z"/>
        <path class="cls-2" d="M265.2,47.88c0-.49.1-.95.3-1.38.2-.43.47-.8.83-1.11.35-.31.77-.56,1.26-.74s1.02-.27,1.6-.27,1.1.09,1.59.27c.49.18.91.42,1.27.74.36.32.64.69.83,1.13s.3.92.3,1.44-.1,1.01-.3,1.44c-.2.44-.48.81-.84,1.13-.35.32-.78.56-1.28.73s-1.03.26-1.61.26-1.1-.09-1.58-.26-.9-.42-1.25-.74c-.35-.32-.62-.7-.82-1.15-.2-.44-.3-.94-.3-1.48ZM267.67,47.9c0,.22.04.43.12.62.08.19.19.35.32.49s.29.25.48.32c.19.08.38.12.59.12s.4-.04.59-.12c.19-.08.35-.19.48-.32.13-.14.24-.3.32-.49.08-.19.12-.39.12-.6s-.04-.4-.12-.59c-.08-.19-.19-.35-.32-.49-.13-.14-.29-.25-.48-.32-.19-.08-.38-.12-.59-.12s-.4.04-.59.12c-.19.08-.35.19-.48.32s-.24.3-.32.48c-.08.18-.12.38-.12.58Z"/>
        <path class="cls-2" d="M274.52,44.61h2.34v.84c.32-.39.64-.65.97-.78.33-.13.71-.2,1.15-.2.47,0,.87.08,1.2.23s.62.36.85.64c.19.22.32.48.39.75.07.28.1.59.1.95v4.22h-2.34v-3.35c0-.33-.02-.59-.07-.8-.05-.2-.13-.36-.25-.49-.1-.1-.22-.18-.35-.22s-.27-.07-.41-.07c-.4,0-.7.12-.91.36s-.32.58-.32,1.02v3.55h-2.34v-6.64Z"/>
      </g>
      <g>
        <path class="cls-2" d="M69.64,32.48h-2.78v1.5h2.63v1.98h-2.63v1.55h2.78v1.98h-5.12v-9h5.12v1.98Z"/>
        <path class="cls-2" d="M73.29,29.59v9.91h-2.16v-9.91h2.16Z"/>
        <path class="cls-2" d="M76.71,36.8c0,.93.44,1.4,1.31,1.4.47,0,.82-.19,1.06-.57h2.09c-.42,1.4-1.48,2.1-3.16,2.1-.52,0-.99-.08-1.42-.23-.43-.16-.8-.38-1.1-.66-.31-.29-.54-.63-.71-1.03-.17-.4-.25-.84-.25-1.34s.08-.97.24-1.38c.16-.41.39-.76.68-1.04s.65-.51,1.07-.66c.42-.16.89-.23,1.42-.23s.98.08,1.4.23c.41.16.76.38,1.05.67.29.29.51.65.66,1.08.15.43.23.91.23,1.44v.23h-4.55ZM79.24,35.55c-.07-.3-.22-.55-.44-.73-.22-.18-.49-.27-.81-.27-.33,0-.61.09-.82.26-.21.18-.34.42-.4.74h2.47Z"/>
        <path class="cls-2" d="M83.9,33.37l1.46,3.14,1.48-3.14h2.41l-3.19,6.13h-1.44l-3.15-6.13h2.44Z"/>
        <path class="cls-2" d="M91.65,36.8c0,.93.44,1.4,1.31,1.4.47,0,.82-.19,1.06-.57h2.09c-.42,1.4-1.48,2.1-3.16,2.1-.52,0-.99-.08-1.42-.23-.43-.16-.8-.38-1.1-.66-.31-.29-.54-.63-.71-1.03-.17-.4-.25-.84-.25-1.34s.08-.97.24-1.38c.16-.41.39-.76.68-1.04s.65-.51,1.07-.66c.42-.16.89-.23,1.42-.23s.98.08,1.4.23c.41.16.76.38,1.05.67.29.29.51.65.66,1.08.15.43.23.91.23,1.44v.23h-4.55ZM94.18,35.55c-.07-.3-.22-.55-.44-.73-.22-.18-.49-.27-.81-.27-.33,0-.61.09-.82.26-.21.18-.34.42-.4.74h2.47Z"/>
        <path class="cls-2" d="M97.43,33.37h2.16v.78c.29-.36.59-.6.9-.72.3-.12.66-.19,1.06-.19.43,0,.8.07,1.1.21.31.14.57.34.78.59.18.21.29.44.36.69.06.25.1.55.1.87v3.89h-2.16v-3.09c0-.3-.02-.55-.07-.73s-.12-.34-.23-.45c-.1-.1-.2-.16-.32-.2-.12-.04-.25-.06-.38-.06-.37,0-.65.11-.84.33s-.29.53-.29.94v3.27h-2.16v-6.13Z"/>
        <path class="cls-2" d="M107.77,35.18v4.32h-2.16v-4.32h-.72v-1.8h.72v-1.84h2.16v1.84h1.23v1.8h-1.23Z"/>
        <path class="cls-2" d="M110.09,29.59h2.16v4.56c.29-.36.59-.6.9-.72.3-.12.66-.19,1.06-.19.77,0,1.36.21,1.75.64.39.43.59,1,.59,1.73v3.89h-2.16v-3.09c0-.31-.02-.56-.07-.75s-.13-.34-.24-.44c-.19-.17-.42-.25-.69-.25-.37,0-.65.11-.84.33s-.29.53-.29.94v3.27h-2.16v-9.91Z"/>
      </g>
    </g>
  </g>
</svg>