<?xml version="1.0" encoding="UTF-8"?>
<svg id="Capa_2" data-name="Capa 2" xmlns="http://www.w3.org/2000/svg" viewBox="0 0 821.23 168.82">
  <defs>
    <style>
      .cls-1 {
        fill: #ad4a20;
      }

      .cls-1, .cls-2 {
        stroke-width: 0px;
      }

      .cls-2 {
        fill: #000;
      }
    </style>
  </defs>
  <g id="Capa_1-2" data-name="Capa 1">
    <g>
      <path class="cls-1" d="M0,3.71c4.36,0,8.44,0,12.51,0,9.81,0,19.63.02,29.44-.03,1.11,0,1.73.35,2.37,1.23,10.43,14.43,20.9,28.83,31.36,43.23.77,1.06,1.63,2.05,2.43,3.09.68.88,1.18.84,1.84-.09,2.61-3.68,5.28-7.32,7.93-10.97,8.52-11.74,17.04-23.48,25.54-35.24.67-.93,1.4-1.24,2.53-1.24,13.16.04,26.33.02,39.49.04.55,0,1.31-.3,1.6.32.24.54-.3,1.04-.63,1.51-17.77,24.74-35.54,49.49-53.31,74.24-2.43,3.38-2.35,3.95.19,7.19,4.22,5.38,8.36,10.83,12.59,16.21.93,1.18.25,2.35.16,3.47-.34,4.19-.9,8.35-1.34,12.53-.78,7.25-1.55,14.5-2.29,21.75-.63,6.16-1.21,12.33-1.83,18.49-.05.49.12,1.19-.56,1.34-.66.15-.63-.61-.91-.96-2.87-3.46-5.23-7.29-7.78-10.97-3.83-5.52-7.51-11.14-11.26-16.71-3-4.45-6.01-8.9-9.02-13.34-.11-.16-.26-.29-.39-.43-1.8-2.1-2.25-2.06-3.79.22-4.09,6.06-8.21,12.11-12.29,18.18-3.87,5.76-7.67,11.56-11.6,17.28-1.62,2.37-3.29,4.73-5.38,6.85-.91-1.53-.61-3.18-.78-4.7-.81-7.02-1.41-14.07-2.15-21.1-.53-5.05-1.18-10.08-1.71-15.13-.53-5.04-.98-10.09-1.5-15.14-.08-.8.17-1.37.64-1.98,4.75-6.14,9.46-12.32,14.25-18.42.72-.92.52-1.46-.05-2.25-9.47-13.14-18.92-26.3-28.37-39.45C19.05,30.36,10.17,17.98,1.3,5.61c-.39-.54-.76-1.11-1.3-1.9Z"/>
      <path class="cls-1" d="M.77,23.36c-.24-2.69-.48-5.37-.75-8.43,1.62,1.44,2.49,2.99,3.53,4.38,9.09,12.09,18.14,24.21,27.23,36.31,1.08,1.43.72,3.08.9,4.63.77,6.49,1.41,13,2.08,19.51.51,4.96.99,9.93,1.51,14.89.47,4.53.98,9.05,1.43,13.58.52,5.21.98,10.42,1.5,15.63.63,6.27,1.32,12.53,1.96,18.8.6,5.92,1.17,11.85,1.75,17.78-.6.19-.81-.3-1.1-.57-10.02-9.09-20.02-18.21-30.05-27.29-.65-.59-.87-1.26-.94-2.04-.33-3.82-.63-7.64-.96-11.45-.45-5.17-.94-10.33-1.38-15.49-.35-4.06-.62-8.12-.96-12.18-.43-5.22-.9-10.44-1.35-15.66-.43-5.07-.86-10.15-1.28-15.22-.44-5.17-.88-10.34-1.31-15.51-.46-5.56-.9-11.12-1.34-16.68-.01-1.55-.02-3.1-.04-4.66,0-.28.04-.66-.43-.33Z"/>
      <path class="cls-1" d="M124.87,71.62c.47-4.72.94-9.45,1.4-14.17.07-.75.34-1.37.8-1.98,9.82-13.12,19.63-26.25,29.44-39.37.21-.28.33-.72.94-.72.24,2.08-.21,4.11-.37,6.15-.42,5.41-.88,10.83-1.34,16.24-.52,6.09-1.07,12.17-1.59,18.26-.46,5.36-.88,10.73-1.33,16.09-.51,6.04-1.06,12.07-1.57,18.11-.47,5.6-.89,11.21-1.35,16.82-.3,3.62-.62,7.24-.94,10.86-.36,4.1-.8,8.2-1.06,12.31-.07,1.13-.5,1.91-1.27,2.59-3.9,3.45-7.76,6.94-11.59,10.45-3.86,3.53-7.77,7-11.56,10.59-2.39,2.26-4.87,4.43-7.46,6.76-.42-1.63.05-3.03.17-4.42.55-6.03,1.21-12.05,1.82-18.08.56-5.54,1.09-11.09,1.66-16.63.54-5.2,1.12-10.4,1.66-15.6.54-5.21,1.05-10.42,1.58-15.62.06-.63.18-1.25.27-1.87.39-.14.44-.47.45-.82.08-1.97.34-3.94.46-5.89.22-3.35,1.09-6.67.76-10.05Z"/>
    </g>
    <g>
      <path class="cls-2" d="M187.8,72.59L202.01,0l23.18,52.48L249.19,0l12.77,72.59h-10.45l-6.52-40.75-19.98,43.86-19.42-43.9-7.26,40.8h-10.54Z"/>
      <path class="cls-2" d="M313.17,53.61h-30.52c.26,3.5,1.4,6.28,3.41,8.35,2.01,2.04,4.59,3.06,7.74,3.06,2.45,0,4.47-.58,6.08-1.75,1.57-1.17,3.37-3.32,5.38-6.47l8.31,4.64c-1.28,2.19-2.64,4.06-4.07,5.62-1.43,1.56-2.96,2.84-4.59,3.85-1.63,1.01-3.4,1.74-5.29,2.21-1.9.47-3.95.7-6.17.7-6.35,0-11.46-2.04-15.3-6.12-3.85-4.11-5.77-9.56-5.77-16.35s1.87-12.19,5.6-16.35c3.76-4.11,8.75-6.17,14.96-6.17s11.22,2,14.87,5.99c3.62,3.97,5.42,9.46,5.42,16.49l-.04,2.32ZM303.07,45.57c-1.37-5.25-4.68-7.87-9.93-7.87-1.2,0-2.32.18-3.37.55-1.05.37-2.01.89-2.86,1.58s-1.6,1.51-2.21,2.47-1.08,2.06-1.4,3.28h19.77Z"/>
      <path class="cls-2" d="M335.43,49.55l-15.31-19.55h11.72l9.49,12.42,9.67-12.42h12.07l-15.74,19.55,18.24,23.04h-11.72l-12.51-15.92-12.81,15.92h-12.02l18.93-23.04Z"/>
      <path class="cls-2" d="M384.27,5.07v67.52h-10.19V5.07h10.19Z"/>
      <path class="cls-2" d="M410.68,31.48h29.12V5.07h10.19v67.52h-10.19v-31.53h-29.12v31.53h-10.19V5.07h10.19v26.41Z"/>
      <path class="cls-2" d="M516.07,8.7v12.07c-5.89-4.93-11.98-7.39-18.28-7.39-6.94,0-12.78,2.49-17.54,7.48-4.78,4.95-7.17,11.02-7.17,18.19s2.39,13.06,7.17,17.93c4.78,4.87,10.64,7.3,17.58,7.3,3.59,0,6.63-.58,9.14-1.75,1.4-.58,2.85-1.37,4.35-2.36,1.5-.99,3.08-2.19,4.74-3.59v12.29c-5.83,3.29-11.95,4.94-18.37,4.94-9.65,0-17.88-3.37-24.71-10.1-6.79-6.79-10.19-14.99-10.19-24.58,0-8.6,2.84-16.27,8.53-23,6.99-8.25,16.05-12.38,27.15-12.38,6.06,0,11.92,1.65,17.58,4.94Z"/>
      <path class="cls-1" d="M605.34,72.59h-54.36l16.75-17.37c4.42-4.6,7.88-8.49,10.39-11.69,2.51-3.19,4.37-5.89,5.6-8.11,1.22-2.21,1.98-4,2.28-5.37s.45-2.54.45-3.49c0-1.01-.16-2-.49-2.96-.33-.95-.82-1.8-1.48-2.55-.66-.75-1.45-1.34-2.37-1.79s-2.02-.67-3.27-.67c-2.39,0-4.25.78-5.6,2.33-1.34,1.55-2.02,3.49-2.02,5.82,0,.66.09,1.61.27,2.87h-19.17c0-3.94.64-7.52,1.93-10.75,1.28-3.22,3.09-6,5.42-8.33,2.33-2.33,5.09-4.12,8.28-5.37,3.19-1.25,6.7-1.88,10.52-1.88s7.24.6,10.43,1.79c3.19,1.19,5.95,2.86,8.28,5.02,2.33,2.15,4.15,4.7,5.46,7.66,1.31,2.96,1.97,6.17,1.97,9.63,0,3.7-.79,7.12-2.38,10.25s-4.1,6.34-7.57,9.63l-11.19,10.48h21.85v14.87Z"/>
      <path class="cls-1" d="M611.16,38.74c0-5.37.7-10.26,2.1-14.64,1.4-4.39,3.37-8.14,5.91-11.24,2.54-3.1,5.55-5.51,9.05-7.21,3.49-1.7,7.36-2.55,11.6-2.55s8.03.85,11.55,2.55c3.52,1.7,6.54,4.11,9.04,7.21,2.51,3.11,4.46,6.85,5.87,11.24,1.4,4.39,2.1,9.27,2.1,14.64s-.7,10.25-2.1,14.64c-1.4,4.39-3.36,8.15-5.87,11.29-2.51,3.13-5.52,5.55-9.04,7.25-3.52,1.7-7.37,2.55-11.55,2.55s-8.11-.85-11.6-2.55c-3.49-1.7-6.51-4.12-9.05-7.25-2.54-3.14-4.51-6.9-5.91-11.29-1.4-4.39-2.1-9.27-2.1-14.64ZM628.54,38.74c0,2.99.27,5.7.81,8.15.54,2.45,1.3,4.57,2.28,6.36.99,1.79,2.16,3.18,3.54,4.16,1.37.99,2.92,1.48,4.66,1.48s3.21-.49,4.61-1.48c1.4-.98,2.58-2.37,3.54-4.16.95-1.79,1.7-3.91,2.24-6.36.54-2.45.81-5.16.81-8.15s-.27-5.63-.81-8.11c-.54-2.48-1.28-4.6-2.24-6.36-.96-1.76-2.14-3.13-3.54-4.12-1.4-.99-2.94-1.48-4.61-1.48s-3.28.49-4.66,1.48c-1.38.99-2.55,2.36-3.54,4.12-.99,1.76-1.75,3.88-2.28,6.36-.54,2.48-.81,5.18-.81,8.11Z"/>
      <path class="cls-1" d="M727.14,72.59h-54.36l16.75-17.37c4.42-4.6,7.88-8.49,10.39-11.69,2.51-3.19,4.37-5.89,5.6-8.11,1.22-2.21,1.98-4,2.28-5.37s.45-2.54.45-3.49c0-1.01-.16-2-.49-2.96-.33-.95-.82-1.8-1.48-2.55-.66-.75-1.45-1.34-2.37-1.79s-2.02-.67-3.27-.67c-2.39,0-4.25.78-5.6,2.33-1.34,1.55-2.02,3.49-2.02,5.82,0,.66.09,1.61.27,2.87h-19.17c0-3.94.64-7.52,1.93-10.75,1.28-3.22,3.09-6,5.42-8.33,2.33-2.33,5.09-4.12,8.28-5.37,3.19-1.25,6.7-1.88,10.52-1.88s7.24.6,10.43,1.79,5.95,2.86,8.28,5.02c2.33,2.15,4.15,4.7,5.46,7.66,1.31,2.96,1.97,6.17,1.97,9.63,0,3.7-.79,7.12-2.38,10.25-1.58,3.13-4.1,6.34-7.57,9.63l-11.19,10.48h21.85v14.87Z"/>
      <path class="cls-1" d="M782.84,45.28h8.15v13.43h-8.15v13.88h-16.3v-13.88h-32.6v-11.28l25.79-42.36h23.11v40.21ZM766.54,45.28v-26.6l-15.49,26.6h15.49Z"/>
    </g>
    <g>
      <path class="cls-1" d="M195.55,101.92v22.26h-7.42v-22.26h-6.1v-6.28h19.61v6.28h-6.1Z"/>
      <path class="cls-1" d="M209.18,115.62c0,2.95,1.39,4.43,4.16,4.43,1.49,0,2.61-.61,3.37-1.82h6.63c-1.34,4.44-4.68,6.66-10.03,6.66-1.64,0-3.14-.24-4.51-.74-1.36-.49-2.53-1.19-3.5-2.1s-1.72-1.99-2.25-3.26c-.53-1.26-.8-2.67-.8-4.24s.25-3.07.76-4.37c.5-1.3,1.22-2.4,2.16-3.31.93-.91,2.06-1.61,3.39-2.1s2.82-.74,4.49-.74,3.12.25,4.43.74c1.31.49,2.42,1.2,3.33,2.14.91.93,1.6,2.08,2.08,3.43.48,1.35.72,2.87.72,4.56v.72h-14.42ZM217.2,111.65c-.23-.96-.69-1.73-1.4-2.31s-1.57-.87-2.58-.87-1.92.28-2.59.83c-.67.56-1.09,1.34-1.27,2.35h7.84Z"/>
      <path class="cls-1" d="M227.5,104.76h6.85v2.46c.93-1.14,1.88-1.9,2.84-2.29.96-.39,2.08-.59,3.37-.59,1.36,0,2.53.22,3.5.66s1.8,1.07,2.48,1.87c.56.66.93,1.39,1.14,2.2.2.81.3,1.73.3,2.76v12.34h-6.85v-9.81c0-.96-.07-1.73-.21-2.33-.14-.59-.39-1.07-.74-1.42-.3-.3-.64-.52-1.02-.64s-.78-.19-1.21-.19c-1.16,0-2.05.35-2.67,1.04s-.93,1.68-.93,2.97v10.37h-6.85v-19.42Z"/>
      <path class="cls-1" d="M260.28,110.48v13.7h-6.85v-13.7h-2.27v-5.72h2.27v-5.83h6.85v5.83h3.9v5.72h-3.9Z"/>
      <path class="cls-1" d="M267.63,92.76h6.85v14.46c.93-1.14,1.88-1.9,2.84-2.29.96-.39,2.08-.59,3.37-.59,2.45,0,4.3.67,5.55,2.03,1.25,1.35,1.88,3.17,1.88,5.47v12.34h-6.85v-9.81c0-.98-.08-1.78-.23-2.39-.15-.61-.4-1.07-.76-1.4-.6-.53-1.34-.8-2.19-.8-1.16,0-2.05.35-2.67,1.04s-.93,1.68-.93,2.97v10.37h-6.85v-31.42Z"/>
      <path class="cls-2" d="M304.52,124.18l6.01-30.69,9.8,22.18,10.15-22.18,5.4,30.69h-4.42l-2.75-17.23-8.45,18.54-8.21-18.56-3.07,17.25h-4.46Z"/>
      <path class="cls-2" d="M357.52,116.16h-12.9c.11,1.48.59,2.66,1.44,3.53.85.86,1.94,1.29,3.27,1.29,1.03,0,1.89-.25,2.57-.74.67-.49,1.42-1.41,2.27-2.74l3.51,1.96c-.54.92-1.11,1.72-1.72,2.38-.6.66-1.25,1.2-1.94,1.63-.69.42-1.44.73-2.24.93-.8.2-1.67.3-2.61.3-2.69,0-4.84-.86-6.47-2.59-1.63-1.74-2.44-4.04-2.44-6.91s.79-5.15,2.37-6.91c1.59-1.74,3.7-2.61,6.32-2.61s4.75.85,6.29,2.53c1.53,1.68,2.29,4,2.29,6.97l-.02.98ZM353.25,112.76c-.58-2.22-1.98-3.33-4.2-3.33-.5,0-.98.08-1.42.23-.44.15-.85.38-1.21.66s-.67.64-.93,1.04c-.26.41-.46.87-.59,1.39h8.36Z"/>
      <path class="cls-2" d="M366.93,114.44l-6.47-8.26h4.95l4.01,5.25,4.09-5.25h5.1l-6.65,8.26,7.71,9.74h-4.95l-5.29-6.73-5.42,6.73h-5.08l8-9.74Z"/>
      <path class="cls-2" d="M381.85,98.69c0-.73.27-1.36.8-1.89s1.16-.8,1.91-.8,1.39.27,1.92.8c.53.52.8,1.15.8,1.9s-.27,1.39-.8,1.92c-.52.53-1.15.8-1.9.8s-1.39-.27-1.92-.8-.8-1.18-.8-1.94ZM386.64,106.17v18h-4.16v-18h4.16Z"/>
      <path class="cls-2" d="M405.92,106.95v5.53c-.95-1.16-1.8-1.95-2.55-2.39-.74-.44-1.61-.67-2.61-.67-1.57,0-2.86.55-3.9,1.65s-1.55,2.47-1.55,4.12.5,3.08,1.5,4.16c1.01,1.08,2.3,1.63,3.86,1.63,1,0,1.88-.21,2.64-.65.74-.42,1.61-1.23,2.61-2.44v5.49c-1.69.88-3.38,1.31-5.07,1.31-2.78,0-5.12-.9-6.99-2.7-1.87-1.81-2.81-4.06-2.81-6.75s.95-4.95,2.85-6.8c1.9-1.85,4.23-2.77,6.99-2.77,1.77,0,3.45.43,5.03,1.28Z"/>
      <path class="cls-2" d="M423.22,106.17h4.18v18h-4.18v-1.89c-1.71,1.6-3.56,2.4-5.53,2.4-2.49,0-4.55-.9-6.17-2.7-1.61-1.84-2.42-4.13-2.42-6.88s.81-4.95,2.42-6.75c1.61-1.8,3.64-2.7,6.06-2.7,2.1,0,3.98.86,5.64,2.59v-2.09ZM413.35,115.12c0,1.73.46,3.13,1.39,4.22.95,1.1,2.15,1.64,3.59,1.64,1.54,0,2.79-.53,3.73-1.59.95-1.1,1.42-2.49,1.42-4.18s-.47-3.08-1.42-4.18c-.95-1.07-2.18-1.61-3.7-1.61-1.43,0-2.63.54-3.59,1.63-.95,1.1-1.42,2.45-1.42,4.07Z"/>
      <path class="cls-2" d="M432.65,106.17h4.18v1.66c1.46-1.44,3.09-2.16,4.92-2.16,2.09,0,3.73.66,4.9,1.98,1.01,1.12,1.52,2.95,1.52,5.49v11.04h-4.18v-10.06c0-1.77-.25-3-.74-3.68-.48-.69-1.36-1.04-2.62-1.04-1.38,0-2.36.46-2.94,1.37-.57.9-.85,2.47-.85,4.71v8.69h-4.18v-18Z"/>
      <path class="cls-2" d="M479.11,106.95v5.53c-.95-1.16-1.8-1.95-2.55-2.39-.74-.44-1.61-.67-2.61-.67-1.57,0-2.86.55-3.9,1.65s-1.55,2.47-1.55,4.12.5,3.08,1.5,4.16c1.01,1.08,2.3,1.63,3.86,1.63,1,0,1.88-.21,2.64-.65.74-.42,1.61-1.23,2.61-2.44v5.49c-1.69.88-3.38,1.31-5.07,1.31-2.78,0-5.12-.9-6.99-2.7-1.87-1.81-2.81-4.06-2.81-6.75s.95-4.95,2.85-6.8c1.9-1.85,4.23-2.77,6.99-2.77,1.77,0,3.45.43,5.03,1.28Z"/>
      <path class="cls-2" d="M482.28,115.05c0-2.6.93-4.81,2.79-6.64,1.86-1.82,4.13-2.74,6.8-2.74s4.97.92,6.84,2.75c1.85,1.84,2.77,4.09,2.77,6.77s-.93,4.96-2.79,6.78c-1.87,1.81-4.17,2.72-6.89,2.72s-4.96-.93-6.78-2.77c-1.82-1.82-2.74-4.12-2.74-6.88ZM486.54,115.12c0,1.8.48,3.22,1.44,4.27.99,1.06,2.28,1.59,3.9,1.59s2.93-.52,3.9-1.57c.97-1.05,1.46-2.45,1.46-4.2s-.49-3.15-1.46-4.2c-.99-1.06-2.28-1.59-3.9-1.59s-2.88.53-3.86,1.59-1.48,2.43-1.48,4.1Z"/>
      <path class="cls-2" d="M505.89,106.17h4.18v1.66c1.46-1.44,3.09-2.16,4.92-2.16,2.09,0,3.73.66,4.9,1.98,1.01,1.12,1.52,2.95,1.52,5.49v11.04h-4.18v-10.06c0-1.77-.25-3-.74-3.68-.48-.69-1.36-1.04-2.62-1.04-1.38,0-2.36.46-2.94,1.37-.57.9-.85,2.47-.85,4.71v8.69h-4.18v-18Z"/>
      <path class="cls-2" d="M530.96,110.06v14.12h-4.18v-14.12h-1.48v-3.88h1.48v-6.95c0-2.27.39-3.87,1.18-4.81,1.08-1.31,2.66-1.96,4.73-1.96.74,0,1.67.21,2.79.65v4.25l-.43-.22c-.9-.46-1.64-.68-2.22-.68-.74,0-1.24.27-1.5.8-.26.52-.39,1.52-.39,2.99v5.93h4.53v3.88h-4.53Z"/>
      <path class="cls-2" d="M554.86,116.16h-12.9c.11,1.48.59,2.66,1.44,3.53.85.86,1.94,1.29,3.27,1.29,1.03,0,1.89-.25,2.57-.74.67-.49,1.42-1.41,2.27-2.74l3.51,1.96c-.54.92-1.11,1.72-1.72,2.38-.6.66-1.25,1.2-1.94,1.63-.69.42-1.44.73-2.24.93-.8.2-1.67.3-2.61.3-2.69,0-4.84-.86-6.47-2.59-1.63-1.74-2.44-4.04-2.44-6.91s.79-5.15,2.37-6.91c1.59-1.74,3.7-2.61,6.32-2.61s4.75.85,6.29,2.53c1.53,1.68,2.29,4,2.29,6.97l-.02.98ZM550.59,112.76c-.58-2.22-1.98-3.33-4.2-3.33-.5,0-.98.08-1.42.23-.44.15-.85.38-1.21.66s-.67.64-.93,1.04c-.26.41-.46.87-.59,1.39h8.36Z"/>
      <path class="cls-2" d="M559.41,106.17h4.16v1.61c.76-.8,1.44-1.35,2.03-1.64.6-.31,1.32-.46,2.14-.46,1.1,0,2.24.36,3.44,1.07l-1.91,3.81c-.79-.57-1.56-.85-2.31-.85-2.27,0-3.4,1.71-3.4,5.14v9.34h-4.16v-18Z"/>
      <path class="cls-2" d="M589.7,116.16h-12.9c.11,1.48.59,2.66,1.44,3.53.85.86,1.94,1.29,3.27,1.29,1.03,0,1.89-.25,2.57-.74.67-.49,1.42-1.41,2.27-2.74l3.51,1.96c-.54.92-1.11,1.72-1.72,2.38-.6.66-1.25,1.2-1.94,1.63-.69.42-1.44.73-2.24.93-.8.2-1.67.3-2.61.3-2.69,0-4.84-.86-6.47-2.59-1.63-1.74-2.44-4.04-2.44-6.91s.79-5.15,2.37-6.91c1.59-1.74,3.7-2.61,6.32-2.61s4.75.85,6.29,2.53c1.53,1.68,2.29,4,2.29,6.97l-.02.98ZM585.43,112.76c-.58-2.22-1.98-3.33-4.2-3.33-.5,0-.98.08-1.42.23-.44.15-.85.38-1.21.66s-.67.64-.93,1.04c-.26.41-.46.87-.59,1.39h8.36Z"/>
      <path class="cls-2" d="M594.25,106.17h4.18v1.66c1.46-1.44,3.09-2.16,4.92-2.16,2.09,0,3.73.66,4.9,1.98,1.01,1.12,1.52,2.95,1.52,5.49v11.04h-4.18v-10.06c0-1.77-.25-3-.74-3.68-.48-.69-1.36-1.04-2.62-1.04-1.38,0-2.36.46-2.94,1.37-.57.9-.85,2.47-.85,4.71v8.69h-4.18v-18Z"/>
      <path class="cls-2" d="M629.02,106.95v5.53c-.95-1.16-1.8-1.95-2.55-2.39-.74-.44-1.61-.67-2.61-.67-1.57,0-2.86.55-3.9,1.65-1.04,1.1-1.55,2.47-1.55,4.12s.5,3.08,1.5,4.16c1.01,1.08,2.3,1.63,3.86,1.63,1,0,1.88-.21,2.64-.65.74-.42,1.61-1.23,2.61-2.44v5.49c-1.69.88-3.38,1.31-5.07,1.31-2.78,0-5.12-.9-6.99-2.7-1.87-1.81-2.81-4.06-2.81-6.75s.95-4.95,2.85-6.8c1.9-1.85,4.23-2.77,6.99-2.77,1.77,0,3.45.43,5.03,1.28Z"/>
      <path class="cls-2" d="M649.45,116.16h-12.9c.11,1.48.59,2.66,1.44,3.53.85.86,1.94,1.29,3.27,1.29,1.03,0,1.89-.25,2.57-.74.67-.49,1.42-1.41,2.27-2.74l3.51,1.96c-.54.92-1.11,1.72-1.72,2.38-.6.66-1.25,1.2-1.94,1.63-.69.42-1.44.73-2.24.93-.8.2-1.67.3-2.61.3-2.69,0-4.84-.86-6.47-2.59-1.63-1.74-2.44-4.04-2.44-6.91s.79-5.15,2.37-6.91c1.59-1.74,3.7-2.61,6.32-2.61s4.75.85,6.29,2.53c1.53,1.68,2.29,4,2.29,6.97l-.02.98ZM645.18,112.76c-.58-2.22-1.98-3.33-4.2-3.33-.5,0-.98.08-1.42.23-.44.15-.85.38-1.21.66s-.67.64-.93,1.04c-.26.41-.46.87-.59,1.39h8.36Z"/>
      <path class="cls-2" d="M183.5,150c0-2.6.93-4.81,2.79-6.64,1.86-1.82,4.13-2.74,6.8-2.74s4.97.92,6.84,2.75c1.85,1.84,2.77,4.09,2.77,6.77s-.93,4.96-2.79,6.78c-1.87,1.81-4.17,2.72-6.89,2.72s-4.96-.93-6.78-2.77c-1.82-1.82-2.74-4.12-2.74-6.88ZM187.76,150.07c0,1.8.48,3.22,1.44,4.27.99,1.06,2.28,1.59,3.9,1.59s2.93-.52,3.9-1.57c.97-1.05,1.46-2.45,1.46-4.2s-.49-3.15-1.46-4.2c-.99-1.06-2.28-1.59-3.9-1.59s-2.88.53-3.86,1.59c-.99,1.06-1.48,2.43-1.48,4.1Z"/>
      <path class="cls-2" d="M207.11,141.12h4.18v1.66c1.46-1.44,3.09-2.16,4.92-2.16,2.09,0,3.73.66,4.9,1.98,1.01,1.12,1.52,2.95,1.52,5.49v11.04h-4.18v-10.06c0-1.77-.25-3-.74-3.68-.48-.69-1.36-1.04-2.62-1.04-1.38,0-2.36.46-2.94,1.37-.57.9-.85,2.47-.85,4.71v8.69h-4.18v-18Z"/>
      <path class="cls-1" d="M247.34,141.6h10.71v-11.02h7.42v28.55h-7.42v-11.77h-10.71v11.77h-7.42v-28.55h7.42v11.02Z"/>
      <path class="cls-1" d="M277.66,139.71v10.94c0,2.4,1.16,3.6,3.48,3.6s3.48-1.2,3.48-3.6v-10.94h6.85v12.27c0,2.63-.87,4.59-2.59,5.91-1.73,1.31-4.31,1.97-7.74,1.97s-6.01-.66-7.74-1.97c-1.73-1.31-2.59-3.28-2.59-5.91v-12.27h6.85Z"/>
      <path class="cls-1" d="M296.14,139.71h6.85v2.39c1.87-1.79,3.96-2.69,6.28-2.69,2.88,0,5.07,1.21,6.59,3.63,1.54-2.45,3.73-3.67,6.59-3.67.91,0,1.76.13,2.57.4.81.27,1.5.68,2.08,1.25s1.04,1.31,1.38,2.21c.34.91.51,2.01.51,3.29v12.61h-6.85v-9.58c0-.98-.07-1.79-.21-2.42-.14-.63-.34-1.12-.61-1.48s-.57-.59-.93-.72-.73-.19-1.13-.19c-2.2,0-3.29,1.6-3.29,4.81v9.58h-6.85v-9.58c0-.98-.06-1.8-.19-2.44-.13-.64-.31-1.15-.55-1.53-.24-.38-.55-.64-.93-.77-.38-.14-.82-.21-1.33-.21-.43,0-.83.06-1.21.19s-.71.37-1,.74c-.29.37-.52.87-.68,1.51-.16.64-.25,1.48-.25,2.52v9.58h-6.85v-19.42Z"/>
      <path class="cls-1" d="M348.68,139.71h6.89v19.42h-6.89v-2.16c-1.46,1.84-3.45,2.76-5.94,2.76-1.41,0-2.71-.26-3.9-.78-1.19-.52-2.22-1.24-3.11-2.18s-1.57-2.03-2.06-3.29c-.49-1.26-.74-2.64-.74-4.13,0-1.39.24-2.71.72-3.96.48-1.25,1.15-2.34,2.01-3.27.86-.93,1.88-1.67,3.07-2.21,1.19-.54,2.5-.81,3.94-.81,2.42,0,4.43.85,6.02,2.54v-1.93ZM340.05,149.36c0,.63.11,1.22.34,1.76s.54,1.02.93,1.42.86.72,1.4.95c.54.23,1.13.34,1.76.34s1.18-.11,1.72-.34c.54-.23,1.01-.54,1.4-.95s.71-.87.95-1.4c.24-.53.36-1.1.36-1.7s-.12-1.18-.36-1.72c-.24-.54-.55-1.02-.95-1.42s-.86-.72-1.4-.95c-.54-.23-1.12-.34-1.72-.34s-1.22.11-1.76.34c-.54.23-1.01.54-1.4.95s-.7.86-.93,1.38-.34,1.08-.34,1.68Z"/>
      <path class="cls-1" d="M360.23,139.71h6.85v2.46c.93-1.14,1.88-1.9,2.84-2.29.96-.39,2.08-.59,3.37-.59,1.36,0,2.53.22,3.5.66s1.8,1.07,2.48,1.87c.56.66.93,1.39,1.14,2.2.2.81.3,1.73.3,2.76v12.34h-6.85v-9.81c0-.96-.07-1.73-.21-2.33-.14-.59-.39-1.07-.74-1.42-.3-.3-.64-.52-1.02-.64s-.78-.19-1.21-.19c-1.16,0-2.05.35-2.67,1.04s-.93,1.68-.93,2.97v10.37h-6.85v-19.42Z"/>
      <path class="cls-1" d="M383.02,146.14h10.87v5.72h-10.87v-5.72Z"/>
      <path class="cls-1" d="M417.44,140.12c-1.72-2.09-3.84-3.14-6.36-3.14-1.11,0-2.14.2-3.09.6-.95.41-1.76.95-2.44,1.65s-1.22,1.52-1.61,2.48c-.39.96-.59,1.99-.59,3.1s.19,2.18.59,3.14c.39.96.93,1.79,1.63,2.5s1.51,1.26,2.44,1.66c.93.41,1.94.61,3.03.61,2.37,0,4.51-1.01,6.4-3.03v8.78l-.76.27c-1.14.4-2.2.7-3.18.89-.98.19-1.96.28-2.92.28-1.97,0-3.86-.37-5.66-1.12-1.8-.74-3.4-1.79-4.77-3.14-1.38-1.35-2.48-2.95-3.31-4.81-.83-1.86-1.25-3.88-1.25-6.08s.41-4.21,1.23-6.04c.82-1.83,1.92-3.41,3.29-4.73,1.38-1.33,2.97-2.36,4.79-3.1,1.82-.74,3.72-1.12,5.72-1.12,1.13,0,2.25.12,3.35.36,1.1.24,2.25.61,3.46,1.12v8.86Z"/>
      <path class="cls-1" d="M420.73,149.25c0-1.44.29-2.78.87-4.03.58-1.25,1.39-2.33,2.42-3.26,1.03-.92,2.26-1.65,3.69-2.18s2.99-.8,4.68-.8,3.21.26,4.64.78c1.43.52,2.66,1.24,3.71,2.16,1.05.92,1.86,2.02,2.44,3.29s.87,2.68.87,4.22-.3,2.95-.89,4.22c-.59,1.27-1.41,2.37-2.44,3.29-1.03.92-2.28,1.63-3.73,2.14s-3.02.76-4.71.76-3.2-.25-4.62-.76-2.63-1.22-3.65-2.16c-1.02-.93-1.82-2.05-2.4-3.35-.58-1.3-.87-2.74-.87-4.33ZM427.96,149.32c0,.66.12,1.26.36,1.8.24.54.55,1.02.95,1.42s.86.72,1.4.95c.54.23,1.12.34,1.72.34s1.18-.11,1.72-.34c.54-.23,1.01-.54,1.4-.95.39-.4.7-.88.95-1.42.24-.54.36-1.13.36-1.76s-.12-1.18-.36-1.72c-.24-.54-.56-1.02-.95-1.42-.39-.4-.86-.72-1.4-.95-.54-.23-1.12-.34-1.72-.34s-1.18.11-1.72.34c-.54.23-1.01.54-1.4.95s-.71.87-.95,1.4c-.24.53-.36,1.1-.36,1.7Z"/>
      <path class="cls-1" d="M447.99,139.71h6.85v2.39c1.87-1.79,3.96-2.69,6.28-2.69,2.88,0,5.07,1.21,6.59,3.63,1.54-2.45,3.73-3.67,6.59-3.67.91,0,1.76.13,2.57.4.81.27,1.5.68,2.08,1.25s1.04,1.31,1.38,2.21c.34.91.51,2.01.51,3.29v12.61h-6.85v-9.58c0-.98-.07-1.79-.21-2.42-.14-.63-.34-1.12-.61-1.48s-.57-.59-.93-.72-.73-.19-1.13-.19c-2.2,0-3.29,1.6-3.29,4.81v9.58h-6.85v-9.58c0-.98-.06-1.8-.19-2.44-.13-.64-.31-1.15-.55-1.53-.24-.38-.55-.64-.93-.77-.38-.14-.82-.21-1.33-.21-.43,0-.83.06-1.21.19s-.71.37-1,.74c-.29.37-.52.87-.68,1.51-.16.64-.25,1.48-.25,2.52v9.58h-6.85v-19.42Z"/>
      <path class="cls-1" d="M493.08,168.82h-6.85v-29.11h6.85v2.16c1.46-1.84,3.46-2.76,5.98-2.76,1.39,0,2.68.27,3.88.81,1.2.54,2.24,1.28,3.12,2.21s1.57,2.03,2.06,3.29c.49,1.26.74,2.61.74,4.05s-.25,2.78-.74,4.01c-.49,1.24-1.17,2.32-2.04,3.26-.87.93-1.9,1.67-3.09,2.2-1.19.53-2.47.8-3.86.8-2.42,0-4.44-.83-6.06-2.5v11.58ZM501.71,149.47c0-.6-.11-1.18-.32-1.72-.21-.54-.52-1.01-.93-1.42-.4-.4-.88-.72-1.42-.96-.54-.24-1.13-.36-1.76-.36s-1.17.11-1.7.34-.99.54-1.38.95c-.39.4-.71.88-.95,1.42-.24.54-.36,1.12-.36,1.72s.11,1.17.34,1.7.54.99.95,1.38c.4.39.88.71,1.42.95.54.24,1.12.36,1.72.36s1.17-.11,1.7-.34.99-.54,1.38-.95.71-.87.95-1.4c.24-.53.36-1.08.36-1.67Z"/>
      <path class="cls-1" d="M519.62,139.71v10.94c0,2.4,1.16,3.6,3.48,3.6s3.48-1.2,3.48-3.6v-10.94h6.85v12.27c0,2.63-.87,4.59-2.59,5.91-1.73,1.31-4.31,1.97-7.74,1.97s-6.01-.66-7.74-1.97c-1.73-1.31-2.59-3.28-2.59-5.91v-12.27h6.85Z"/>
      <path class="cls-1" d="M545.74,145.43v13.7h-6.85v-13.7h-2.27v-5.72h2.27v-5.83h6.85v5.83h3.9v5.72h-3.9Z"/>
      <path class="cls-1" d="M558.76,150.57c0,2.95,1.39,4.43,4.16,4.43,1.49,0,2.61-.61,3.37-1.82h6.63c-1.34,4.44-4.68,6.66-10.03,6.66-1.64,0-3.14-.24-4.51-.74-1.36-.49-2.53-1.19-3.5-2.1s-1.72-1.99-2.25-3.26c-.53-1.26-.8-2.67-.8-4.24s.25-3.07.76-4.37c.5-1.3,1.22-2.4,2.16-3.31.93-.91,2.06-1.61,3.39-2.1s2.82-.74,4.49-.74,3.12.25,4.43.74c1.31.49,2.42,1.2,3.33,2.14.91.93,1.6,2.08,2.08,3.43.48,1.35.72,2.87.72,4.56v.72h-14.42ZM566.79,146.6c-.23-.96-.69-1.73-1.4-2.31s-1.57-.87-2.58-.87-1.92.28-2.59.83c-.67.56-1.09,1.34-1.27,2.35h7.84Z"/>
      <path class="cls-1" d="M577.08,139.71h6.85v3.18c.73-1.16,1.63-2.05,2.69-2.67s2.3-.93,3.71-.93h.59c.21,0,.46.03.74.08v6.55c-.91-.45-1.89-.68-2.95-.68-1.59,0-2.78.47-3.58,1.42-.8.95-1.19,2.33-1.19,4.14v8.33h-6.85v-19.42Z"/>
      <path class="cls-1" d="M615.62,130.58v28.55h-7.42v-28.55h7.42Z"/>
      <path class="cls-1" d="M620.96,139.71h6.85v2.46c.93-1.14,1.88-1.9,2.84-2.29.96-.39,2.08-.59,3.37-.59,1.36,0,2.53.22,3.5.66s1.8,1.07,2.48,1.87c.56.66.93,1.39,1.14,2.2.2.81.3,1.73.3,2.76v12.34h-6.85v-9.81c0-.96-.07-1.73-.21-2.33-.14-.59-.39-1.07-.74-1.42-.3-.3-.64-.52-1.02-.64s-.78-.19-1.21-.19c-1.16,0-2.05.35-2.67,1.04-.62.69-.93,1.68-.93,2.97v10.37h-6.85v-19.42Z"/>
      <path class="cls-1" d="M653.75,145.43v13.7h-6.85v-13.7h-2.27v-5.72h2.27v-5.83h6.85v5.83h3.9v5.72h-3.9Z"/>
      <path class="cls-1" d="M666.77,150.57c0,2.95,1.39,4.43,4.16,4.43,1.49,0,2.61-.61,3.37-1.82h6.63c-1.34,4.44-4.68,6.66-10.03,6.66-1.64,0-3.14-.24-4.51-.74-1.36-.49-2.53-1.19-3.5-2.1s-1.72-1.99-2.25-3.26c-.53-1.26-.8-2.67-.8-4.24s.25-3.07.76-4.37c.5-1.3,1.22-2.4,2.16-3.31.93-.91,2.06-1.61,3.39-2.1s2.82-.74,4.49-.74,3.12.25,4.43.74c1.31.49,2.42,1.2,3.33,2.14.91.93,1.6,2.08,2.08,3.43.48,1.35.72,2.87.72,4.56v.72h-14.42ZM674.8,146.6c-.23-.96-.69-1.73-1.4-2.31s-1.57-.87-2.58-.87-1.92.28-2.59.83c-.67.56-1.09,1.34-1.27,2.35h7.84Z"/>
      <path class="cls-1" d="M685.09,139.71h6.85v3.18c.73-1.16,1.63-2.05,2.69-2.67s2.3-.93,3.71-.93h.59c.21,0,.46.03.74.08v6.55c-.91-.45-1.89-.68-2.95-.68-1.59,0-2.78.47-3.58,1.42-.8.95-1.19,2.33-1.19,4.14v8.33h-6.85v-19.42Z"/>
      <path class="cls-1" d="M717.95,139.71h6.89v19.42h-6.89v-2.16c-1.46,1.84-3.45,2.76-5.94,2.76-1.41,0-2.71-.26-3.9-.78-1.19-.52-2.22-1.24-3.11-2.18s-1.57-2.03-2.06-3.29c-.49-1.26-.74-2.64-.74-4.13,0-1.39.24-2.71.72-3.96.48-1.25,1.15-2.34,2.01-3.27.86-.93,1.88-1.67,3.07-2.21,1.19-.54,2.5-.81,3.94-.81,2.42,0,4.43.85,6.02,2.54v-1.93ZM709.32,149.36c0,.63.11,1.22.34,1.76s.54,1.02.93,1.42.86.72,1.4.95c.54.23,1.13.34,1.76.34s1.18-.11,1.72-.34c.54-.23,1.01-.54,1.4-.95s.71-.87.95-1.4c.24-.53.36-1.1.36-1.7s-.12-1.18-.36-1.72c-.24-.54-.55-1.02-.95-1.42s-.86-.72-1.4-.95c-.54-.23-1.12-.34-1.72-.34s-1.22.11-1.76.34c-.54.23-1.01.54-1.4.95s-.7.86-.93,1.38-.34,1.08-.34,1.68Z"/>
      <path class="cls-1" d="M744.15,145.99c-1.19-.81-2.39-1.21-3.6-1.21-.66,0-1.27.11-1.84.34s-1.07.55-1.5.97c-.43.42-.76.91-1,1.48-.24.57-.36,1.21-.36,1.91s.12,1.31.36,1.88c.24.57.57,1.06.99,1.48.42.42.91.74,1.49.97s1.2.34,1.86.34c1.29,0,2.49-.44,3.6-1.33v5.83c-1.69.73-3.29,1.1-4.81,1.1-1.41,0-2.76-.24-4.03-.72-1.27-.48-2.4-1.17-3.37-2.06s-1.75-1.97-2.33-3.22c-.58-1.25-.87-2.64-.87-4.18s.28-2.95.83-4.22c.55-1.27,1.31-2.37,2.27-3.29s2.1-1.64,3.43-2.16c1.33-.52,2.74-.77,4.26-.77,1.67,0,3.21.35,4.62,1.06v5.83Z"/>
      <path class="cls-1" d="M755.7,145.43v13.7h-6.85v-13.7h-2.27v-5.72h2.27v-5.83h6.85v5.83h3.9v5.72h-3.9Z"/>
      <path class="cls-1" d="M762.25,132.25c0-.53.1-1.03.3-1.5.2-.47.48-.88.83-1.23.35-.35.76-.63,1.23-.83.47-.2.97-.3,1.5-.3s1.03.1,1.5.3c.47.2.88.48,1.23.83s.63.76.83,1.23c.2.47.3.97.3,1.5s-.1,1.03-.3,1.49c-.2.47-.48.88-.83,1.23s-.76.63-1.23.83c-.47.2-.97.3-1.5.3s-1.03-.1-1.5-.3c-.47-.2-.88-.48-1.23-.83-.36-.35-.63-.76-.83-1.23-.2-.47-.3-.96-.3-1.49ZM769.55,139.71v19.42h-6.85v-19.42h6.85Z"/>
      <path class="cls-1" d="M773.49,149.25c0-1.44.29-2.78.87-4.03.58-1.25,1.39-2.33,2.42-3.26,1.03-.92,2.26-1.65,3.69-2.18s2.99-.8,4.68-.8,3.21.26,4.64.78c1.43.52,2.66,1.24,3.71,2.16,1.05.92,1.86,2.02,2.44,3.29s.87,2.68.87,4.22-.3,2.95-.89,4.22c-.59,1.27-1.41,2.37-2.44,3.29-1.03.92-2.28,1.63-3.73,2.14s-3.02.76-4.71.76-3.2-.25-4.62-.76-2.63-1.22-3.65-2.16c-1.02-.93-1.82-2.05-2.4-3.35-.58-1.3-.87-2.74-.87-4.33ZM780.72,149.32c0,.66.12,1.26.36,1.8.24.54.55,1.02.95,1.42s.86.72,1.4.95c.54.23,1.12.34,1.72.34s1.18-.11,1.72-.34c.54-.23,1.01-.54,1.4-.95.39-.4.7-.88.95-1.42.24-.54.36-1.13.36-1.76s-.12-1.18-.36-1.72c-.24-.54-.56-1.02-.95-1.42-.39-.4-.86-.72-1.4-.95-.54-.23-1.12-.34-1.72-.34s-1.18.11-1.72.34c-.54.23-1.01.54-1.4.95s-.71.87-.95,1.4c-.24.53-.36,1.1-.36,1.7Z"/>
      <path class="cls-1" d="M800.75,139.71h6.85v2.46c.93-1.14,1.88-1.9,2.84-2.29.96-.39,2.08-.59,3.37-.59,1.36,0,2.53.22,3.5.66s1.8,1.07,2.48,1.87c.56.66.93,1.39,1.14,2.2.2.81.3,1.73.3,2.76v12.34h-6.85v-9.81c0-.96-.07-1.73-.21-2.33-.14-.59-.39-1.07-.74-1.42-.3-.3-.64-.52-1.02-.64s-.78-.19-1.21-.19c-1.16,0-2.05.35-2.67,1.04s-.93,1.68-.93,2.97v10.37h-6.85v-19.42Z"/>
    </g>
  </g>
</svg>