<?xml version="1.0" encoding="UTF-8"?>
<svg id="Capa_2" data-name="Capa 2" xmlns="http://www.w3.org/2000/svg" viewBox="0 0 940.27 242.23">
  <defs>
    <style>
      .cls-1 {
        fill: #ad4a20;
      }

      .cls-1, .cls-2 {
        stroke-width: 0px;
      }

      .cls-2 {
        fill: #000;
      }
    </style>
  </defs>
  <g id="Capa_1-2" data-name="Capa 1">
    <g>
      <path class="cls-1" d="M0,32.89c5.19,0,10.03,0,14.88,0,11.66,0,23.33.02,34.99-.03,1.31,0,2.06.41,2.82,1.46,12.4,17.15,24.84,34.27,37.28,51.39.91,1.26,1.94,2.43,2.88,3.67.8,1.05,1.4,1,2.18-.11,3.1-4.38,6.28-8.7,9.42-13.04,10.12-13.96,20.26-27.91,30.36-41.89.8-1.1,1.67-1.48,3.01-1.48,15.65.05,31.3.03,46.95.04.65,0,1.56-.36,1.9.39.29.64-.35,1.24-.75,1.8-21.13,29.41-42.25,58.83-63.37,88.25-2.89,4.02-2.8,4.7.23,8.55,5.02,6.4,9.94,12.88,14.96,19.27,1.11,1.41.29,2.8.19,4.12-.4,4.98-1.06,9.93-1.6,14.89-.92,8.62-1.84,17.24-2.72,25.86-.75,7.33-1.44,14.66-2.18,21.98-.06.59.14,1.41-.66,1.6-.79.18-.75-.73-1.08-1.14-3.41-4.11-6.22-8.66-9.25-13.04-4.55-6.56-8.93-13.24-13.39-19.86-3.56-5.29-7.14-10.58-10.72-15.86-.13-.19-.31-.34-.46-.52-2.14-2.49-2.68-2.45-4.51.26-4.86,7.21-9.76,14.39-14.61,21.61-4.6,6.84-9.12,13.74-13.78,20.54-1.93,2.81-3.91,5.62-6.4,8.14-1.09-1.82-.73-3.78-.93-5.59-.96-8.35-1.68-16.72-2.55-25.08-.63-6-1.4-11.98-2.03-17.98-.63-5.99-1.16-12-1.78-17.99-.1-.95.21-1.63.77-2.35,5.65-7.3,11.24-14.64,16.94-21.9.85-1.09.62-1.73-.05-2.67-11.25-15.62-22.49-31.26-33.72-46.9-10.56-14.7-21.11-29.42-31.66-44.13-.46-.65-.9-1.31-1.54-2.26Z"/>
      <path class="cls-1" d="M.92,56.25c-.28-3.19-.57-6.39-.89-10.02,1.92,1.72,2.96,3.56,4.2,5.21,10.81,14.37,21.56,28.78,32.37,43.16,1.28,1.7.85,3.67,1.07,5.5.92,7.72,1.68,15.46,2.48,23.19.61,5.9,1.18,11.8,1.79,17.7.56,5.38,1.17,10.76,1.71,16.14.62,6.19,1.16,12.39,1.79,18.58.75,7.45,1.57,14.9,2.33,22.35.72,7.04,1.39,14.09,2.08,21.14-.71.23-.97-.36-1.31-.67-11.91-10.81-23.8-21.64-35.72-32.44-.77-.7-1.04-1.5-1.12-2.42-.4-4.54-.75-9.08-1.14-13.62-.54-6.14-1.12-12.28-1.64-18.42-.41-4.82-.74-9.66-1.14-14.48-.52-6.2-1.08-12.41-1.61-18.61-.52-6.03-1.02-12.07-1.53-18.1-.52-6.15-1.05-12.29-1.56-18.44-.54-6.61-1.06-13.22-1.59-19.82-.02-1.84-.03-3.69-.05-5.54,0-.34.05-.78-.52-.39Z"/>
      <path class="cls-1" d="M148.44,113.62c.56-5.61,1.12-11.23,1.67-16.84.09-.89.4-1.63.95-2.36,11.68-15.59,23.33-31.21,35-46.8.25-.33.4-.86,1.11-.85.29,2.47-.25,4.89-.43,7.31-.5,6.44-1.04,12.87-1.59,19.3-.62,7.24-1.27,14.47-1.89,21.71-.54,6.38-1.04,12.75-1.58,19.13-.61,7.18-1.27,14.35-1.87,21.53-.56,6.66-1.06,13.33-1.6,19.99-.35,4.3-.74,8.61-1.12,12.91-.43,4.88-.95,9.74-1.26,14.63-.09,1.35-.59,2.27-1.51,3.08-4.64,4.1-9.22,8.25-13.78,12.43-4.58,4.19-9.23,8.32-13.75,12.58-2.84,2.69-5.79,5.26-8.86,8.04-.5-1.93.05-3.61.21-5.26.65-7.17,1.44-14.33,2.17-21.49.67-6.59,1.3-13.18,1.97-19.77.64-6.18,1.33-12.36,1.98-18.55.64-6.19,1.25-12.38,1.88-18.57.08-.74.22-1.48.33-2.22.47-.17.52-.55.54-.98.09-2.34.4-4.69.55-7,.26-3.99,1.29-7.92.9-11.95Z"/>
    </g>
    <g>
      <path class="cls-2" d="M223.24,86.29L240.13,0l27.55,62.38L296.22,0l15.18,86.29h-12.42l-7.75-48.45-23.76,52.14-23.08-52.19-8.63,48.5h-12.53Z"/>
      <path class="cls-2" d="M372.27,63.73h-36.28c.31,4.16,1.66,7.47,4.05,9.93,2.39,2.43,5.46,3.64,9.2,3.64,2.91,0,5.32-.69,7.22-2.08,1.87-1.39,4-3.95,6.39-7.69l9.88,5.51c-1.53,2.6-3.14,4.83-4.83,6.68-1.7,1.85-3.52,3.38-5.46,4.57-1.94,1.2-4.04,2.07-6.29,2.63-2.25.55-4.7.83-7.33.83-7.56,0-13.62-2.43-18.19-7.28-4.57-4.89-6.86-11.37-6.86-19.44s2.22-14.48,6.65-19.44c4.47-4.89,10.4-7.33,17.78-7.33s13.34,2.37,17.67,7.12c4.3,4.71,6.45,11.25,6.45,19.6l-.05,2.75ZM360.26,54.17c-1.63-6.24-5.56-9.36-11.8-9.36-1.42,0-2.76.22-4,.65-1.25.43-2.38,1.06-3.41,1.87-1.02.81-1.9,1.79-2.62,2.94s-1.28,2.44-1.66,3.9h23.5Z"/>
      <path class="cls-2" d="M398.73,58.9l-18.19-23.24h13.93l11.28,14.76,11.49-14.76h14.35l-18.71,23.24,21.68,27.39h-13.93l-14.87-18.92-15.23,18.92h-14.29l22.51-27.39Z"/>
      <path class="cls-2" d="M456.79,6.03v80.26h-12.11V6.03h12.11Z"/>
      <path class="cls-2" d="M488.19,37.43h34.62V6.03h12.11v80.26h-12.11v-37.48h-34.62v37.48h-12.11V6.03h12.11v31.4Z"/>
      <path class="cls-2" d="M613.46,10.34v14.35c-7-5.86-14.24-8.79-21.73-8.79-8.25,0-15.2,2.96-20.84,8.89-5.68,5.89-8.52,13.1-8.52,21.62s2.84,15.53,8.52,21.31c5.68,5.79,12.65,8.68,20.9,8.68,4.26,0,7.88-.69,10.86-2.08,1.66-.69,3.39-1.63,5.17-2.81,1.78-1.18,3.67-2.6,5.64-4.26v14.61c-6.93,3.92-14.21,5.87-21.83,5.87-11.47,0-21.26-4-29.37-12.01-8.07-8.07-12.11-17.81-12.11-29.21,0-10.22,3.38-19.34,10.14-27.34,8.32-9.81,19.08-14.71,32.28-14.71,7.21,0,14.17,1.96,20.9,5.87Z"/>
      <path class="cls-1" d="M719.58,86.29h-64.62l19.91-20.65c5.25-5.46,9.37-10.1,12.35-13.89,2.98-3.8,5.2-7.01,6.65-9.63,1.45-2.62,2.36-4.75,2.71-6.39.35-1.63.53-3.02.53-4.15,0-1.21-.2-2.38-.59-3.51-.39-1.13-.98-2.15-1.76-3.03-.78-.89-1.72-1.6-2.82-2.13-1.1-.53-2.4-.8-3.89-.8-2.84,0-5.06.92-6.65,2.77-1.6,1.85-2.4,4.15-2.4,6.92,0,.78.11,1.92.32,3.41h-22.78c0-4.68.76-8.94,2.29-12.78,1.53-3.83,3.67-7.13,6.44-9.9,2.77-2.77,6.05-4.9,9.85-6.39,3.8-1.49,7.97-2.24,12.51-2.24s8.61.71,12.4,2.13c3.8,1.42,7.08,3.41,9.85,5.96,2.77,2.56,4.93,5.59,6.49,9.1,1.56,3.51,2.34,7.33,2.34,11.44,0,4.4-.94,8.46-2.82,12.19-1.88,3.73-4.88,7.54-9,11.44l-13.31,12.46h25.98v17.67Z"/>
      <path class="cls-1" d="M726.5,46.05c0-6.39.83-12.19,2.5-17.41,1.67-5.22,4.01-9.67,7.03-13.36,3.02-3.69,6.6-6.55,10.75-8.57,4.15-2.02,8.75-3.03,13.79-3.03s9.54,1.01,13.73,3.03c4.19,2.02,7.77,4.88,10.75,8.57,2.98,3.69,5.3,8.14,6.97,13.36,1.67,5.22,2.5,11.02,2.5,17.41s-.84,12.19-2.5,17.41c-1.67,5.22-3.99,9.69-6.97,13.41-2.98,3.73-6.57,6.6-10.75,8.62-4.19,2.02-8.77,3.03-13.73,3.03s-9.64-1.01-13.79-3.03c-4.15-2.02-7.74-4.9-10.75-8.62-3.02-3.73-5.36-8.2-7.03-13.41-1.67-5.22-2.5-11.02-2.5-17.41ZM747.16,46.05c0,3.55.32,6.78.96,9.69.64,2.91,1.54,5.43,2.71,7.56,1.17,2.13,2.57,3.78,4.2,4.95,1.63,1.17,3.48,1.76,5.54,1.76s3.81-.59,5.48-1.76c1.67-1.17,3.07-2.82,4.2-4.95,1.13-2.13,2.02-4.65,2.66-7.56.64-2.91.96-6.14.96-9.69s-.32-6.69-.96-9.63c-.64-2.94-1.53-5.46-2.66-7.56-1.14-2.09-2.54-3.73-4.2-4.9-1.67-1.17-3.5-1.76-5.48-1.76s-3.9.59-5.54,1.76c-1.63,1.17-3.03,2.8-4.2,4.9-1.17,2.09-2.08,4.61-2.71,7.56-.64,2.95-.96,6.16-.96,9.63Z"/>
      <path class="cls-1" d="M864.37,86.29h-64.62l19.91-20.65c5.25-5.46,9.37-10.1,12.35-13.89,2.98-3.8,5.2-7.01,6.65-9.63,1.45-2.62,2.36-4.75,2.71-6.39.35-1.63.53-3.02.53-4.15,0-1.21-.2-2.38-.59-3.51-.39-1.13-.98-2.15-1.76-3.03-.78-.89-1.72-1.6-2.82-2.13-1.1-.53-2.4-.8-3.89-.8-2.84,0-5.06.92-6.65,2.77-1.6,1.85-2.4,4.15-2.4,6.92,0,.78.11,1.92.32,3.41h-22.78c0-4.68.76-8.94,2.29-12.78,1.53-3.83,3.67-7.13,6.44-9.9,2.77-2.77,6.05-4.9,9.85-6.39,3.8-1.49,7.97-2.24,12.51-2.24s8.61.71,12.4,2.13c3.8,1.42,7.08,3.41,9.85,5.96,2.77,2.56,4.93,5.59,6.49,9.1,1.56,3.51,2.34,7.33,2.34,11.44,0,4.4-.94,8.46-2.82,12.19-1.88,3.73-4.88,7.54-9,11.44l-13.31,12.46h25.98v17.67Z"/>
      <path class="cls-1" d="M930.58,53.82h9.69v15.97h-9.69v16.5h-19.38v-16.5h-38.75v-13.41l30.66-50.36h27.47v47.8ZM911.21,53.82v-31.62l-18.42,31.62h18.42Z"/>
    </g>
    <g>
      <path class="cls-1" d="M219.58,113.68h13.05c2.31,0,4.48.47,6.5,1.39,2.03.93,3.79,2.17,5.31,3.71,1.51,1.55,2.71,3.35,3.58,5.4.87,2.06,1.3,4.21,1.3,6.46s-.43,4.36-1.28,6.41c-.85,2.06-2.04,3.86-3.56,5.42-1.52,1.56-3.29,2.81-5.31,3.74s-4.21,1.39-6.55,1.39h-13.05v-33.93ZM228.4,140.14h2.02c1.53,0,2.9-.24,4.1-.72,1.2-.48,2.21-1.14,3.04-1.98.83-.84,1.46-1.84,1.89-2.99.43-1.15.65-2.42.65-3.8s-.23-2.61-.67-3.78c-.45-1.17-1.09-2.18-1.91-3.02-.83-.84-1.84-1.5-3.04-1.98-1.2-.48-2.55-.72-4.05-.72h-2.02v18.99Z"/>
      <path class="cls-1" d="M261.52,137.44c0,3.51,1.65,5.27,4.95,5.27,1.77,0,3.11-.72,4.01-2.16h7.88c-1.59,5.28-5.56,7.92-11.93,7.92-1.95,0-3.74-.29-5.36-.88-1.62-.59-3.01-1.42-4.16-2.5-1.16-1.08-2.05-2.37-2.68-3.87-.63-1.5-.94-3.18-.94-5.04s.3-3.65.9-5.2c.6-1.54,1.46-2.86,2.57-3.94,1.11-1.08,2.45-1.91,4.03-2.5s3.35-.88,5.33-.88,3.71.29,5.27.88c1.56.59,2.88,1.43,3.96,2.54,1.08,1.11,1.91,2.47,2.48,4.07.57,1.61.85,3.41.85,5.42v.86h-17.15ZM271.06,132.72c-.27-1.14-.83-2.05-1.67-2.75-.84-.69-1.86-1.04-3.06-1.04-1.26,0-2.29.33-3.08.99-.8.66-1.3,1.59-1.51,2.79h9.32ZM273.81,114.22l-7.83,6.93-3.78-2.79,6.44-7.88,5.18,3.74Z"/>
      <path class="cls-1" d="M300.72,132c-1.41-.96-2.84-1.44-4.28-1.44-.78,0-1.51.13-2.18.41-.67.27-1.27.65-1.78,1.15s-.91,1.08-1.19,1.76c-.29.67-.43,1.43-.43,2.27s.14,1.55.43,2.23c.28.67.67,1.26,1.17,1.76s1.09.88,1.78,1.15c.69.27,1.43.41,2.2.41,1.53,0,2.95-.52,4.28-1.58v6.93c-2.01.87-3.92,1.31-5.72,1.31-1.68,0-3.28-.29-4.79-.85-1.52-.57-2.85-1.39-4.01-2.45-1.16-1.06-2.08-2.34-2.77-3.83-.69-1.49-1.03-3.14-1.03-4.97s.33-3.5.99-5.02c.66-1.51,1.56-2.82,2.7-3.92,1.14-1.1,2.5-1.95,4.07-2.57,1.58-.61,3.26-.92,5.06-.92,1.98,0,3.81.42,5.49,1.26v6.93Z"/>
      <path class="cls-1" d="M304.82,115.66c0-.63.12-1.22.36-1.78.24-.55.57-1.04.99-1.46.42-.42.91-.75,1.46-.99.55-.24,1.15-.36,1.78-.36s1.22.12,1.78.36c.55.24,1.04.57,1.46.99.42.42.75.91.99,1.46.24.56.36,1.15.36,1.78s-.12,1.22-.36,1.78c-.24.56-.57,1.04-.99,1.46-.42.42-.91.75-1.46.99-.56.24-1.15.36-1.78.36s-1.22-.12-1.78-.36c-.56-.24-1.04-.57-1.46-.99-.42-.42-.75-.91-.99-1.46-.24-.55-.36-1.15-.36-1.78ZM313.5,124.53v23.09h-8.15v-23.09h8.15Z"/>
      <path class="cls-1" d="M319.08,124.53h8.15v2.84c2.22-2.13,4.71-3.2,7.47-3.2,3.42,0,6.03,1.44,7.83,4.32,1.83-2.91,4.44-4.37,7.83-4.37,1.08,0,2.1.16,3.06.47.96.31,1.78.81,2.48,1.48.69.67,1.24,1.55,1.64,2.63s.61,2.39.61,3.92v14.99h-8.15v-11.39c0-1.17-.08-2.13-.25-2.88-.17-.75-.41-1.33-.72-1.76-.31-.42-.68-.7-1.1-.86-.42-.15-.87-.22-1.35-.22-2.61,0-3.92,1.91-3.92,5.72v11.39h-8.15v-11.39c0-1.17-.08-2.14-.23-2.9-.15-.76-.37-1.37-.65-1.82-.28-.45-.65-.76-1.1-.92-.45-.16-.98-.25-1.58-.25-.51,0-.99.08-1.44.22-.45.15-.85.44-1.19.88-.34.44-.62,1.04-.81,1.8-.2.76-.29,1.76-.29,2.99v11.39h-8.15v-23.09Z"/>
      <path class="cls-1" d="M381.55,124.53h8.19v23.09h-8.19v-2.57c-1.74,2.19-4.1,3.29-7.07,3.29-1.68,0-3.23-.31-4.64-.92-1.41-.61-2.64-1.48-3.69-2.59-1.05-1.11-1.87-2.41-2.45-3.92-.59-1.5-.88-3.13-.88-4.91,0-1.65.28-3.22.85-4.7.57-1.49,1.36-2.78,2.38-3.89,1.02-1.11,2.24-1.99,3.65-2.63,1.41-.64,2.97-.97,4.68-.97,2.88,0,5.27,1.01,7.16,3.02v-2.3ZM371.29,136c0,.75.13,1.45.41,2.09.27.65.64,1.21,1.1,1.69.46.48,1.02.85,1.67,1.13.64.27,1.34.4,2.09.4s1.4-.13,2.05-.4c.65-.27,1.2-.64,1.67-1.13.46-.48.84-1.04,1.13-1.67.28-.63.43-1.31.43-2.02s-.14-1.4-.43-2.05c-.29-.64-.66-1.21-1.13-1.69-.47-.48-1.02-.85-1.67-1.13-.65-.27-1.33-.4-2.05-.4s-1.45.13-2.09.4c-.65.27-1.2.65-1.67,1.13-.47.48-.83,1.03-1.1,1.64-.27.62-.41,1.28-.41,2Z"/>
      <path class="cls-2" d="M435.51,115.51v6.06c-2.96-2.48-6.02-3.71-9.19-3.71-3.49,0-6.42,1.25-8.81,3.76-2.4,2.49-3.6,5.54-3.6,9.14s1.2,6.56,3.6,9.01c2.4,2.45,5.35,3.67,8.83,3.67,1.8,0,3.33-.29,4.59-.88.7-.29,1.43-.69,2.19-1.19.75-.5,1.55-1.1,2.38-1.8v6.18c-2.93,1.66-6.01,2.48-9.23,2.48-4.85,0-8.99-1.69-12.42-5.08-3.41-3.41-5.12-7.53-5.12-12.35,0-4.32,1.43-8.17,4.28-11.56,3.52-4.15,8.06-6.22,13.65-6.22,3.05,0,5.99.83,8.83,2.48Z"/>
      <path class="cls-2" d="M440.01,136.76c0-3.09,1.11-5.72,3.32-7.89,2.21-2.17,4.91-3.25,8.09-3.25s5.9,1.09,8.13,3.27c2.2,2.18,3.3,4.86,3.3,8.04s-1.11,5.9-3.32,8.06c-2.23,2.15-4.96,3.23-8.2,3.23s-5.9-1.1-8.06-3.3c-2.17-2.17-3.25-4.89-3.25-8.17ZM445.07,136.85c0,2.14.57,3.83,1.71,5.08,1.17,1.26,2.72,1.89,4.64,1.89s3.48-.62,4.64-1.87,1.74-2.91,1.74-4.99-.58-3.74-1.74-4.99c-1.17-1.26-2.72-1.89-4.64-1.89s-3.42.63-4.59,1.89c-1.17,1.26-1.76,2.89-1.76,4.88Z"/>
      <path class="cls-2" d="M468.07,126.21h4.97v1.98c1.73-1.71,3.68-2.57,5.84-2.57,2.49,0,4.43.78,5.82,2.35,1.2,1.33,1.8,3.51,1.8,6.53v13.12h-4.97v-11.95c0-2.11-.29-3.57-.88-4.37-.57-.82-1.61-1.23-3.12-1.23-1.64,0-2.81.54-3.49,1.63-.67,1.07-1.01,2.94-1.01,5.6v10.33h-4.97v-21.4Z"/>
      <path class="cls-2" d="M497.87,130.83v16.79h-4.97v-16.79h-1.76v-4.61h1.76v-8.26c0-2.7.47-4.6,1.41-5.71,1.29-1.55,3.16-2.33,5.63-2.33.88,0,1.99.26,3.32.77v5.05l-.51-.26c-1.07-.54-1.95-.81-2.64-.81-.88,0-1.47.32-1.78.95-.31.62-.46,1.8-.46,3.56v7.05h5.38v4.61h-5.38Z"/>
      <path class="cls-2" d="M526.29,138.08h-15.34c.13,1.76.7,3.16,1.71,4.2,1.01,1.03,2.31,1.54,3.89,1.54,1.23,0,2.25-.29,3.06-.88.79-.59,1.69-1.67,2.7-3.25l4.18,2.33c-.65,1.1-1.33,2.04-2.04,2.82-.72.78-1.49,1.43-2.31,1.93s-1.71.88-2.66,1.11c-.95.23-1.99.35-3.1.35-3.19,0-5.76-1.03-7.69-3.08-1.93-2.07-2.9-4.8-2.9-8.22s.94-6.12,2.81-8.22c1.89-2.07,4.39-3.1,7.51-3.1s5.64,1,7.47,3.01c1.82,1.99,2.72,4.75,2.72,8.28l-.02,1.16ZM521.21,134.03c-.69-2.64-2.35-3.96-4.99-3.96-.6,0-1.16.09-1.69.27s-1.01.45-1.44.79c-.43.34-.8.76-1.11,1.24-.31.48-.54,1.03-.7,1.65h9.93Z"/>
      <path class="cls-2" d="M531.69,126.21h4.94v1.91c.91-.95,1.71-1.6,2.42-1.96.72-.37,1.57-.55,2.55-.55,1.3,0,2.67.43,4.09,1.27l-2.26,4.53c-.94-.67-1.85-1.01-2.75-1.01-2.7,0-4.04,2.04-4.04,6.11v11.1h-4.94v-21.4Z"/>
      <path class="cls-2" d="M567.71,138.08h-15.34c.13,1.76.7,3.16,1.71,4.2,1.01,1.03,2.31,1.54,3.89,1.54,1.23,0,2.25-.29,3.06-.88.79-.59,1.69-1.67,2.7-3.25l4.18,2.33c-.65,1.1-1.33,2.04-2.04,2.82-.72.78-1.49,1.43-2.31,1.93s-1.71.88-2.66,1.11c-.95.23-1.99.35-3.1.35-3.19,0-5.76-1.03-7.69-3.08-1.93-2.07-2.9-4.8-2.9-8.22s.94-6.12,2.81-8.22c1.89-2.07,4.39-3.1,7.51-3.1s5.64,1,7.47,3.01c1.82,1.99,2.72,4.75,2.72,8.28l-.02,1.16ZM562.63,134.03c-.69-2.64-2.35-3.96-4.99-3.96-.6,0-1.16.09-1.69.27s-1.01.45-1.44.79c-.43.34-.8.76-1.11,1.24-.31.48-.54,1.03-.7,1.65h9.93Z"/>
      <path class="cls-2" d="M573.11,126.21h4.97v1.98c1.73-1.71,3.68-2.57,5.84-2.57,2.49,0,4.43.78,5.82,2.35,1.2,1.33,1.8,3.51,1.8,6.53v13.12h-4.97v-11.95c0-2.11-.29-3.57-.88-4.37-.57-.82-1.61-1.23-3.12-1.23-1.64,0-2.81.54-3.49,1.63-.67,1.07-1.01,2.94-1.01,5.6v10.33h-4.97v-21.4Z"/>
      <path class="cls-2" d="M614.45,127.13v6.57c-1.13-1.38-2.14-2.32-3.03-2.83-.88-.53-1.91-.79-3.1-.79-1.86,0-3.41.65-4.64,1.96-1.23,1.3-1.85,2.94-1.85,4.9s.59,3.66,1.78,4.94c1.2,1.29,2.73,1.93,4.59,1.93,1.19,0,2.23-.26,3.14-.77.88-.5,1.91-1.46,3.1-2.9v6.53c-2.01,1.04-4.01,1.56-6.02,1.56-3.31,0-6.08-1.07-8.31-3.21-2.23-2.15-3.34-4.83-3.34-8.02s1.13-5.89,3.38-8.09c2.26-2.2,5.02-3.3,8.31-3.3,2.11,0,4.1.51,5.98,1.52Z"/>
      <path class="cls-2" d="M618.49,117.31c0-.86.31-1.61.94-2.24.63-.63,1.38-.94,2.26-.94s1.66.32,2.29.94c.63.62.94,1.37.94,2.26s-.32,1.66-.94,2.29c-.62.63-1.37.94-2.26.94s-1.66-.31-2.29-.94c-.63-.63-.94-1.4-.94-2.31ZM624.18,126.21v21.4h-4.94v-21.4h4.94Z"/>
      <path class="cls-2" d="M646.22,126.21h4.97v21.4h-4.97v-2.24c-2.04,1.9-4.23,2.86-6.57,2.86-2.96,0-5.41-1.07-7.34-3.21-1.92-2.18-2.88-4.91-2.88-8.17s.96-5.88,2.88-8.02c1.92-2.14,4.32-3.21,7.21-3.21,2.49,0,4.72,1.03,6.7,3.08v-2.48ZM634.49,136.85c0,2.05.55,3.72,1.65,5.01,1.13,1.3,2.55,1.96,4.26,1.96,1.83,0,3.31-.63,4.44-1.89,1.13-1.3,1.69-2.96,1.69-4.97s-.56-3.66-1.69-4.97c-1.13-1.27-2.59-1.91-4.39-1.91-1.7,0-3.12.64-4.26,1.93-1.13,1.3-1.69,2.92-1.69,4.83Z"/>
      <path class="cls-2" d="M677.38,113.69v33.93h-5.12v-33.93h5.12Z"/>
      <path class="cls-2" d="M684.59,126.21h4.97v1.98c1.73-1.71,3.68-2.57,5.84-2.57,2.49,0,4.43.78,5.82,2.35,1.2,1.33,1.8,3.51,1.8,6.53v13.12h-4.97v-11.95c0-2.11-.29-3.57-.88-4.37-.57-.82-1.61-1.23-3.12-1.23-1.64,0-2.81.54-3.49,1.63-.67,1.07-1.01,2.94-1.01,5.6v10.33h-4.97v-21.4Z"/>
      <path class="cls-2" d="M714.37,130.83v16.79h-4.94v-16.79h-2.11v-4.61h2.11v-7.84h4.94v7.84h3.85v4.61h-3.85Z"/>
      <path class="cls-2" d="M741.46,138.08h-15.34c.13,1.76.7,3.16,1.71,4.2,1.01,1.03,2.31,1.54,3.89,1.54,1.23,0,2.25-.29,3.06-.88.79-.59,1.69-1.67,2.7-3.25l4.18,2.33c-.65,1.1-1.33,2.04-2.04,2.82-.72.78-1.49,1.43-2.31,1.93s-1.71.88-2.66,1.11c-.95.23-1.99.35-3.1.35-3.19,0-5.76-1.03-7.69-3.08-1.93-2.07-2.9-4.8-2.9-8.22s.94-6.12,2.81-8.22c1.89-2.07,4.39-3.1,7.51-3.1s5.64,1,7.47,3.01c1.82,1.99,2.72,4.75,2.72,8.28l-.02,1.16ZM736.38,134.03c-.69-2.64-2.35-3.96-4.99-3.96-.6,0-1.16.09-1.69.27s-1.01.45-1.44.79c-.43.34-.8.76-1.11,1.24-.31.48-.54,1.03-.7,1.65h9.93Z"/>
      <path class="cls-2" d="M746.87,126.21h4.94v1.91c.91-.95,1.71-1.6,2.42-1.96.72-.37,1.57-.55,2.55-.55,1.3,0,2.67.43,4.09,1.27l-2.26,4.53c-.94-.67-1.85-1.01-2.75-1.01-2.7,0-4.04,2.04-4.04,6.11v11.1h-4.94v-21.4Z"/>
      <path class="cls-2" d="M764.38,126.21h4.97v1.98c1.73-1.71,3.68-2.57,5.84-2.57,2.49,0,4.43.78,5.82,2.35,1.2,1.33,1.8,3.51,1.8,6.53v13.12h-4.97v-11.95c0-2.11-.29-3.57-.88-4.37-.57-.82-1.61-1.23-3.12-1.23-1.64,0-2.81.54-3.49,1.63-.67,1.07-1.01,2.94-1.01,5.6v10.33h-4.97v-21.4Z"/>
      <path class="cls-2" d="M804.83,126.21h4.97v21.4h-4.97v-2.24c-2.04,1.9-4.23,2.86-6.57,2.86-2.96,0-5.41-1.07-7.34-3.21-1.92-2.18-2.88-4.91-2.88-8.17s.96-5.88,2.88-8.02,4.32-3.21,7.21-3.21c2.49,0,4.72,1.03,6.7,3.08v-2.48ZM793.1,136.85c0,2.05.55,3.72,1.65,5.01,1.13,1.3,2.55,1.96,4.26,1.96,1.83,0,3.31-.63,4.44-1.89,1.13-1.3,1.69-2.96,1.69-4.97s-.56-3.66-1.69-4.97c-1.13-1.27-2.59-1.91-4.39-1.91-1.7,0-3.12.64-4.26,1.93-1.13,1.3-1.69,2.92-1.69,4.83Z"/>
      <path class="cls-2" d="M832.7,127.13v6.57c-1.13-1.38-2.14-2.32-3.03-2.83-.88-.53-1.91-.79-3.1-.79-1.86,0-3.41.65-4.64,1.96-1.23,1.3-1.85,2.94-1.85,4.9s.59,3.66,1.78,4.94c1.2,1.29,2.73,1.93,4.59,1.93,1.19,0,2.23-.26,3.14-.77.88-.5,1.91-1.46,3.1-2.9v6.53c-2.01,1.04-4.01,1.56-6.02,1.56-3.31,0-6.08-1.07-8.31-3.21-2.23-2.15-3.34-4.83-3.34-8.02s1.13-5.89,3.38-8.09,5.02-3.3,8.31-3.3c2.11,0,4.1.51,5.98,1.52Z"/>
      <path class="cls-2" d="M836.74,117.31c0-.86.31-1.61.94-2.24.63-.63,1.38-.94,2.26-.94s1.66.32,2.29.94c.63.62.94,1.37.94,2.26s-.32,1.66-.94,2.29c-.62.63-1.37.94-2.26.94s-1.66-.31-2.29-.94c-.63-.63-.94-1.4-.94-2.31ZM842.43,126.21v21.4h-4.94v-21.4h4.94Z"/>
      <path class="cls-2" d="M847.68,136.76c0-3.09,1.11-5.72,3.32-7.89,2.21-2.17,4.91-3.25,8.09-3.25s5.9,1.09,8.13,3.27c2.2,2.18,3.3,4.86,3.3,8.04s-1.11,5.9-3.32,8.06c-2.23,2.15-4.96,3.23-8.2,3.23s-5.9-1.1-8.06-3.3c-2.17-2.17-3.25-4.89-3.25-8.17ZM852.74,136.85c0,2.14.57,3.83,1.71,5.08,1.17,1.26,2.72,1.89,4.64,1.89s3.48-.62,4.64-1.87,1.74-2.91,1.74-4.99-.58-3.74-1.74-4.99c-1.17-1.26-2.72-1.89-4.64-1.89s-3.42.63-4.59,1.89c-1.17,1.26-1.76,2.89-1.76,4.88Z"/>
      <path class="cls-2" d="M875.75,126.21h4.97v1.98c1.73-1.71,3.68-2.57,5.84-2.57,2.49,0,4.43.78,5.82,2.35,1.2,1.33,1.8,3.51,1.8,6.53v13.12h-4.97v-11.95c0-2.11-.29-3.57-.88-4.37-.57-.82-1.61-1.23-3.12-1.23-1.64,0-2.81.54-3.49,1.63-.67,1.07-1.01,2.94-1.01,5.6v10.33h-4.97v-21.4Z"/>
      <path class="cls-2" d="M916.2,126.21h4.97v21.4h-4.97v-2.24c-2.04,1.9-4.23,2.86-6.57,2.86-2.96,0-5.41-1.07-7.34-3.21-1.92-2.18-2.88-4.91-2.88-8.17s.96-5.88,2.88-8.02c1.92-2.14,4.32-3.21,7.21-3.21,2.49,0,4.72,1.03,6.7,3.08v-2.48ZM904.47,136.85c0,2.05.55,3.72,1.65,5.01,1.13,1.3,2.55,1.96,4.26,1.96,1.83,0,3.31-.63,4.44-1.89,1.13-1.3,1.69-2.96,1.69-4.97s-.56-3.66-1.69-4.97c-1.13-1.27-2.59-1.91-4.39-1.91-1.7,0-3.12.64-4.26,1.93-1.13,1.3-1.69,2.92-1.69,4.83Z"/>
      <path class="cls-2" d="M932.35,110.5v37.11h-4.94v-37.11h4.94Z"/>
      <path class="cls-2" d="M218.9,189.16l7.14-36.48,11.65,26.37,12.06-26.37,6.42,36.48h-5.25l-3.27-20.48-10.04,22.04-9.76-22.06-3.65,20.5h-5.3Z"/>
      <path class="cls-2" d="M281.91,179.62h-15.34c.13,1.76.7,3.16,1.71,4.2,1.01,1.03,2.31,1.54,3.89,1.54,1.23,0,2.25-.29,3.06-.88.79-.59,1.69-1.67,2.7-3.25l4.18,2.33c-.65,1.1-1.33,2.04-2.04,2.82-.72.78-1.49,1.43-2.31,1.93s-1.71.88-2.66,1.11c-.95.23-1.99.35-3.1.35-3.19,0-5.76-1.03-7.69-3.08-1.93-2.07-2.9-4.8-2.9-8.22s.94-6.12,2.81-8.22c1.89-2.07,4.39-3.1,7.51-3.1s5.64,1,7.47,3.01c1.82,1.99,2.72,4.75,2.72,8.28l-.02,1.16ZM276.83,175.58c-.69-2.64-2.35-3.96-4.99-3.96-.6,0-1.16.09-1.69.27s-1.01.45-1.44.79c-.43.34-.8.76-1.11,1.24-.31.48-.54,1.03-.7,1.65h9.93Z"/>
      <path class="cls-2" d="M293.09,177.58l-7.69-9.82h5.89l4.77,6.24,4.86-6.24h6.06l-7.91,9.82,9.16,11.58h-5.89l-6.29-8-6.44,8h-6.04l9.51-11.58Z"/>
      <path class="cls-2" d="M310.82,158.86c0-.86.31-1.61.94-2.24.63-.63,1.38-.94,2.26-.94s1.66.32,2.29.94c.63.62.94,1.37.94,2.26s-.32,1.66-.94,2.29c-.62.63-1.37.94-2.26.94s-1.66-.31-2.29-.94c-.63-.63-.94-1.4-.94-2.31ZM316.51,167.76v21.4h-4.94v-21.4h4.94Z"/>
      <path class="cls-2" d="M339.43,168.68v6.57c-1.13-1.38-2.14-2.32-3.03-2.83-.88-.53-1.91-.79-3.1-.79-1.86,0-3.41.65-4.64,1.96-1.23,1.3-1.85,2.94-1.85,4.9s.59,3.66,1.78,4.94c1.2,1.29,2.73,1.93,4.59,1.93,1.19,0,2.23-.26,3.14-.77.88-.5,1.91-1.46,3.1-2.9v6.53c-2.01,1.04-4.01,1.56-6.02,1.56-3.31,0-6.08-1.07-8.31-3.21-2.23-2.15-3.34-4.83-3.34-8.02s1.13-5.89,3.38-8.09,5.02-3.3,8.31-3.3c2.11,0,4.1.51,5.98,1.52Z"/>
      <path class="cls-2" d="M360,167.76h4.97v21.4h-4.97v-2.24c-2.04,1.9-4.23,2.86-6.57,2.86-2.96,0-5.41-1.07-7.34-3.21-1.92-2.18-2.88-4.91-2.88-8.17s.96-5.88,2.88-8.02,4.32-3.21,7.21-3.21c2.49,0,4.72,1.03,6.7,3.08v-2.48ZM348.27,178.39c0,2.05.55,3.72,1.65,5.01,1.13,1.3,2.55,1.96,4.26,1.96,1.83,0,3.31-.63,4.44-1.89,1.13-1.3,1.69-2.96,1.69-4.97s-.56-3.66-1.69-4.97c-1.13-1.27-2.59-1.91-4.39-1.91-1.7,0-3.12.64-4.26,1.93-1.13,1.3-1.69,2.92-1.69,4.83Z"/>
      <path class="cls-2" d="M371.21,167.76h4.97v1.98c1.73-1.71,3.68-2.57,5.84-2.57,2.49,0,4.43.78,5.82,2.35,1.2,1.33,1.8,3.51,1.8,6.53v13.12h-4.97v-11.95c0-2.11-.29-3.57-.88-4.37-.57-.82-1.61-1.23-3.12-1.23-1.64,0-2.81.54-3.49,1.63-.67,1.07-1.01,2.94-1.01,5.6v10.33h-4.97v-21.4Z"/>
      <path class="cls-2" d="M411.66,167.76h4.97v21.4h-4.97v-2.24c-2.04,1.9-4.23,2.86-6.57,2.86-2.96,0-5.41-1.07-7.34-3.21-1.92-2.18-2.88-4.91-2.88-8.17s.96-5.88,2.88-8.02,4.32-3.21,7.21-3.21c2.49,0,4.72,1.03,6.7,3.08v-2.48ZM399.93,178.39c0,2.05.55,3.72,1.65,5.01,1.13,1.3,2.55,1.96,4.26,1.96,1.83,0,3.31-.63,4.44-1.89,1.13-1.3,1.69-2.96,1.69-4.97s-.56-3.66-1.69-4.97c-1.13-1.27-2.59-1.91-4.39-1.91-1.7,0-3.12.64-4.26,1.93-1.13,1.3-1.69,2.92-1.69,4.83Z"/>
      <path class="cls-2" d="M449.2,171.4l-4.09,2.18c-.65-1.32-1.44-1.98-2.4-1.98-.45,0-.84.15-1.16.45-.32.3-.48.68-.48,1.15,0,.82.95,1.63,2.86,2.44,2.62,1.13,4.39,2.17,5.3,3.12.91.95,1.36,2.23,1.36,3.85,0,2.07-.76,3.79-2.29,5.19-1.48,1.32-3.27,1.98-5.36,1.98-3.59,0-6.13-1.75-7.63-5.25l4.22-1.96c.59,1.03,1.03,1.68,1.34,1.96.6.56,1.32.83,2.15.83,1.67,0,2.51-.76,2.51-2.29,0-.88-.65-1.7-1.93-2.46-.5-.25-1-.49-1.49-.73-.5-.23-1-.48-1.52-.73-1.44-.7-2.45-1.41-3.03-2.11-.75-.89-1.12-2.04-1.12-3.45,0-1.86.64-3.4,1.91-4.61,1.3-1.22,2.89-1.82,4.75-1.82,2.74,0,4.78,1.41,6.11,4.24Z"/>
      <path class="cls-2" d="M454.01,178.3c0-3.09,1.11-5.72,3.32-7.89,2.21-2.17,4.91-3.25,8.09-3.25s5.9,1.09,8.13,3.27c2.2,2.18,3.3,4.86,3.3,8.04s-1.11,5.9-3.32,8.06c-2.23,2.15-4.96,3.23-8.2,3.23s-5.9-1.1-8.06-3.3c-2.17-2.17-3.25-4.89-3.25-8.17ZM459.06,178.39c0,2.14.57,3.83,1.71,5.08,1.17,1.26,2.72,1.89,4.64,1.89s3.48-.62,4.64-1.87c1.16-1.25,1.74-2.91,1.74-4.99s-.58-3.74-1.74-4.99c-1.17-1.26-2.72-1.89-4.64-1.89s-3.42.63-4.59,1.89-1.76,2.89-1.76,4.88Z"/>
      <path class="cls-2" d="M487.01,152.05v18.19c1.98-2.05,4.22-3.08,6.72-3.08,2.89,0,5.29,1.08,7.21,3.23,1.92,2.14,2.88,4.81,2.88,8s-.97,6.02-2.9,8.17c-1.92,2.14-4.34,3.21-7.27,3.21-2.48,0-4.69-.95-6.64-2.86v2.24h-4.94v-37.11h4.94ZM498.77,178.61c0-2.05-.56-3.72-1.67-5.01-1.13-1.32-2.54-1.98-4.24-1.98-1.82,0-3.3.64-4.44,1.91-1.13,1.26-1.69,2.9-1.69,4.92s.56,3.74,1.67,4.99c1.11,1.27,2.58,1.91,4.39,1.91,1.71,0,3.13-.64,4.26-1.91,1.14-1.29,1.71-2.9,1.71-4.83Z"/>
      <path class="cls-2" d="M509.05,167.76h4.94v1.91c.91-.95,1.71-1.6,2.42-1.96.72-.37,1.57-.55,2.55-.55,1.3,0,2.67.43,4.09,1.27l-2.26,4.53c-.94-.67-1.85-1.01-2.75-1.01-2.7,0-4.04,2.04-4.04,6.11v11.1h-4.94v-21.4Z"/>
      <path class="cls-2" d="M545.07,179.62h-15.34c.13,1.76.7,3.16,1.71,4.2,1.01,1.03,2.31,1.54,3.89,1.54,1.23,0,2.25-.29,3.06-.88.79-.59,1.69-1.67,2.7-3.25l4.18,2.33c-.65,1.1-1.33,2.04-2.04,2.82-.72.78-1.49,1.43-2.31,1.93s-1.71.88-2.66,1.11c-.95.23-1.99.35-3.1.35-3.19,0-5.76-1.03-7.69-3.08-1.93-2.07-2.9-4.8-2.9-8.22s.94-6.12,2.81-8.22c1.89-2.07,4.39-3.1,7.51-3.1s5.64,1,7.47,3.01c1.82,1.99,2.72,4.75,2.72,8.28l-.02,1.16ZM540,175.58c-.69-2.64-2.35-3.96-4.99-3.96-.6,0-1.16.09-1.69.27s-1.01.45-1.44.79c-.43.34-.8.76-1.11,1.24-.31.48-.54,1.03-.7,1.65h9.93Z"/>
      <path class="cls-1" d="M573.62,155.23v33.93h-8.82v-33.93h8.82Z"/>
      <path class="cls-1" d="M578.57,166.07h8.15v2.93c1.11-1.35,2.23-2.26,3.37-2.72,1.14-.46,2.48-.7,4.01-.7,1.62,0,3.01.26,4.16.79,1.15.53,2.14,1.27,2.95,2.23.66.78,1.11,1.65,1.35,2.61.24.96.36,2.06.36,3.29v14.67h-8.15v-11.66c0-1.14-.08-2.06-.25-2.77-.17-.7-.46-1.27-.88-1.69-.36-.36-.77-.61-1.22-.77-.45-.15-.93-.22-1.44-.22-1.38,0-2.44.41-3.17,1.24-.74.83-1.1,2-1.1,3.53v12.33h-8.15v-23.09Z"/>
      <path class="cls-1" d="M616.15,172.87v16.29h-8.15v-16.29h-2.7v-6.8h2.7v-6.93h8.15v6.93h4.64v6.8h-4.64Z"/>
      <path class="cls-1" d="M630.23,178.99c0,3.51,1.65,5.27,4.95,5.27,1.77,0,3.11-.72,4.01-2.16h7.88c-1.59,5.28-5.56,7.92-11.93,7.92-1.95,0-3.74-.29-5.36-.88-1.62-.59-3.01-1.42-4.16-2.5-1.16-1.08-2.05-2.37-2.68-3.87-.63-1.5-.94-3.18-.94-5.04s.3-3.65.9-5.2c.6-1.54,1.46-2.86,2.57-3.94,1.11-1.08,2.45-1.91,4.03-2.5s3.35-.88,5.33-.88,3.71.29,5.27.88c1.56.59,2.88,1.43,3.96,2.54,1.08,1.11,1.91,2.47,2.48,4.07.57,1.61.85,3.41.85,5.42v.86h-17.15ZM639.77,174.26c-.27-1.14-.83-2.05-1.67-2.75-.84-.69-1.86-1.04-3.06-1.04-1.26,0-2.29.33-3.08.99-.8.66-1.3,1.59-1.51,2.79h9.32Z"/>
      <path class="cls-1" d="M650.62,166.07h8.15v3.78c.87-1.38,1.94-2.44,3.2-3.17,1.26-.73,2.73-1.1,4.41-1.1h.7c.25,0,.55.03.88.09v7.79c-1.08-.54-2.25-.81-3.51-.81-1.89,0-3.31.56-4.25,1.69-.95,1.13-1.42,2.77-1.42,4.93v9.9h-8.15v-23.09Z"/>
      <path class="cls-1" d="M688.29,166.07h8.19v23.09h-8.19v-2.57c-1.74,2.19-4.1,3.29-7.07,3.29-1.68,0-3.23-.31-4.64-.92-1.41-.61-2.64-1.48-3.69-2.59-1.05-1.11-1.87-2.41-2.45-3.92-.59-1.5-.88-3.13-.88-4.91,0-1.65.28-3.22.85-4.7.57-1.49,1.36-2.78,2.38-3.89,1.02-1.11,2.24-1.99,3.65-2.63,1.41-.64,2.97-.97,4.68-.97,2.88,0,5.27,1.01,7.16,3.02v-2.3ZM678.03,177.55c0,.75.13,1.45.41,2.09.27.65.64,1.21,1.1,1.69.46.48,1.02.85,1.67,1.13.64.27,1.34.4,2.09.4s1.4-.13,2.05-.4c.65-.27,1.2-.64,1.67-1.13.46-.48.84-1.04,1.13-1.67.28-.63.43-1.31.43-2.02s-.14-1.4-.43-2.05c-.29-.64-.66-1.21-1.13-1.69-.47-.48-1.02-.85-1.67-1.13-.65-.27-1.33-.4-2.05-.4s-1.45.13-2.09.4c-.65.27-1.2.65-1.67,1.13-.47.48-.83,1.03-1.1,1.64-.27.62-.41,1.28-.41,2Z"/>
      <path class="cls-1" d="M718.04,173.54c-1.41-.96-2.84-1.44-4.28-1.44-.78,0-1.51.13-2.18.41-.67.27-1.27.65-1.78,1.15s-.91,1.08-1.19,1.76c-.29.67-.43,1.43-.43,2.27s.14,1.55.43,2.23c.28.67.67,1.26,1.17,1.76s1.09.88,1.78,1.15c.69.27,1.43.41,2.2.41,1.53,0,2.95-.52,4.28-1.58v6.93c-2.01.87-3.92,1.31-5.72,1.31-1.68,0-3.28-.29-4.79-.85-1.52-.57-2.85-1.39-4.01-2.45-1.16-1.06-2.08-2.34-2.77-3.83-.69-1.49-1.03-3.14-1.03-4.97s.33-3.5.99-5.02c.66-1.51,1.56-2.82,2.7-3.92,1.14-1.1,2.5-1.95,4.07-2.57,1.58-.61,3.26-.92,5.06-.92,1.98,0,3.81.42,5.49,1.26v6.93Z"/>
      <path class="cls-1" d="M738.69,173.54c-1.41-.96-2.84-1.44-4.28-1.44-.78,0-1.51.13-2.18.41-.67.27-1.27.65-1.78,1.15s-.91,1.08-1.19,1.76c-.29.67-.43,1.43-.43,2.27s.14,1.55.43,2.23c.28.67.67,1.26,1.17,1.76s1.09.88,1.78,1.15c.69.27,1.43.41,2.2.41,1.53,0,2.95-.52,4.28-1.58v6.93c-2.01.87-3.92,1.31-5.72,1.31-1.68,0-3.28-.29-4.79-.85-1.52-.57-2.85-1.39-4.01-2.45-1.16-1.06-2.08-2.34-2.77-3.83-.69-1.49-1.03-3.14-1.03-4.97s.33-3.5.99-5.02c.66-1.51,1.56-2.82,2.7-3.92,1.14-1.1,2.5-1.95,4.07-2.57,1.58-.61,3.26-.92,5.06-.92,1.98,0,3.81.42,5.49,1.26v6.93Z"/>
      <path class="cls-1" d="M741.39,157.21c0-.63.12-1.22.36-1.78.24-.55.57-1.04.99-1.46.42-.42.91-.75,1.46-.99.55-.24,1.15-.36,1.78-.36s1.22.12,1.78.36c.55.24,1.04.57,1.46.99.42.42.75.91.99,1.46.24.56.36,1.15.36,1.78s-.12,1.22-.36,1.78c-.24.56-.57,1.04-.99,1.46-.42.42-.91.75-1.46.99-.56.24-1.15.36-1.78.36s-1.22-.12-1.78-.36c-.56-.24-1.04-.57-1.46-.99-.42-.42-.75-.91-.99-1.46-.24-.55-.36-1.15-.36-1.78ZM750.08,166.07v23.09h-8.15v-23.09h8.15Z"/>
      <path class="cls-1" d="M753.36,177.41c0-1.71.34-3.31,1.03-4.79.69-1.49,1.65-2.78,2.88-3.87,1.23-1.1,2.69-1.96,4.39-2.59,1.69-.63,3.55-.95,5.56-.95s3.82.31,5.51.92c1.69.62,3.17,1.47,4.41,2.57,1.24,1.1,2.21,2.4,2.9,3.92.69,1.52,1.03,3.19,1.03,5.02s-.35,3.5-1.06,5.02c-.7,1.52-1.67,2.82-2.9,3.92-1.23,1.1-2.71,1.94-4.43,2.54-1.73.6-3.59.9-5.6.9s-3.81-.3-5.49-.9c-1.68-.6-3.13-1.45-4.34-2.57-1.21-1.11-2.17-2.44-2.86-3.98-.69-1.54-1.03-3.26-1.03-5.15ZM761.96,177.5c0,.78.14,1.49.43,2.14.29.65.66,1.21,1.13,1.69.46.48,1.02.85,1.67,1.13.64.27,1.33.4,2.05.4s1.4-.13,2.05-.4c.64-.27,1.2-.64,1.67-1.13.46-.48.84-1.04,1.12-1.69.28-.64.43-1.34.43-2.09s-.14-1.4-.43-2.05c-.29-.64-.66-1.21-1.12-1.69-.47-.48-1.02-.85-1.67-1.13-.65-.27-1.33-.41-2.05-.41s-1.4.14-2.05.41c-.65.27-1.2.65-1.67,1.13-.47.48-.84,1.04-1.13,1.67-.28.63-.43,1.31-.43,2.02ZM774.74,155.77l-7.83,6.93-3.78-2.79,6.44-7.88,5.18,3.74Z"/>
      <path class="cls-1" d="M784.37,166.07h8.15v2.93c1.11-1.35,2.23-2.26,3.37-2.72,1.14-.46,2.48-.7,4.01-.7,1.62,0,3.01.26,4.16.79,1.15.53,2.14,1.27,2.95,2.23.66.78,1.11,1.65,1.35,2.61.24.96.36,2.06.36,3.29v14.67h-8.15v-11.66c0-1.14-.08-2.06-.25-2.77-.17-.7-.46-1.27-.88-1.69-.36-.36-.77-.61-1.22-.77-.45-.15-.93-.22-1.44-.22-1.38,0-2.44.41-3.17,1.24-.74.83-1.1,2-1.1,3.53v12.33h-8.15v-23.09Z"/>
      <path class="cls-1" d="M228.4,209.87h12.74v-13.1h8.82v33.93h-8.82v-14h-12.74v14h-8.82v-33.93h8.82v13.1Z"/>
      <path class="cls-1" d="M263.05,207.62v13.01c0,2.85,1.38,4.28,4.14,4.28s4.14-1.42,4.14-4.28v-13.01h8.15v14.58c0,3.12-1.03,5.46-3.08,7.02-2.06,1.56-5.12,2.34-9.2,2.34s-7.15-.78-9.2-2.34c-2.06-1.56-3.08-3.9-3.08-7.02v-14.58h8.15Z"/>
      <path class="cls-1" d="M283.62,207.62h8.15v2.84c2.22-2.13,4.71-3.2,7.47-3.2,3.42,0,6.03,1.44,7.83,4.32,1.83-2.91,4.44-4.37,7.83-4.37,1.08,0,2.1.16,3.06.47.96.31,1.78.81,2.48,1.48.69.67,1.24,1.55,1.64,2.63s.61,2.39.61,3.92v14.99h-8.15v-11.39c0-1.17-.08-2.13-.25-2.88-.17-.75-.41-1.33-.72-1.76-.31-.42-.68-.7-1.1-.86-.42-.15-.87-.22-1.35-.22-2.61,0-3.92,1.91-3.92,5.72v11.39h-8.15v-11.39c0-1.17-.08-2.14-.23-2.9-.15-.76-.37-1.37-.65-1.82-.28-.45-.65-.76-1.1-.92-.45-.16-.98-.25-1.58-.25-.51,0-.99.08-1.44.22-.45.15-.85.44-1.19.88-.34.44-.62,1.04-.81,1.8-.2.76-.29,1.76-.29,2.99v11.39h-8.15v-23.09Z"/>
      <path class="cls-1" d="M344.69,207.62h8.19v23.09h-8.19v-2.57c-1.74,2.19-4.1,3.29-7.07,3.29-1.68,0-3.23-.31-4.64-.92-1.41-.61-2.64-1.48-3.69-2.59-1.05-1.11-1.87-2.41-2.45-3.92-.59-1.5-.88-3.13-.88-4.91,0-1.65.28-3.22.85-4.7.57-1.49,1.36-2.78,2.38-3.89,1.02-1.11,2.24-1.99,3.65-2.63,1.41-.64,2.97-.97,4.68-.97,2.88,0,5.27,1.01,7.16,3.02v-2.3ZM334.43,219.09c0,.75.13,1.45.41,2.09.27.65.64,1.21,1.1,1.69.46.48,1.02.85,1.67,1.13.64.27,1.34.4,2.09.4s1.4-.13,2.05-.4c.65-.27,1.2-.64,1.67-1.13.46-.48.84-1.04,1.13-1.67.28-.63.43-1.31.43-2.02s-.14-1.4-.43-2.05c-.29-.64-.66-1.21-1.13-1.69-.47-.48-1.02-.85-1.67-1.13-.65-.27-1.33-.4-2.05-.4s-1.45.13-2.09.4c-.65.27-1.2.65-1.67,1.13-.47.48-.83,1.03-1.1,1.64-.27.62-.41,1.28-.41,2Z"/>
      <path class="cls-1" d="M357.02,207.62h8.15v2.93c1.11-1.35,2.23-2.26,3.37-2.72,1.14-.46,2.48-.7,4.01-.7,1.62,0,3.01.26,4.16.79,1.15.53,2.14,1.27,2.95,2.23.66.78,1.11,1.65,1.35,2.61.24.96.36,2.06.36,3.29v14.67h-8.15v-11.66c0-1.14-.08-2.06-.25-2.77-.17-.7-.46-1.27-.88-1.69-.36-.36-.77-.61-1.22-.77-.45-.15-.93-.22-1.44-.22-1.38,0-2.44.41-3.17,1.24-.74.83-1.1,2-1.1,3.53v12.33h-8.15v-23.09Z"/>
      <path class="cls-1" d="M384.61,218.96c0-1.71.34-3.31,1.03-4.79.69-1.49,1.65-2.78,2.88-3.87,1.23-1.1,2.69-1.96,4.39-2.59,1.69-.63,3.55-.95,5.56-.95s3.82.31,5.51.92c1.69.62,3.17,1.47,4.41,2.57,1.24,1.1,2.21,2.4,2.9,3.92.69,1.52,1.03,3.19,1.03,5.02s-.35,3.5-1.06,5.02c-.7,1.52-1.67,2.82-2.9,3.92-1.23,1.1-2.71,1.94-4.43,2.54-1.73.6-3.59.9-5.6.9s-3.81-.3-5.49-.9c-1.68-.6-3.13-1.45-4.34-2.57-1.21-1.11-2.17-2.44-2.86-3.98-.69-1.54-1.03-3.26-1.03-5.15ZM393.2,219.05c0,.78.14,1.49.43,2.14.29.65.66,1.21,1.13,1.69.46.48,1.02.85,1.67,1.13.64.27,1.33.4,2.05.4s1.4-.13,2.05-.4c.64-.27,1.2-.64,1.67-1.13.46-.48.84-1.04,1.12-1.69.28-.64.43-1.34.43-2.09s-.14-1.4-.43-2.05c-.29-.64-.66-1.21-1.12-1.69-.47-.48-1.02-.85-1.67-1.13-.65-.27-1.33-.41-2.05-.41s-1.4.14-2.05.41c-.65.27-1.2.65-1.67,1.13-.47.48-.84,1.04-1.13,1.67-.28.63-.43,1.31-.43,2.02Z"/>
      <path class="cls-1" d="M412.82,215.27h12.92v6.8h-12.92v-6.8Z"/>
      <path class="cls-1" d="M452.34,208.11c-2.04-2.49-4.56-3.74-7.56-3.74-1.32,0-2.54.24-3.67.72-1.12.48-2.09,1.13-2.9,1.96-.81.83-1.45,1.81-1.91,2.95-.47,1.14-.7,2.37-.7,3.69s.23,2.6.7,3.74c.46,1.14,1.11,2.13,1.94,2.97s1.79,1.5,2.9,1.98c1.11.48,2.31.72,3.6.72,2.82,0,5.36-1.2,7.61-3.6v10.44l-.9.31c-1.35.48-2.61.83-3.78,1.06-1.17.22-2.33.34-3.47.34-2.34,0-4.58-.44-6.73-1.33-2.15-.88-4.04-2.13-5.67-3.74-1.64-1.6-2.95-3.51-3.94-5.72s-1.49-4.61-1.49-7.22.49-5,1.46-7.18c.97-2.17,2.28-4.05,3.92-5.63,1.63-1.58,3.53-2.81,5.69-3.69,2.16-.88,4.42-1.33,6.8-1.33,1.35,0,2.68.14,3.98.43,1.31.29,2.68.73,4.12,1.33v10.53Z"/>
      <path class="cls-1" d="M454.86,218.96c0-1.71.34-3.31,1.03-4.79.69-1.49,1.65-2.78,2.88-3.87,1.23-1.1,2.69-1.96,4.39-2.59,1.69-.63,3.55-.95,5.56-.95s3.82.31,5.51.92c1.69.62,3.17,1.47,4.41,2.57,1.24,1.1,2.21,2.4,2.9,3.92.69,1.52,1.03,3.19,1.03,5.02s-.35,3.5-1.06,5.02c-.7,1.52-1.67,2.82-2.9,3.92-1.23,1.1-2.71,1.94-4.43,2.54-1.73.6-3.59.9-5.6.9s-3.81-.3-5.49-.9c-1.68-.6-3.13-1.45-4.34-2.57-1.21-1.11-2.17-2.44-2.86-3.98-.69-1.54-1.03-3.26-1.03-5.15ZM463.45,219.05c0,.78.14,1.49.43,2.14.29.65.66,1.21,1.13,1.69.46.48,1.02.85,1.67,1.13.64.27,1.33.4,2.05.4s1.4-.13,2.05-.4c.64-.27,1.2-.64,1.67-1.13.46-.48.84-1.04,1.12-1.69.28-.64.43-1.34.43-2.09s-.14-1.4-.43-2.05c-.29-.64-.66-1.21-1.12-1.69-.47-.48-1.02-.85-1.67-1.13-.65-.27-1.33-.41-2.05-.41s-1.4.14-2.05.41c-.65.27-1.2.65-1.67,1.13-.47.48-.84,1.04-1.13,1.67-.28.63-.43,1.31-.43,2.02Z"/>
      <path class="cls-1" d="M485.86,207.62h8.15v2.84c2.22-2.13,4.71-3.2,7.47-3.2,3.42,0,6.03,1.44,7.83,4.32,1.83-2.91,4.44-4.37,7.83-4.37,1.08,0,2.1.16,3.06.47.96.31,1.78.81,2.48,1.48.69.67,1.24,1.55,1.64,2.63s.61,2.39.61,3.92v14.99h-8.15v-11.39c0-1.17-.08-2.13-.25-2.88-.17-.75-.41-1.33-.72-1.76-.31-.42-.68-.7-1.1-.86-.42-.15-.87-.22-1.35-.22-2.61,0-3.92,1.91-3.92,5.72v11.39h-8.15v-11.39c0-1.17-.08-2.14-.23-2.9-.15-.76-.37-1.37-.65-1.82-.28-.45-.65-.76-1.1-.92-.45-.16-.98-.25-1.58-.25-.51,0-.99.08-1.44.22-.45.15-.85.44-1.19.88-.34.44-.62,1.04-.81,1.8-.2.76-.29,1.76-.29,2.99v11.39h-8.15v-23.09Z"/>
      <path class="cls-1" d="M538.07,242.23h-8.15v-34.61h8.15v2.57c1.74-2.19,4.11-3.29,7.11-3.29,1.65,0,3.19.32,4.61.97,1.42.65,2.66,1.52,3.71,2.63,1.05,1.11,1.87,2.42,2.45,3.92.59,1.5.88,3.11.88,4.82s-.29,3.3-.88,4.77c-.59,1.47-1.4,2.76-2.43,3.87-1.04,1.11-2.26,1.98-3.67,2.61-1.41.63-2.94.94-4.59.94-2.88,0-5.28-.99-7.2-2.97v13.77ZM548.33,219.23c0-.72-.13-1.4-.38-2.05-.25-.64-.62-1.21-1.1-1.69-.48-.48-1.04-.86-1.69-1.15-.65-.28-1.34-.43-2.09-.43s-1.39.13-2.02.4c-.63.27-1.18.65-1.64,1.13-.47.48-.84,1.04-1.13,1.69-.29.65-.43,1.33-.43,2.05s.14,1.39.41,2.02.64,1.18,1.12,1.64c.48.47,1.04.84,1.69,1.13.64.29,1.33.43,2.05.43s1.4-.13,2.02-.4c.63-.27,1.18-.64,1.64-1.13.46-.48.84-1.04,1.12-1.67.28-.63.43-1.29.43-1.98Z"/>
      <path class="cls-1" d="M568.22,207.62v13.01c0,2.85,1.38,4.28,4.14,4.28s4.14-1.42,4.14-4.28v-13.01h8.15v14.58c0,3.12-1.03,5.46-3.08,7.02-2.06,1.56-5.12,2.34-9.2,2.34s-7.15-.78-9.2-2.34c-2.06-1.56-3.08-3.9-3.08-7.02v-14.58h8.15Z"/>
      <path class="cls-1" d="M597.88,214.41v16.29h-8.15v-16.29h-2.7v-6.8h2.7v-6.93h8.15v6.93h4.64v6.8h-4.64Z"/>
      <path class="cls-1" d="M622.45,207.62h8.19v23.09h-8.19v-2.57c-1.74,2.19-4.1,3.29-7.07,3.29-1.68,0-3.23-.31-4.64-.92-1.41-.61-2.64-1.48-3.69-2.59-1.05-1.11-1.87-2.41-2.45-3.92-.59-1.5-.88-3.13-.88-4.91,0-1.65.28-3.22.85-4.7.57-1.49,1.36-2.78,2.38-3.89,1.02-1.11,2.24-1.99,3.65-2.63,1.41-.64,2.97-.97,4.68-.97,2.88,0,5.27,1.01,7.16,3.02v-2.3ZM612.19,219.09c0,.75.13,1.45.41,2.09.27.65.64,1.21,1.1,1.69.46.48,1.02.85,1.67,1.13.64.27,1.34.4,2.09.4s1.4-.13,2.05-.4c.65-.27,1.2-.64,1.67-1.13.46-.48.84-1.04,1.13-1.67.28-.63.43-1.31.43-2.02s-.14-1.4-.43-2.05c-.29-.64-.66-1.21-1.13-1.69-.47-.48-1.02-.85-1.67-1.13-.65-.27-1.33-.4-2.05-.4s-1.45.13-2.09.4c-.65.27-1.2.65-1.67,1.13-.47.48-.83,1.03-1.1,1.64-.27.62-.41,1.28-.41,2Z"/>
      <path class="cls-1" d="M652.6,193.35h8.19v37.35h-8.19v-2.57c-1.74,2.19-4.1,3.29-7.07,3.29-1.68,0-3.23-.31-4.64-.94-1.41-.63-2.64-1.5-3.69-2.61-1.05-1.11-1.87-2.41-2.45-3.92-.59-1.5-.88-3.12-.88-4.86,0-1.65.28-3.22.83-4.7.55-1.49,1.34-2.78,2.36-3.89,1.02-1.11,2.24-1.99,3.67-2.63,1.42-.64,2.99-.97,4.7-.97,2.88,0,5.27,1.01,7.16,3.02v-16.56ZM642.34,219.09c0,.75.13,1.45.41,2.09.27.65.64,1.21,1.1,1.69.46.48,1.02.85,1.67,1.13.64.27,1.34.4,2.09.4s1.4-.13,2.05-.4c.65-.27,1.2-.64,1.67-1.13.46-.48.84-1.04,1.13-1.67.28-.63.43-1.31.43-2.02s-.14-1.4-.43-2.05c-.29-.64-.66-1.21-1.13-1.69-.47-.48-1.02-.85-1.67-1.13-.65-.27-1.33-.4-2.05-.4s-1.4.13-2.05.4c-.65.27-1.2.65-1.67,1.13-.47.48-.84,1.03-1.12,1.64-.29.62-.43,1.28-.43,2Z"/>
      <path class="cls-1" d="M664.03,218.96c0-1.71.34-3.31,1.03-4.79.69-1.49,1.65-2.78,2.88-3.87,1.23-1.1,2.69-1.96,4.39-2.59,1.69-.63,3.55-.95,5.56-.95s3.82.31,5.51.92c1.69.62,3.17,1.47,4.41,2.57,1.24,1.1,2.21,2.4,2.9,3.92.69,1.52,1.03,3.19,1.03,5.02s-.35,3.5-1.06,5.02c-.7,1.52-1.67,2.82-2.9,3.92-1.23,1.1-2.71,1.94-4.43,2.54-1.73.6-3.59.9-5.6.9s-3.81-.3-5.49-.9c-1.68-.6-3.13-1.45-4.34-2.57-1.21-1.11-2.17-2.44-2.86-3.98-.69-1.54-1.03-3.26-1.03-5.15ZM672.63,219.05c0,.78.14,1.49.43,2.14.29.65.66,1.21,1.13,1.69.46.48,1.02.85,1.67,1.13.64.27,1.33.4,2.05.4s1.4-.13,2.05-.4c.64-.27,1.2-.64,1.67-1.13.46-.48.84-1.04,1.12-1.69.28-.64.43-1.34.43-2.09s-.14-1.4-.43-2.05c-.29-.64-.66-1.21-1.12-1.69-.47-.48-1.02-.85-1.67-1.13-.65-.27-1.33-.41-2.05-.41s-1.4.14-2.05.41c-.65.27-1.2.65-1.67,1.13-.47.48-.84,1.04-1.13,1.67-.28.63-.43,1.31-.43,2.02Z"/>
      <path class="cls-1" d="M695.04,207.62h8.15v3.78c.87-1.38,1.94-2.44,3.2-3.17,1.26-.73,2.73-1.1,4.41-1.1h.7c.25,0,.55.03.88.09v7.79c-1.08-.54-2.25-.81-3.51-.81-1.89,0-3.31.56-4.25,1.69-.95,1.13-1.42,2.77-1.42,4.93v9.9h-8.15v-23.09Z"/>
      <path class="cls-1" d="M732.71,207.62h8.19v23.09h-8.19v-2.57c-1.74,2.19-4.1,3.29-7.07,3.29-1.68,0-3.23-.31-4.64-.92-1.41-.61-2.64-1.48-3.69-2.59-1.05-1.11-1.87-2.41-2.45-3.92-.59-1.5-.88-3.13-.88-4.91,0-1.65.28-3.22.85-4.7.57-1.49,1.36-2.78,2.38-3.89,1.02-1.11,2.24-1.99,3.65-2.63,1.41-.64,2.97-.97,4.68-.97,2.88,0,5.27,1.01,7.16,3.02v-2.3ZM722.44,219.09c0,.75.13,1.45.41,2.09.27.65.64,1.21,1.1,1.69.46.48,1.02.85,1.67,1.13.64.27,1.34.4,2.09.4s1.4-.13,2.05-.4c.65-.27,1.2-.64,1.67-1.13.46-.48.84-1.04,1.13-1.67.28-.63.43-1.31.43-2.02s-.14-1.4-.43-2.05c-.29-.64-.66-1.21-1.13-1.69-.47-.48-1.02-.85-1.67-1.13-.65-.27-1.33-.4-2.05-.4s-1.45.13-2.09.4c-.65.27-1.2.65-1.67,1.13-.47.48-.83,1.03-1.1,1.64-.27.62-.41,1.28-.41,2Z"/>
    </g>
  </g>
</svg>