<?xml version="1.0" encoding="UTF-8"?>
<svg id="Capa_2" data-name="Capa 2" xmlns="http://www.w3.org/2000/svg" viewBox="0 0 978.57 195.67">
  <defs>
    <style>
      .cls-1 {
        fill: #ad4a20;
      }

      .cls-1, .cls-2 {
        stroke-width: 0px;
      }

      .cls-2 {
        fill: #000;
      }
    </style>
  </defs>
  <g id="Capa_1-2" data-name="Capa 1">
    <g>
      <path class="cls-1" d="M0,4.3c5.06,0,9.78,0,14.51,0,11.37,0,22.75.02,34.12-.03,1.28,0,2.01.4,2.75,1.43,12.09,16.72,24.22,33.41,36.35,50.1.89,1.23,1.89,2.37,2.81,3.58.78,1.02,1.36.97,2.13-.11,3.02-4.27,6.12-8.48,9.19-12.71,9.87-13.61,19.76-27.21,29.6-40.84.78-1.08,1.62-1.44,2.94-1.44,15.26.04,30.52.02,45.77.04.64,0,1.52-.35,1.85.38.28.62-.34,1.21-.73,1.75-20.6,28.68-41.2,57.36-61.78,86.05-2.82,3.92-2.73,4.58.22,8.34,4.9,6.24,9.69,12.55,14.59,18.79,1.08,1.37.29,2.73.18,4.02-.39,4.85-1.04,9.68-1.56,14.52-.9,8.4-1.79,16.81-2.65,25.21-.73,7.14-1.41,14.29-2.13,21.43-.06.57.14,1.38-.64,1.56-.77.17-.73-.71-1.06-1.11-3.33-4.01-6.06-8.45-9.02-12.72-4.43-6.4-8.7-12.91-13.05-19.36-3.48-5.16-6.96-10.31-10.45-15.46-.12-.18-.3-.33-.45-.5-2.09-2.43-2.61-2.39-4.4.26-4.74,7.03-9.51,14.03-14.25,21.07-4.49,6.67-8.89,13.4-13.44,20.03-1.88,2.74-3.81,5.48-6.24,7.93-1.06-1.77-.71-3.68-.91-5.45-.93-8.14-1.64-16.31-2.49-24.46-.61-5.85-1.36-11.68-1.98-17.53-.62-5.84-1.13-11.7-1.74-17.54-.1-.93.2-1.59.75-2.29,5.51-7.11,10.96-14.28,16.52-21.36.83-1.06.61-1.69-.05-2.6-10.97-15.23-21.93-30.48-32.88-45.73C22.08,35.19,11.79,20.84,1.5,6.5c-.45-.63-.88-1.28-1.5-2.2Z"/>
      <path class="cls-1" d="M.89,27.07c-.28-3.11-.55-6.23-.87-9.77,1.87,1.67,2.88,3.47,4.09,5.08,10.54,14.01,21.02,28.06,31.56,42.08,1.25,1.66.83,3.57,1.04,5.36.9,7.53,1.64,15.07,2.41,22.61.59,5.75,1.15,11.51,1.75,17.26.54,5.25,1.14,10.49,1.66,15.74.6,6.04,1.13,12.08,1.74,18.12.73,7.27,1.54,14.52,2.27,21.79.7,6.86,1.35,13.73,2.03,20.61-.69.22-.94-.35-1.27-.66-11.61-10.54-23.2-21.1-34.83-31.63-.75-.68-1.01-1.46-1.09-2.36-.39-4.42-.73-8.85-1.12-13.28-.52-5.99-1.09-11.97-1.6-17.96-.4-4.7-.72-9.41-1.11-14.12-.5-6.05-1.05-12.1-1.57-18.15-.5-5.88-.99-11.76-1.49-17.65-.51-5.99-1.02-11.99-1.52-17.98-.53-6.44-1.04-12.89-1.55-19.33-.01-1.8-.03-3.6-.05-5.4,0-.33.05-.76-.5-.38Z"/>
      <path class="cls-1" d="M144.73,83.02c.54-5.47,1.09-10.95,1.63-16.42.08-.86.39-1.59.92-2.3,11.39-15.2,22.75-30.43,34.13-45.64.24-.32.39-.84,1.08-.83.28,2.41-.24,4.76-.42,7.13-.49,6.28-1.02,12.55-1.55,18.82-.6,7.06-1.24,14.11-1.84,21.17-.53,6.22-1.02,12.44-1.54,18.65-.6,7-1.23,14-1.82,21-.54,6.5-1.03,12.99-1.56,19.49-.34,4.2-.72,8.39-1.09,12.59-.42,4.75-.93,9.5-1.23,14.26-.08,1.31-.58,2.21-1.47,3-4.52,3.99-8.99,8.05-13.44,12.12-4.47,4.09-9,8.11-13.4,12.27-2.77,2.62-5.65,5.13-8.64,7.84-.49-1.88.05-3.52.2-5.13.64-6.99,1.4-13.97,2.11-20.96.65-6.42,1.26-12.85,1.93-19.27.62-6.03,1.3-12.05,1.93-18.08.63-6.03,1.22-12.07,1.83-18.11.07-.73.21-1.44.32-2.16.46-.16.51-.54.53-.95.09-2.29.39-4.57.54-6.82.25-3.89,1.26-7.73.88-11.65Z"/>
    </g>
    <g>
      <path class="cls-2" d="M217.67,84.14L234.14,0l26.86,60.82L288.83,0l14.8,84.14h-12.11l-7.55-47.24-23.16,50.84-22.5-50.89-8.41,47.29h-12.21Z"/>
      <path class="cls-2" d="M362.98,62.14h-35.38c.3,4.05,1.62,7.28,3.95,9.68,2.33,2.37,5.32,3.55,8.97,3.55,2.84,0,5.19-.68,7.04-2.03,1.82-1.35,3.9-3.85,6.23-7.5l9.63,5.37c-1.49,2.53-3.06,4.71-4.71,6.51-1.66,1.81-3.43,3.29-5.32,4.46-1.89,1.17-3.94,2.02-6.13,2.56-2.2.54-4.58.81-7.15.81-7.37,0-13.28-2.36-17.74-7.1-4.46-4.76-6.69-11.08-6.69-18.96s2.16-14.12,6.49-18.96c4.36-4.76,10.14-7.15,17.33-7.15s13.01,2.31,17.23,6.94c4.19,4.6,6.29,10.96,6.29,19.11l-.05,2.69ZM351.27,52.81c-1.59-6.08-5.42-9.12-11.51-9.12-1.39,0-2.69.21-3.9.63-1.22.42-2.32,1.03-3.32,1.82-1,.79-1.85,1.75-2.56,2.86-.71,1.11-1.25,2.38-1.62,3.8h22.91Z"/>
      <path class="cls-2" d="M388.78,57.43l-17.74-22.66h13.58l11,14.39,11.2-14.39h13.99l-18.25,22.66,21.13,26.71h-13.58l-14.5-18.45-14.85,18.45h-13.94l21.95-26.71Z"/>
      <path class="cls-2" d="M445.39,5.88v78.26h-11.81V5.88h11.81Z"/>
      <path class="cls-2" d="M476,36.49h33.76V5.88h11.81v78.26h-11.81v-36.54h-33.76v36.54h-11.81V5.88h11.81v30.61Z"/>
      <path class="cls-2" d="M598.15,10.09v13.99c-6.83-5.71-13.89-8.57-21.19-8.57-8.04,0-14.82,2.89-20.32,8.67-5.54,5.74-8.31,12.77-8.31,21.08s2.77,15.14,8.31,20.78c5.54,5.64,12.33,8.46,20.38,8.46,4.16,0,7.69-.68,10.59-2.03,1.62-.68,3.3-1.59,5.04-2.74,1.74-1.15,3.57-2.53,5.5-4.16v14.24c-6.76,3.82-13.85,5.73-21.29,5.73-11.18,0-20.73-3.9-28.64-11.71-7.87-7.87-11.81-17.37-11.81-28.48,0-9.97,3.29-18.85,9.88-26.66,8.11-9.56,18.6-14.34,31.47-14.34,7.03,0,13.82,1.91,20.38,5.73Z"/>
      <path class="cls-1" d="M701.62,84.14h-63.01l19.41-20.14c5.12-5.33,9.13-9.84,12.04-13.55,2.91-3.7,5.07-6.83,6.49-9.39,1.42-2.56,2.3-4.64,2.65-6.23.34-1.59.52-2.94.52-4.05,0-1.18-.19-2.32-.57-3.43-.38-1.11-.95-2.09-1.71-2.96-.76-.86-1.68-1.56-2.75-2.08-1.07-.52-2.34-.78-3.79-.78-2.77,0-4.93.9-6.49,2.7-1.56,1.8-2.34,4.05-2.34,6.75,0,.76.1,1.87.31,3.32h-22.21c0-4.57.74-8.72,2.23-12.46,1.49-3.74,3.58-6.95,6.28-9.65,2.7-2.7,5.9-4.77,9.6-6.23,3.7-1.45,7.77-2.18,12.2-2.18s8.39.69,12.09,2.08c3.7,1.38,6.9,3.32,9.6,5.81,2.7,2.49,4.81,5.45,6.33,8.88,1.52,3.43,2.28,7.15,2.28,11.16,0,4.29-.92,8.25-2.75,11.89-1.83,3.63-4.76,7.35-8.77,11.16l-12.98,12.15h25.33v17.23Z"/>
      <path class="cls-1" d="M708.37,44.9c0-6.23.81-11.89,2.44-16.97,1.62-5.09,3.91-9.43,6.85-13.03,2.94-3.6,6.44-6.38,10.48-8.36,4.05-1.97,8.53-2.96,13.44-2.96s9.31.99,13.39,2.96c4.08,1.97,7.58,4.76,10.48,8.36,2.91,3.6,5.17,7.94,6.8,13.03,1.62,5.09,2.44,10.74,2.44,16.97s-.81,11.89-2.44,16.97c-1.63,5.09-3.89,9.45-6.8,13.08-2.91,3.63-6.4,6.44-10.48,8.41-4.08,1.97-8.55,2.96-13.39,2.96s-9.39-.99-13.44-2.96c-4.05-1.97-7.54-4.77-10.48-8.41-2.94-3.63-5.23-7.99-6.85-13.08-1.63-5.09-2.44-10.74-2.44-16.97ZM728.51,44.9c0,3.46.31,6.61.93,9.45.62,2.84,1.5,5.29,2.65,7.37,1.14,2.08,2.51,3.68,4.1,4.83,1.59,1.14,3.39,1.71,5.4,1.71s3.72-.57,5.35-1.71c1.62-1.14,2.99-2.75,4.1-4.83,1.11-2.08,1.97-4.53,2.59-7.37.62-2.84.93-5.98.93-9.45s-.31-6.52-.93-9.39c-.62-2.87-1.49-5.33-2.59-7.37-1.11-2.04-2.47-3.63-4.1-4.77-1.63-1.14-3.41-1.71-5.35-1.71s-3.81.57-5.4,1.71c-1.59,1.14-2.96,2.73-4.1,4.77-1.14,2.04-2.02,4.5-2.65,7.37-.62,2.87-.93,6-.93,9.39Z"/>
      <path class="cls-1" d="M842.79,84.14h-63.01l19.41-20.14c5.12-5.33,9.13-9.84,12.04-13.55,2.91-3.7,5.07-6.83,6.49-9.39,1.42-2.56,2.3-4.64,2.65-6.23.34-1.59.52-2.94.52-4.05,0-1.18-.19-2.32-.57-3.43-.38-1.11-.95-2.09-1.71-2.96-.76-.86-1.68-1.56-2.75-2.08-1.07-.52-2.34-.78-3.79-.78-2.77,0-4.93.9-6.49,2.7-1.56,1.8-2.34,4.05-2.34,6.75,0,.76.1,1.87.31,3.32h-22.21c0-4.57.74-8.72,2.23-12.46,1.49-3.74,3.58-6.95,6.28-9.65,2.7-2.7,5.9-4.77,9.6-6.23,3.7-1.45,7.77-2.18,12.2-2.18s8.39.69,12.09,2.08c3.7,1.38,6.9,3.32,9.6,5.81,2.7,2.49,4.81,5.45,6.33,8.88,1.52,3.43,2.28,7.15,2.28,11.16,0,4.29-.92,8.25-2.75,11.89-1.83,3.63-4.76,7.35-8.77,11.16l-12.98,12.15h25.33v17.23Z"/>
      <path class="cls-1" d="M907.35,52.48h9.45v15.57h-9.45v16.09h-18.89v-16.09h-37.78v-13.08l29.89-49.1h26.78v46.61ZM888.46,52.48v-30.83l-17.96,30.83h17.96Z"/>
    </g>
    <g>
      <path class="cls-1" d="M214.1,110.84h12.72c2.25,0,4.37.45,6.34,1.36,1.97.91,3.7,2.11,5.18,3.62,1.48,1.51,2.64,3.26,3.49,5.27.85,2,1.27,4.1,1.27,6.3s-.42,4.25-1.25,6.25c-.83,2-1.99,3.77-3.47,5.29-1.48,1.52-3.2,2.74-5.18,3.64-1.97.91-4.1,1.36-6.38,1.36h-12.72v-33.09ZM222.7,136.65h1.97c1.49,0,2.82-.23,3.99-.7,1.17-.47,2.16-1.11,2.96-1.93.8-.82,1.42-1.79,1.84-2.92.42-1.13.64-2.36.64-3.71s-.22-2.54-.66-3.69c-.44-1.14-1.06-2.12-1.86-2.94-.8-.82-1.79-1.46-2.96-1.93-1.17-.47-2.49-.7-3.95-.7h-1.97v18.52Z"/>
      <path class="cls-1" d="M255,134.01c0,3.42,1.61,5.13,4.83,5.13,1.73,0,3.03-.7,3.91-2.11h7.68c-1.55,5.15-5.43,7.72-11.63,7.72-1.9,0-3.64-.29-5.22-.86-1.58-.57-2.93-1.38-4.06-2.44-1.13-1.05-2-2.31-2.61-3.77-.61-1.46-.92-3.1-.92-4.91s.29-3.56.88-5.07c.58-1.51,1.42-2.79,2.5-3.84s2.39-1.87,3.93-2.44c1.54-.57,3.27-.86,5.2-.86s3.61.29,5.13.86c1.52.57,2.81,1.4,3.86,2.48,1.05,1.08,1.86,2.41,2.41,3.97s.83,3.33.83,5.29v.83h-16.72ZM264.3,129.41c-.26-1.11-.8-2-1.62-2.68-.82-.67-1.81-1.01-2.98-1.01-1.23,0-2.23.32-3.01.97-.78.64-1.27,1.55-1.47,2.72h9.08ZM266.98,111.37l-7.64,6.76-3.69-2.72,6.28-7.68,5.05,3.64Z"/>
      <path class="cls-1" d="M293.22,128.7c-1.38-.94-2.76-1.4-4.17-1.4-.76,0-1.47.13-2.13.4s-1.24.64-1.73,1.12c-.5.48-.88,1.05-1.16,1.71-.28.66-.42,1.4-.42,2.22s.14,1.51.42,2.17c.28.66.66,1.23,1.14,1.71.48.48,1.06.86,1.73,1.12.67.26,1.39.4,2.15.4,1.49,0,2.88-.51,4.17-1.54v6.76c-1.96.85-3.82,1.27-5.57,1.27-1.64,0-3.2-.28-4.67-.83-1.48-.56-2.78-1.35-3.91-2.39-1.13-1.04-2.03-2.28-2.7-3.73-.67-1.45-1.01-3.06-1.01-4.85s.32-3.42.97-4.89c.64-1.48,1.52-2.75,2.63-3.82,1.11-1.07,2.44-1.9,3.97-2.5,1.54-.6,3.18-.9,4.94-.9,1.93,0,3.71.41,5.35,1.23v6.76Z"/>
      <path class="cls-1" d="M297.21,112.77c0-.61.12-1.19.35-1.73.23-.54.56-1.02.97-1.43s.88-.73,1.43-.97c.54-.23,1.12-.35,1.73-.35s1.19.12,1.73.35c.54.23,1.02.56,1.43.97.41.41.73.89.97,1.43.23.54.35,1.12.35,1.73s-.12,1.19-.35,1.73c-.23.54-.56,1.02-.97,1.43-.41.41-.88.73-1.43.97-.54.23-1.12.35-1.73.35s-1.19-.12-1.73-.35c-.54-.23-1.02-.56-1.43-.97-.41-.41-.73-.88-.97-1.43-.23-.54-.35-1.12-.35-1.73ZM305.68,121.42v22.51h-7.94v-22.51h7.94Z"/>
      <path class="cls-1" d="M311.12,121.42h7.94v2.76c2.16-2.08,4.59-3.12,7.28-3.12,3.33,0,5.88,1.4,7.63,4.21,1.78-2.84,4.33-4.26,7.64-4.26,1.05,0,2.05.15,2.98.46s1.74.79,2.41,1.45c.67.66,1.21,1.51,1.6,2.57.39,1.05.59,2.33.59,3.82v14.61h-7.94v-11.1c0-1.14-.08-2.08-.24-2.81-.16-.73-.39-1.3-.7-1.71-.31-.41-.67-.69-1.08-.83-.41-.15-.85-.22-1.32-.22-2.54,0-3.82,1.86-3.82,5.57v11.1h-7.94v-11.1c0-1.14-.07-2.08-.22-2.83s-.36-1.34-.64-1.78c-.28-.44-.64-.74-1.08-.9-.44-.16-.95-.24-1.54-.24-.5,0-.96.07-1.4.22-.44.15-.83.43-1.16.86-.34.42-.6,1.01-.79,1.75-.19.75-.29,1.72-.29,2.92v11.1h-7.94v-22.51Z"/>
      <path class="cls-1" d="M372.02,121.42h7.99v22.51h-7.99v-2.5c-1.7,2.14-3.99,3.2-6.89,3.2-1.64,0-3.14-.3-4.52-.9-1.38-.6-2.57-1.44-3.6-2.52-1.02-1.08-1.82-2.35-2.39-3.82-.57-1.46-.86-3.06-.86-4.78,0-1.61.28-3.14.83-4.59.56-1.45,1.33-2.71,2.33-3.8.99-1.08,2.18-1.94,3.55-2.57,1.38-.63,2.9-.94,4.56-.94,2.81,0,5.13.98,6.98,2.94v-2.24ZM362.02,132.61c0,.73.13,1.41.39,2.04.26.63.62,1.18,1.08,1.65.45.47.99.83,1.62,1.1.63.26,1.31.4,2.04.4s1.37-.13,2-.4,1.17-.63,1.62-1.1c.45-.47.82-1.01,1.1-1.62s.42-1.27.42-1.97-.14-1.37-.42-2c-.28-.63-.64-1.18-1.1-1.65-.45-.47-1-.83-1.62-1.1-.63-.26-1.29-.39-2-.39s-1.41.13-2.04.39c-.63.26-1.17.63-1.62,1.1-.45.47-.81,1-1.08,1.6-.26.6-.39,1.25-.39,1.95Z"/>
      <path class="cls-2" d="M424.64,112.63v5.91c-2.89-2.41-5.87-3.62-8.96-3.62-3.4,0-6.26,1.22-8.59,3.66-2.34,2.43-3.51,5.4-3.51,8.91s1.17,6.4,3.51,8.78c2.34,2.39,5.21,3.58,8.61,3.58,1.76,0,3.25-.29,4.48-.86.69-.29,1.4-.67,2.13-1.16.74-.49,1.51-1.07,2.33-1.76v6.02c-2.86,1.61-5.86,2.42-9,2.42-4.73,0-8.76-1.65-12.11-4.95-3.33-3.33-4.99-7.34-4.99-12.04,0-4.21,1.39-7.97,4.18-11.27,3.43-4.04,7.86-6.06,13.31-6.06,2.97,0,5.84.81,8.61,2.42Z"/>
      <path class="cls-2" d="M429.03,133.35c0-3.01,1.08-5.58,3.24-7.69,2.16-2.11,4.79-3.17,7.88-3.17s5.76,1.06,7.93,3.19c2.14,2.13,3.21,4.74,3.21,7.84s-1.08,5.75-3.24,7.86c-2.17,2.1-4.83,3.15-7.99,3.15s-5.75-1.07-7.86-3.21c-2.11-2.11-3.17-4.77-3.17-7.97ZM433.96,133.43c0,2.09.56,3.74,1.67,4.95,1.14,1.23,2.65,1.84,4.52,1.84s3.39-.61,4.52-1.82c1.13-1.21,1.69-2.84,1.69-4.86s-.56-3.65-1.69-4.86c-1.14-1.23-2.65-1.84-4.52-1.84s-3.33.61-4.48,1.84c-1.14,1.23-1.71,2.81-1.71,4.76Z"/>
      <path class="cls-2" d="M456.39,123.06h4.84v1.93c1.69-1.67,3.58-2.51,5.7-2.51,2.43,0,4.32.76,5.68,2.29,1.17,1.3,1.76,3.42,1.76,6.36v12.79h-4.84v-11.66c0-2.06-.29-3.48-.86-4.26-.56-.8-1.57-1.2-3.04-1.2-1.6,0-2.74.53-3.41,1.59-.66,1.04-.99,2.86-.99,5.46v10.07h-4.84v-20.87Z"/>
      <path class="cls-2" d="M485.45,127.56v16.37h-4.84v-16.37h-1.71v-4.5h1.71v-8.06c0-2.63.46-4.48,1.37-5.57,1.26-1.51,3.09-2.27,5.49-2.27.86,0,1.94.25,3.24.75v4.93l-.49-.26c-1.04-.53-1.9-.79-2.57-.79-.86,0-1.44.31-1.74.92-.3.6-.45,1.76-.45,3.47v6.88h5.25v4.5h-5.25Z"/>
      <path class="cls-2" d="M513.15,134.63h-14.96c.13,1.71.69,3.08,1.67,4.09.99,1,2.25,1.5,3.79,1.5,1.2,0,2.19-.29,2.98-.86.77-.57,1.65-1.63,2.63-3.17l4.07,2.27c-.63,1.07-1.29,1.99-1.99,2.75-.7.76-1.45,1.39-2.25,1.89-.8.49-1.66.85-2.59,1.08-.93.23-1.94.34-3.02.34-3.11,0-5.61-1-7.5-3-1.88-2.01-2.83-4.68-2.83-8.01s.91-5.97,2.74-8.01c1.84-2.01,4.29-3.02,7.33-3.02s5.5.98,7.29,2.94c1.77,1.94,2.66,4.64,2.66,8.08l-.02,1.14ZM508.2,130.69c-.67-2.57-2.29-3.86-4.86-3.86-.59,0-1.14.09-1.65.27-.51.18-.98.44-1.4.77-.42.34-.78.74-1.08,1.21-.3.47-.53,1.01-.69,1.61h9.68Z"/>
      <path class="cls-2" d="M518.42,123.06h4.82v1.86c.89-.93,1.67-1.56,2.36-1.91.7-.36,1.53-.54,2.49-.54,1.27,0,2.6.41,3.98,1.24l-2.21,4.41c-.92-.66-1.81-.99-2.68-.99-2.63,0-3.94,1.99-3.94,5.96v10.82h-4.82v-20.87Z"/>
      <path class="cls-2" d="M553.54,134.63h-14.96c.13,1.71.69,3.08,1.67,4.09.99,1,2.25,1.5,3.79,1.5,1.2,0,2.19-.29,2.98-.86.77-.57,1.65-1.63,2.63-3.17l4.07,2.27c-.63,1.07-1.29,1.99-1.99,2.75-.7.76-1.45,1.39-2.25,1.89-.8.49-1.66.85-2.59,1.08-.93.23-1.94.34-3.02.34-3.11,0-5.61-1-7.5-3-1.88-2.01-2.83-4.68-2.83-8.01s.91-5.97,2.74-8.01c1.84-2.01,4.29-3.02,7.33-3.02s5.5.98,7.29,2.94c1.77,1.94,2.66,4.64,2.66,8.08l-.02,1.14ZM548.59,130.69c-.67-2.57-2.29-3.86-4.86-3.86-.59,0-1.14.09-1.65.27-.51.18-.98.44-1.4.77-.42.34-.78.74-1.08,1.21-.3.47-.53,1.01-.69,1.61h9.68Z"/>
      <path class="cls-2" d="M558.81,123.06h4.84v1.93c1.69-1.67,3.58-2.51,5.7-2.51,2.43,0,4.32.76,5.68,2.29,1.17,1.3,1.76,3.42,1.76,6.36v12.79h-4.84v-11.66c0-2.06-.29-3.48-.86-4.26-.56-.8-1.57-1.2-3.04-1.2-1.6,0-2.74.53-3.41,1.59-.66,1.04-.99,2.86-.99,5.46v10.07h-4.84v-20.87Z"/>
      <path class="cls-2" d="M599.11,123.96v6.41c-1.1-1.34-2.09-2.26-2.96-2.76-.86-.51-1.86-.77-3.02-.77-1.81,0-3.32.64-4.52,1.91-1.2,1.27-1.8,2.86-1.8,4.78s.58,3.56,1.74,4.82c1.17,1.26,2.66,1.89,4.48,1.89,1.16,0,2.18-.25,3.06-.75.86-.49,1.86-1.43,3.02-2.83v6.36c-1.96,1.01-3.91,1.52-5.87,1.52-3.23,0-5.93-1.04-8.1-3.13-2.17-2.1-3.26-4.71-3.26-7.82s1.1-5.74,3.3-7.88c2.2-2.14,4.9-3.21,8.1-3.21,2.06,0,4,.49,5.83,1.48Z"/>
      <path class="cls-2" d="M603.05,114.38c0-.84.31-1.57.92-2.19.61-.61,1.35-.92,2.21-.92s1.61.31,2.23.92c.61.6.92,1.34.92,2.21s-.31,1.61-.92,2.23c-.6.61-1.34.92-2.21.92s-1.61-.31-2.23-.92c-.61-.61-.92-1.36-.92-2.25ZM608.6,123.06v20.87h-4.82v-20.87h4.82Z"/>
      <path class="cls-2" d="M630.09,123.06h4.84v20.87h-4.84v-2.19c-1.99,1.86-4.12,2.79-6.41,2.79-2.88,0-5.27-1.04-7.16-3.13-1.87-2.13-2.81-4.79-2.81-7.97s.94-5.73,2.81-7.82c1.87-2.09,4.21-3.13,7.03-3.13,2.43,0,4.61,1,6.54,3v-2.42ZM618.65,133.43c0,2,.54,3.63,1.61,4.88,1.1,1.27,2.49,1.91,4.16,1.91,1.79,0,3.23-.61,4.33-1.84,1.1-1.27,1.65-2.89,1.65-4.84s-.55-3.57-1.65-4.84c-1.1-1.24-2.53-1.86-4.29-1.86-1.66,0-3.04.63-4.16,1.89-1.1,1.27-1.65,2.84-1.65,4.71Z"/>
      <path class="cls-2" d="M654.32,143.93l6.96-35.57,11.36,25.71,11.76-25.71,6.26,35.57h-5.12l-3.19-19.97-9.79,21.49-9.51-21.51-3.56,19.99h-5.16Z"/>
      <path class="cls-2" d="M715.75,134.63h-14.96c.13,1.71.69,3.08,1.67,4.09.99,1,2.25,1.5,3.79,1.5,1.2,0,2.19-.29,2.98-.86.77-.57,1.65-1.63,2.63-3.17l4.07,2.27c-.63,1.07-1.29,1.99-1.99,2.75-.7.76-1.45,1.39-2.25,1.89-.8.49-1.66.85-2.59,1.08-.93.23-1.94.34-3.02.34-3.11,0-5.61-1-7.5-3-1.88-2.01-2.83-4.68-2.83-8.01s.91-5.97,2.74-8.01c1.84-2.01,4.29-3.02,7.33-3.02s5.5.98,7.29,2.94c1.77,1.94,2.66,4.64,2.66,8.08l-.02,1.14ZM710.8,130.69c-.67-2.57-2.29-3.86-4.86-3.86-.59,0-1.14.09-1.65.27-.51.18-.98.44-1.4.77-.42.34-.78.74-1.08,1.21-.3.47-.53,1.01-.69,1.61h9.68Z"/>
      <path class="cls-2" d="M726.66,132.64l-7.5-9.58h5.74l4.65,6.08,4.74-6.08h5.91l-7.71,9.58,8.93,11.29h-5.74l-6.13-7.8-6.28,7.8h-5.89l9.28-11.29Z"/>
      <path class="cls-2" d="M743.95,114.38c0-.84.31-1.57.92-2.19.61-.61,1.35-.92,2.21-.92s1.61.31,2.23.92c.61.6.92,1.34.92,2.21s-.31,1.61-.92,2.23c-.6.61-1.34.92-2.21.92s-1.61-.31-2.23-.92c-.61-.61-.92-1.36-.92-2.25ZM749.5,123.06v20.87h-4.82v-20.87h4.82Z"/>
      <path class="cls-2" d="M771.85,123.96v6.41c-1.1-1.34-2.09-2.26-2.96-2.76-.86-.51-1.86-.77-3.02-.77-1.81,0-3.32.64-4.52,1.91-1.2,1.27-1.8,2.86-1.8,4.78s.58,3.56,1.74,4.82c1.17,1.26,2.66,1.89,4.48,1.89,1.16,0,2.18-.25,3.06-.75.86-.49,1.86-1.43,3.02-2.83v6.36c-1.96,1.01-3.91,1.52-5.87,1.52-3.23,0-5.93-1.04-8.1-3.13-2.17-2.1-3.26-4.71-3.26-7.82s1.1-5.74,3.3-7.88c2.2-2.14,4.9-3.21,8.1-3.21,2.06,0,4,.49,5.83,1.48Z"/>
      <path class="cls-2" d="M791.9,123.06h4.84v20.87h-4.84v-2.19c-1.99,1.86-4.12,2.79-6.41,2.79-2.88,0-5.27-1.04-7.16-3.13-1.87-2.13-2.81-4.79-2.81-7.97s.94-5.73,2.81-7.82c1.87-2.09,4.21-3.13,7.03-3.13,2.43,0,4.61,1,6.54,3v-2.42ZM780.46,133.43c0,2,.54,3.63,1.61,4.88,1.1,1.27,2.49,1.91,4.16,1.91,1.79,0,3.23-.61,4.33-1.84,1.1-1.27,1.65-2.89,1.65-4.84s-.55-3.57-1.65-4.84c-1.1-1.24-2.53-1.86-4.29-1.86-1.66,0-3.04.63-4.16,1.89-1.1,1.27-1.65,2.84-1.65,4.71Z"/>
      <path class="cls-2" d="M802.83,123.06h4.84v1.93c1.69-1.67,3.58-2.51,5.7-2.51,2.43,0,4.32.76,5.68,2.29,1.17,1.3,1.76,3.42,1.76,6.36v12.79h-4.84v-11.66c0-2.06-.29-3.48-.86-4.26-.56-.8-1.57-1.2-3.04-1.2-1.6,0-2.74.53-3.41,1.59-.66,1.04-.99,2.86-.99,5.46v10.07h-4.84v-20.87Z"/>
      <path class="cls-2" d="M842.27,123.06h4.84v20.87h-4.84v-2.19c-1.99,1.86-4.12,2.79-6.41,2.79-2.88,0-5.27-1.04-7.16-3.13-1.87-2.13-2.81-4.79-2.81-7.97s.94-5.73,2.81-7.82c1.87-2.09,4.21-3.13,7.03-3.13,2.43,0,4.61,1,6.54,3v-2.42ZM830.83,133.43c0,2,.54,3.63,1.61,4.88,1.1,1.27,2.49,1.91,4.16,1.91,1.79,0,3.23-.61,4.33-1.84,1.1-1.27,1.65-2.89,1.65-4.84s-.55-3.57-1.65-4.84c-1.1-1.24-2.53-1.86-4.29-1.86-1.66,0-3.04.63-4.16,1.89-1.1,1.27-1.65,2.84-1.65,4.71Z"/>
      <path class="cls-2" d="M878.87,126.62l-3.99,2.12c-.63-1.29-1.41-1.93-2.34-1.93-.44,0-.82.15-1.14.44-.31.29-.47.67-.47,1.12,0,.8.93,1.59,2.79,2.38,2.56,1.1,4.28,2.11,5.16,3.04.88.93,1.33,2.18,1.33,3.75,0,2.01-.74,3.7-2.23,5.06-1.44,1.29-3.19,1.93-5.23,1.93-3.5,0-5.98-1.71-7.44-5.12l4.11-1.91c.57,1,1.01,1.64,1.31,1.91.59.54,1.29.81,2.1.81,1.63,0,2.44-.74,2.44-2.23,0-.86-.63-1.66-1.89-2.4-.49-.24-.97-.48-1.46-.71-.49-.23-.98-.46-1.48-.71-1.4-.69-2.39-1.37-2.96-2.06-.73-.87-1.09-1.99-1.09-3.36,0-1.81.62-3.31,1.86-4.5,1.27-1.19,2.81-1.78,4.63-1.78,2.67,0,4.66,1.38,5.96,4.14Z"/>
      <path class="cls-2" d="M883.56,133.35c0-3.01,1.08-5.58,3.24-7.69,2.16-2.11,4.79-3.17,7.88-3.17s5.76,1.06,7.93,3.19c2.14,2.13,3.21,4.74,3.21,7.84s-1.08,5.75-3.24,7.86c-2.17,2.1-4.83,3.15-7.99,3.15s-5.75-1.07-7.86-3.21c-2.11-2.11-3.17-4.77-3.17-7.97ZM888.49,133.43c0,2.09.56,3.74,1.67,4.95,1.14,1.23,2.65,1.84,4.52,1.84s3.39-.61,4.52-1.82c1.13-1.21,1.69-2.84,1.69-4.86s-.56-3.65-1.69-4.86c-1.14-1.23-2.65-1.84-4.52-1.84s-3.33.61-4.48,1.84c-1.14,1.23-1.71,2.81-1.71,4.76Z"/>
      <path class="cls-2" d="M915.74,107.74v17.74c1.93-2,4.11-3,6.56-3,2.81,0,5.16,1.05,7.03,3.15,1.87,2.09,2.81,4.69,2.81,7.8s-.94,5.87-2.83,7.97c-1.87,2.09-4.24,3.13-7.09,3.13-2.41,0-4.57-.93-6.47-2.79v2.19h-4.82v-36.19h4.82ZM927.21,133.65c0-2-.54-3.63-1.63-4.88-1.1-1.29-2.48-1.93-4.14-1.93-1.77,0-3.21.62-4.33,1.86-1.1,1.23-1.65,2.83-1.65,4.8s.54,3.65,1.63,4.86c1.09,1.24,2.51,1.86,4.29,1.86,1.67,0,3.06-.62,4.16-1.86,1.11-1.26,1.67-2.83,1.67-4.71Z"/>
      <path class="cls-2" d="M937.23,123.06h4.82v1.86c.89-.93,1.67-1.56,2.36-1.91.7-.36,1.53-.54,2.49-.54,1.27,0,2.6.41,3.98,1.24l-2.21,4.41c-.92-.66-1.81-.99-2.68-.99-2.63,0-3.94,1.99-3.94,5.96v10.82h-4.82v-20.87Z"/>
      <path class="cls-2" d="M972.35,134.63h-14.96c.13,1.71.69,3.08,1.67,4.09.99,1,2.25,1.5,3.79,1.5,1.2,0,2.19-.29,2.98-.86.77-.57,1.65-1.63,2.63-3.17l4.07,2.27c-.63,1.07-1.29,1.99-1.99,2.75-.7.76-1.45,1.39-2.25,1.89-.8.49-1.66.85-2.59,1.08-.93.23-1.94.34-3.02.34-3.11,0-5.61-1-7.5-3-1.88-2.01-2.83-4.68-2.83-8.01s.91-5.97,2.74-8.01c1.84-2.01,4.29-3.02,7.33-3.02s5.5.98,7.29,2.94c1.77,1.94,2.66,4.64,2.66,8.08l-.02,1.14ZM967.4,130.69c-.67-2.57-2.29-3.86-4.86-3.86-.59,0-1.14.09-1.65.27-.51.18-.98.44-1.4.77-.42.34-.78.74-1.08,1.21-.3.47-.53,1.01-.69,1.61h9.68Z"/>
      <path class="cls-1" d="M222.7,151.35v33.09h-8.6v-33.09h8.6Z"/>
      <path class="cls-1" d="M227.53,161.93h7.94v2.85c1.08-1.32,2.18-2.2,3.29-2.65,1.11-.45,2.41-.68,3.91-.68,1.58,0,2.93.26,4.06.77,1.13.51,2.08,1.24,2.87,2.17.64.76,1.08,1.61,1.32,2.54.23.94.35,2,.35,3.2v14.31h-7.94v-11.37c0-1.11-.08-2.01-.24-2.7-.16-.69-.45-1.24-.86-1.65-.35-.35-.75-.6-1.19-.75-.44-.15-.91-.22-1.4-.22-1.35,0-2.38.4-3.09,1.21-.72.8-1.08,1.95-1.08,3.44v12.02h-7.94v-22.51Z"/>
      <path class="cls-1" d="M264.17,168.55v15.88h-7.94v-15.88h-2.63v-6.63h2.63v-6.76h7.94v6.76h4.52v6.63h-4.52Z"/>
      <path class="cls-1" d="M277.9,174.52c0,3.42,1.61,5.13,4.83,5.13,1.73,0,3.03-.7,3.91-2.11h7.68c-1.55,5.15-5.43,7.72-11.63,7.72-1.9,0-3.64-.29-5.22-.86-1.58-.57-2.93-1.38-4.06-2.44-1.13-1.05-2-2.31-2.61-3.77-.61-1.46-.92-3.1-.92-4.91s.29-3.56.88-5.07c.58-1.51,1.42-2.79,2.5-3.84s2.39-1.87,3.93-2.44c1.54-.57,3.27-.86,5.2-.86s3.61.29,5.13.86c1.52.57,2.81,1.4,3.86,2.48,1.05,1.08,1.86,2.41,2.41,3.97s.83,3.33.83,5.29v.83h-16.72ZM287.2,169.91c-.26-1.11-.8-2-1.62-2.68-.82-.67-1.81-1.01-2.98-1.01-1.23,0-2.23.32-3.01.97-.78.64-1.27,1.55-1.47,2.72h9.08Z"/>
      <path class="cls-1" d="M297.78,161.93h7.94v3.69c.85-1.35,1.89-2.38,3.12-3.09,1.23-.72,2.66-1.07,4.3-1.07h.68c.25,0,.53.03.86.09v7.59c-1.05-.53-2.19-.79-3.42-.79-1.84,0-3.22.55-4.15,1.65-.92,1.1-1.38,2.7-1.38,4.8v9.65h-7.94v-22.51Z"/>
      <path class="cls-1" d="M334.51,161.93h7.99v22.51h-7.99v-2.5c-1.7,2.14-3.99,3.2-6.89,3.2-1.64,0-3.14-.3-4.52-.9-1.38-.6-2.57-1.44-3.6-2.52-1.02-1.08-1.82-2.35-2.39-3.82-.57-1.46-.86-3.06-.86-4.78,0-1.61.28-3.14.83-4.59.56-1.45,1.33-2.71,2.33-3.8.99-1.08,2.18-1.94,3.55-2.57,1.38-.63,2.9-.94,4.56-.94,2.81,0,5.13.98,6.98,2.94v-2.24ZM324.5,173.12c0,.73.13,1.41.39,2.04.26.63.62,1.18,1.08,1.65.45.47.99.83,1.62,1.1.63.26,1.31.4,2.04.4s1.37-.13,2-.4,1.17-.63,1.62-1.1c.45-.47.82-1.01,1.1-1.62s.42-1.27.42-1.97-.14-1.37-.42-2c-.28-.63-.64-1.18-1.1-1.65-.45-.47-1-.83-1.62-1.1-.63-.26-1.29-.39-2-.39s-1.41.13-2.04.39c-.63.26-1.17.63-1.62,1.1-.45.47-.81,1-1.08,1.6-.26.6-.39,1.25-.39,1.95Z"/>
      <path class="cls-1" d="M363.51,169.21c-1.38-.94-2.76-1.4-4.17-1.4-.76,0-1.47.13-2.13.4s-1.24.64-1.73,1.12c-.5.48-.88,1.05-1.16,1.71-.28.66-.42,1.4-.42,2.22s.14,1.51.42,2.17c.28.66.66,1.23,1.14,1.71.48.48,1.06.86,1.73,1.12.67.26,1.39.4,2.15.4,1.49,0,2.88-.51,4.17-1.54v6.76c-1.96.85-3.82,1.27-5.57,1.27-1.64,0-3.2-.28-4.67-.83-1.48-.56-2.78-1.35-3.91-2.39-1.13-1.04-2.03-2.28-2.7-3.73-.67-1.45-1.01-3.06-1.01-4.85s.32-3.42.97-4.89c.64-1.48,1.52-2.75,2.63-3.82,1.11-1.07,2.44-1.9,3.97-2.5,1.54-.6,3.18-.9,4.94-.9,1.93,0,3.71.41,5.35,1.23v6.76Z"/>
      <path class="cls-1" d="M383.65,169.21c-1.38-.94-2.76-1.4-4.17-1.4-.76,0-1.47.13-2.13.4s-1.24.64-1.73,1.12c-.5.48-.88,1.05-1.16,1.71-.28.66-.42,1.4-.42,2.22s.14,1.51.42,2.17c.28.66.66,1.23,1.14,1.71.48.48,1.06.86,1.73,1.12.67.26,1.39.4,2.15.4,1.49,0,2.88-.51,4.17-1.54v6.76c-1.96.85-3.82,1.27-5.57,1.27-1.64,0-3.2-.28-4.67-.83-1.48-.56-2.78-1.35-3.91-2.39-1.13-1.04-2.03-2.28-2.7-3.73-.67-1.45-1.01-3.06-1.01-4.85s.32-3.42.97-4.89c.64-1.48,1.52-2.75,2.63-3.82,1.11-1.07,2.44-1.9,3.97-2.5,1.54-.6,3.18-.9,4.94-.9,1.93,0,3.71.41,5.35,1.23v6.76Z"/>
      <path class="cls-1" d="M386.28,153.28c0-.61.12-1.19.35-1.73.23-.54.56-1.02.97-1.43s.88-.73,1.43-.97c.54-.23,1.12-.35,1.73-.35s1.19.12,1.73.35c.54.23,1.02.56,1.43.97.41.41.73.89.97,1.43.23.54.35,1.12.35,1.73s-.12,1.19-.35,1.73c-.23.54-.56,1.02-.97,1.43-.41.41-.88.73-1.43.97-.54.23-1.12.35-1.73.35s-1.19-.12-1.73-.35c-.54-.23-1.02-.56-1.43-.97-.41-.41-.73-.88-.97-1.43-.23-.54-.35-1.12-.35-1.73ZM394.75,161.93v22.51h-7.94v-22.51h7.94Z"/>
      <path class="cls-1" d="M397.95,172.99c0-1.67.34-3.23,1.01-4.67.67-1.45,1.61-2.71,2.81-3.77,1.2-1.07,2.63-1.91,4.28-2.52s3.46-.92,5.42-.92,3.72.3,5.38.9c1.65.6,3.09,1.43,4.3,2.5,1.21,1.07,2.16,2.34,2.83,3.82.67,1.48,1.01,3.11,1.01,4.89s-.34,3.42-1.03,4.89c-.69,1.48-1.63,2.75-2.83,3.82-1.2,1.07-2.64,1.89-4.32,2.48-1.68.58-3.5.88-5.46.88s-3.72-.29-5.35-.88c-1.64-.58-3.05-1.42-4.23-2.5-1.18-1.08-2.11-2.38-2.79-3.88-.67-1.51-1.01-3.18-1.01-5.02ZM406.34,173.07c0,.76.14,1.46.42,2.08.28.63.64,1.18,1.1,1.65.45.47.99.83,1.62,1.1s1.29.4,2,.4,1.37-.13,2-.4,1.17-.63,1.62-1.1c.45-.47.82-1.02,1.1-1.65.28-.63.42-1.31.42-2.04s-.14-1.37-.42-2c-.28-.63-.64-1.18-1.1-1.65-.45-.47-1-.83-1.62-1.1-.63-.26-1.29-.4-2-.4s-1.37.13-2,.4c-.63.26-1.17.63-1.62,1.1-.45.47-.82,1.01-1.1,1.62-.28.61-.42,1.27-.42,1.97ZM418.8,151.88l-7.64,6.76-3.69-2.72,6.27-7.68,5.05,3.64Z"/>
      <path class="cls-1" d="M428.19,161.93h7.94v2.85c1.08-1.32,2.18-2.2,3.29-2.65,1.11-.45,2.41-.68,3.91-.68,1.58,0,2.93.26,4.06.77,1.13.51,2.08,1.24,2.87,2.17.64.76,1.08,1.61,1.32,2.54.23.94.35,2,.35,3.2v14.31h-7.94v-11.37c0-1.11-.08-2.01-.24-2.7-.16-.69-.45-1.24-.86-1.65-.35-.35-.75-.6-1.19-.75-.44-.15-.91-.22-1.4-.22-1.35,0-2.38.4-3.09,1.21-.72.8-1.08,1.95-1.08,3.44v12.02h-7.94v-22.51Z"/>
      <path class="cls-1" d="M478.87,164.12h12.42v-12.77h8.6v33.09h-8.6v-13.65h-12.42v13.65h-8.6v-33.09h8.6v12.77Z"/>
      <path class="cls-1" d="M512.66,161.93v12.68c0,2.78,1.34,4.17,4.04,4.17s4.04-1.39,4.04-4.17v-12.68h7.94v14.22c0,3.04-1,5.32-3.01,6.85-2,1.52-5,2.28-8.97,2.28s-6.97-.76-8.97-2.28c-2-1.52-3.01-3.8-3.01-6.85v-14.22h7.94Z"/>
      <path class="cls-1" d="M532.71,161.93h7.94v2.76c2.16-2.08,4.59-3.12,7.28-3.12,3.33,0,5.88,1.4,7.63,4.21,1.78-2.84,4.33-4.26,7.64-4.26,1.05,0,2.05.15,2.98.46s1.74.79,2.41,1.45c.67.66,1.21,1.51,1.6,2.57.39,1.05.59,2.33.59,3.82v14.61h-7.94v-11.1c0-1.14-.08-2.08-.24-2.81-.16-.73-.39-1.3-.7-1.71-.31-.41-.67-.69-1.08-.83-.41-.15-.85-.22-1.32-.22-2.54,0-3.82,1.86-3.82,5.57v11.1h-7.94v-11.1c0-1.14-.07-2.08-.22-2.83s-.36-1.34-.64-1.78c-.28-.44-.64-.74-1.08-.9-.44-.16-.95-.24-1.54-.24-.5,0-.96.07-1.4.22-.44.15-.83.43-1.16.86-.34.42-.6,1.01-.79,1.75-.19.75-.29,1.72-.29,2.92v11.1h-7.94v-22.51Z"/>
      <path class="cls-1" d="M592.26,161.93h7.99v22.51h-7.99v-2.5c-1.7,2.14-3.99,3.2-6.89,3.2-1.64,0-3.14-.3-4.52-.9-1.38-.6-2.57-1.44-3.6-2.52-1.02-1.08-1.82-2.35-2.39-3.82-.57-1.46-.86-3.06-.86-4.78,0-1.61.28-3.14.83-4.59.56-1.45,1.33-2.71,2.33-3.8.99-1.08,2.18-1.94,3.55-2.57,1.38-.63,2.9-.94,4.56-.94,2.81,0,5.13.98,6.98,2.94v-2.24ZM582.25,173.12c0,.73.13,1.41.39,2.04.26.63.62,1.18,1.08,1.65.45.47.99.83,1.62,1.1.63.26,1.31.4,2.04.4s1.37-.13,2-.4,1.17-.63,1.62-1.1c.45-.47.82-1.01,1.1-1.62s.42-1.27.42-1.97-.14-1.37-.42-2c-.28-.63-.64-1.18-1.1-1.65-.45-.47-1-.83-1.62-1.1-.63-.26-1.29-.39-2-.39s-1.41.13-2.04.39c-.63.26-1.17.63-1.62,1.1-.45.47-.81,1-1.08,1.6-.26.6-.39,1.25-.39,1.95Z"/>
      <path class="cls-1" d="M604.28,161.93h7.94v2.85c1.08-1.32,2.18-2.2,3.29-2.65,1.11-.45,2.41-.68,3.91-.68,1.58,0,2.93.26,4.06.77,1.13.51,2.08,1.24,2.87,2.17.64.76,1.08,1.61,1.32,2.54.23.94.35,2,.35,3.2v14.31h-7.94v-11.37c0-1.11-.08-2.01-.24-2.7-.16-.69-.45-1.24-.86-1.65-.35-.35-.75-.6-1.19-.75-.44-.15-.91-.22-1.4-.22-1.35,0-2.38.4-3.09,1.21-.72.8-1.08,1.95-1.08,3.44v12.02h-7.94v-22.51Z"/>
      <path class="cls-1" d="M631.18,172.99c0-1.67.34-3.23,1.01-4.67.67-1.45,1.61-2.71,2.81-3.77,1.2-1.07,2.63-1.91,4.28-2.52s3.46-.92,5.42-.92,3.72.3,5.38.9c1.65.6,3.09,1.43,4.3,2.5,1.21,1.07,2.16,2.34,2.83,3.82.67,1.48,1.01,3.11,1.01,4.89s-.34,3.42-1.03,4.89c-.69,1.48-1.63,2.75-2.83,3.82-1.2,1.07-2.64,1.89-4.32,2.48-1.68.58-3.5.88-5.46.88s-3.72-.29-5.35-.88c-1.64-.58-3.05-1.42-4.23-2.5-1.18-1.08-2.11-2.38-2.79-3.88-.67-1.51-1.01-3.18-1.01-5.02ZM639.56,173.07c0,.76.14,1.46.42,2.08.28.63.64,1.18,1.1,1.65.45.47.99.83,1.62,1.1s1.29.4,2,.4,1.37-.13,2-.4,1.17-.63,1.62-1.1c.45-.47.82-1.02,1.1-1.65.28-.63.42-1.31.42-2.04s-.14-1.37-.42-2c-.28-.63-.64-1.18-1.1-1.65-.45-.47-1-.83-1.62-1.1-.63-.26-1.29-.4-2-.4s-1.37.13-2,.4c-.63.26-1.17.63-1.62,1.1-.45.47-.82,1.01-1.1,1.62-.28.61-.42,1.27-.42,1.97Z"/>
      <path class="cls-1" d="M658.69,169.39h12.59v6.63h-12.59v-6.63Z"/>
      <path class="cls-1" d="M697.22,162.41c-1.99-2.43-4.45-3.64-7.37-3.64-1.29,0-2.48.23-3.58.7-1.1.47-2.04,1.1-2.83,1.91-.79.8-1.41,1.76-1.87,2.87-.45,1.11-.68,2.31-.68,3.6s.23,2.53.68,3.64c.45,1.11,1.08,2.08,1.89,2.9.8.82,1.75,1.46,2.83,1.93,1.08.47,2.25.7,3.51.7,2.75,0,5.22-1.17,7.42-3.51v10.18l-.88.31c-1.32.47-2.54.81-3.69,1.03-1.14.22-2.27.33-3.38.33-2.28,0-4.47-.43-6.56-1.29-2.09-.86-3.93-2.08-5.53-3.64-1.6-1.56-2.88-3.42-3.84-5.57-.97-2.15-1.45-4.5-1.45-7.04s.48-4.88,1.43-7,2.22-3.95,3.82-5.49c1.59-1.54,3.44-2.73,5.55-3.6,2.11-.86,4.31-1.29,6.63-1.29,1.32,0,2.61.14,3.88.42,1.27.28,2.61.71,4.02,1.29v10.27Z"/>
      <path class="cls-1" d="M699.67,172.99c0-1.67.34-3.23,1.01-4.67.67-1.45,1.61-2.71,2.81-3.77,1.2-1.07,2.63-1.91,4.28-2.52s3.46-.92,5.42-.92,3.72.3,5.38.9c1.65.6,3.09,1.43,4.3,2.5,1.21,1.07,2.16,2.34,2.83,3.82.67,1.48,1.01,3.11,1.01,4.89s-.34,3.42-1.03,4.89c-.69,1.48-1.63,2.75-2.83,3.82-1.2,1.07-2.64,1.89-4.32,2.48-1.68.58-3.5.88-5.46.88s-3.72-.29-5.35-.88c-1.64-.58-3.05-1.42-4.23-2.5-1.18-1.08-2.11-2.38-2.79-3.88-.67-1.51-1.01-3.18-1.01-5.02ZM708.05,173.07c0,.76.14,1.46.42,2.08.28.63.64,1.18,1.1,1.65.45.47.99.83,1.62,1.1s1.29.4,2,.4,1.37-.13,2-.4,1.17-.63,1.62-1.1c.45-.47.82-1.02,1.1-1.65.28-.63.42-1.31.42-2.04s-.14-1.37-.42-2c-.28-.63-.64-1.18-1.1-1.65-.45-.47-1-.83-1.62-1.1-.63-.26-1.29-.4-2-.4s-1.37.13-2,.4c-.63.26-1.17.63-1.62,1.1-.45.47-.82,1.01-1.1,1.62-.28.61-.42,1.27-.42,1.97Z"/>
      <path class="cls-1" d="M729.91,161.93h7.94v2.76c2.16-2.08,4.59-3.12,7.28-3.12,3.33,0,5.88,1.4,7.63,4.21,1.78-2.84,4.33-4.26,7.64-4.26,1.05,0,2.05.15,2.98.46s1.74.79,2.41,1.45c.67.66,1.21,1.51,1.6,2.57.39,1.05.59,2.33.59,3.82v14.61h-7.94v-11.1c0-1.14-.08-2.08-.24-2.81-.16-.73-.39-1.3-.7-1.71-.31-.41-.67-.69-1.08-.83-.41-.15-.85-.22-1.32-.22-2.54,0-3.82,1.86-3.82,5.57v11.1h-7.94v-11.1c0-1.14-.07-2.08-.22-2.83s-.36-1.34-.64-1.78c-.28-.44-.64-.74-1.08-.9-.44-.16-.95-.24-1.54-.24-.5,0-.96.07-1.4.22-.44.15-.83.43-1.16.86-.34.42-.6,1.01-.79,1.75-.19.75-.29,1.72-.29,2.92v11.1h-7.94v-22.51Z"/>
      <path class="cls-1" d="M780.81,195.67h-7.94v-33.74h7.94v2.5c1.7-2.14,4.01-3.2,6.93-3.2,1.61,0,3.11.31,4.5.94,1.39.63,2.6,1.49,3.62,2.57,1.02,1.08,1.82,2.35,2.39,3.82.57,1.46.86,3.03.86,4.7s-.29,3.22-.86,4.65c-.57,1.43-1.36,2.69-2.37,3.77-1.01,1.08-2.2,1.93-3.58,2.55s-2.87.92-4.48.92c-2.81,0-5.15-.97-7.02-2.9v13.43ZM790.81,173.25c0-.7-.12-1.37-.37-2-.25-.63-.61-1.18-1.08-1.65-.47-.47-1.02-.84-1.65-1.12-.63-.28-1.31-.42-2.04-.42s-1.36.13-1.97.39c-.61.26-1.15.63-1.6,1.1-.45.47-.82,1.02-1.1,1.65-.28.63-.42,1.29-.42,2s.13,1.36.4,1.97c.26.61.63,1.15,1.1,1.6.47.45,1.02.82,1.65,1.1.63.28,1.29.42,2,.42s1.36-.13,1.97-.4c.62-.26,1.15-.63,1.6-1.1.45-.47.82-1.01,1.1-1.62.28-.61.42-1.26.42-1.93Z"/>
      <path class="cls-1" d="M810.21,161.93v12.68c0,2.78,1.34,4.17,4.04,4.17s4.04-1.39,4.04-4.17v-12.68h7.94v14.22c0,3.04-1,5.32-3.01,6.85-2,1.52-5,2.28-8.97,2.28s-6.97-.76-8.97-2.28c-2-1.52-3.01-3.8-3.01-6.85v-14.22h7.94Z"/>
      <path class="cls-1" d="M839.12,168.55v15.88h-7.94v-15.88h-2.63v-6.63h2.63v-6.76h7.94v6.76h4.52v6.63h-4.52Z"/>
      <path class="cls-1" d="M863.08,161.93h7.99v22.51h-7.99v-2.5c-1.7,2.14-3.99,3.2-6.89,3.2-1.64,0-3.14-.3-4.52-.9-1.38-.6-2.57-1.44-3.6-2.52-1.02-1.08-1.82-2.35-2.39-3.82-.57-1.46-.86-3.06-.86-4.78,0-1.61.28-3.14.83-4.59.56-1.45,1.33-2.71,2.33-3.8.99-1.08,2.18-1.94,3.55-2.57,1.38-.63,2.9-.94,4.56-.94,2.81,0,5.13.98,6.98,2.94v-2.24ZM853.08,173.12c0,.73.13,1.41.39,2.04.26.63.62,1.18,1.08,1.65.45.47.99.83,1.62,1.1.63.26,1.31.4,2.04.4s1.37-.13,2-.4,1.17-.63,1.62-1.1c.45-.47.82-1.01,1.1-1.62s.42-1.27.42-1.97-.14-1.37-.42-2c-.28-.63-.64-1.18-1.1-1.65-.45-.47-1-.83-1.62-1.1-.63-.26-1.29-.39-2-.39s-1.41.13-2.04.39c-.63.26-1.17.63-1.62,1.1-.45.47-.81,1-1.08,1.6-.26.6-.39,1.25-.39,1.95Z"/>
      <path class="cls-1" d="M892.48,148.02h7.99v36.42h-7.99v-2.5c-1.7,2.14-3.99,3.2-6.89,3.2-1.64,0-3.14-.31-4.52-.92-1.38-.61-2.57-1.46-3.6-2.55-1.02-1.08-1.82-2.35-2.39-3.82-.57-1.46-.86-3.04-.86-4.74,0-1.61.27-3.14.81-4.59.54-1.45,1.31-2.71,2.3-3.8,1-1.08,2.19-1.94,3.58-2.57,1.39-.63,2.92-.94,4.58-.94,2.81,0,5.13.98,6.98,2.94v-16.15ZM882.48,173.12c0,.73.13,1.41.39,2.04.26.63.62,1.18,1.08,1.65.45.47.99.83,1.62,1.1.63.26,1.31.4,2.04.4s1.37-.13,2-.4,1.17-.63,1.62-1.1c.45-.47.82-1.01,1.1-1.62s.42-1.27.42-1.97-.14-1.37-.42-2c-.28-.63-.64-1.18-1.1-1.65-.45-.47-1-.83-1.62-1.1-.63-.26-1.29-.39-2-.39s-1.37.13-2,.39c-.63.26-1.17.63-1.62,1.1-.45.47-.82,1-1.1,1.6-.28.6-.42,1.25-.42,1.95Z"/>
      <path class="cls-1" d="M903.62,172.99c0-1.67.34-3.23,1.01-4.67.67-1.45,1.61-2.71,2.81-3.77,1.2-1.07,2.63-1.91,4.28-2.52s3.46-.92,5.42-.92,3.72.3,5.38.9c1.65.6,3.09,1.43,4.3,2.5,1.21,1.07,2.16,2.34,2.83,3.82.67,1.48,1.01,3.11,1.01,4.89s-.34,3.42-1.03,4.89c-.69,1.48-1.63,2.75-2.83,3.82-1.2,1.07-2.64,1.89-4.32,2.48-1.68.58-3.5.88-5.46.88s-3.72-.29-5.35-.88c-1.64-.58-3.05-1.42-4.23-2.5-1.18-1.08-2.11-2.38-2.79-3.88-.67-1.51-1.01-3.18-1.01-5.02ZM912.01,173.07c0,.76.14,1.46.42,2.08.28.63.64,1.18,1.1,1.65.45.47.99.83,1.62,1.1s1.29.4,2,.4,1.37-.13,2-.4,1.17-.63,1.62-1.1c.45-.47.82-1.02,1.1-1.65.28-.63.42-1.31.42-2.04s-.14-1.37-.42-2c-.28-.63-.64-1.18-1.1-1.65-.45-.47-1-.83-1.62-1.1-.63-.26-1.29-.4-2-.4s-1.37.13-2,.4c-.63.26-1.17.63-1.62,1.1-.45.47-.82,1.01-1.1,1.62-.28.61-.42,1.27-.42,1.97Z"/>
      <path class="cls-1" d="M933.86,161.93h7.94v3.69c.85-1.35,1.89-2.38,3.12-3.09,1.23-.72,2.66-1.07,4.3-1.07h.68c.25,0,.53.03.86.09v7.59c-1.05-.53-2.19-.79-3.42-.79-1.84,0-3.22.55-4.15,1.65-.92,1.1-1.38,2.7-1.38,4.8v9.65h-7.94v-22.51Z"/>
      <path class="cls-1" d="M970.59,161.93h7.99v22.51h-7.99v-2.5c-1.7,2.14-3.99,3.2-6.89,3.2-1.64,0-3.14-.3-4.52-.9-1.38-.6-2.57-1.44-3.6-2.52-1.02-1.08-1.82-2.35-2.39-3.82-.57-1.46-.86-3.06-.86-4.78,0-1.61.28-3.14.83-4.59.56-1.45,1.33-2.71,2.33-3.8.99-1.08,2.18-1.94,3.55-2.57,1.38-.63,2.9-.94,4.56-.94,2.81,0,5.13.98,6.98,2.94v-2.24ZM960.58,173.12c0,.73.13,1.41.39,2.04.26.63.62,1.18,1.08,1.65.45.47.99.83,1.62,1.1.63.26,1.31.4,2.04.4s1.37-.13,2-.4,1.17-.63,1.62-1.1c.45-.47.82-1.01,1.1-1.62s.42-1.27.42-1.97-.14-1.37-.42-2c-.28-.63-.64-1.18-1.1-1.65-.45-.47-1-.83-1.62-1.1-.63-.26-1.29-.39-2-.39s-1.41.13-2.04.39c-.63.26-1.17.63-1.62,1.1-.45.47-.81,1-1.08,1.6-.26.6-.39,1.25-.39,1.95Z"/>
    </g>
  </g>
</svg>