<?xml version="1.0" encoding="UTF-8"?>
<svg id="Capa_2" data-name="Capa 2" xmlns="http://www.w3.org/2000/svg" viewBox="0 0 795.42 152.86">
  <defs>
    <style>
      .cls-1 {
        fill: #ad4a20;
      }

      .cls-1, .cls-2 {
        stroke-width: 0px;
      }

      .cls-2 {
        fill: #000;
      }
    </style>
  </defs>
  <g id="Capa_1-2" data-name="Capa 1">
    <g>
      <path class="cls-1" d="M0,3.36c3.95,0,7.64,0,11.33,0,8.88,0,17.77.02,26.65-.03,1,0,1.57.32,2.15,1.12,9.44,13.06,18.92,26.1,28.4,39.14.7.96,1.48,1.85,2.2,2.79.61.8,1.07.76,1.66-.09,2.36-3.33,4.78-6.63,7.18-9.93,7.71-10.63,15.43-21.26,23.12-31.91.61-.84,1.27-1.13,2.29-1.12,11.92.03,23.84.02,35.76.03.5,0,1.19-.28,1.45.29.22.49-.27.94-.57,1.37-16.09,22.4-32.18,44.81-48.27,67.22-2.2,3.06-2.13,3.58.17,6.51,3.82,4.87,7.57,9.81,11.4,14.68.84,1.07.22,2.13.14,3.14-.31,3.79-.81,7.56-1.22,11.34-.7,6.56-1.4,13.13-2.07,19.7-.57,5.58-1.1,11.16-1.66,16.74-.04.45.11,1.08-.5,1.22-.6.14-.57-.56-.83-.87-2.6-3.13-4.74-6.6-7.05-9.93-3.46-5-6.8-10.08-10.2-15.13-2.72-4.03-5.44-8.06-8.17-12.08-.1-.14-.24-.26-.35-.39-1.63-1.9-2.04-1.87-3.44.2-3.7,5.49-7.43,10.96-11.13,16.46-3.51,5.21-6.95,10.47-10.5,15.65-1.47,2.14-2.98,4.28-4.87,6.2-.83-1.38-.55-2.88-.71-4.26-.73-6.36-1.28-12.74-1.94-19.1-.48-4.57-1.06-9.13-1.55-13.7-.48-4.57-.88-9.14-1.36-13.71-.08-.73.16-1.24.58-1.79,4.3-5.56,8.56-11.15,12.9-16.68.65-.83.47-1.32-.04-2.03-8.57-11.9-17.13-23.81-25.68-35.72C17.25,27.49,9.21,16.28,1.17,5.08c-.35-.49-.68-1-1.17-1.72Z"/>
      <path class="cls-1" d="M.7,21.15c-.22-2.43-.43-4.87-.68-7.63,1.46,1.31,2.25,2.71,3.2,3.97,8.23,10.95,16.42,21.92,24.65,32.87.98,1.3.65,2.79.82,4.19.7,5.88,1.28,11.77,1.89,17.66.46,4.49.9,8.99,1.36,13.48.42,4.1.89,8.19,1.3,12.29.47,4.72.88,9.44,1.36,14.15.57,5.68,1.2,11.35,1.78,17.02.55,5.36,1.06,10.73,1.58,16.1-.54.17-.74-.28-1-.51-9.07-8.23-18.13-16.48-27.21-24.71-.59-.53-.79-1.14-.85-1.84-.3-3.46-.57-6.92-.87-10.37-.41-4.68-.85-9.35-1.25-14.03-.31-3.67-.56-7.35-.87-11.03-.39-4.73-.82-9.45-1.22-14.17-.39-4.59-.77-9.19-1.16-13.79-.4-4.68-.8-9.36-1.19-14.05-.41-5.03-.81-10.07-1.21-15.1-.01-1.4-.02-2.81-.04-4.22,0-.26.04-.6-.39-.29Z"/>
      <path class="cls-1" d="M113.07,64.85c.42-4.28.85-8.55,1.27-12.83.07-.67.31-1.24.72-1.8,8.89-11.88,17.77-23.77,26.66-35.65.19-.25.3-.65.85-.65.22,1.88-.19,3.72-.33,5.57-.38,4.9-.79,9.8-1.21,14.7-.47,5.51-.97,11.02-1.44,16.53-.41,4.86-.79,9.71-1.21,14.57-.46,5.47-.96,10.93-1.42,16.4-.42,5.07-.81,10.15-1.22,15.23-.27,3.28-.56,6.56-.85,9.83-.33,3.71-.72,7.42-.96,11.14-.07,1.02-.45,1.73-1.15,2.35-3.53,3.12-7.02,6.29-10.5,9.46-3.49,3.19-7.03,6.33-10.47,9.59-2.16,2.05-4.41,4.01-6.75,6.13-.38-1.47.04-2.75.16-4,.5-5.46,1.1-10.91,1.65-16.37.51-5.02.99-10.04,1.5-15.06.49-4.71,1.02-9.42,1.51-14.13.49-4.71.95-9.43,1.43-14.15.06-.57.16-1.13.25-1.69.36-.13.4-.42.41-.74.07-1.79.31-3.57.42-5.33.2-3.04.98-6.04.69-9.1Z"/>
    </g>
    <g>
      <path class="cls-2" d="M170.04,65.73L182.91,0l20.98,47.51L225.63,0l11.56,65.73h-9.46l-5.9-36.9-18.09,39.71-17.58-39.75-6.57,36.94h-9.54Z"/>
      <path class="cls-2" d="M283.56,48.54h-27.64c.24,3.17,1.27,5.69,3.09,7.56,1.82,1.85,4.16,2.77,7.01,2.77,2.22,0,4.05-.53,5.5-1.58,1.43-1.06,3.05-3.01,4.87-5.86l7.52,4.2c-1.16,1.98-2.39,3.68-3.68,5.09-1.29,1.41-2.68,2.57-4.16,3.48-1.48.91-3.08,1.58-4.79,2-1.72.42-3.58.63-5.58.63-5.75,0-10.37-1.85-13.86-5.54-3.48-3.72-5.23-8.66-5.23-14.81s1.69-11.03,5.07-14.81c3.41-3.72,7.92-5.58,13.54-5.58s10.16,1.81,13.46,5.42c3.27,3.59,4.91,8.57,4.91,14.93l-.04,2.1ZM274.41,41.26c-1.24-4.75-4.24-7.13-8.99-7.13-1.08,0-2.1.17-3.05.5s-1.82.81-2.59,1.43c-.78.62-1.45,1.37-2,2.24s-.98,1.86-1.27,2.97h17.9Z"/>
      <path class="cls-2" d="M303.71,44.86l-13.86-17.7h10.61l8.59,11.25,8.75-11.25h10.93l-14.25,17.7,16.51,20.87h-10.61l-11.32-14.41-11.6,14.41h-10.89l17.14-20.87Z"/>
      <path class="cls-2" d="M347.94,4.59v61.13h-9.23V4.59h9.23Z"/>
      <path class="cls-2" d="M371.86,28.51h26.37V4.59h9.23v61.13h-9.23v-28.55h-26.37v28.55h-9.23V4.59h9.23v23.92Z"/>
      <path class="cls-2" d="M467.28,7.88v10.93c-5.33-4.46-10.85-6.69-16.55-6.69-6.28,0-11.58,2.26-15.88,6.77-4.33,4.49-6.49,9.98-6.49,16.47s2.16,11.83,6.49,16.23c4.33,4.41,9.63,6.61,15.92,6.61,3.25,0,6-.53,8.28-1.58,1.27-.53,2.58-1.24,3.94-2.14,1.36-.9,2.79-1.98,4.3-3.25v11.13c-5.28,2.98-10.82,4.47-16.63,4.47-8.74,0-16.19-3.05-22.37-9.15-6.15-6.15-9.23-13.57-9.23-22.25,0-7.79,2.57-14.73,7.72-20.83,6.33-7.47,14.53-11.21,24.59-11.21,5.49,0,10.79,1.49,15.92,4.47Z"/>
      <path class="cls-1" d="M548.11,65.73h-49.22l15.16-15.73c4-4.16,7.14-7.69,9.41-10.58,2.27-2.89,3.96-5.34,5.07-7.34,1.11-2,1.8-3.62,2.07-4.87.27-1.24.41-2.3.41-3.16,0-.92-.15-1.81-.45-2.68-.3-.86-.74-1.63-1.34-2.31-.6-.68-1.31-1.22-2.15-1.62-.84-.41-1.82-.61-2.96-.61-2.16,0-3.85.7-5.07,2.11-1.22,1.41-1.82,3.16-1.82,5.27,0,.6.08,1.46.24,2.59h-17.35c0-3.57.58-6.81,1.74-9.73,1.16-2.92,2.8-5.43,4.91-7.54,2.11-2.11,4.61-3.73,7.5-4.87,2.89-1.14,6.07-1.7,9.53-1.7s6.55.54,9.45,1.62c2.89,1.08,5.39,2.59,7.5,4.54,2.11,1.95,3.76,4.26,4.95,6.93,1.19,2.68,1.78,5.58,1.78,8.72,0,3.35-.72,6.45-2.15,9.28-1.43,2.84-3.72,5.74-6.85,8.72l-10.14,9.49h19.79v13.46Z"/>
      <path class="cls-1" d="M553.38,35.08c0-4.87.63-9.29,1.91-13.26,1.27-3.97,3.05-7.37,5.35-10.18,2.3-2.81,5.03-4.99,8.19-6.53,3.16-1.54,6.66-2.31,10.5-2.31s7.27.77,10.46,2.31c3.19,1.54,5.92,3.72,8.19,6.53,2.27,2.81,4.04,6.2,5.31,10.18,1.27,3.97,1.91,8.39,1.91,13.26s-.64,9.28-1.91,13.26c-1.27,3.97-3.04,7.38-5.31,10.22-2.27,2.84-5,5.03-8.19,6.57-3.19,1.54-6.68,2.31-10.46,2.31s-7.34-.77-10.5-2.31c-3.16-1.54-5.89-3.73-8.19-6.57-2.3-2.84-4.08-6.24-5.35-10.22-1.27-3.97-1.91-8.39-1.91-13.26ZM569.11,35.08c0,2.7.24,5.16.73,7.38.49,2.22,1.18,4.14,2.07,5.76.89,1.62,1.96,2.88,3.2,3.77,1.24.89,2.65,1.34,4.22,1.34s2.91-.45,4.18-1.34c1.27-.89,2.34-2.15,3.2-3.77.86-1.62,1.54-3.54,2.03-5.76.49-2.22.73-4.68.73-7.38s-.24-5.09-.73-7.34c-.49-2.24-1.16-4.16-2.03-5.76-.87-1.59-1.93-2.84-3.2-3.73-1.27-.89-2.66-1.34-4.18-1.34s-2.97.45-4.22,1.34c-1.24.89-2.31,2.14-3.2,3.73-.89,1.6-1.58,3.51-2.07,5.76-.49,2.24-.73,4.69-.73,7.34Z"/>
      <path class="cls-1" d="M658.39,65.73h-49.22l15.16-15.73c4-4.16,7.14-7.69,9.41-10.58,2.27-2.89,3.96-5.34,5.07-7.34,1.11-2,1.8-3.62,2.07-4.87.27-1.24.41-2.3.41-3.16,0-.92-.15-1.81-.45-2.68-.3-.86-.74-1.63-1.34-2.31-.6-.68-1.31-1.22-2.15-1.62-.84-.41-1.82-.61-2.96-.61-2.16,0-3.85.7-5.07,2.11-1.22,1.41-1.82,3.16-1.82,5.27,0,.6.08,1.46.24,2.59h-17.35c0-3.57.58-6.81,1.74-9.73,1.16-2.92,2.8-5.43,4.91-7.54,2.11-2.11,4.61-3.73,7.5-4.87,2.89-1.14,6.07-1.7,9.53-1.7s6.55.54,9.45,1.62c2.89,1.08,5.39,2.59,7.5,4.54,2.11,1.95,3.76,4.26,4.95,6.93,1.19,2.68,1.78,5.58,1.78,8.72,0,3.35-.72,6.45-2.15,9.28-1.43,2.84-3.72,5.74-6.85,8.72l-10.14,9.49h19.79v13.46Z"/>
      <path class="cls-1" d="M708.83,40.99h7.38v12.16h-7.38v12.57h-14.76v-12.57h-29.52v-10.22l23.35-38.36h20.92v36.41ZM694.07,40.99v-24.08l-14.03,24.08h14.03Z"/>
    </g>
    <g>
      <path class="cls-1" d="M177.06,92.28v20.16h-6.72v-20.16h-5.52v-5.69h17.76v5.69h-5.52Z"/>
      <path class="cls-1" d="M189.4,104.69c0,2.67,1.26,4.01,3.77,4.01,1.35,0,2.37-.55,3.05-1.65h6c-1.21,4.02-4.24,6.03-9.08,6.03-1.49,0-2.84-.22-4.08-.67s-2.29-1.08-3.17-1.9c-.88-.82-1.56-1.81-2.04-2.95-.48-1.14-.72-2.42-.72-3.84s.23-2.78.69-3.96c.46-1.18,1.11-2.18,1.95-3,.85-.82,1.87-1.46,3.07-1.9,1.2-.45,2.55-.67,4.06-.67s2.82.22,4.01.67c1.19.45,2.19,1.09,3.02,1.94.82.85,1.45,1.88,1.89,3.1.43,1.22.65,2.6.65,4.13v.65h-13.06ZM196.67,101.09c-.21-.87-.63-1.56-1.27-2.09-.64-.53-1.42-.79-2.33-.79-.96,0-1.74.25-2.35.75-.61.5-.99,1.21-1.15,2.12h7.1Z"/>
      <path class="cls-1" d="M205.99,94.85h6.21v2.23c.84-1.03,1.7-1.72,2.57-2.07.87-.35,1.88-.53,3.05-.53,1.23,0,2.29.2,3.17.6.88.4,1.63.97,2.25,1.7.5.59.84,1.26,1.03,1.99.18.73.27,1.57.27,2.5v11.18h-6.21v-8.88c0-.87-.06-1.57-.19-2.11-.13-.54-.35-.96-.67-1.29-.27-.27-.58-.47-.93-.58-.34-.11-.71-.17-1.1-.17-1.05,0-1.86.31-2.42.94-.56.63-.84,1.53-.84,2.69v9.39h-6.21v-17.59Z"/>
      <path class="cls-1" d="M235.68,100.03v12.41h-6.21v-12.41h-2.06v-5.18h2.06v-5.28h6.21v5.28h3.53v5.18h-3.53Z"/>
      <path class="cls-1" d="M242.33,83.99h6.21v13.09c.84-1.03,1.7-1.72,2.57-2.07.87-.35,1.88-.53,3.05-.53,2.22,0,3.89.61,5.02,1.83,1.13,1.22,1.7,2.87,1.7,4.95v11.18h-6.21v-8.88c0-.89-.07-1.61-.21-2.16-.14-.55-.37-.97-.69-1.27-.55-.48-1.21-.72-1.99-.72-1.05,0-1.86.31-2.42.94-.56.63-.84,1.53-.84,2.69v9.39h-6.21v-28.45Z"/>
      <path class="cls-2" d="M275.73,112.44l5.44-27.79,8.87,20.09,9.19-20.09,4.89,27.79h-4l-2.49-15.6-7.65,16.79-7.43-16.81-2.78,15.62h-4.03Z"/>
      <path class="cls-2" d="M323.72,105.17h-11.68c.1,1.34.54,2.4,1.31,3.2.77.78,1.76,1.17,2.96,1.17.94,0,1.71-.22,2.33-.67.6-.45,1.29-1.27,2.06-2.48l3.18,1.77c-.49.84-1.01,1.55-1.56,2.15-.55.6-1.13,1.09-1.76,1.47-.62.39-1.3.67-2.02.85-.73.18-1.51.27-2.36.27-2.43,0-4.39-.78-5.86-2.34-1.47-1.57-2.21-3.66-2.21-6.26s.71-4.66,2.14-6.26c1.44-1.57,3.35-2.36,5.72-2.36s4.3.76,5.69,2.29c1.38,1.52,2.08,3.62,2.08,6.31l-.02.89ZM319.86,102.09c-.53-2.01-1.79-3.01-3.8-3.01-.46,0-.89.07-1.29.21-.4.14-.77.34-1.1.6-.33.26-.61.58-.84.95s-.41.79-.54,1.26h7.57Z"/>
      <path class="cls-2" d="M332.24,103.62l-5.86-7.48h4.49l3.63,4.75,3.7-4.75h4.62l-6.03,7.48,6.98,8.82h-4.49l-4.79-6.09-4.9,6.09h-4.6l7.25-8.82Z"/>
      <path class="cls-2" d="M345.75,89.36c0-.66.24-1.23.72-1.71.48-.48,1.05-.72,1.72-.72s1.26.24,1.74.72c.48.47.72,1.04.72,1.72s-.24,1.26-.72,1.74c-.47.48-1.04.72-1.72.72s-1.26-.24-1.74-.72c-.48-.48-.72-1.07-.72-1.76ZM350.08,96.14v16.3h-3.77v-16.3h3.77Z"/>
      <path class="cls-2" d="M367.54,96.84v5c-.86-1.05-1.63-1.77-2.31-2.16-.67-.4-1.46-.6-2.36-.6-1.42,0-2.59.5-3.53,1.49s-1.41,2.24-1.41,3.73.45,2.78,1.36,3.77c.92.98,2.08,1.47,3.5,1.47.9,0,1.7-.2,2.39-.59.67-.38,1.46-1.12,2.36-2.21v4.97c-1.53.79-3.06,1.19-4.59,1.19-2.52,0-4.63-.81-6.33-2.44-1.7-1.64-2.54-3.68-2.54-6.11s.86-4.49,2.58-6.16c1.72-1.67,3.83-2.51,6.33-2.51,1.61,0,3.12.39,4.55,1.15Z"/>
      <path class="cls-2" d="M383.21,96.14h3.78v16.3h-3.78v-1.71c-1.55,1.45-3.22,2.18-5,2.18-2.25,0-4.12-.81-5.59-2.44-1.46-1.66-2.19-3.74-2.19-6.23s.73-4.48,2.19-6.11c1.46-1.63,3.29-2.44,5.49-2.44,1.9,0,3.6.78,5.1,2.34v-1.89ZM374.27,104.24c0,1.56.42,2.83,1.25,3.82.86.99,1.94,1.49,3.25,1.49,1.39,0,2.52-.48,3.38-1.44.86-.99,1.29-2.25,1.29-3.78s-.43-2.79-1.29-3.78c-.86-.97-1.97-1.46-3.35-1.46-1.29,0-2.38.49-3.25,1.47-.86.99-1.29,2.22-1.29,3.68Z"/>
      <path class="cls-2" d="M391.75,96.14h3.78v1.51c1.32-1.31,2.8-1.96,4.45-1.96,1.9,0,3.38.6,4.44,1.79.91,1.02,1.37,2.67,1.37,4.97v9.99h-3.78v-9.11c0-1.61-.22-2.72-.67-3.33-.44-.62-1.23-.94-2.38-.94-1.25,0-2.14.41-2.66,1.24-.51.81-.77,2.24-.77,4.27v7.87h-3.78v-16.3Z"/>
      <path class="cls-2" d="M425.74,86.6v25.84h-3.9v-25.84h3.9Z"/>
      <path class="cls-2" d="M431.23,96.14h3.78v1.51c1.32-1.31,2.8-1.96,4.45-1.96,1.9,0,3.38.6,4.44,1.79.91,1.02,1.37,2.67,1.37,4.97v9.99h-3.78v-9.11c0-1.61-.22-2.72-.67-3.33-.44-.62-1.23-.94-2.38-.94-1.25,0-2.14.41-2.66,1.24-.51.81-.77,2.24-.77,4.27v7.87h-3.78v-16.3Z"/>
      <path class="cls-2" d="M453.91,99.65v12.79h-3.77v-12.79h-1.61v-3.51h1.61v-5.98h3.77v5.98h2.93v3.51h-2.93Z"/>
      <path class="cls-2" d="M474.55,105.17h-11.68c.1,1.34.54,2.4,1.31,3.2.77.78,1.76,1.17,2.96,1.17.94,0,1.71-.22,2.33-.67.6-.45,1.29-1.27,2.06-2.48l3.18,1.77c-.49.84-1.01,1.55-1.56,2.15-.55.6-1.13,1.09-1.76,1.47-.62.39-1.3.67-2.02.85-.73.18-1.51.27-2.36.27-2.43,0-4.39-.78-5.86-2.34-1.47-1.57-2.21-3.66-2.21-6.26s.71-4.66,2.14-6.26c1.44-1.57,3.35-2.36,5.72-2.36s4.3.76,5.69,2.29c1.38,1.52,2.08,3.62,2.08,6.31l-.02.89ZM470.68,102.09c-.53-2.01-1.79-3.01-3.8-3.01-.46,0-.89.07-1.29.21-.4.14-.77.34-1.1.6-.33.26-.61.58-.84.95s-.41.79-.54,1.26h7.57Z"/>
      <path class="cls-2" d="M478.67,96.14h3.77v1.46c.69-.73,1.31-1.22,1.84-1.49.55-.28,1.19-.42,1.94-.42.99,0,2.03.32,3.11.97l-1.72,3.45c-.71-.51-1.41-.77-2.09-.77-2.05,0-3.08,1.55-3.08,4.65v8.45h-3.77v-16.3Z"/>
      <path class="cls-2" d="M492.01,96.14h3.78v1.51c1.32-1.31,2.8-1.96,4.45-1.96,1.9,0,3.38.6,4.44,1.79.91,1.02,1.37,2.67,1.37,4.97v9.99h-3.78v-9.11c0-1.61-.22-2.72-.67-3.33-.44-.62-1.23-.94-2.38-.94-1.25,0-2.14.41-2.66,1.24-.51.81-.77,2.24-.77,4.27v7.87h-3.78v-16.3Z"/>
      <path class="cls-2" d="M522.82,96.14h3.78v16.3h-3.78v-1.71c-1.55,1.45-3.22,2.18-5,2.18-2.25,0-4.12-.81-5.59-2.44-1.46-1.66-2.19-3.74-2.19-6.23s.73-4.48,2.19-6.11c1.46-1.63,3.29-2.44,5.49-2.44,1.9,0,3.6.78,5.1,2.34v-1.89ZM513.88,104.24c0,1.56.42,2.83,1.25,3.82.86.99,1.94,1.49,3.25,1.49,1.39,0,2.52-.48,3.38-1.44.86-.99,1.29-2.25,1.29-3.78s-.43-2.79-1.29-3.78c-.86-.97-1.97-1.46-3.35-1.46-1.29,0-2.38.49-3.25,1.47-.86.99-1.29,2.22-1.29,3.68Z"/>
      <path class="cls-2" d="M535.24,99.65v12.79h-3.77v-12.79h-1.61v-3.51h1.61v-5.98h3.77v5.98h2.93v3.51h-2.93Z"/>
      <path class="cls-2" d="M540.16,89.36c0-.66.24-1.23.72-1.71.48-.48,1.05-.72,1.72-.72s1.26.24,1.74.72c.48.47.72,1.04.72,1.72s-.24,1.26-.72,1.74c-.47.48-1.04.72-1.72.72s-1.26-.24-1.74-.72c-.48-.48-.72-1.07-.72-1.76ZM544.5,96.14v16.3h-3.77v-16.3h3.77Z"/>
      <path class="cls-2" d="M548.5,104.17c0-2.35.84-4.36,2.53-6.01,1.68-1.65,3.74-2.48,6.16-2.48s4.5.83,6.19,2.49c1.67,1.66,2.51,3.7,2.51,6.13s-.84,4.49-2.53,6.14c-1.7,1.64-3.78,2.46-6.24,2.46s-4.49-.84-6.14-2.51c-1.65-1.65-2.48-3.73-2.48-6.23ZM552.35,104.24c0,1.63.43,2.92,1.3,3.87.89.96,2.07,1.44,3.53,1.44s2.65-.47,3.53-1.42c.88-.95,1.32-2.21,1.32-3.8s-.44-2.85-1.32-3.8c-.89-.96-2.07-1.44-3.53-1.44s-2.61.48-3.5,1.44c-.89.96-1.34,2.2-1.34,3.72Z"/>
      <path class="cls-2" d="M569.87,96.14h3.78v1.51c1.32-1.31,2.8-1.96,4.45-1.96,1.9,0,3.38.6,4.44,1.79.91,1.02,1.37,2.67,1.37,4.97v9.99h-3.78v-9.11c0-1.61-.22-2.72-.67-3.33-.44-.62-1.23-.94-2.38-.94-1.25,0-2.14.41-2.66,1.24-.51.81-.77,2.24-.77,4.27v7.87h-3.78v-16.3Z"/>
      <path class="cls-2" d="M600.69,96.14h3.78v16.3h-3.78v-1.71c-1.55,1.45-3.22,2.18-5,2.18-2.25,0-4.12-.81-5.59-2.44-1.46-1.66-2.19-3.74-2.19-6.23s.73-4.48,2.19-6.11c1.46-1.63,3.29-2.44,5.49-2.44,1.9,0,3.6.78,5.1,2.34v-1.89ZM591.75,104.24c0,1.56.42,2.83,1.25,3.82.86.99,1.94,1.49,3.25,1.49,1.39,0,2.52-.48,3.38-1.44.86-.99,1.29-2.25,1.29-3.78s-.43-2.79-1.29-3.78c-.86-.97-1.97-1.46-3.35-1.46-1.29,0-2.38.49-3.25,1.47-.86.99-1.29,2.22-1.29,3.68Z"/>
      <path class="cls-2" d="M612.99,84.17v28.27h-3.77v-28.27h3.77Z"/>
      <path class="cls-2" d="M641.03,96.84v5c-.86-1.05-1.63-1.77-2.31-2.16-.67-.4-1.46-.6-2.36-.6-1.42,0-2.59.5-3.53,1.49s-1.41,2.24-1.41,3.73.45,2.78,1.36,3.77c.92.98,2.08,1.47,3.5,1.47.9,0,1.7-.2,2.39-.59.67-.38,1.46-1.12,2.36-2.21v4.97c-1.53.79-3.06,1.19-4.59,1.19-2.52,0-4.63-.81-6.33-2.44-1.7-1.64-2.54-3.68-2.54-6.11s.86-4.49,2.58-6.16c1.72-1.67,3.83-2.51,6.33-2.51,1.61,0,3.12.39,4.55,1.15Z"/>
      <path class="cls-2" d="M643.9,104.17c0-2.35.84-4.36,2.53-6.01,1.68-1.65,3.74-2.48,6.16-2.48s4.5.83,6.19,2.49c1.67,1.66,2.51,3.7,2.51,6.13s-.84,4.49-2.53,6.14c-1.7,1.64-3.78,2.46-6.24,2.46s-4.49-.84-6.14-2.51c-1.65-1.65-2.48-3.73-2.48-6.23ZM647.75,104.24c0,1.63.43,2.92,1.3,3.87.89.96,2.07,1.44,3.53,1.44s2.65-.47,3.53-1.42c.88-.95,1.32-2.21,1.32-3.8s-.44-2.85-1.32-3.8c-.89-.96-2.07-1.44-3.53-1.44s-2.61.48-3.5,1.44c-.89.96-1.34,2.2-1.34,3.72Z"/>
      <path class="cls-2" d="M665.28,96.14h3.78v1.51c1.32-1.31,2.8-1.96,4.45-1.96,1.9,0,3.38.6,4.44,1.79.91,1.02,1.37,2.67,1.37,4.97v9.99h-3.78v-9.11c0-1.61-.22-2.72-.67-3.33-.44-.62-1.23-.94-2.38-.94-1.25,0-2.14.41-2.66,1.24-.51.81-.77,2.24-.77,4.27v7.87h-3.78v-16.3Z"/>
      <path class="cls-2" d="M687.97,99.65v12.79h-3.78v-12.79h-1.34v-3.51h1.34v-6.29c0-2.05.36-3.5,1.07-4.35.98-1.18,2.41-1.77,4.29-1.77.67,0,1.51.2,2.53.59v3.85l-.39-.2c-.81-.41-1.48-.62-2.01-.62-.67,0-1.12.24-1.36.72-.23.47-.35,1.37-.35,2.71v5.37h4.1v3.51h-4.1Z"/>
      <path class="cls-2" d="M709.62,105.17h-11.68c.1,1.34.54,2.4,1.31,3.2.77.78,1.76,1.17,2.96,1.17.94,0,1.71-.22,2.33-.67.6-.45,1.29-1.27,2.06-2.48l3.18,1.77c-.49.84-1.01,1.55-1.56,2.15-.55.6-1.13,1.09-1.76,1.47-.62.39-1.3.67-2.02.85-.73.18-1.51.27-2.36.27-2.43,0-4.39-.78-5.86-2.34-1.47-1.57-2.21-3.66-2.21-6.26s.71-4.66,2.14-6.26c1.44-1.57,3.35-2.36,5.72-2.36s4.3.76,5.69,2.29c1.38,1.52,2.08,3.62,2.08,6.31l-.02.89ZM705.75,102.09c-.53-2.01-1.79-3.01-3.8-3.01-.46,0-.89.07-1.29.21-.4.14-.77.34-1.1.6-.33.26-.61.58-.84.95s-.41.79-.54,1.26h7.57Z"/>
      <path class="cls-2" d="M713.74,96.14h3.77v1.46c.69-.73,1.31-1.22,1.84-1.49.55-.28,1.19-.42,1.94-.42.99,0,2.03.32,3.11.97l-1.72,3.45c-.71-.51-1.41-.77-2.09-.77-2.05,0-3.08,1.55-3.08,4.65v8.45h-3.77v-16.3Z"/>
      <path class="cls-2" d="M741.17,105.17h-11.68c.1,1.34.54,2.4,1.31,3.2.77.78,1.76,1.17,2.96,1.17.94,0,1.71-.22,2.33-.67.6-.45,1.29-1.27,2.06-2.48l3.18,1.77c-.49.84-1.01,1.55-1.56,2.15-.55.6-1.13,1.09-1.76,1.47-.62.39-1.3.67-2.02.85-.73.18-1.51.27-2.36.27-2.43,0-4.39-.78-5.86-2.34-1.47-1.57-2.21-3.66-2.21-6.26s.71-4.66,2.14-6.26c1.44-1.57,3.35-2.36,5.72-2.36s4.3.76,5.69,2.29c1.38,1.52,2.08,3.62,2.08,6.31l-.02.89ZM737.3,102.09c-.53-2.01-1.79-3.01-3.8-3.01-.46,0-.89.07-1.29.21-.4.14-.77.34-1.1.6-.33.26-.61.58-.84.95s-.41.79-.54,1.26h7.57Z"/>
      <path class="cls-2" d="M745.29,96.14h3.78v1.51c1.32-1.31,2.8-1.96,4.45-1.96,1.9,0,3.38.6,4.44,1.79.91,1.02,1.37,2.67,1.37,4.97v9.99h-3.78v-9.11c0-1.61-.22-2.72-.67-3.33-.44-.62-1.23-.94-2.38-.94-1.25,0-2.14.41-2.66,1.24-.51.81-.77,2.24-.77,4.27v7.87h-3.78v-16.3Z"/>
      <path class="cls-2" d="M776.77,96.84v5c-.86-1.05-1.63-1.77-2.31-2.16-.67-.4-1.46-.6-2.36-.6-1.42,0-2.59.5-3.53,1.49s-1.41,2.24-1.41,3.73.45,2.78,1.36,3.77c.92.98,2.08,1.47,3.5,1.47.9,0,1.7-.2,2.39-.59.67-.38,1.46-1.12,2.36-2.21v4.97c-1.53.79-3.06,1.19-4.59,1.19-2.52,0-4.63-.81-6.33-2.44-1.7-1.64-2.54-3.68-2.54-6.11s.86-4.49,2.58-6.16c1.72-1.67,3.83-2.51,6.33-2.51,1.61,0,3.12.39,4.55,1.15Z"/>
      <path class="cls-2" d="M795.27,105.17h-11.68c.1,1.34.54,2.4,1.31,3.2.77.78,1.76,1.17,2.96,1.17.94,0,1.71-.22,2.33-.67.6-.45,1.29-1.27,2.06-2.48l3.18,1.77c-.49.84-1.01,1.55-1.56,2.15-.55.6-1.13,1.09-1.76,1.47-.62.39-1.3.67-2.02.85-.73.18-1.51.27-2.36.27-2.43,0-4.39-.78-5.86-2.34-1.47-1.57-2.21-3.66-2.21-6.26s.71-4.66,2.14-6.26c1.44-1.57,3.35-2.36,5.72-2.36s4.3.76,5.69,2.29c1.38,1.52,2.08,3.62,2.08,6.31l-.02.89ZM791.4,102.09c-.53-2.01-1.79-3.01-3.8-3.01-.46,0-.89.07-1.29.21-.4.14-.77.34-1.1.6-.33.26-.61.58-.84.95s-.41.79-.54,1.26h7.57Z"/>
      <path class="cls-2" d="M166.15,135.82c0-2.35.84-4.36,2.53-6.01,1.68-1.65,3.74-2.48,6.16-2.48s4.5.83,6.19,2.49c1.67,1.66,2.51,3.7,2.51,6.13s-.84,4.49-2.53,6.14c-1.7,1.64-3.78,2.46-6.24,2.46s-4.49-.84-6.14-2.51c-1.65-1.65-2.48-3.73-2.48-6.23ZM170,135.88c0,1.63.43,2.92,1.3,3.87.89.96,2.07,1.44,3.53,1.44s2.65-.47,3.53-1.42c.88-.95,1.32-2.21,1.32-3.8s-.44-2.85-1.32-3.8c-.89-.96-2.07-1.44-3.53-1.44s-2.61.48-3.5,1.44c-.89.96-1.34,2.2-1.34,3.72Z"/>
      <path class="cls-2" d="M187.53,127.78h3.78v1.51c1.32-1.31,2.8-1.96,4.45-1.96,1.9,0,3.38.6,4.44,1.79.91,1.02,1.37,2.67,1.37,4.97v9.99h-3.78v-9.11c0-1.61-.22-2.72-.67-3.33-.44-.62-1.23-.94-2.38-.94-1.25,0-2.14.41-2.66,1.24-.51.81-.77,2.24-.77,4.27v7.87h-3.78v-16.3Z"/>
      <path class="cls-1" d="M223.95,128.21h9.7v-9.98h6.72v25.85h-6.72v-10.66h-9.7v10.66h-6.72v-25.85h6.72v9.98Z"/>
      <path class="cls-1" d="M251.41,126.5v9.91c0,2.17,1.05,3.26,3.15,3.26s3.15-1.09,3.15-3.26v-9.91h6.2v11.11c0,2.38-.78,4.16-2.35,5.35-1.57,1.19-3.9,1.78-7.01,1.78s-5.45-.59-7.01-1.78c-1.57-1.19-2.35-2.97-2.35-5.35v-11.11h6.21Z"/>
      <path class="cls-1" d="M268.14,126.5h6.21v2.16c1.69-1.62,3.59-2.43,5.69-2.43,2.61,0,4.59,1.1,5.96,3.29,1.39-2.22,3.38-3.33,5.96-3.33.82,0,1.6.12,2.33.36.73.24,1.36.62,1.89,1.13.53.51.94,1.18,1.25,2.01s.46,1.82.46,2.98v11.42h-6.2v-8.67c0-.89-.06-1.62-.19-2.19-.13-.57-.31-1.02-.55-1.34-.24-.32-.52-.54-.84-.65-.32-.11-.66-.17-1.03-.17-1.99,0-2.98,1.45-2.98,4.35v8.67h-6.21v-8.67c0-.89-.06-1.63-.17-2.21-.11-.58-.28-1.05-.5-1.39-.22-.34-.5-.58-.84-.7s-.74-.19-1.2-.19c-.39,0-.75.06-1.1.17-.34.11-.65.34-.91.67-.26.33-.47.79-.62,1.37-.15.58-.22,1.34-.22,2.28v8.67h-6.21v-17.59Z"/>
      <path class="cls-1" d="M315.72,126.5h6.24v17.59h-6.24v-1.95c-1.33,1.67-3.12,2.5-5.38,2.5-1.28,0-2.46-.23-3.53-.7s-2.01-1.13-2.81-1.97c-.8-.85-1.42-1.84-1.87-2.98-.45-1.14-.67-2.39-.67-3.74,0-1.26.22-2.45.65-3.58s1.04-2.12,1.82-2.97c.78-.85,1.7-1.51,2.78-2.01,1.07-.49,2.26-.74,3.57-.74,2.19,0,4.01.77,5.45,2.3v-1.75ZM307.9,135.24c0,.57.1,1.1.31,1.59.21.49.49.92.84,1.29.35.37.78.65,1.27.86.49.21,1.02.31,1.59.31s1.07-.1,1.56-.31c.49-.21.91-.49,1.27-.86.35-.37.64-.79.86-1.27.22-.48.33-.99.33-1.54s-.11-1.07-.33-1.56c-.22-.49-.5-.92-.86-1.29-.35-.37-.78-.65-1.27-.86-.49-.21-1.01-.31-1.56-.31s-1.1.1-1.59.31c-.49.21-.91.49-1.27.86-.35.37-.63.78-.84,1.25-.21.47-.31.98-.31,1.53Z"/>
      <path class="cls-1" d="M326.17,126.5h6.21v2.23c.84-1.03,1.7-1.72,2.57-2.07.87-.35,1.88-.53,3.05-.53,1.23,0,2.29.2,3.17.6.88.4,1.63.97,2.25,1.7.5.59.84,1.26,1.03,1.99.18.73.27,1.57.27,2.5v11.18h-6.21v-8.88c0-.87-.06-1.57-.19-2.11-.13-.54-.35-.96-.67-1.29-.27-.27-.58-.47-.93-.58-.34-.11-.71-.17-1.1-.17-1.05,0-1.86.31-2.42.94-.56.63-.84,1.53-.84,2.69v9.39h-6.21v-17.59Z"/>
      <path class="cls-1" d="M346.81,132.33h9.84v5.18h-9.84v-5.18Z"/>
      <path class="cls-1" d="M377.97,126.88c-1.55-1.9-3.47-2.85-5.76-2.85-1.01,0-1.94.18-2.79.55-.86.37-1.59.86-2.21,1.49-.62.63-1.1,1.38-1.46,2.25-.35.87-.53,1.81-.53,2.81s.18,1.98.53,2.85c.35.87.84,1.62,1.47,2.26.63.64,1.37,1.14,2.21,1.51.85.37,1.76.55,2.74.55,2.15,0,4.08-.91,5.79-2.74v7.95l-.69.24c-1.03.37-1.99.63-2.88.81s-1.77.26-2.64.26c-1.78,0-3.49-.34-5.12-1.01s-3.07-1.62-4.32-2.85c-1.25-1.22-2.25-2.67-3-4.35s-1.13-3.51-1.13-5.5.37-3.81,1.11-5.47c.74-1.66,1.74-3.09,2.98-4.29,1.25-1.2,2.69-2.14,4.34-2.81,1.65-.67,3.37-1.01,5.18-1.01,1.03,0,2.04.11,3.03.33.99.22,2.04.55,3.14,1.01v8.02Z"/>
      <path class="cls-1" d="M380.95,135.14c0-1.3.26-2.52.79-3.65.53-1.13,1.26-2.11,2.19-2.95.94-.83,2.05-1.49,3.34-1.97,1.29-.48,2.7-.72,4.23-.72s2.91.23,4.2.7c1.29.47,2.41,1.12,3.36,1.95.95.83,1.68,1.83,2.21,2.98.53,1.15.79,2.43.79,3.82s-.27,2.67-.81,3.82c-.54,1.15-1.27,2.15-2.21,2.98-.94.83-2.06,1.48-3.38,1.94-1.31.46-2.74.69-4.27.69s-2.9-.23-4.18-.69c-1.28-.46-2.38-1.11-3.31-1.95-.93-.85-1.65-1.86-2.18-3.03-.53-1.18-.79-2.49-.79-3.92ZM387.5,135.21c0,.59.11,1.14.33,1.63.22.49.5.92.86,1.29.35.37.78.65,1.27.86.49.21,1.01.31,1.56.31s1.07-.1,1.56-.31c.49-.21.91-.49,1.27-.86.35-.37.64-.79.86-1.29.22-.49.33-1.02.33-1.59s-.11-1.07-.33-1.56c-.22-.49-.5-.92-.86-1.29-.35-.37-.78-.65-1.27-.86-.49-.21-1.01-.31-1.56-.31s-1.07.1-1.56.31c-.49.21-.92.49-1.27.86-.35.37-.64.79-.86,1.27s-.33.99-.33,1.54Z"/>
      <path class="cls-1" d="M405.63,126.5h6.21v2.16c1.69-1.62,3.59-2.43,5.69-2.43,2.61,0,4.59,1.1,5.96,3.29,1.39-2.22,3.38-3.33,5.96-3.33.82,0,1.6.12,2.33.36.73.24,1.36.62,1.89,1.13.53.51.94,1.18,1.25,2.01s.46,1.82.46,2.98v11.42h-6.2v-8.67c0-.89-.06-1.62-.19-2.19-.13-.57-.31-1.02-.55-1.34-.24-.32-.52-.54-.84-.65-.32-.11-.66-.17-1.03-.17-1.99,0-2.98,1.45-2.98,4.35v8.67h-6.21v-8.67c0-.89-.06-1.63-.17-2.21-.11-.58-.28-1.05-.5-1.39-.22-.34-.5-.58-.84-.7s-.74-.19-1.2-.19c-.39,0-.75.06-1.1.17-.34.11-.65.34-.91.67-.26.33-.47.79-.62,1.37-.15.58-.22,1.34-.22,2.28v8.67h-6.21v-17.59Z"/>
      <path class="cls-1" d="M446.46,152.86h-6.21v-26.36h6.21v1.95c1.33-1.67,3.13-2.5,5.42-2.5,1.26,0,2.43.25,3.51.74,1.08.49,2.03,1.16,2.83,2.01.8.85,1.42,1.84,1.87,2.98.45,1.14.67,2.37.67,3.67s-.22,2.51-.67,3.63-1.06,2.1-1.85,2.95c-.79.85-1.72,1.51-2.79,1.99-1.08.48-2.24.72-3.5.72-2.19,0-4.02-.75-5.48-2.26v10.49ZM454.28,135.34c0-.55-.1-1.07-.29-1.56-.19-.49-.47-.92-.84-1.29-.37-.37-.79-.66-1.29-.87s-1.02-.33-1.59-.33-1.06.1-1.54.31c-.48.21-.9.49-1.25.86-.35.37-.64.79-.86,1.29-.22.49-.33,1.01-.33,1.56s.1,1.06.31,1.54c.21.48.49.9.86,1.25.37.35.79.64,1.29.86.49.22,1.01.33,1.56.33s1.06-.1,1.54-.31c.48-.21.9-.49,1.25-.86.35-.37.64-.79.86-1.27.22-.48.33-.98.33-1.51Z"/>
      <path class="cls-1" d="M470.49,126.5v9.91c0,2.17,1.05,3.26,3.15,3.26s3.15-1.09,3.15-3.26v-9.91h6.2v11.11c0,2.38-.78,4.16-2.35,5.35-1.57,1.19-3.9,1.78-7.01,1.78s-5.45-.59-7.01-1.78c-1.57-1.19-2.35-2.97-2.35-5.35v-11.11h6.21Z"/>
      <path class="cls-1" d="M494.14,131.68v12.41h-6.21v-12.41h-2.06v-5.18h2.06v-5.28h6.21v5.28h3.53v5.18h-3.53Z"/>
      <path class="cls-1" d="M505.93,136.34c0,2.67,1.26,4.01,3.77,4.01,1.35,0,2.37-.55,3.05-1.65h6c-1.21,4.02-4.24,6.03-9.08,6.03-1.49,0-2.84-.22-4.08-.67s-2.29-1.08-3.17-1.9c-.88-.82-1.56-1.81-2.04-2.95-.48-1.14-.72-2.42-.72-3.84s.23-2.78.69-3.96c.46-1.18,1.11-2.18,1.95-3,.85-.82,1.87-1.46,3.07-1.9,1.2-.45,2.55-.67,4.06-.67s2.82.22,4.01.67c1.19.45,2.19,1.09,3.02,1.94.82.85,1.45,1.88,1.89,3.1.43,1.22.65,2.6.65,4.13v.65h-13.06ZM513.2,132.74c-.21-.87-.63-1.56-1.27-2.09-.64-.53-1.42-.79-2.33-.79-.96,0-1.74.25-2.35.75-.61.5-.99,1.21-1.15,2.12h7.1Z"/>
      <path class="cls-1" d="M522.52,126.5h6.21v2.88c.66-1.05,1.47-1.86,2.43-2.42.96-.56,2.08-.84,3.36-.84h.53c.19,0,.42.02.67.07v5.93c-.82-.41-1.71-.62-2.67-.62-1.44,0-2.52.43-3.24,1.29-.72.86-1.08,2.11-1.08,3.75v7.54h-6.21v-17.59Z"/>
      <path class="cls-1" d="M557.42,118.24v25.85h-6.72v-25.85h6.72Z"/>
      <path class="cls-1" d="M562.25,126.5h6.21v2.23c.84-1.03,1.7-1.72,2.57-2.07.87-.35,1.88-.53,3.05-.53,1.23,0,2.29.2,3.17.6.88.4,1.63.97,2.25,1.7.5.59.84,1.26,1.03,1.99.18.73.27,1.57.27,2.5v11.18h-6.21v-8.88c0-.87-.06-1.57-.19-2.11-.13-.54-.35-.96-.67-1.29-.27-.27-.58-.47-.93-.58-.34-.11-.71-.17-1.1-.17-1.05,0-1.86.31-2.42.94-.56.63-.84,1.53-.84,2.69v9.39h-6.21v-17.59Z"/>
      <path class="cls-1" d="M591.94,131.68v12.41h-6.21v-12.41h-2.06v-5.18h2.06v-5.28h6.21v5.28h3.53v5.18h-3.53Z"/>
      <path class="cls-1" d="M603.73,136.34c0,2.67,1.26,4.01,3.77,4.01,1.35,0,2.37-.55,3.05-1.65h6c-1.21,4.02-4.24,6.03-9.08,6.03-1.49,0-2.84-.22-4.08-.67s-2.29-1.08-3.17-1.9c-.88-.82-1.56-1.81-2.04-2.95-.48-1.14-.72-2.42-.72-3.84s.23-2.78.69-3.96c.46-1.18,1.11-2.18,1.95-3,.85-.82,1.87-1.46,3.07-1.9,1.2-.45,2.55-.67,4.06-.67s2.82.22,4.01.67c1.19.45,2.19,1.09,3.02,1.94.82.85,1.45,1.88,1.89,3.1.43,1.22.65,2.6.65,4.13v.65h-13.06ZM611,132.74c-.21-.87-.63-1.56-1.27-2.09-.64-.53-1.42-.79-2.33-.79-.96,0-1.74.25-2.35.75-.61.5-.99,1.21-1.15,2.12h7.1Z"/>
      <path class="cls-1" d="M620.32,126.5h6.21v2.88c.66-1.05,1.47-1.86,2.43-2.42.96-.56,2.08-.84,3.36-.84h.53c.19,0,.42.02.67.07v5.93c-.82-.41-1.71-.62-2.67-.62-1.44,0-2.52.43-3.24,1.29-.72.86-1.08,2.11-1.08,3.75v7.54h-6.21v-17.59Z"/>
      <path class="cls-1" d="M650.08,126.5h6.24v17.59h-6.24v-1.95c-1.33,1.67-3.12,2.5-5.38,2.5-1.28,0-2.46-.23-3.53-.7s-2.01-1.13-2.81-1.97c-.8-.85-1.42-1.84-1.87-2.98-.45-1.14-.67-2.39-.67-3.74,0-1.26.22-2.45.65-3.58s1.04-2.12,1.82-2.97c.78-.85,1.7-1.51,2.78-2.01,1.07-.49,2.26-.74,3.57-.74,2.19,0,4.01.77,5.45,2.3v-1.75ZM642.26,135.24c0,.57.1,1.1.31,1.59.21.49.49.92.84,1.29.35.37.78.65,1.27.86.49.21,1.02.31,1.59.31s1.07-.1,1.56-.31c.49-.21.91-.49,1.27-.86.35-.37.64-.79.86-1.27.22-.48.33-.99.33-1.54s-.11-1.07-.33-1.56c-.22-.49-.5-.92-.86-1.29-.35-.37-.78-.65-1.27-.86-.49-.21-1.01-.31-1.56-.31s-1.1.1-1.59.31c-.49.21-.91.49-1.27.86-.35.37-.63.78-.84,1.25-.21.47-.31.98-.31,1.53Z"/>
      <path class="cls-1" d="M673.8,132.19c-1.07-.73-2.16-1.1-3.26-1.1-.59,0-1.15.1-1.66.31-.51.21-.97.5-1.35.87-.39.38-.69.82-.91,1.34-.22.51-.33,1.09-.33,1.73s.11,1.18.33,1.7c.22.51.51.96.89,1.34s.83.67,1.35.87,1.08.31,1.68.31c1.17,0,2.25-.4,3.26-1.2v5.28c-1.53.66-2.98.99-4.35.99-1.28,0-2.5-.22-3.65-.65-1.15-.43-2.17-1.06-3.05-1.87-.88-.81-1.58-1.78-2.11-2.91-.53-1.13-.79-2.39-.79-3.79s.25-2.67.75-3.82c.5-1.15,1.19-2.15,2.06-2.98.87-.83,1.9-1.49,3.1-1.95,1.2-.47,2.49-.7,3.86-.7,1.51,0,2.9.32,4.18.96v5.28Z"/>
      <path class="cls-1" d="M684.25,131.68v12.41h-6.21v-12.41h-2.06v-5.18h2.06v-5.28h6.21v5.28h3.53v5.18h-3.53Z"/>
      <path class="cls-1" d="M690.18,119.75c0-.48.09-.93.27-1.35.18-.42.43-.79.75-1.11.32-.32.69-.57,1.11-.75s.87-.27,1.35-.27.93.09,1.35.27.79.43,1.11.75c.32.32.57.69.75,1.11s.27.87.27,1.35-.09.93-.27,1.35-.43.79-.75,1.11c-.32.32-.69.57-1.11.75-.42.18-.87.27-1.35.27s-.93-.09-1.35-.27c-.42-.18-.79-.43-1.11-.75s-.57-.69-.75-1.11c-.18-.42-.27-.87-.27-1.35ZM696.8,126.5v17.59h-6.21v-17.59h6.21Z"/>
      <path class="cls-1" d="M700.36,135.14c0-1.3.26-2.52.79-3.65.53-1.13,1.26-2.11,2.19-2.95.94-.83,2.05-1.49,3.34-1.97,1.29-.48,2.7-.72,4.23-.72s2.91.23,4.2.7c1.29.47,2.41,1.12,3.36,1.95.95.83,1.68,1.83,2.21,2.98.53,1.15.79,2.43.79,3.82s-.27,2.67-.81,3.82c-.54,1.15-1.27,2.15-2.21,2.98-.94.83-2.06,1.48-3.38,1.94-1.31.46-2.74.69-4.27.69s-2.9-.23-4.18-.69c-1.28-.46-2.38-1.11-3.31-1.95-.93-.85-1.65-1.86-2.18-3.03-.53-1.18-.79-2.49-.79-3.92ZM706.91,135.21c0,.59.11,1.14.33,1.63.22.49.5.92.86,1.29.35.37.78.65,1.27.86.49.21,1.01.31,1.56.31s1.07-.1,1.56-.31c.49-.21.91-.49,1.27-.86.35-.37.64-.79.86-1.29.22-.49.33-1.02.33-1.59s-.11-1.07-.33-1.56c-.22-.49-.5-.92-.86-1.29-.35-.37-.78-.65-1.27-.86-.49-.21-1.01-.31-1.56-.31s-1.07.1-1.56.31c-.49.21-.92.49-1.27.86-.35.37-.64.79-.86,1.27s-.33.99-.33,1.54Z"/>
      <path class="cls-1" d="M725.04,126.5h6.21v2.23c.84-1.03,1.7-1.72,2.57-2.07.87-.35,1.88-.53,3.05-.53,1.23,0,2.29.2,3.17.6.88.4,1.63.97,2.25,1.7.5.59.84,1.26,1.03,1.99.18.73.27,1.57.27,2.5v11.18h-6.21v-8.88c0-.87-.06-1.57-.19-2.11-.13-.54-.35-.96-.67-1.29-.27-.27-.58-.47-.93-.58-.34-.11-.71-.17-1.1-.17-1.05,0-1.86.31-2.42.94-.56.63-.84,1.53-.84,2.69v9.39h-6.21v-17.59Z"/>
    </g>
  </g>
</svg>